<?xml version="1.0" encoding="utf-8"?>
<!-- Generator: Adobe Illustrator 17.0.0, SVG Export Plug-In . SVG Version: 6.00 Build 0)  -->
<!DOCTYPE svg PUBLIC "-//W3C//DTD SVG 1.1//EN" "http://www.w3.org/Graphics/SVG/1.1/DTD/svg11.dtd">
<svg version="1.1" id="Layer_1" xmlns="http://www.w3.org/2000/svg" xmlns:xlink="http://www.w3.org/1999/xlink" x="0px" y="0px"
	 width="386.638px" height="320px" viewBox="-31.319 2 386.638 320" enable-background="new -31.319 2 386.638 320"
	 xml:space="preserve">
<g>
	<path fill="#ABDBD0" d="M331.518,159.254c-13.147,0-23.805,26.723-23.805,59.69c0,32.96,10.658,59.685,23.805,59.685
		c13.142,0,23.801-26.725,23.801-59.685C355.319,185.977,344.66,159.254,331.518,159.254z M332.114,255.185
		c-8.06,0-14.593-15.746-14.593-35.167s6.533-35.165,14.593-35.165c8.059,0,14.594,15.743,14.594,35.165
		S340.173,255.185,332.114,255.185z"/>
	<path fill="#ABDBD0" d="M304.557,219.468c0-36.244,11.718-65.623,26.171-65.623c2.107,0,4.154,0.642,6.116,1.823
		c-10.469-8.709-35.108-4.515-46.498-2.514c-2.139,3.216-3.572,6.079-4.237,7.624c-3.91,9.023-7.063,22.001-7.063,22.001
		l-11.863-0.291l11.689,55.666h-17.909c2.54,25.911,10.809,43.072,25.314,46.94c0,0,30.567,4.944,45.693-0.081
		c-0.414,0.046-0.828,0.081-1.243,0.081C316.273,285.091,304.557,255.707,304.557,219.468z"/>
	<path fill="#ABDBD0" d="M64.393,237.666c0-46.574,34.058-84.332,76.072-84.332c1.812,0,3.605,0.095,5.386,0.234
		c-5.466-1.08-11.117-1.655-16.903-1.655c-47.453,0-85.919,38.074-85.919,85.044c0,46.967,38.467,85.042,85.919,85.042
		c2.052,0,4.08-0.097,6.096-0.238C95.562,318.679,64.393,282.219,64.393,237.666z"/>
	<path fill="#ABDBD0" d="M122.02,149.109c44.188-2.104,67.371,17.402,79.829,34.057l3.027-2.314l4.452-5.008l28.39,7.793
		l10.02,52.325h27.275l-11.689-55.667l11.861,0.291c0,0,3.157-12.974,7.066-22c1.977-4.57,10.576-20.597,24.492-23.378
		c13.917-2.784,26.31,15.218,26.31,15.218l-6.824-19.114l-25.606-9.464l-7.794-42.304l11.689-7.236l-1.114-11.69l-64.57-23.38
		l-82.387,19.483V66.74l13.361,3.341l-8.908,25.608c0,0-23.709-3.198-47.031-1.02c-27.244,2.543-54.707,10.521-54.707,10.521
		l-7.365,14.434l-5.009,66.242l2.983,0.565l5.182-59.414l70.49-6.662L122.02,149.109L122.02,149.109z M65.958,118.276
		c-3.541,0.556-6.775-1.29-7.219-4.123c-0.446-2.835,2.065-5.583,5.606-6.139c3.543-0.556,6.776,1.288,7.22,4.124
		C72.011,114.972,69.5,117.719,65.958,118.276z M107.793,115.428c-4.711,0.741-9.011-1.713-9.603-5.483
		c-0.592-3.77,2.748-7.425,7.458-8.167c4.713-0.741,9.014,1.717,9.604,5.484C115.845,111.034,112.505,114.689,107.793,115.428z
		 M225.388,109.481h-19.989L166.472,98.96l7.715-25.25l57.162-10.17L225.388,109.481z M252.39,181.723l-17.886-0.702l7.015-117.482
		l30.508,9.469l5.612,49.447L252.39,181.723z M282.025,122.017l-6.135-47.956l14.378,7.715l7.015,43.925L282.025,122.017z"/>
	<path fill="#ABDBD0" d="M147.008,91.476V57.053h-6.84V41.534c-0.001-8.57-6.945-15.515-15.517-15.519v6.314
		c5.083,0.008,9.198,4.123,9.206,9.204v15.519h-6.312v33.7C134.962,90.733,141.75,91.082,147.008,91.476z"/>
	<path fill="#ABDBD0" d="M-22.811,227.408c0-33.523,28.628-60.694,63.942-60.694c1.17,0,2.333,0.034,3.487,0.094l0.406-5.338
		c-2.084-0.176-4.193-0.274-6.325-0.274c-38.67-0.001-70.018,29.602-70.018,66.12c0,36.522,31.348,66.125,70.018,66.125
		c6.585,0,12.95-0.877,18.994-2.483c-1.019-1.387-1.98-2.814-2.918-4.26c-4.397,0.909-8.959,1.4-13.642,1.4
		C5.817,288.099-22.811,260.925-22.811,227.408z"/>
	<path fill="#ABDBD0" d="M10.539,226.003c0-18.358,16.222-33.24,36.233-33.24c2.119,0,4.189,0.176,6.207,0.497
		c0.214-0.435,0.437-0.864,0.675-1.295l-10.952-2.055l1.408-18.469c-1.078-0.059-2.159-0.087-3.249-0.087
		c-32.898,0-59.568,25.249-59.568,56.395c0,31.139,26.67,56.388,59.568,56.388c4.363,0,8.614-0.457,12.71-1.299
		c-4.71-7.248-8.31-15.242-10.552-23.764C24.771,257.346,10.539,243.2,10.539,226.003z"/>
	<g>
		<polygon fill="#ABDBD0" points="121.189,130.962 56.135,136.089 56.662,129.208 122.02,123.859 		"/>
		<polygon fill="#ABDBD0" points="120.531,141.218 55.478,146.347 56.004,139.465 121.364,134.116 		"/>
		<path fill="#ABDBD0" d="M120.311,143.455l-65.36,5.348l-0.526,6.882l50.139-3.953c4.875-1.368,9.922-2.336,15.109-2.83
			L120.311,143.455z"/>
		<path fill="#ABDBD0" d="M54.293,159.059l-0.527,6.883l24.851-1.96c4.491-3.131,9.296-5.842,14.364-8.088L54.293,159.059z"/>
		<path fill="#ABDBD0" d="M72.954,168.275l-19.187,1.571l-0.526,6.882l11.721-0.926C67.461,173.128,70.129,170.612,72.954,168.275z"
			/>
		<path fill="#ABDBD0" d="M52.847,179.313l-0.526,6.882l4.571-0.362c1.745-2.542,3.636-4.978,5.641-7.313L52.847,179.313z"/>
	</g>
	<circle fill="#ABDBD0" cx="140.958" cy="239.852" r="19.726"/>
	<ellipse fill="#ABDBD0" cx="328.491" cy="218.807" rx="4.487" ry="12.775"/>
	<g>
		<circle fill="#ABDBD0" cx="162.134" cy="223.81" r="2.781"/>
		<circle fill="#ABDBD0" cx="133.371" cy="215.827" r="2.781"/>
		<circle fill="#ABDBD0" cx="115.492" cy="239.462" r="2.781"/>
		<circle fill="#ABDBD0" cx="131.915" cy="265.616" r="2.781"/>
		<circle fill="#ABDBD0" cx="161.682" cy="255.915" r="2.783"/>
	</g>
	<path fill="#ABDBD0" d="M126.341,6.21c-9.103,0-16.483,7.379-16.483,16.482c0,2.76,0.686,5.357,1.886,7.641
		c-2.135-2.062-3.7-4.699-4.48-7.655l0,0c-0.538,0.587-1.051,1.203-1.509,1.884c-5.088,7.548-3.096,17.791,4.454,22.881
		c2.287,1.542,4.825,2.424,7.39,2.708c-4.22,0.898-8.783,0.158-12.644-2.444c-7.548-5.088-9.542-15.333-4.452-22.881
		c1.634-2.423,3.81-4.247,6.245-5.472c-0.014-0.289-0.046-0.574-0.046-0.869c0-3.665,1.211-7.038,3.233-9.775l-0.001,0.001
		c-0.855-0.185-1.731-0.312-2.642-0.312c-7.101,0-12.857,5.756-12.857,12.858c0,2.152,0.535,4.177,1.472,5.959
		c-2.421-2.337-3.933-5.611-3.933-9.241c0-7.101,5.756-12.857,12.856-12.857c2.414,0,4.663,0.675,6.591,1.833
		c-0.004,0.002-0.004,0.004-0.006,0.005C114.405,3.9,118.571,2,123.185,2c6.343,0,11.841,3.588,14.598,8.842
		C134.817,7.98,130.789,6.21,126.341,6.21z"/>
	<path fill="#ABDBD0" d="M188.32,300.982c-0.004,0-0.006,0.002-0.008,0.004c19.094-15.154,31.275-38.079,31.275-63.757
		c0-40.085-29.659-73.5-69.016-81.055c-1.782-0.134-3.574-0.227-5.385-0.227c-42.013,0-76.072,36.7-76.072,81.97
		c0,43.31,31.169,78.747,70.65,81.743c7.991-0.539,15.673-2.145,22.914-4.642L188.32,300.982z M144.663,286.068
		c-23.696,0-42.907-20.166-42.907-45.041c0-24.878,19.211-45.042,42.907-45.042c23.697,0,42.908,20.166,42.908,45.042
		C187.571,265.902,168.359,286.068,144.663,286.068z"/>
</g>
</svg>
