<svg xmlns="http://www.w3.org/2000/svg" width="16" height="16" viewBox="0 0 16 16">
    <g fill="none" fill-rule="evenodd">
        <path d="M0 0h16v16H0z"/>
        <path fill="#F4704C" d="M13.85 5.928h-1.234v-1.54c0-2.338-2.026-4.234-4.525-4.234-2.5 0-4.526 1.896-4.526 4.235v1.54H2.33c-.682 0-1.235.516-1.235 1.154v7.7c0 .637.553 1.154 1.235 1.154h11.52c.681 0 1.234-.517 1.234-1.154v-7.7c0-.638-.553-1.155-1.234-1.155zM4.8 4.388c0-1.7 1.473-3.08 3.29-3.08 1.818 0 3.292 1.38 3.292 3.08v1.54H4.799v-1.54z"/>
        <path fill="#FFF" d="M8.296 13.23c1.243 0 2.25-.942 2.25-2.105 0-1.162-1.007-2.105-2.25-2.105-1.242 0-2.25.943-2.25 2.105.003 1.162 1.009 2.103 2.25 2.106zm0-3.211c.654 0 1.183.495 1.183 1.106 0 .612-.53 1.107-1.183 1.107s-1.183-.495-1.183-1.107c0-.61.53-1.106 1.183-1.106z"/>
    </g>
</svg>
