<svg xmlns="http://www.w3.org/2000/svg" width="20" height="18" viewBox="0 0 20 18">
    <path fill="#FFF" fill-opacity=".5" fill-rule="nonzero" d="M18.338 10.593l1.64-7.312a.841.841 0 0 0-.812-1.031H5.528L5.21.675A.836.836 0 0 0 4.393 0H.833A.839.839 0 0 0 0 .844v.562c0 .466.373.844.833.844H3.26l2.439 12.074c-.584.34-.977.977-.977 1.707 0 1.088.87 1.969 1.945 1.969 1.074 0 1.944-.881 1.944-1.969 0-.55-.224-1.049-.584-1.406h7.28c-.36.357-.585.855-.585 1.406 0 1.088.87 1.969 1.945 1.969 1.074 0 1.944-.881 1.944-1.969 0-.78-.447-1.453-1.096-1.772l.191-.853a.841.841 0 0 0-.812-1.031h-9.32l-.228-1.125h10.179c.389 0 .726-.273.813-.657z"/>
</svg>
