<?xml version="1.0" standalone="no"?>
<!DOCTYPE svg PUBLIC "-//W3C//DTD SVG 1.1//EN" "http://www.w3.org/Graphics/SVG/1.1/DTD/svg11.dtd" >
<svg xmlns="http://www.w3.org/2000/svg">
<metadata>Generated by IcoMoon</metadata>
<defs>
<font id="OFN" horiz-adv-x="512">
<font-face units-per-em="512" ascent="480" descent="-32" />
<missing-glyph horiz-adv-x="512" />
<glyph unicode="&#x20;" d="" horiz-adv-x="256" />
<glyph unicode="&#xe600;" d="M240 115.6v44.048c0-0.704-27.12-2.976-39.184-6.56 9.92-19.728 23.184-33.504 39.184-37.488zM175.504 138.8c8.752-6.096 18.48-11.184 28.912-15.136-5.376 6.672-10.16 14.416-14.288 22.992-5.28-2.352-10.144-4.992-14.624-7.856zM197.12 166.848c14.112 4.304 26.88 10.368 42.88 11.088v30.064h-47.728c0.816-16 0.304-27.696 4.848-41.152zM200.8 294.896c12.048-3.568 39.2-5.84 39.2-6.56v44.064c-16-3.984-29.28-17.776-39.2-37.504zM204.4 324.336c-10.448-3.968-20.176-9.072-28.944-15.184 4.464-2.848 9.424-5.408 14.672-7.776 4.128 8.56 8.912 16.304 14.272 22.96zM174 208h-45.456c2.352-16 14.064-43.008 32.016-60.256 6.688 4.8 14.224 7.392 22.528 11.056-5.136 15.296-8.272 33.2-9.088 49.2zM192.272 240h47.728v30.064c-16 0.72-28.752 6.8-42.88 11.088-4.544-13.456-4.032-25.152-4.848-41.152zM183.072 287.472c-8.304 3.664-15.888 9.664-22.576 14.464-17.92-17.264-29.6-45.936-31.952-61.936h45.456c0.8 16 3.952 32.176 9.072 47.472zM336.48 309.2c-8.752 6.096-18.464 11.184-28.896 15.136 5.376-6.672 10.16-14.416 14.288-22.992 5.28 2.352 10.144 4.992 14.608 7.856zM328.928 160.528c8.304-3.664 15.872-9.68 22.56-14.48 17.936 17.264 29.616 45.952 31.968 61.952h-45.472c-0.8-16-3.936-32.16-9.056-47.472zM328.912 287.536c5.12-15.312 8.272-31.536 9.088-47.536h45.472c-2.352 16-14.080 44.752-32.032 62.016-6.704-4.816-14.24-10.832-22.528-14.48zM319.728 208h-47.728v-30.064c16-0.736 28.752-6.816 42.88-11.104 4.544 13.472 4.032 25.168 4.848 41.168zM307.6 123.664c10.432 3.952 20.16 9.056 28.928 15.152-4.464 2.848-9.424 5.408-14.672 7.76-4.128-8.544-8.896-16.256-14.256-22.912zM256 480c-141.392 0-256-114.624-256-256s114.608-256 256-256c141.376 0 256 114.624 256 256s-114.624 256-256 256zM256 96c-80.656 0-146.288 57.424-146.288 128s65.632 128 146.288 128 146.288-57.424 146.288-128-65.632-128-146.288-128zM272 332.4v-44.048c0 0.72 27.12 2.992 39.184 6.56-9.92 19.728-23.184 33.504-39.184 37.488zM314.88 281.136c-14.112-4.288-26.88-10.352-42.88-11.088v-30.048h47.712c-0.816 16-0.304 27.68-4.832 41.136zM272 115.6c16 3.984 29.28 17.776 39.2 37.52-12.048 3.584-39.2 5.824-39.2 6.544v-44.064z" />
<glyph unicode="&#xe601;" d="M221.888 174.656l83.808 49.216-83.808 49.232zM256 480c-141.392 0-256-114.624-256-256s114.608-256 256-256c141.376 0 256 114.624 256 256s-114.624 256-256 256zM384 178.24c0-44.112-44.128-44.112-44.128-44.112h-167.776c-44.096 0-44.096 44.112-44.096 44.112v91.52c0 44.112 44.096 44.112 44.096 44.112h167.776c44.128 0.016 44.128-44.112 44.128-44.112v-91.52z" />
<glyph unicode="&#xe602;" d="M240.512 145.952c-1.024-1.296-2.192-2.32-3.6-3.104-1.296-0.896-2.336-1.28-3.232-1.28-1.040 0-1.936 0.256-2.336 0.896-0.528 0.64-0.784 1.68-0.784 2.96v44.912h-11.616v-48.896c0-3.488 0.64-6.064 1.936-7.744 1.424-1.808 3.488-2.704 6.192-2.704 2.208 0 4.4 0.64 6.72 1.936 2.32 1.168 4.64 2.992 6.704 5.424v-6.448h11.728v58.448h-11.728l0.016-44.4zM283.216 190.976c-1.808 0-3.616-0.512-5.424-1.408-1.792-0.912-3.472-2.336-5.008-4v25.408h-11.744v-79.088h11.744v4.512c1.552-1.808 3.216-3.088 5.008-4 1.808-0.896 3.744-1.28 6.080-1.28 3.472 0 6.192 1.152 7.984 3.344 1.808 2.192 2.704 5.408 2.704 9.552v32.384c0 4.784-1.024 8.384-2.976 10.848-1.92 2.432-4.752 3.728-8.368 3.728zM282.576 145.568c0-1.936-0.4-3.232-1.040-4-0.64-0.912-1.664-1.312-3.216-1.312-0.912 0-1.808 0.272-2.704 0.656-0.912 0.384-1.936 1.168-2.832 2.064v36.384c0.768 0.784 1.664 1.424 2.448 1.808 0.768 0.384 1.664 0.512 2.448 0.512 1.552 0 2.848-0.512 3.616-1.552 0.896-1.040 1.296-2.448 1.296-4.4l-0.016-30.16zM254.192 255.632c1.808 0 3.232 0.512 4.256 1.552 1.040 1.024 1.552 2.32 1.552 4v35.104c0 1.408-0.512 2.576-1.552 3.344-1.152 0.912-2.576 1.296-4.256 1.296-1.552 0-2.976-0.384-3.872-1.296-1.024-0.768-1.552-1.936-1.552-3.344v-35.104c0-1.664 0.528-3.088 1.424-4 0.896-1.056 2.32-1.552 4-1.552zM173.408 199.504h13.552v-67.616h13.168v67.616h13.68v11.472h-40.4zM256.016 480c-141.376 0-256.016-114.624-256.016-256s114.64-256 256.016-256 255.984 114.624 255.984 256-114.608 256-255.984 256zM283.984 310.464h13.168v-49.312c0-1.552 0.256-2.576 0.912-3.344 0.512-0.64 1.424-1.024 2.576-1.024 1.040 0 2.192 0.512 3.744 1.408 1.424 0.912 2.832 2.064 4 3.472v48.784h13.168v-64.272h-13.168v7.088c-2.448-2.704-4.912-4.656-7.488-6.064-2.704-1.296-5.152-1.936-7.728-1.936-2.96 0-5.312 0.912-6.848 2.848-1.552 1.936-2.336 4.768-2.336 8.656v53.696zM235.232 295.744c0 5.040 1.776 8.912 5.28 11.872 3.616 2.976 8.384 4.528 14.336 4.528 5.408 0 9.92-1.552 13.408-4.784 3.36-3.088 5.168-7.088 5.168-12v-33.152c0-5.552-1.68-9.808-5.168-12.896-3.344-3.232-8.128-4.768-14.048-4.768-5.68 0-10.336 1.664-13.808 4.896-3.36 3.232-5.136 7.488-5.136 13.024v33.28h-0.032zM199.472 333.312l9.552-34.848h1.040l9.152 34.848h14.976l-17.168-50.976v-36.128h-14.832v34.448l-17.68 52.656h14.96zM384 151.232c0-20.112-16.528-36.512-36.512-36.512h-182.976c-20-0.016-36.512 16.384-36.512 36.512v37.296c0 20.128 16.512 36.656 36.512 36.656h182.976c20 0 36.512-16.528 36.512-36.656v-37.296zM318.432 191.744c-5.296 0-9.552-1.664-12.768-4.784-3.36-3.216-5.024-7.344-5.024-12.384v-26.176c0-5.68 1.552-10.080 4.512-13.296 2.976-3.232 7.104-4.784 12.4-4.784 5.792 0 10.192 1.424 13.024 4.528 2.976 2.976 4.528 7.472 4.528 13.552v2.96h-12.144v-2.704c0-3.36-0.384-5.68-1.152-6.576-0.768-1.040-2.064-1.552-4-1.552-1.808 0-3.232 0.512-4 1.808-0.784 1.152-1.040 3.232-1.040 6.336v10.96h22.336v14.976c0 5.552-1.552 9.68-4.4 12.656-2.832 2.944-6.96 4.48-12.272 4.48zM322.96 168.784h-10.192v5.936c0 2.336 0.256 4.128 1.168 5.152 0.768 1.024 2.064 1.68 4 1.68 1.792 0 3.088-0.656 3.856-1.68 0.768-1.024 1.152-2.832 1.152-5.152l0.016-5.936z" />
<glyph unicode="&#xe603;" d="M252.24 292.496c-3.52 26.832-22.944 48.336-43.36 48.96s-34.128-19.904-30.592-46.752c3.52-26.816 22.944-49.040 43.36-49.664 20.416-0.608 34.112 20.64 30.592 47.456zM256 480c-141.376 0-256-114.624-256-256s114.624-256 256-256 256 114.624 256 256-114.608 256-256 256zM213.808 96.672c-44.016 0-81.168 17.904-81.168 46.544 0 29.072 33.888 57.12 77.92 57.12 4.784 0 9.184 0.128 13.744 0.128-6.016 5.856-10.8 13.040-10.8 21.904 0 5.232 1.68 10.336 4.032 14.8-2.384-0.16-4.832-0.208-7.344-0.208-36.16 0-60.384 25.712-60.384 57.6 0 31.184 33.456 58.112 68.992 58.112h79.296l-17.744-12.816h-25.136c16.672-6.416 25.568-25.856 25.568-45.792 0-16.752-9.296-31.152-22.4-41.408-12.784-9.984-15.216-14.16-15.216-22.688 0-7.248 13.68-19.584 20.864-24.656 20.96-14.8 27.728-28.56 27.728-51.52-0.032-28.64-27.76-57.12-77.952-57.12zM379.344 217.856h-30.864v-30.88h-24.832v30.88h-30.864v24.848h30.864v30.864h24.832v-30.864h30.864v-24.848zM238.672 189.808c-6 1.936-12.64 3.088-19.728 3.152-30.432 0.336-57.696-18.544-57.696-41.232 0-23.12 21.984-42.368 52.416-42.368 42.784 0 57.68 18.064 57.68 41.2 0 2.8-0.336 5.52-0.976 8.176-3.344 13.088-15.2 19.584-31.696 31.072z" />
<glyph unicode="&#xe604;" d="M256 480c-141.376 0-256-114.624-256-256 0-141.392 114.624-256 256-256 141.392 0 256 114.608 256 256 0 141.376-114.608 256-256 256zM256 96.688c-12.608 0-24.768 1.84-36.272 5.248 4.848 7.664 10.176 17.568 12.88 27.408 1.568 5.696 9.008 35.184 9.008 35.184 4.448-8.48 17.44-15.952 31.264-15.952 41.152 0 69.072 37.504 69.072 87.712 0 37.952-32.16 73.344-81.040 73.344-60.816 0-91.472-43.632-91.472-79.984 0-22 8.336-41.584 26.224-48.912 2.928-1.184 5.552-0.032 6.4 3.216 0.592 2.256 2 7.936 2.608 10.272 0.848 3.216 0.528 4.336-1.84 7.136-5.152 6.096-8.432 13.952-8.432 25.104 0 32.336 24.192 61.28 63.008 61.28 34.352 0 53.248-20.992 53.248-49.040 0-36.912-16.336-68.048-40.592-68.048-13.392 0-23.408 11.072-20.192 24.672 3.84 16.192 11.312 33.696 11.312 45.408 0 10.464-5.632 19.216-17.264 19.216-13.68 0-24.688-14.16-24.688-33.136 0-12.080 4.080-20.256 4.080-20.256s-14-59.36-16.464-69.728c-2.288-9.728-2.592-20.464-2.224-29.408-45.104 19.808-76.624 64.848-76.624 117.248 0 70.704 57.328 128 128 128s128-57.296 128-128c0-70.688-57.312-127.984-128-127.984z" />
<glyph unicode="&#xe605;" d="M256 480c-141.392 0-256-114.624-256-256 0-141.392 114.608-256 256-256s256 114.608 256 256c0 141.376-114.624 256-256 256zM312.512 267.344l-2.944-38.304h-39.264v-133.040h-49.616v133.040h-26.448v38.304h26.464v25.728c0 11.328 0.288 28.832 8.528 39.664 8.672 11.472 20.592 19.264 41.088 19.264 33.392 0 47.44-4.768 47.44-4.768l-6.624-39.216c0 0-11.024 3.2-21.312 3.2-10.304 0-19.52-3.696-19.52-13.984v-29.904l42.208 0.016z" />
<glyph unicode="&#xe606;" d="M354.4 279.12v43.392l-5.648-0.032-37.744-0.112 0.144-43.392zM256.032 178.96c24.848 0 45.056 20.208 45.056 45.040 0 9.824-3.184 18.88-8.528 26.288-8.192 11.344-21.504 18.784-36.528 18.784s-28.336-7.44-36.528-18.784c-5.328-7.408-8.528-16.464-8.528-26.288 0-24.848 20.208-45.040 45.056-45.040zM256 480c-141.408 0-256-114.624-256-256s114.592-256 256-256c141.392 0 256 114.624 256 256s-114.608 256-256 256zM384.032 250.288v-104.8c0-27.28-22.208-49.472-49.488-49.472h-157.040c-27.28 0-49.472 22.192-49.472 49.472v157.040c0 27.28 22.192 49.472 49.472 49.472h157.040c27.28 0 49.488-22.192 49.488-49.472v-52.24zM326.032 224c0-38.608-31.408-70-70-70s-70 31.392-70 70c0 9.296 1.856 18.16 5.152 26.288h-38.208v-104.8c0-13.536 11.008-24.528 24.528-24.528h157.040c13.552 0 24.544 10.992 24.544 24.528v104.8h-38.224c3.296-8.128 5.168-16.992 5.168-26.288z" />
<glyph unicode="&#xe607;" d="M256 480c-141.392 0-256-114.624-256-256s114.608-256 256-256c141.408 0 256 114.624 256 256s-114.592 256-256 256zM184.352 116.944h-49.904v159.68h49.904v-159.68zM158.128 296.592h-0.368c-18.064 0-29.76 12.224-29.76 27.68 0 15.76 12.064 27.728 30.48 27.728 18.4 0 29.712-11.936 30.080-27.68 0-15.472-11.664-27.728-30.432-27.728zM384 116.944h-56.592v82.624c0 21.648-8.832 36.4-28.32 36.4-14.88 0-23.136-9.968-27.008-19.584-1.44-3.456-1.2-8.24-1.2-13.056v-86.384h-56.064c0 0 0.736 146.368 0 159.68h56.064v-25.056c3.312 10.96 21.216 26.592 49.792 26.592 35.456 0 63.328-22.976 63.328-72.432v-88.784z" />
<glyph unicode="&#xe608;" d="M256 480c-141.376 0-256-114.624-256-256 0-141.392 114.624-256 256-256 141.392 0 256 114.608 256 256 0 141.376-114.608 256-256 256zM357.968 263.824c0.096-2.24 0.144-4.528 0.144-6.8 0-69.536-52.896-149.68-149.68-149.68-29.696 0-57.36 8.704-80.64 23.632 4.112-0.496 8.32-0.72 12.544-0.72 24.64 0 47.328 8.4 65.344 22.528-23.024 0.4-42.448 15.632-49.136 36.512 3.2-0.624 6.496-0.944 9.888-0.944 4.816 0 9.456 0.624 13.856 1.856-24.080 4.816-42.224 26.080-42.224 51.584v0.656c7.12-3.92 15.232-6.304 23.84-6.576-14.112 9.44-23.392 25.552-23.392 43.792 0 9.648 2.576 18.672 7.104 26.48 25.968-31.856 64.736-52.784 108.448-54.976-0.928 3.84-1.36 7.856-1.36 11.984 0 29.040 23.552 52.608 52.592 52.608 15.136 0 28.832-6.384 38.384-16.608 12.016 2.352 23.264 6.72 33.44 12.752-3.904-12.288-12.272-22.576-23.136-29.088 10.64 1.28 20.784 4.096 30.224 8.288-7.008-10.592-15.952-19.856-26.24-27.28z" />
<glyph unicode="&#xe609;" d="M302.16 89.568c47.472 82.368 100.656 187.088 100.656 243.632 0 80.928-65.872 146.8-146.816 146.8-80.96 0-146.816-65.872-146.816-146.816 0-56.624 53.152-161.296 100.672-243.632-53.936-8.656-89.424-31.376-89.424-58.8-0.032-35.76 58.272-62.752 135.568-62.752s135.568 26.992 135.568 62.768c0 27.424-35.488 50.144-89.408 58.8zM125.168 333.184c0 72.128 58.688 130.816 130.832 130.816 72.128 0 130.816-58.672 130.832-130.8 0-42.336-34.064-123.808-98.512-235.648l-8.832-15.312-1.104-1.872c-1.984-3.376-3.728-6.288-5.504-9.232l-1.408-2.352-3.2-5.392-4.336-7.152-3.216-5.328-1.056-1.68-0.848-1.344c-1.056-1.728-1.984-3.232-2.816-4.608l-4.832 7.872-7.264 11.936-2 3.344-1.68 2.816-1.792 2.992c-1.024 1.696-2.032 3.392-3.104 5.2v0l-11.616 20.112c-63.552 110.080-98.544 193.776-98.544 235.632zM255.984-13.264c-68.864 0-116.864 23.168-116.864 44.032 0 15.552 30.064 34.896 80.672 41.504 2.432-4.16 4.48-7.536 6.688-11.232 1.2-2.032 2.48-4.128 3.616-6.064 2.8-4.592 5.152-8.432 7.36-12.096 0.704-1.136 1.472-2.4 2.112-3.44 2.416-3.968 4.288-6.976 5.712-9.296 0.144-0.176 0.352-0.56 0.512-0.784 1.424-2.304 2.272-3.6 2.272-3.6l7.888-12.464 7.952 12.464c0 0 0.752 1.168 2.144 3.392 0.32 0.512 0.784 1.296 1.2 1.968 1.408 2.192 3.040 4.832 5.232 8.432 0.512 0.784 1.088 1.76 1.632 2.592 2.32 3.856 4.896 8.048 7.872 12.992 1.008 1.696 2.176 3.664 3.264 5.504 2.272 3.792 4.416 7.344 6.928 11.616 50.624-6.592 80.64-25.936 80.64-41.488 0-20.864-47.984-44.032-116.832-44.032zM328 333.328c0 39.76-32.24 72-72 72s-72-32.24-72-72c0-39.76 32.24-72 72-72s72 32.24 72 72zM200 333.328c0 30.88 25.12 56 56 56s56-25.12 56-56c0-30.88-25.12-56-56-56-30.88 0-56 25.12-56 56z" />
<glyph unicode="&#xe60a;" d="M492.336 64h-41.936v8c0 15.408-7.344 32.704-18.72 44.080-12.016 11.968-26.4 17.552-45.28 17.552-18.336 0-33.152-5.872-45.28-17.952-11.552-11.552-18.72-28.288-18.72-43.664v-8.016h-119.136v8c0 15.36-7.376 32.656-18.768 44.064-11.968 11.968-26.352 17.552-45.264 17.552-18.336 0-33.12-5.872-45.2-17.936-11.584-11.552-18.768-28.272-18.768-43.664v-8.016h-59.616c-5.568 0-8.048 0.672-11.76 4.672l-1.328 1.376c-5.552 5.552-3.776 11.664-3.024 14.256 0.288 0.992 0.464 1.632 0.464 2.176v317.792c0 0.72-0.272 1.936-0.512 3.104-0.816 3.68-2.32 10.56 3.104 15.984 0.528 0.528 0.832 1.024 1.296 1.792 1.344 2.224 4.144 6.848 11.76 6.848h317.808c6.72 0 17.36-3.488 22.512-8.656l1.424-1.376c4.48-4.288 10.608-10.16 10.608-17.696v-84.272l33.504 0.128c3.632 0 8.432-0.272 13.488-2.32 1.536-0.624 3.040-1.136 4.48-1.632 4.496-1.552 9.152-3.152 12.96-6.96l58.144-56.592c3.728-3.536 8.848-8.352 11.424-14.72 0.624-1.552 2.192-3.552 3.696-5.488 2.944-3.776 6.304-8.080 6.304-13.52v-110.576c1.264-0.992 2.72-2.24 4.224-3.728 5.312-5.28 4.992-11.056 4.784-14.896l-0.096-2.4c0-7.424-5.072-12.176-8.8-15.648l-1.712-1.648c-5.984-6-13.248-6-18.064-6zM14.992 80.192l0.176-0.192c0.16 0 0.32 0 0.464 0h44.112c2.064 17.088 10.464 34.528 22.992 47.008 15.008 15.008 34.016 22.608 56.496 22.608 23.104 0 41.632-7.264 56.576-22.24 12.512-12.528 20.944-30.112 22.976-47.376h88.112c2.048 17.072 10.448 34.512 22.944 47.008 15.28 15.232 33.776 22.624 56.576 22.624 23.072 0 41.584-7.264 56.576-22.224 12.512-12.512 20.928-30.112 22.96-47.408h26.4c4.4 0 5.664 0.256 6.736 1.312l2.112 2.016c1.296 1.216 3.472 3.248 3.728 4.112-0.016 0.992 0.048 2.096 0.096 3.12 0.064 0.96 0.128 2.24 0.032 2.624-2.72 2.656-5.024 4.016-5.040 4.032l-3.952 2.32-0.064 4.608v114.752c-0.208 0.208-1.84 2.32-2.944 3.696-2.080 2.672-4.432 5.696-5.904 9.312-1.264 3.12-4.768 6.432-7.6 9.104l-58.368 56.832c-1.264 1.264-3.888 2.176-6.928 3.2-1.696 0.592-3.488 1.2-5.312 1.952-1.952 0.784-4.192 1.12-7.456 1.12l-49.488-0.112v100.272c-0.416 1.104-4.096 4.64-5.664 6.16l-1.664 1.6c-1.728 1.712-8.112 3.968-11.216 3.968h-316.432c-0.656-1.008-1.36-2.048-2.336-3.12 0.112-0.608 0.288-1.472 0.416-2.096 0.4-1.808 0.896-4.064 0.896-6.512v-317.776c0-2.656-0.56-4.816-1.008-6.304zM480 192h-128v96h42.672c4.352 0 8.304-1.44 11.376-4.16l61.968-54.224c0.704-0.336 1.568-0.672 2.384-1.008 3.824-1.584 9.6-3.968 9.6-10.256v-26.352zM368 208h96v5.952c-2.896 1.184-5.824 2.448-7.84 4.784l-60.672 53.088-27.488 0.128v-63.952zM386.4 12.832c-15.376 0-28.704 5.536-39.6 16.416s-16.4 24.208-16.4 39.584c0 15.424 5.52 28.752 16.4 39.616 10.928 10.88 24.24 16.384 39.6 16.384 15.376 0 28.688-5.52 39.6-16.368 10.896-10.88 16.4-24.208 16.4-39.632 0-15.392-5.52-28.704-16.384-39.584-10.896-10.896-24.224-16.416-39.616-16.416zM386.4 108.832c-11.12 0-20.368-3.824-28.304-11.712-7.856-7.872-11.696-17.12-11.696-28.288 0-11.136 3.824-20.368 11.712-28.272s17.136-11.728 28.288-11.728 20.4 3.84 28.304 11.728c7.872 7.872 11.696 17.12 11.696 28.272 0 11.168-3.824 20.432-11.696 28.304-7.904 7.856-17.152 11.696-28.304 11.696zM139.248 12.848c-15.392 0-28.704 5.536-39.584 16.416-10.896 10.848-16.4 24.16-16.4 39.568 0 15.424 5.52 28.752 16.416 39.616 10.864 10.864 24.176 16.368 39.568 16.368 15.424 0 28.736-5.52 39.6-16.384 10.896-10.896 16.416-24.224 16.416-39.6 0-15.36-5.536-28.672-16.416-39.568-10.864-10.896-24.192-16.416-39.6-16.416zM139.248 108.816c-11.136 0-20.384-3.824-28.272-11.696-7.888-7.872-11.712-17.12-11.712-28.288 0-11.152 3.824-20.384 11.696-28.24 7.904-7.904 17.136-11.744 28.288-11.744 11.152 0 20.4 3.824 28.272 11.712 7.904 7.904 11.744 17.152 11.744 28.272 0 11.136-3.84 20.384-11.728 28.288-7.872 7.872-17.12 11.696-28.288 11.696z" />
<glyph unicode="&#xe60b;" d="M133.040 313.808c4.896 0 8.896-3.984 8.896-8.896s-3.984-8.896-8.896-8.896-8.896 3.984-8.896 8.896 3.984 8.896 8.896 8.896zM133.040 329.808c-13.744 0-24.896-11.136-24.896-24.896s11.136-24.896 24.896-24.896c13.744 0 24.896 11.136 24.896 24.896s-11.152 24.896-24.896 24.896v0zM346.528 455.84c18.896 0 34.256-15.36 34.256-34.256s-15.36-34.256-34.256-34.256c-18.88 0-34.256 15.36-34.256 34.256s15.376 34.256 34.256 34.256zM346.528 471.84c-27.76 0-50.256-22.496-50.256-50.256s22.496-50.256 50.256-50.256c27.76 0 50.256 22.496 50.256 50.256 0 27.76-22.496 50.256-50.256 50.256v0zM242.88 420.896c8.464 0 15.344-6.88 15.344-15.344s-6.88-15.344-15.344-15.344c-8.464 0-15.344 6.88-15.344 15.344s6.88 15.344 15.344 15.344zM242.88 436.896c-17.312 0-31.344-14.032-31.344-31.344s14.032-31.344 31.344-31.344c17.312 0 31.344 14.032 31.344 31.344s-14.032 31.344-31.344 31.344v0zM286.304 336.32c56 0 101.552-45.552 101.552-101.552 0-20.096-5.888-39.536-17.008-56.224l-5.728-9.168 0.944-1.408c-4.864-11.936-7.408-24.8-7.408-37.68 0-12.752 2.464-25.344 7.216-37.12l-3.888-2 12.496-15.312c7.552-9.248 11.536-20.448 11.536-32.384 0-28.288-23.024-51.296-51.312-51.296-21.984 0-41.504 14.016-48.56 34.88l-0.512 1.504-0.8 1.376-77.12 133.584 0.832 0.48-8.48 14.016c-4.56 7.536-7.92 15.68-10 24.224l-0.144 0.592-0.192 0.576c-3.312 10.208-5.008 20.768-5.008 31.376 0.032 55.968 45.584 101.536 101.584 101.536zM286.304 352.32c-64.928 0-117.552-52.624-117.552-117.552 0-12.672 2.064-24.864 5.776-36.32 2.496-10.272 6.528-19.92 11.856-28.72l-0.544-0.32 85.152-147.488c8.992-26.592 34.096-45.76 63.712-45.76 37.168 0 67.312 30.128 67.312 67.296 0 16.128-5.68 30.912-15.152 42.512l0.416 0.208c-7.952 12.816-12.624 27.904-12.624 44.096 0 14.128 3.536 27.408 9.696 39.088l-0.192 0.288c12.432 18.64 19.696 41.008 19.696 65.088 0 64.944-52.64 117.584-117.552 117.584v0zM176.672 366.496c4.896 0 8.896-3.984 8.896-8.896s-3.984-8.896-8.896-8.896-8.896 3.984-8.896 8.896 3.984 8.896 8.896 8.896zM176.672 382.496c-13.744 0-24.896-11.136-24.896-24.896 0-13.744 11.136-24.896 24.896-24.896s24.896 11.136 24.896 24.896c-0.016 13.744-11.152 24.896-24.896 24.896v0z" />
<glyph unicode="&#xe60c;" d="M508.048 451.136c-1.568 1.088-3.424 1.68-5.296 1.68-1.072 0-2.16-0.192-3.2-0.608l-161.264-60-161.344 65.84c-0.144 0.080-0.976 0.096-1.056 0.112l-5.376-0.112-164.48-64.128c-3.616-1.296-6.032-7.728-6.032-11.584v-385.344c0-3.024 1.504-5.824 3.952-7.6 1.6-1.056 3.408-1.664 5.248-1.664 1.136 0 2.16 0.208 3.248 0.592l161.264 60.064 161.296-60.064c1.104-0.384 2.224-0.592 3.264-0.592 1.056 0 2.16 0.208 3.216 0.592l164.464 61.28c3.68 1.328 6.048 4.784 6.048 8.656v385.312c0 3.024-1.456 5.84-3.952 7.568zM176 432.832l160-54.784v-370.96l-160 54.864v370.88zM16 377.632l144 56.256v-370.864l-144-56.304v370.912zM496 62.96l-144-55.712v370.944l144 55.632v-370.864z" />
<glyph unicode="&#xe60d;" d="M228.464 374.192l-105.008-0.176-0.096-25.728-0.080-77.376c32.096 1.168 68.88 1.824 104.528 1.824 12 0 23.872-0.080 35.392-0.24l-1.2 0.48-33.536 101.216zM227.792 288.736c-29.264 0-60.096-0.448-88.512-1.296l0.080 60.832 0.032 9.776 77.52 0.128 23.008-69.456c-4.016 0.016-8.064 0.016-12.128 0.016zM504.288 183.952c3.216 17.12 5.552 35.408 7.392 57.536 0.8 9.68 0.624 20.72-6.88 29.184-7.488 8.464-18.64 10-28.544 10.384-20.992 0.752-40.624 1.536-61.088 2.368 0.24 21.52 0.864 51.36 0.88 51.744l0.176 8.32-6.704 4.912c-1.536 1.136-9.808 6.752-21.488 6.768-6.288 0-9.264-1.6-14.912-4.768l-5.12-4.576v-60.016c-16 0.304-32 0.752-64 1.232 0 0.016 0 0.016 0 0.032 0 5.568-3.104 12.832-6.528 21.776-7.936 20.752-15.216 49.184-28.464 87.424l2.992 0.464v1.184c-16 12.4-26.768 34.080-54.912 34.080h-137.088v-143.728c0-0.208-3.488-0.384-4.352-0.464l-12.976-1.216-2.384-12.112c-2-12.128-3.36-23.728 3.92-32.384-38-19.936-64.128-59.728-64.128-105.52 0-65.696 53.424-119.152 119.136-119.152 62.32 0 113.488 48.144 118.576 109.2l1.344-0.176 2.208 1.008c2.208-0.352 4.912 0.544 7.952 0.544h0.288l0.8-1.328c18.848 0.48 37.872 0.144 56.896 0.48 22.4 0.4 45.264 0.464 68.192 1.136-6.496-10.96-10.16-23.84-10.16-37.168 0-40.24 32.752-73.056 73.008-73.056 40.24 0 72.992 32.688 72.992 72.928 0 19.104-7.664 36.88-20.208 50.096 5.632 5.296 8.736 13.792 10.8 27.952 0.576 4.112 1.28 9.024 2.384 14.912zM119.184 33.424c-56.896 0-103.184 46.272-103.184 103.152 0 45.776 30 84.64 71.376 98.080 2.992 0.384 6.208 0.992 10.208 2.112 3.888 1.088 7.84 1.856 11.792 2.464 3.232 0.304 6.496 0.496 9.808 0.496 56.848 0 103.104-46.272 103.104-103.152 0-56.88-46.256-103.152-103.104-103.152zM495.744 242.816c-1.552-18.704-3.728-37.456-7.184-55.936-7.136-38.304 1.104-37.024-41.456-39.712 27.216-4.256 48.192-27.808 48.192-56.224 0-31.44-25.568-56.976-56.992-56.976-31.472 0-57.008 25.536-57.008 56.976 0 26.144 17.744 49.52 41.792 56.176-57.696-2.88-115.536-3.12-173.28-3.12-0.176 0-0.352 0-0.528 0-2.592 0-5.264-0.704-8.128-0.336-0.496 3.584-0.912 5.776-1.232 8.64-7.344 60.336-58.592 104.448-116.144 104.448-5.392 0-10.832-0.624-16.304-1.44-8.176-0.8-16.112-2.496-23.728-4.864-0.48-0.032-1.072-0.208-1.52-0.208-8.496 0-7.52 6.432-5.008 21.664 7.872 0.784 18.784 4.704 18.784 4.704v139.392c0 0 100.368 0 121.088 0 25.024 0 34.912-24.272 34.912-24.272 19.12-55.216 33.696-91.44 40.352-109.856 2.576-7.008 11.136-10.528 13.104-10.576 44.368-0.912 78.544-1.92 78.544-1.92 0 23.152 0 45.264 0 67.056 0 2.032 4.016 2.736 7.104 2.736 7.040 0 10.48-3.664 10.48-3.664s-1.744-46.72-1.744-65.936c0-1.024 0.88-1.568 1.648-1.584 25.504-1.024 48.832-1.984 74.336-2.896 17.136-0.672 21.376-4.768 19.92-22.272zM408.384 90.96c0-16.512 13.44-29.952 29.92-29.952s29.936 13.44 29.936 29.952c0 16.496-13.456 29.92-29.936 29.92-16.48-0.016-29.92-13.44-29.92-29.92zM452.24 90.96c0-7.696-6.256-13.952-13.936-13.952s-13.92 6.256-13.92 13.952c0 7.664 6.24 13.92 13.92 13.92 7.68-0.016 13.936-6.256 13.936-13.92zM119.184 193.872c-31.6 0-57.28-25.696-57.28-57.296 0-31.584 25.68-57.264 57.28-57.264 31.584 0 57.28 25.68 57.28 57.264 0 31.584-25.696 57.296-57.28 57.296zM119.184 95.312c-22.768 0-41.28 18.512-41.28 41.264 0 22.768 18.528 41.296 41.28 41.296 22.768 0 41.28-18.528 41.28-41.296 0-22.752-18.528-41.264-41.28-41.264z" />
<glyph unicode="&#xe60e;" d="M512 224c0 69.232-41.296 128.704-100.528 155.472-26.768 59.232-86.24 100.528-155.472 100.528s-128.704-41.296-155.472-100.528c-59.232-26.768-100.528-86.24-100.528-155.472s41.296-128.704 100.528-155.472c26.768-59.232 86.24-100.528 155.472-100.528s128.704 41.296 155.472 100.528c59.232 26.768 100.528 86.24 100.528 155.472zM256 464c56.64 0 106.128-30.688 133.072-76.224-15.168 4.416-31.152 6.896-47.728 6.896-31.12 0-60.208-8.464-85.328-23.024-25.12 14.56-54.208 23.024-85.328 23.024-16.592 0-32.576-2.48-47.728-6.896 26.912 45.536 76.4 76.224 133.040 76.224zM410.672 309.328c0-15.392-2.336-30.24-6.528-44.272-1.424 54.64-46.224 98.672-101.2 98.672-10.016 0-19.664-1.52-28.8-4.24-0.992 0.768-2 1.52-3.024 2.256 21.088 10.784 44.944 16.912 70.224 16.912 20.496 0 40.048-4.096 57.968-11.376 7.264-17.904 11.36-37.44 11.36-57.952zM399.296 80.704c-17.92-7.28-37.456-11.376-57.968-11.376-15.392 0-30.24 2.336-44.272 6.528 54.64 1.424 98.672 46.224 98.672 101.2 0 10.016-1.52 19.664-4.24 28.8 0.768 0.992 1.52 2 2.256 3.024 10.784-21.088 16.912-44.944 16.912-70.224 0.016-20.496-4.080-40.032-11.36-57.952zM101.328 138.672c0 15.392 2.336 30.24 6.528 44.272 1.424-54.64 46.224-98.672 101.2-98.672 10.016 0 19.648 1.52 28.8 4.24 0.992-0.768 2-1.52 3.024-2.256-21.088-10.784-44.944-16.912-70.224-16.912-20.496 0-40.048 4.096-57.968 11.376-7.264 17.904-11.36 37.44-11.36 57.952zM112.704 367.296c17.92 7.28 37.456 11.376 57.968 11.376 15.392 0 30.24-2.336 44.272-6.528-54.64-1.424-98.672-46.224-98.672-101.2 0-10.016 1.52-19.648 4.24-28.8-0.768-0.992-1.52-2-2.256-3.024-10.784 21.088-16.912 44.944-16.912 70.224-0.016 20.496 4.080 40.032 11.36 57.952zM379.728 177.072c0-47.12-38.208-85.328-85.328-85.328-4.88 0-9.568 0.656-14.224 1.44 19.568 16.4 35.312 37.136 45.968 60.704 19.68 8.896 37.376 21.36 52.24 36.656 0.704-4.432 1.344-8.864 1.344-13.472zM132.272 270.928c0 47.12 38.208 85.328 85.328 85.328 4.88 0 9.568-0.656 14.224-1.44-19.568-16.4-35.312-37.136-45.968-60.704-19.68-8.896-37.376-21.36-52.24-36.656-0.704 4.432-1.344 8.864-1.344 13.472zM380.928 229.744c0.176-0.256 0.336-0.512 0.512-0.768-0.016-0.032-0.048-0.064-0.064-0.112-0.16 0.288-0.272 0.608-0.448 0.88zM260.976 98.544c-0.032 0.016-0.064 0.048-0.112 0.064 0.288 0.176 0.592 0.288 0.88 0.464-0.24-0.192-0.512-0.336-0.768-0.528zM244.448 108.144c-12.416 9.024-22.448 21.152-28.544 35.44 12.88-3.104 26.256-4.928 40.096-4.928 8.656 0 17.088 0.848 25.392 2.096-8.832-14.208-21.616-25.584-36.944-32.608zM131.072 218.256c-0.176 0.256-0.336 0.512-0.512 0.768 0.016 0.032 0.048 0.064 0.064 0.112 0.16-0.288 0.272-0.608 0.448-0.88zM251.024 349.456c0.032-0.016 0.064-0.048 0.112-0.064-0.288-0.176-0.592-0.288-0.88-0.464 0.24 0.192 0.512 0.336 0.768 0.528zM267.552 339.856c12.416-9.024 22.448-21.152 28.544-35.44-12.88 3.104-26.256 4.928-40.096 4.928-8.656 0-17.088-0.848-25.376-2.096 8.816 14.192 21.6 25.584 36.928 32.608zM325.328 224c0-15.792-2.464-31.008-6.896-45.376-2.8-0.512-5.712-0.624-8.592-0.864 0.208 2.608 0.544 5.184 0.544 7.84 0 11.776-2.128 23.056-5.84 33.584 7.072 11.824 11.808 25.168 13.552 39.472 1.152-0.336 2.304-0.688 3.44-1.072 2.432-10.832 3.792-22.048 3.792-33.584zM186.672 224c0 15.792 2.464 31.008 6.896 45.376 2.8 0.512 5.712 0.624 8.592 0.864-0.208-2.608-0.544-5.184-0.544-7.84 0-11.776 2.128-23.056 5.84-33.584-7.072-11.824-11.808-25.168-13.552-39.472-1.152 0.336-2.304 0.688-3.44 1.072-2.432 10.832-3.792 22.048-3.792 33.584zM286.512 220.992c-8.592-11.84-20.096-21.344-33.536-27.504-11.84 8.592-21.344 20.096-27.504 33.536 8.592 11.84 20.096 21.344 33.52 27.504 11.856-8.608 21.376-20.096 27.52-33.536zM276.976 260.592c5.632 1.168 11.456 1.808 17.424 1.808 2.608 0 5.056-0.544 7.6-0.768-0.928-8.496-2.72-16.72-5.968-24.288-5.184 8.688-11.616 16.496-19.056 23.248zM294.4 185.6c0-2.608-0.544-5.056-0.768-7.6-8.496 0.928-16.72 2.72-24.288 5.968 8.672 5.184 16.496 11.616 23.248 19.056 1.168-5.632 1.808-11.44 1.808-17.424zM235.024 187.408c-5.632-1.168-11.44-1.808-17.424-1.808-2.608 0-5.056 0.544-7.6 0.768 0.928 8.496 2.72 16.72 5.968 24.288 5.184-8.688 11.616-16.496 19.056-23.248zM219.408 244.976c-1.168 5.632-1.808 11.456-1.808 17.424 0 2.608 0.544 5.056 0.768 7.6 8.496-0.928 16.72-2.72 24.288-5.968-8.688-5.184-16.496-11.616-23.248-19.056zM209.76 170.144c2.608-0.208 5.184-0.544 7.84-0.544 11.776 0 23.056 2.128 33.584 5.84 11.824-7.072 25.168-11.808 39.472-13.552-0.336-1.152-0.688-2.304-1.072-3.44-10.832-2.416-22.032-3.776-33.568-3.776-15.792 0-31.008 2.464-45.376 6.896-0.528 2.784-0.64 5.696-0.88 8.576zM302.24 277.856c-2.608 0.208-5.184 0.544-7.84 0.544-11.776 0-23.056-2.128-33.584-5.84-11.824 7.072-25.168 11.808-39.472 13.552 0.336 1.152 0.688 2.304 1.072 3.44 10.832 2.416 22.032 3.776 33.568 3.776 15.792 0 31.008-2.464 45.376-6.896 0.528-2.784 0.64-5.696 0.88-8.576zM210.064 302.896c-0.624-0.176-1.28-0.304-1.904-0.496 2.576 4.352 5.264 8.608 8.24 12.672-2.384-3.888-4.496-7.952-6.336-12.176zM175.6 264.096c-3.104-12.88-4.928-26.256-4.928-40.096 0-8.656 0.848-17.088 2.096-25.376-14.208 8.832-25.584 21.6-32.608 36.928 9.008 12.416 21.136 22.432 35.44 28.544zM177.104 178.064c0.176-0.624 0.304-1.28 0.496-1.904-4.352 2.576-8.608 5.264-12.672 8.24 3.888-2.384 7.952-4.496 12.176-6.336zM301.936 145.104c0.624 0.176 1.28 0.304 1.904 0.496-2.576-4.352-5.264-8.608-8.24-12.672 2.384 3.888 4.496 7.952 6.336 12.176zM336.4 183.904c3.104 12.88 4.928 26.256 4.928 40.096 0 8.656-0.848 17.088-2.096 25.392 14.208-8.832 25.584-21.6 32.608-36.928-9.008-12.432-21.136-22.448-35.44-28.56zM334.896 269.936c-0.176 0.624-0.304 1.28-0.496 1.904 4.352-2.576 8.608-5.264 12.672-8.24-3.888 2.384-7.952 4.496-12.176 6.336zM125.168 199.824c16.4-19.568 37.136-35.312 60.704-45.968 8.896-19.68 21.36-37.376 36.656-52.24-4.416-0.704-8.848-1.36-13.456-1.36-47.12 0-85.328 38.208-85.328 85.328-0.016 4.896 0.64 9.584 1.424 14.24zM386.832 248.176c-16.4 19.568-37.136 35.312-60.704 45.968-8.896 19.68-21.36 37.376-36.656 52.24 4.416 0.704 8.848 1.36 13.456 1.36 47.12 0 85.328-38.208 85.328-85.328 0.016-4.896-0.64-9.584-1.424-14.24zM16 224c0 56.64 30.688 106.128 76.224 133.072-4.4-15.168-6.896-31.152-6.896-47.744 0-31.12 8.464-60.208 23.024-85.328-14.56-25.12-23.024-54.208-23.024-85.328 0-16.592 2.48-32.576 6.896-47.728-45.536 26.928-76.224 76.416-76.224 133.056zM256-16c-56.64 0-106.128 30.688-133.072 76.224 15.168-4.416 31.152-6.896 47.728-6.896 31.12 0 60.208 8.464 85.328 23.024 25.12-14.56 54.208-23.024 85.328-23.024 16.592 0 32.576 2.48 47.728 6.896-26.912-45.536-76.4-76.224-133.040-76.224zM419.776 90.928c4.416 15.168 6.896 31.152 6.896 47.728 0 31.12-8.464 60.208-23.024 85.328 14.56 25.12 23.024 54.208 23.024 85.328 0 16.592-2.48 32.576-6.896 47.728 45.536-26.912 76.224-76.4 76.224-133.040s-30.688-106.128-76.224-133.072z" />
<glyph unicode="&#xe60f;" d="M416.336 464h-320.672c-4.416 0-8 3.584-8 8s3.568 8 8 8h320.688c4.416 0 8-3.584 8-8s-3.584-8-8.016-8zM400 0h-288c-4.416 0-8 3.584-8 8v57.792c0 77.328 57.072 130.352 97.536 158.224-35.296 24.592-96.224 78.576-96.224 158.192v57.792c0 4.416 3.584 8 8 8h286.688c4.416 0 8-3.584 8-8v-57.792c0-77.328-57.056-130.352-97.52-158.224 35.712-24.816 97.52-79.248 97.52-158.656v-57.328c0-4.416-3.584-8-8-8zM120 16h272v49.328c0 79.712-70.128 132.8-100.288 151.92-2.32 1.472-3.712 4.016-3.712 6.752s1.392 5.28 3.712 6.752c37.456 23.744 100.288 75.008 100.288 151.456v49.792h-270.688v-49.792c0-80.048 69.216-132.576 98.976-151.456 2.32-1.472 3.712-4.016 3.712-6.752s-1.392-5.28-3.712-6.752c-37.456-23.744-100.288-75.008-100.288-151.456v-49.792zM256 248c-1.632 0-3.264 0.496-4.656 1.488l-2.48 1.776c-29.392 20.976-57.152 40.784-76.144 73.136-1.456 2.464-1.472 5.536-0.048 8.016 1.424 2.496 4.080 4.032 6.944 4.032h157.024c2.864 0 5.52-1.536 6.944-4.032 1.424-2.48 1.408-5.552-0.048-8.016-16.928-28.832-44.064-47.744-70.304-66.064-4.208-2.944-8.416-5.872-12.592-8.864-1.376-0.976-3.008-1.472-4.64-1.472zM194.48 320.448c16.176-21.952 37.456-37.44 61.536-54.64 2.688 1.888 5.376 3.776 8.080 5.664 21.712 15.136 42.416 29.584 57.472 48.992h-127.088zM416.336-32h-320.672c-4.416 0-8 3.584-8 8s3.584 8 8 8h320.688c4.416 0 8-3.584 8-8s-3.584-8-8.016-8zM256 144c-4.416 0-8 3.584-8 8v16c0 4.416 3.584 8 8 8s8-3.584 8-8v-16c0-4.416-3.584-8-8-8zM256 96c-4.416 0-8 3.584-8 8v16c0 4.416 3.584 8 8 8s8-3.584 8-8v-16c0-4.416-3.584-8-8-8zM256 192c-4.416 0-8 3.584-8 8v16c0 4.416 3.584 8 8 8s8-3.584 8-8v-16c0-4.416-3.584-8-8-8zM349.36 2.912c-2.048 0-4.096 0.784-5.664 2.336l-87.696 87.728-87.712-87.712c-3.12-3.12-8.192-3.12-11.312 0s-3.12 8.192 0 11.312l93.36 93.376c3.008 3.008 8.32 3.008 11.312 0l93.36-93.376c3.12-3.12 3.12-8.192 0-11.312-1.552-1.584-3.6-2.352-5.648-2.352z" />
<glyph unicode="&#xe610;" d="M480 320h-8.272l-215.728 142.176-215.728-142.176h-8.272c-17.6 0-32-20.176-32-37.776v-256c0-17.6 14.4-26.224 32-26.224h448c17.6 0 32 8.624 32 26.224v256c0 17.6-14.4 37.776-32 37.776zM256 443.008l186.64-123.008h-373.28l186.64 123.008zM496 26.224c0-8.816-7.184-10.224-16-10.224h-448c-8.816 0-16 1.408-16 10.224v256c0 8.832 7.184 21.776 16 21.776h448c8.816 0 16-12.944 16-21.776v-256zM176.016 194.512c-3.168 4.704-7.040 8.336-11.6 10.88-4.56 2.528-9.664 3.808-15.328 3.808-5.76 0-10.928-1.28-15.488-3.808-4.56-2.544-8.416-6.176-11.584-10.88-3.168-4.704-5.568-10.336-7.2-16.848-1.632-6.528-2.448-13.824-2.448-21.888s0.832-15.392 2.512-21.968 4.112-12.224 7.28-16.928c3.168-4.704 7.008-8.336 11.52-10.944 4.512-2.592 9.648-3.888 15.408-3.888 5.664 0 10.768 1.296 15.328 3.888 4.56 2.592 8.416 6.24 11.6 10.944 3.168 4.704 5.584 10.336 7.264 16.928s2.528 13.904 2.528 21.968-0.848 15.36-2.528 21.888c-1.68 6.512-4.112 12.144-7.264 16.848zM166.8 141.152c-0.768-4.56-1.952-8.512-3.536-11.872s-3.552-6-5.904-7.92c-2.352-1.92-5.12-2.88-8.288-2.88-3.168 0-5.936 0.96-8.288 2.88s-4.304 4.56-5.888 7.92c-1.584 3.36-2.752 7.312-3.52 11.872-0.768 4.56-1.152 9.44-1.152 14.624 0 5.168 0.384 10.048 1.152 14.608 0.768 4.56 1.952 8.496 3.52 11.808 1.584 3.312 3.552 5.92 5.904 7.84s5.104 2.88 8.288 2.88c3.072 0 5.776-0.96 8.128-2.88s4.32-4.528 5.904-7.84 2.784-7.248 3.6-11.808c0.816-4.56 1.216-9.44 1.216-14.608 0-5.184-0.384-10.064-1.136-14.624zM249.392 200.192c-2.72 2.336-5.808 4.704-9.264 5.664-3.44 0.96-6.8 2.144-10.048 2.144h-22.080v-96h16v32h6.976c3.536 0 6.992 1.392 10.336 2.64 3.344 1.248 6.32 3.552 8.896 6.144 2.576 2.592 4.672 6.016 6.24 9.904s2.368 8.512 2.368 13.712c0 5.744-0.896 10.608-2.656 14.432-1.776 3.872-4.032 7.008-6.768 9.36zM238.64 164.048c-2.592-2.816-5.888-4.048-9.936-4.048h-4.704v32h4.704c4.032 0 7.344-1.296 9.936-3.776s3.888-6.384 3.888-11.824c0-5.456-1.296-9.52-3.888-12.352zM288 144h32v16h-32v32h32v16h-48v-96h48v16h-32zM384.816 128h-0.448l-28.656 80h-19.712v-96h15.536l-0.288 64h0.432l28.944-64h19.376v96h-15.344z" />
<glyph unicode="&#xe611;" d="M480 320h-8.272l-215.728 142.176-215.728-142.176h-8.272c-17.6 0-32-20.176-32-37.776v-256c0-17.6 14.4-26.224 32-26.224h448c17.6 0 32 8.624 32 26.224v256c0 17.6-14.4 37.776-32 37.776zM256 443.008l186.64-123.008h-373.28l186.64 123.008zM496 26.224c0-8.816-7.184-10.224-16-10.224h-448c-8.816 0-16 1.408-16 10.224v256c0 8.832 7.184 21.776 16 21.776h448c8.816 0 16-12.944 16-21.776v-256zM73.824 176.208c1.728 3.36 3.888 6.032 6.48 8s5.616 2.96 9.072 2.96c6.24 0 11.328-2.848 15.264-8.496l9.936 12.096c-2.784 4.032-6.384 7.12-10.8 9.28-4.416 2.176-9.552 3.248-15.408 3.248-5.664 0-10.816-1.328-15.472-3.968s-8.624-6.336-11.888-11.072-5.776-10.416-7.552-16.992c-1.776-6.576-2.672-13.744-2.672-21.536 0-7.76 0.88-14.928 2.672-21.456 1.776-6.528 4.272-12.16 7.488-16.928 3.216-4.752 7.152-8.464 11.808-11.152 4.656-2.688 9.856-4.032 15.616-4.032 6.336 0 11.6 1.248 15.776 3.744 4.176 2.48 7.6 5.744 10.304 9.776l-9.936 11.664c-1.632-2.496-3.664-4.608-6.128-6.336-2.448-1.712-5.344-2.576-8.704-2.576-3.552 0-6.656 0.976-9.296 2.944s-4.816 4.64-6.544 8-3.024 7.312-3.888 11.872c-0.864 4.56-1.296 9.392-1.296 14.464 0 5.184 0.432 10.064 1.296 14.624 0.848 4.56 2.144 8.512 3.872 11.872zM144 208h-16v-112h48v16h-32zM238.272 188.592c-3.168 4.704-7.040 8.336-11.6 10.88-4.56 2.528-9.664 3.808-15.328 3.808-5.76 0-10.928-1.28-15.488-3.808-4.56-2.544-8.416-6.176-11.584-10.88-3.168-4.704-5.568-10.336-7.2-16.848-1.632-6.528-2.448-13.824-2.448-21.888s0.832-15.392 2.512-21.968 4.112-12.224 7.28-16.928c3.168-4.704 7.008-8.336 11.52-10.944 4.512-2.592 9.648-3.888 15.408-3.888 5.664 0 10.768 1.296 15.328 3.888 4.56 2.592 8.416 6.24 11.6 10.944 3.168 4.704 5.584 10.336 7.264 16.928s2.528 13.904 2.528 21.968-0.848 15.36-2.528 21.888c-1.68 6.528-4.112 12.144-7.264 16.848zM229.040 135.232c-0.768-4.56-1.952-8.512-3.536-11.872s-3.552-6-5.904-7.92c-2.352-1.92-5.12-2.88-8.288-2.88-3.168 0-5.936 0.96-8.288 2.88s-4.32 4.56-5.904 7.92c-1.584 3.36-2.752 7.312-3.52 11.872-0.768 4.56-1.152 9.44-1.152 14.624 0 5.168 0.384 10.048 1.152 14.608 0.768 4.56 1.952 8.496 3.52 11.808 1.584 3.312 3.552 5.92 5.904 7.84s5.104 2.88 8.288 2.88c3.072 0 5.776-0.96 8.128-2.88s4.32-4.528 5.904-7.84 2.784-7.248 3.6-11.808c0.816-4.56 1.216-9.44 1.216-14.608 0.032-5.184-0.352-10.064-1.12-14.624zM281.168 184.432c1.248 1.136 2.64 1.984 4.176 2.512 1.536 0.512 3.12 0.784 4.752 0.784 5.664 0 10.368-2.256 14.112-6.768l9.504 12.384c-2.784 3.264-6.224 5.728-10.304 7.424-4.080 1.664-8.704 2.512-13.904 2.512-3.552 0-7.056-0.608-10.512-1.792-3.456-1.2-6.56-3.056-9.296-5.552-2.736-2.496-4.944-5.648-6.624-9.44s-2.528-8.336-2.528-13.616c0-4.224 0.56-7.84 1.664-10.88 1.104-3.008 2.592-5.664 4.464-7.904 1.872-2.272 4.032-4.208 6.48-5.84 2.448-1.632 5.056-3.104 7.856-4.448 4.416-2.224 8.064-4.608 10.944-7.2 2.88-2.592 4.32-6.096 4.32-10.512 0-4.512-1.2-8.016-3.6-10.512-2.4-2.496-5.424-3.728-9.072-3.728-3.264 0-6.448 0.768-9.568 2.304-3.12 1.536-5.792 3.664-8 6.336l-9.36-12.672c2.88-3.376 6.72-6.16 11.52-8.352 4.8-2.208 10.032-3.312 15.696-3.312 3.936 0 7.68 0.672 11.232 2.016 3.552 1.344 6.656 3.344 9.296 5.984s4.752 5.872 6.336 9.712c1.584 3.824 2.368 8.256 2.368 13.248 0 4.32-0.672 8.064-2.016 11.216-1.344 3.168-3.072 5.904-5.184 8.224-2.112 2.304-4.464 4.272-7.056 5.904-2.592 1.632-5.136 3.056-7.632 4.32-4.224 2.112-7.632 4.336-10.224 6.704-2.592 2.336-3.888 5.68-3.888 10 0 2.496 0.352 4.656 1.072 6.48 0.752 1.808 1.728 3.296 2.976 4.464zM352 144h16v16h-16v32h16v16h-32v-112h32v16h-16zM401.248 208h-17.248v-112h17.104c13.152 0 23.104 5.808 29.872 14.688 6.768 8.896 10.16 22.080 10.16 38.192s-3.376 32.688-10.16 41.648c-6.752 8.992-16.672 17.472-29.728 17.472zM422.208 133.936c-1.104-4.448-2.672-8.192-4.672-11.152s-4.416-6.128-7.2-7.616c-2.8-1.504-5.824-3.168-9.088-3.168h-1.248v80h1.248c3.264 0 6.288-3.952 9.072-5.456 2.784-1.488 5.184-5.328 7.2-8.304 2.016-2.992 3.568-7.52 4.672-12.032 1.104-4.512 1.664-10.192 1.664-16.24 0-5.952-0.56-11.552-1.648-16.032z" />
<glyph unicode="&#xe612;" d="M482.496 319.6c36.64 36.624 36.64 96.256 0 132.976-36.64 36.608-96.272 36.56-132.96 0-2.752-2.8-2.704-6.656-1.216-10-28.352 12.128-59.552 18.912-92.288 18.912-32.768 0-63.968-6.784-92.352-18.912 1.504 3.344 1.504 7.184-1.232 9.92-36.64 36.64-96.24 36.624-132.944 0-36.656-36.672-36.656-96.32 0-132.96 1.76-1.776 4.112-2.672 6.432-2.672 1.248 0 2.304 0.912 3.424 1.424-12.112-28.336-18.864-59.52-18.864-92.24 0-76.416 36.784-144.272 93.36-187.344-7.136-3.024-13.648-7.648-17.568-14.528-5.008-8.608-6.352-18.672-3.824-28.32 2.608-9.664 8.8-17.76 17.52-22.832 5.696-3.264 12.128-4.992 18.688-4.992 13.344 0 25.808 7.184 32.448 18.752 3.968 6.928 4.832 14.56 4.112 22 27.952-11.744 58.624-18.256 90.8-18.256 32.128 0 62.752 6.496 90.672 18.192-0.704-7.392 0.176-15.024 4.192-21.984 6.672-11.568 19.088-18.736 32.368-18.736 6.528 0 13.024 1.76 18.688 5.024 8.672 4.992 14.912 13.024 17.472 22.688 2.624 9.68 1.312 19.776-3.696 28.432-3.952 6.864-10.496 11.456-17.6 14.528 56.576 43.024 93.36 110.912 93.36 187.36 0 32.736-6.8 63.952-18.912 92.32 1.12-0.48 2.176-1.424 3.488-1.424 2.288 0.016 4.656 0.88 6.432 2.672zM42.416 439.584c29.568 29.456 77.648 29.456 107.12 0 1.2-1.184 2.768-1.392 4.288-1.808-47.776-23.12-86.496-61.824-109.632-109.616-0.4 1.536-0.576 3.12-1.76 4.304-29.504 29.456-29.504 77.536-0.016 107.12zM145.28-4.144c-5.008-8.784-17.264-12.176-26.112-6.992-4.464 2.592-7.664 6.752-8.992 11.68-1.328 4.912-0.624 10.048 1.936 14.48 3.408 5.888 9.76 9.584 16.576 9.584 3.344 0 6.64-0.912 9.6-2.608 9.136-5.232 12.256-17.008 6.992-26.144zM399.856 15.008c2.576-4.384 3.28-9.6 1.92-14.496-1.296-4.928-4.48-9.056-8.928-11.632-8.944-5.184-21.040-1.808-26.144 6.992-5.28 9.136-2.096 20.896 7.008 26.16 2.88 1.664 6.192 2.592 9.488 2.592 6.912-0.016 13.264-3.712 16.656-9.616zM473.184 226.048c0-119.792-97.424-217.248-217.136-217.248-119.776 0-217.232 97.456-217.232 217.248 0 119.712 97.456 217.136 217.232 217.136 119.712 0 217.136-97.424 217.136-217.136zM469.616 332.528c-1.216-1.184-1.392-2.784-1.776-4.288-23.184 47.712-61.904 86.416-109.664 109.568 1.536 0.4 3.088 0.608 4.288 1.808 29.568 29.472 77.632 29.472 107.152 0 29.44-29.536 29.44-77.616 0-107.088zM256.048 401.824c-97.824 0-177.376-79.536-177.376-177.328s79.552-177.344 177.376-177.344c97.776 0 177.28 79.552 177.28 177.344s-79.504 177.328-177.28 177.328zM256.048 65.44c-87.76 0-159.088 71.376-159.088 159.056s71.328 159.040 159.088 159.040c87.664 0 159.024-71.36 159.024-159.040s-71.376-159.056-159.024-159.056zM265.168 227.6v108.528c0 5.056-4.080 9.152-9.12 9.152-5.072 0-9.152-4.096-9.152-9.152v-112.32c0-2.4 0.976-4.752 2.704-6.432l52.912-52.96c1.728-1.76 4.096-2.656 6.448-2.656 2.336 0 4.656 0.896 6.48 2.656 3.536 3.584 3.536 9.392 0 12.96l-50.272 50.224z" />
<glyph unicode="&#xe613;" d="M276.096 465.6v-54.512l12.8-1.424c42.88-4.768 79.264-19.984 108.32-45.328l-8.752-10.208 1.568-0.784-20.928-29.504c-20.768 17.552-46.624 30.448-75.184 37.44l-17.824 4.368v-111.008l10.912-2.72c73.376-18.336 118.864-42.432 118.864-105.776 0-62.784-42.592-103.136-116.832-110.72l-12.928-1.328v-51.712h-26.624v51.904l-13.168 1.136c-48.96 4.208-89.984 20.688-122.16 49.040l0.704 1.024-6.288 4.992 2.736 3.2-0.56 1.12 23.456 34.832 1.040-0.144 1.472 2.688c26.384-25.392 60.144-42.752 95.824-49.136l16.944-3.040v119.968l-11.008 2.672c-71.504 17.36-115.808 40.816-115.808 103.984 0 55.296 45.776 97.184 113.904 104.24l12.912 1.344v53.392h26.608zM249.44 259.792v107.536l-16.352-2.224c-32.784-4.48-53.152-24.4-53.152-52.016 0-31.28 34.272-42.128 50.752-47.36l18.752-5.936zM276.096 78.512l17.168 3.376c41.2 8.080 55.872 34.224 55.872 56.016 0 33.632-36.656 45.28-54.288 50.88l-18.768 5.968v-116.24zM281.2 480h-36.864c-5.136 0-9.28-4.16-9.28-9.28v-45.568c-79.632-8.256-126.816-58.992-126.816-118.56 0-80.224 66.064-103.232 126.816-117.968v-91.424c-39.008 6.992-71.072 27.2-92.88 49.84-0.16 0.176-0.32 0.32-0.48 0.464-0.128 0.144-0.288 0.272-0.416 0.416l-0.064-0.096c-1.6 1.312-3.552 2.192-5.792 2.192-3.504 0-6.464-2.016-8.032-4.896l-0.112 0.016-33.216-49.312 0.048-0.080c-1.424-1.632-2.352-3.68-2.352-6.016 0-2.96 1.472-5.472 3.6-7.168l-0.096-0.128c32.448-32.448 77.856-56.032 139.792-61.344v-43.808c0-5.136 4.16-9.28 9.28-9.28h36.864c5.136 0 9.28 4.16 9.28 9.28h0.016v43.808c86.704 8.864 129.776 59.568 129.776 125.056 0 80.8-68.432 104.4-129.776 119.744v81.408c26.544-6.496 52.496-18.88 73.728-38.336l0.096 0.128c1.584-1.264 3.504-2.128 5.696-2.128 2.88 0 5.36 1.392 7.056 3.44l0.128-0.032 34.32 48.368-0.080 0.048c1.408 1.632 2.336 3.68 2.336 6 0 2.736-1.232 5.136-3.12 6.832-31.824 29.392-72.464 47.040-120.16 52.352v46.752h-0.016c0 5.12-4.16 9.28-9.28 9.28v0zM235.040 279.456c-24.176 7.664-40.704 16.512-40.704 33.632 0 20.048 14.752 34.208 40.704 37.744v-71.376zM290.496 96.016v79.040c25.952-8.256 44.24-17.712 44.24-37.152 0-18.896-14.16-36-44.24-41.888v0z" />
<glyph unicode="&#xe614;" d="M359.408 66.528c8.448 0 14.688 6.864 14.688 15.328v108.576c0 8.464-6.24 15.328-14.688 15.328-8.464 0-14.72-6.864-14.72-15.328v-108.576c0-8.48 6.256-15.328 14.72-15.328zM290.496 66.528c8.464 0 14.704 6.864 14.704 15.328v108.576c0 8.464-6.24 15.328-14.704 15.328s-14.704-6.864-14.704-15.328v-108.576c0-8.48 6.24-15.328 14.704-15.328zM221.616 66.528c8.448 0 14.704 6.864 14.704 15.328v108.576c0 8.464-6.256 15.328-14.704 15.328-8.464 0-14.704-6.864-14.704-15.328v-108.576c0-8.48 6.224-15.328 14.704-15.328zM470.816 343.808h-85.232l-43.696 70.336c-5.472 9.488-15.68 15.376-26.656 15.376-5.376 0-10.688-1.424-15.344-4.128-14.688-8.464-19.728-27.312-11.024-42.352l25.024-39.216h-127.616l25.28 39.6c8.464 14.672 3.424 33.52-11.264 41.984-4.672 2.704-9.968 4.128-15.344 4.128-10.976 0-21.168-5.888-26.48-15.088l-43.888-70.64h-73.392c-22.704 0-41.184-18.496-41.184-41.2v-23.52c0-20.384 14.944-40.4 34.432-43.648l30.896-176.672c0.48-22.304 18.768-40.304 41.168-40.304h297.68c22.416 0 40.72 18 41.184 40.32l30.736 176.512c20.208 2.64 35.904 22.896 35.904 43.792v23.52c0 22.704-18.48 41.2-41.184 41.2zM425.84 61.312l-0.144-1.664c0-11.856-9.664-21.504-21.52-21.504h-297.68c-11.856 0-21.504 9.648-21.504 21.504l-30.48 175.104h401.536l-30.208-173.44zM492.32 279.088c0-11.84-9.648-24.656-21.504-24.656h-429.632c-11.856 0-21.504 12.8-21.504 24.656v23.52c0 11.856 9.648 21.504 21.504 21.504h84.336l49.808 80.176c2.944 5.088 9.968 7.024 15.104 4.048 5.28-3.040 7.104-9.824 4.288-14.72l-44.384-69.504h199.472l-44.16 69.12c-3.024 5.28-1.216 12.048 4.048 15.104 5.168 2.976 12.096 1.184 15.28-4.32l49.664-79.904h96.176c11.856 0 21.504-9.648 21.504-21.504v-23.52zM152.72 66.528c8.448 0 14.688 6.864 14.688 15.328v108.576c0 8.464-6.24 15.328-14.688 15.328-8.464 0-14.704-6.864-14.704-15.328v-108.576c0-8.48 6.24-15.328 14.704-15.328z" />
<glyph unicode="&#xe615;" d="M367.072 391.472h-43.616v-244.384h43.616v244.384zM88.768 391.472h-21.84v-244.384h21.84v244.384zM99.2 129.616c-11.712 0-21.904-7.664-21.904-21.408v-30.272c0-13.728 10.192-21.408 21.904-21.408 11.696 0 21.808 7.664 21.808 21.408v30.272c-0.016 13.728-10.112 21.408-21.808 21.408zM107.872 78.032c0-6.064-3.536-9.68-8.672-9.68-5.152 0-8.784 3.632-8.784 9.68v29.984c0 6.048 3.632 9.776 8.784 9.776 5.136 0 8.672-3.728 8.672-9.776v-29.984zM300.144 391.472h-32.608v-244.384h32.608v244.384zM0 56.848h44.624v334.624h-44.624v-334.624zM412.24 391.472h-21.856v-244.384h21.856v244.384zM133.232 391.472h-21.616v-244.384h21.616v244.384zM410.928 116.288v-14.128l14.64 12.72v-57.744h13.12v71.888h-13.12l-14.64-12.736zM435.008 147.072h21.312v244.4h-21.312v-244.4zM350.784 105.888h12.512v11.312h18.976l-23.328-60.080h14.24l23.328 60.080v11.808h-45.728v-23.12zM479.632 391.472v-334.624h32.368v334.624h-32.368zM340.608 108.72c0 12.928-9.088 20.896-21.808 20.896-12.32 0-21.904-7.872-21.904-20.992h13.12c0 6.96 4.432 9.168 8.768 9.168 5.552 0 8.688-3.632 8.688-8.992 0-3.328-1.104-5.552-3.744-8.672l-26.848-31.184v-11.824h43.696v11.84h-27.76l20.080 23.312c4.992 5.744 7.712 9.472 7.712 16.448zM156.080 147.072h77.216v244.4h-77.216v-244.4zM157.328 100.24c-1.696 0-3.632-0.192-5.344-0.896l14.944 29.664h-14.352l-15.136-31.088c-3.232-6.56-6.064-12.624-6.064-19.184 0-14.24 9.68-22.208 22.4-22.208s22.4 8.288 22.4 22.4c0.016 13.344-9.152 21.312-18.848 21.312zM153.792 68.336c-5.344 0-9.296 3.84-9.296 10.496s3.936 10.496 9.296 10.496c5.552 0 9.28-4.144 9.28-10.496 0-6.64-3.936-10.496-9.28-10.496zM186.384 105.888h12.528v11.312h18.976l-23.312-60.080h14.224l23.328 60.080v11.808h-45.728v-23.12h-0.016zM276.816 94.288c4.736 2.528 8.272 6.976 8.272 14.752 0 12.112-9.184 20.576-21.904 20.576-12.112 0-21.696-7.664-22.016-20.48h13.12c0.32 5.44 3.936 8.672 8.896 8.672 4.736 0 8.768-3.104 8.768-9.168 0-5.056-2.72-8.992-9.072-8.992h-1.92v-11.408h1.936c6.464 0 10.080-3.936 10.080-9.872 0-6.464-4.032-10-9.68-10-5.136 0-9.6 2.928-9.776 9.392h-13.12c0.192-15.040 11.2-21.2 22.912-21.2 12.32 0 22.816 7.056 22.816 21.408-0.032 8.64-4.16 13.6-9.312 16.32z" />
<glyph unicode="&#xe616;" d="M508.304 350.528c-2.976 4.928-9.088 10.784-21.328 10.784h-340.88l-16.56 35.728c-0.992 2.448-2.32 4.848-4.32 7.504-1.152 1.552-2.432 2.976-4.528 4.848-1.36 1.184-2.784 2.272-4.304 3.2l-0.816 0.464c-1.536 0.88-3.12 1.664-4.752 2.272l-1.088 0.352c-1.6 0.528-3.216 0.992-4.896 1.264l-2.32 0.272c-1.024 0.144-2.064 0.256-3.12 0.256h-66.88c-17.92 0-32.512-14.576-32.512-32.512s14.592-32.528 32.512-32.528h46.016l18.592-40.192c4.544-13.296 10.928-24.768 10.96-24.768l45.936-103.12c0.384-0.832 0.832-1.6 1.488-2.608l8.56-18.24c3.296-10.768 11.84-18.928 22.336-21.92l-0.096-1.408 233.408 0.192-0.128 1.28c10.384 3.040 18.832 11.168 22.112 21.856l55.792 123.6c3.808 7.248 22.288 44.4 10.816 63.424zM480.896 295.36l-52.944-117.536-1.472 0.368-2.368-8.784c-1.664-6.208-7.296-10.544-14.288-10.544-0.032 0-0.064 0.016-0.096 0.016l-10.544 0.32 0.032-0.496-203.808 0.144c-6.432 0-12.096 4.336-13.776 10.56l-2.4 8.784-1.424-0.352-53.264 118.128c-0.048 0.096-6.032 10.832-10.016 22.688l-24.144 52.32h-57.872c-7.712 0-14 6.272-14 14 0 7.712 6.272 14 14 14l67.52-0.080 1.696-0.176c0.704-0.128 1.392-0.336 2.544-0.704 0.704-0.272 1.376-0.608 2.4-1.168 0.656-0.432 1.248-0.896 2.144-1.648 0.608-0.56 1.152-1.168 1.808-2.016 0.752-1.024 1.312-2.016 1.92-3.472l21.712-46.928h352.72c4.352 0 5.168-1.312 5.456-1.824 3.968-6.576-2.656-28.688-11.536-45.6zM231.008 121.504c-25.088 0-45.488-20.4-45.488-45.488s20.4-45.488 45.488-45.488c25.072 0 45.472 20.4 45.472 45.488s-20.4 45.488-45.472 45.488zM231.008 46.976c-16.032 0-29.056 13.024-29.056 29.040s13.024 29.056 29.056 29.056c16.016 0 29.056-13.040 29.056-29.056s-13.056-29.040-29.056-29.040zM388.688 121.504c-25.088 0-45.504-20.4-45.504-45.488s20.416-45.488 45.504-45.488c25.072 0 45.472 20.4 45.472 45.488s-20.384 45.488-45.472 45.488zM388.688 46.976c-16.032 0-29.072 13.024-29.072 29.040s13.024 29.056 29.072 29.056c16.016 0 29.056-13.040 29.056-29.056s-13.040-29.040-29.056-29.040z" />
<glyph unicode="&#xe617;" d="M414.656 4.656h-317.312v382.688h317.344l-0.032-382.688zM116 23.344h280v345.328h-280v-345.328zM358.656 368.672h-205.312v74.672h205.344l-0.032-74.672zM172 387.344h168v37.328h-168v-37.328zM181.344 70c-5.168 0-9.344 4.176-9.344 9.344v233.328c0 5.152 4.176 9.328 9.344 9.328s9.344-4.176 9.344-9.328v-233.344c-0.032-5.152-4.192-9.328-9.344-9.328zM256 70c-5.168 0-9.344 4.176-9.344 9.344v233.328c0 5.152 4.176 9.328 9.344 9.328s9.344-4.176 9.344-9.328v-233.344c0-5.152-4.176-9.328-9.344-9.328zM330.656 70c-5.152 0-9.328 4.176-9.328 9.344v233.328c0 5.152 4.176 9.328 9.328 9.328 5.168 0 9.344-4.176 9.344-9.328v-233.344c0-5.152-4.176-9.328-9.344-9.328zM32 387.344h448v-18.656h-448v18.656z" />
<glyph unicode="&#xe618;" d="M392.672 450.784c-0.784 0.208-1.536 0.16-2.272 0.096h-38.432v20.448c0 4.8-3.92 8.672-8.672 8.672-4.784 0-8.672-3.872-8.672-8.672v-20.448h-40.784v20.448c0 4.8-3.92 8.672-8.672 8.672-4.8 0-8.72-3.872-8.72-8.672v-20.448h-40.832v20.448c0 4.8-3.872 8.672-8.672 8.672-4.752 0-8.656-3.872-8.656-8.672v-20.448h-40.8v20.448c0 4.8-3.888 8.672-8.672 8.672s-8.672-3.872-8.672-8.672v-20.448h-38.48c-0.784 0.016-1.472 0.016-2.272 0-20.304-0.656-36.608-17.328-36.608-37.76v-436.464c0-4.784 3.904-8.656 8.656-8.656h329.12c4.8 0 8.64 3.872 8.64 8.656v436.464c0.016 20.432-16.256 37.104-36.528 37.664zM100.112 413.12c0 11.248 9.12 20.368 20.384 20.368 0.048 0 0.048 0 0.128 0h39.52v-20.4c0-4.8 3.888-8.656 8.672-8.656s8.672 3.856 8.672 8.656v20.416h40.8v-20.4c0-4.8 3.904-8.656 8.656-8.656 4.8 0 8.672 3.856 8.672 8.656v20.4h40.832v-20.4c0-4.8 3.92-8.656 8.72-8.656 4.752 0 8.672 3.856 8.672 8.656v20.4h40.784v-20.4c0-4.8 3.888-8.656 8.672-8.656 4.752 0 8.672 3.856 8.672 8.656v20.4h39.424c0.096 0 0.096 0 0.176 0 11.184 0 20.32-9.12 20.32-20.368v-78.624h-311.776v78.608zM411.888 276.256h-311.776v40.912h311.744v-40.912h0.032zM100.112 84.4h311.744v-40.88h-311.744v40.88zM100.112 101.712v40.88h311.744v-40.88h-311.744zM100.112 159.904v40.88h311.744v-40.88h-311.744zM100.112 218.096v40.8h311.744v-40.8h-311.744zM100.112-14.688v40.88h311.744v-40.88h-311.744z" />
<glyph unicode="&#xe619;" d="M469.344 378.672c14.704 0 26.656-11.968 26.656-26.672v-256c0-14.704-11.968-26.672-26.672-26.672h-426.656c-14.704 0-26.672 11.968-26.672 26.672v256c0 14.704 11.968 26.672 26.672 26.672h426.672zM469.344 394.672h-426.672c-23.536 0-42.672-19.136-42.672-42.672v-256c0-23.536 19.136-42.672 42.672-42.672h426.656c23.536 0 42.672 19.136 42.672 42.672v256c0 23.536-19.136 42.672-42.656 42.672v0zM255.696 163.28l-237.168 192.944c-3.424 2.784-3.936 7.808-1.152 11.248 2.784 3.424 7.824 3.952 11.248 1.152l227.088-184.72 226.832 183.968c3.44 2.784 8.48 2.272 11.248-1.168 2.784-3.424 2.256-8.464-1.168-11.248l-236.928-192.176zM487.568 70.352c-1.712 0-3.456 0.544-4.928 1.696l-171.072 133.776c-3.472 2.72-4.096 7.744-1.376 11.232s7.744 4.112 11.232 1.376l171.072-133.792c3.472-2.72 4.096-7.744 1.376-11.216-1.568-2.016-3.92-3.072-6.304-3.072zM23.584 69.6c-2.368 0-4.72 1.040-6.304 3.056-2.72 3.472-2.112 8.496 1.36 11.232l171.248 134.352c3.456 2.736 8.512 2.128 11.232-1.36 2.72-3.472 2.112-8.512-1.36-11.232l-171.248-134.352c-1.456-1.136-3.2-1.696-4.928-1.696z" />
<glyph unicode="&#xe61a;" d="M408.784 320.208c-4.416 0-8 3.584-8 8v96c0 4.416 3.584 8 8 8h96c4.416 0 8-3.584 8-8s-3.584-8-8-8h-88v-88c0-4.416-3.568-8-8-8zM256.688-31.808c-31.168 0-62.592 5.68-92.72 17.408-4.112 1.6-6.16 6.24-4.56 10.336 1.6 4.144 6.224 6.192 10.352 4.56 88.704-34.448 189.504-13.28 256.8 54 93.568 93.584 93.584 245.84 0 339.424l-16.976 16.976c-3.12 3.12-3.12 8.192 0 11.312s8.192 3.12 11.312 0l16.976-16.976c99.808-99.808 99.808-262.224 0-362.048-48.912-48.896-114.464-74.992-181.184-74.992zM104.784 16.224h-96c-4.416 0-8 3.584-8 8s3.584 8 8 8h88v88c0 4.416 3.584 8 8 8s8-3.584 8-8v-96c0-4.416-3.568-8-8-8zM104.4 15.824c-2.048 0-4.096 0.784-5.664 2.336l-24.688 24.688c-99.808 99.808-99.808 262.224 0 362.032 70.592 70.592 176.656 93.728 270.272 59.008 4.144-1.536 6.256-6.144 4.72-10.288-1.52-4.144-6.128-6.288-10.288-4.72-87.76 32.592-187.2 10.88-253.376-55.296-93.568-93.568-93.568-245.84 0-339.408l24.688-24.688c3.12-3.12 3.12-8.192 0-11.312-1.568-1.568-3.616-2.352-5.664-2.352z" />
<glyph unicode="&#xe61b;" d="M256-32c-10.224 0-17.040 0.624-17.040 0.624-10.272 0.928-20.192 9.52-22.608 19.536l-12.448 51.648c-0.992 4.144-5.744 9.36-9.76 10.752l-16.608 6.848c-4.624 2.208-11.536 1.6-14.928-0.464l-45.328-27.712c-8.64-5.312-22.144-4.096-29.728 2.672l-23.376 23.344c-7.248 8.144-8.416 21.2-2.976 30.080l27.696 45.296c2.208 3.632 2.544 10.656 0.672 14.464l-6.88 16.64c-1.552 4.448-6.768 9.2-10.896 10.192l-51.632 12.416c-10.016 2.4-18.608 12.336-19.536 22.624v0c0 0.016-0.624 6.816-0.624 17.040s0.624 17.040 0.624 17.040c0.928 10.272 9.504 20.192 19.536 22.608l51.648 12.448c4.128 0.992 9.344 5.728 10.736 9.744l6.832 16.624c2.080 4.272 1.744 11.312-0.464 14.928l-27.712 45.312c-5.44 8.896-4.272 21.952 2.656 29.728l23.36 23.376c8.16 7.296 21.392 8.272 30.064 2.992l45.312-27.712c3.408-2.080 10.896-2.4 14.464-0.672l16.64 6.88c4.464 1.552 9.2 6.768 10.192 10.896l12.464 51.664c2.4 10.016 12.336 18.608 22.608 19.536 0-0.016 6.816 0.608 17.040 0.608s17.040-0.624 17.040-0.624c10.272-0.928 20.192-9.504 22.608-19.536l12.448-51.648c0.992-4.128 5.728-9.344 9.744-10.736l16.624-6.832c4.64-2.224 11.552-1.6 14.928 0.464l45.328 27.712c8.672 5.312 22.144 4.080 29.728-2.656l23.376-23.36c7.248-8.112 8.416-21.168 2.992-30.064l-27.712-45.312c-2.208-3.632-2.544-10.656-0.672-14.464l6.88-16.64c1.552-4.464 6.768-9.2 10.896-10.192l51.664-12.464c10.016-2.4 18.608-12.336 19.536-22.608v0c0 0 0.624-6.816 0.624-17.040 0-10.224-0.624-17.024-0.624-17.024-0.928-10.288-9.504-20.224-19.536-22.624l-51.648-12.448c-4.128-0.992-9.344-5.728-10.736-9.744l-6.848-16.608c-2.064-4.288-1.728-11.312 0.48-14.944l27.712-45.312c5.424-8.88 4.272-21.936-2.672-29.712l-23.36-23.376c-4.688-4.208-10.864-6.416-17.248-6.416v0c-4.704 0-9.152 1.184-12.832 3.456l-45.312 27.68c-3.408 2.096-10.928 2.432-14.448 0.688l-16.656-6.88c-4.448-1.568-9.184-6.784-10.176-10.928l-12.464-51.648c-2.4-10.016-12.336-18.608-22.608-19.536-0.016 0-6.832-0.624-17.056-0.624zM170.752 74.8c4.944 0 9.568-0.976 13.36-2.832l15.696-6.464c8.736-3.008 17.376-12.528 19.648-21.952l12.448-51.648c0.832-3.456 4.96-7.024 8.496-7.344 0.176-0.016 6.368-0.56 15.6-0.56s15.424 0.544 15.6 0.56c3.536 0.32 7.664 3.888 8.496 7.344l12.464 51.648c2.256 9.424 10.896 18.944 20.064 22.128l15.744 6.496c7.424 3.712 21.328 3.344 29.376-1.632l45.296-27.68c1.152-0.72 2.736-1.088 4.48-1.088v0c2.448 0 4.848 0.784 6.272 2.048l22.704 22.72c1.984 2.256 2.448 7.472 0.656 10.4l-27.728 45.312c-5.056 8.304-5.664 21.12-1.392 29.84l6.48 15.696c2.992 8.752 12.496 17.376 21.952 19.664l51.648 12.448c3.456 0.832 7.024 4.96 7.344 8.496 0 0.176 0.544 6.368 0.544 15.6s-0.544 15.424-0.56 15.6c-0.32 3.536-3.888 7.664-7.328 8.496l-51.664 12.464c-9.44 2.272-18.944 10.896-22.112 20.080l-6.512 15.712c-4.064 8.272-3.456 21.088 1.6 29.376l27.712 45.312c1.808 2.944 1.328 8.176-0.96 10.752l-22.72 22.704c-1.856 1.632-7.648 2.336-10.416 0.64l-45.312-27.712c-8.032-4.912-21.328-5.552-29.84-1.392l-15.712 6.464c-8.736 3.008-17.376 12.512-19.648 21.968l-12.448 51.648c-0.832 3.456-4.96 7.024-8.496 7.344-0.16 0-6.352 0.544-15.584 0.544s-15.424-0.544-15.6-0.56c-3.536-0.32-7.664-3.888-8.496-7.328l-12.464-51.664c-2.272-9.44-10.896-18.944-20.080-22.112l-15.728-6.512c-7.488-3.664-21.328-3.312-29.376 1.616l-45.312 27.712c-2.752 1.696-8.32 1.216-10.752-0.96l-22.704-22.72c-1.984-2.24-2.432-7.456-0.64-10.416l27.712-45.312c5.056-8.288 5.664-21.12 1.392-29.84l-6.464-15.712c-3.008-8.736-12.512-17.36-21.968-19.648l-51.648-12.448c-3.456-0.832-7.024-4.96-7.344-8.496 0.016-0.176-0.528-6.368-0.528-15.6s0.544-15.424 0.56-15.6c0.32-3.552 3.888-7.664 7.328-8.496l51.664-12.448c9.424-2.272 18.944-10.912 22.112-20.096l6.512-15.728c4.048-8.256 3.456-21.072-1.616-29.376l-27.712-45.312c-1.808-2.96-1.344-8.16 0.96-10.752l22.72-22.688c1.888-1.632 7.648-2.352 10.4-0.656l45.328 27.712c4.464 2.736 10.32 4.24 16.496 4.24zM256 116.8c-59.104 0-107.2 48.096-107.2 107.2s48.096 107.2 107.2 107.2 107.2-48.096 107.2-107.2-48.096-107.2-107.2-107.2zM256 315.2c-50.288 0-91.2-40.912-91.2-91.2 0-50.304 40.912-91.2 91.2-91.2s91.2 40.912 91.2 91.2c0 50.288-40.912 91.2-91.2 91.2z" />
<glyph unicode="&#xe61c;" d="M102.304-32.528v0c-14.256 0-28.208 3.152-41.456 9.408-2.352 1.104-4.016 3.28-4.48 5.84-0.448 2.56 0.368 5.184 2.208 7.024l55.648 56c3.696 3.728 3.856 9.184 0.352 12.72l-24.112 25.232c-3.088 3.12-8.992 2.624-12.672-1.088l-55.872-56.144c-1.856-1.888-4.528-2.72-7.152-2.224-2.608 0.48-4.8 2.24-5.856 4.672-16.048 36.912-8.016 79.28 20.496 107.952 18.928 19.040 45.52 29.952 72.944 29.952 11.184 0 21.904-1.792 31.952-5.376l184.624 184.64c-12.672 35.936-3.2 78.864 23.984 106.192 28.608 28.8 72.096 36.368 108.768 19.072 2.352-1.104 4.032-3.296 4.48-5.856 0.448-2.576-0.384-5.184-2.224-7.024l-56-56c-3.584-3.616-3.584-9.072 0.016-12.704l23.984-23.984c3.552-3.584 9.376-3.616 12.816-0.16l55.856 56.144c1.872 1.872 4.512 2.672 7.152 2.224 2.608-0.48 4.8-2.24 5.856-4.672 16.064-36.912 8.016-79.296-20.48-107.968-18.928-19.040-45.504-29.968-72.944-29.968-11.184 0-21.904 1.808-31.952 5.376l-184.624-184.64c12.672-35.904 3.2-78.848-23.968-106.176-18.304-18.352-42.192-28.464-67.344-28.464zM78.512-12.896c27.84-8.688 58.64-1.12 79.76 20.128 23.632 23.76 31.456 63.2 18.608 93.776-1.264 2.992-0.576 6.448 1.712 8.752l192 192c2.32 2.304 5.792 2.976 8.784 1.696 9.488-4.032 19.856-6.080 30.784-6.080 23.2 0 45.648 9.2 61.6 25.248 20.944 21.056 28.688 50.96 21.184 78.816l-46.88-47.104c-9.472-9.552-25.92-9.488-35.488 0.144l-23.984 23.984c-9.84 9.92-9.84 25.408-0.016 35.296l47.376 47.376c-27.84 8.672-58.608 1.12-79.712-20.128-23.632-23.776-31.456-63.216-18.608-93.776 1.264-3.008 0.576-6.464-1.712-8.752l-192-192c-2.32-2.32-5.792-3.008-8.784-1.696-9.488 4.032-19.84 6.080-30.768 6.080-23.2 0-45.648-9.184-61.6-25.232-20.944-21.056-28.688-50.96-21.184-78.816l46.88 47.104c9.664 9.76 26.208 10.336 35.488 0.992l24.096-25.232c9.632-9.664 9.472-25.168-0.464-35.168l-47.072-47.408zM461.008-28.992c-6.784 0-13.152 2.656-17.936 7.472l-160.464 159.968c-3.12 3.12-3.136 8.192-0.016 11.312 3.12 3.152 8.192 3.12 11.312 0.032l160.496-160c3.584-3.6 9.696-3.568 13.216-0.032l22.864 23.888c3.776 3.792 3.776 9.136 0.112 12.832l-159.984 159.984c-3.12 3.12-3.12 8.192 0 11.312s8.192 3.12 11.312 0l160-160c9.856-9.904 9.856-25.408 0.016-35.296l-22.864-23.888c-4.912-4.928-11.28-7.584-18.064-7.584zM200.24 272.112c-2.048 0-4.096 0.784-5.664 2.336l-128 128c-3.12 3.12-3.12 8.192 0 11.312s8.192 3.12 11.312 0l128-128c3.12-3.12 3.12-8.192 0-11.312-1.552-1.552-3.6-2.336-5.648-2.336zM56.24 384.112c-2.048 0-4.096 0.784-5.664 2.336l-48 48c-3.12 3.12-3.12 8.192 0 11.312l32 32c3.12 3.12 8.192 3.12 11.312 0l48-48c3.12-3.12 3.12-8.192 0-11.312l-32-32c-1.552-1.552-3.6-2.336-5.648-2.336zM19.568 440.112l36.688-36.688 20.688 20.688-36.704 36.688-20.672-20.688z" />
<glyph unicode="&#xe61d;" d="M168 144c-92.64 0-168 75.36-168 168s75.36 168 168 168 168-75.36 168-168-75.36-168-168-168zM168 464c-83.808 0-152-68.192-152-152s68.192-152 152-152 152 68.192 152 152-68.192 152-152 152zM168 192c-66.176 0-120 53.824-120 120s53.824 120 120 120 120-53.824 120-120-53.824-120-120-120zM168 416c-57.344 0-104-46.656-104-104s46.656-104 104-104 104 46.656 104 104-46.656 104-104 104zM480-32c-8.544 0-16.576 3.328-22.624 9.376l-135.76 135.76c-6.048 6.032-9.376 14.064-9.376 22.624 0 8.544 3.328 16.576 9.376 22.624 12.096 12.096 33.152 12.096 45.248 0l135.76-135.76c6.048-6.032 9.376-14.080 9.376-22.624s-3.328-16.592-9.376-22.624c-6.048-6.048-14.080-9.376-22.624-9.376zM344.24 151.76c-4.272 0-8.288-1.664-11.312-4.688-3.008-3.024-4.688-7.040-4.688-11.312s1.664-8.288 4.688-11.312l135.76-135.76c6.064-6.048 16.56-6.048 22.624 0 3.024 3.024 4.688 7.040 4.688 11.312s-1.664 8.288-4.688 11.312l-135.76 135.76c-3.040 3.024-7.056 4.688-11.312 4.688zM327.264 144.736c-2.048 0-4.096 0.784-5.664 2.336l-39.264 39.264c-3.12 3.12-3.12 8.192 0 11.312s8.192 3.12 11.312 0l39.264-39.264c3.12-3.12 3.12-8.192 0-11.312-1.552-1.552-3.6-2.336-5.648-2.336z" />
<glyph unicode="&#xe61e;" d="M256-32c-1.824 0-3.664 0.624-5.152 1.872-7.632 6.416-186.848 158.96-186.848 317.776 0 106.064 86.128 192.352 192 192.352s192-86.288 192-192.352c0-161.648-179.28-311.52-186.912-317.824-1.472-1.216-3.28-1.824-5.088-1.824zM256 464c-97.040 0-176-79.104-176-176.352 0-136.832 146.592-274.736 176.048-301.056 29.52 25.968 175.952 161.808 175.952 301.056 0 97.248-78.96 176.352-176 176.352zM256 192c-52.944 0-96 43.056-96 96s43.056 96 96 96 96-43.056 96-96-43.056-96-96-96zM256 368c-44.112 0-80-35.888-80-80s35.888-80 80-80 80 35.888 80 80-35.888 80-80 80z" />
<glyph unicode="&#xe61f;" d="M208 160c0 17.648-14.352 32-32 32s-32-14.352-32-32v-28.4c-10.048-9.024-16-21.968-16-35.6 0-26.464 21.536-48 48-48 26.464 0 48 21.536 48 48 0 13.632-5.952 26.576-16 35.6v28.4zM176 64c-17.664 0-32 14.336-32 32 0 11.808 6.48 22.016 16 27.568v36.432c0 8.848 7.168 16 16 16s16-7.152 16-16v-36.432c9.52-5.552 16-15.76 16-27.568 0-17.664-14.336-32-32-32zM376 480c-74.992 0-136-61.008-136-136v-88h-192c-26.464 0-48-21.536-48-48v-192c0-26.464 21.536-48 48-48h256c26.464 0 48 21.536 48 48v192c0 26.464-21.536 48-48 48h-16v88c0 48.528 39.488 88 88 88s88-39.472 88-88v-96c0-13.232 10.768-24 24-24s24 10.768 24 24v96c0 74.992-61.008 136-136 136zM496 248c0-4.416-3.6-8-8-8s-8 3.584-8 8v96c0 57.344-46.656 104-104 104s-104-46.656-104-104v-104h32c17.648 0 32-14.352 32-32v-192c0-17.648-14.352-32-32-32h-256c-17.648 0-32 14.352-32 32v192c0 17.648 14.352 32 32 32h208v104c0 66.176 53.824 120 120 120s120-53.824 120-120v-96z" />
<glyph unicode="&#xe620;" d="M256 464c61.76 0 112-50.24 112-112v-112h16c17.648 0 32-14.352 32-32v-192c0-17.648-14.352-32-32-32h-256c-17.648 0-32 14.352-32 32v192c0 17.648 14.352 32 32 32h16v112c0 61.76 50.24 112 112 112zM224 131.6c-10.048-9.024-16-21.968-16-35.6 0-26.464 21.536-48 48-48s48 21.536 48 48c0 13.632-5.952 26.576-16 35.6v28.4c0 17.648-14.352 32-32 32s-32-14.352-32-32v-28.4zM256 480c-70.576 0-128-57.424-128-128v-96c-26.464 0-48-21.536-48-48v-192c0-26.464 21.536-48 48-48h256c26.464 0 48 21.536 48 48v192c0 26.464-21.536 48-48 48v96c0 70.576-57.424 128-128 128v0zM256 64c-17.664 0-32 14.336-32 32 0 11.824 6.48 22.016 16 27.568v36.432c0 8.848 7.168 16 16 16s16-7.152 16-16v-36.432c9.52-5.552 16-15.76 16-27.568 0-17.664-14.336-32-32-32v0zM256 432c44.112 0 80-35.888 80-80v-96h-160v96c0 44.112 35.888 80 80 80zM256 448c-52.944 0-96-43.056-96-96v-112h192v112c0 52.944-43.056 96-96 96v0z" />
<glyph unicode="&#xe621;" d="M400 431.984c13.376 0 24.48-4.592 33.936-14.048 9.456-9.44 14.048-20.544 14.048-33.936 0-13.376-4.592-24.464-14.080-33.92-9.424-9.472-20.528-14.080-33.904-14.080s-24.48 4.608-33.936 14.096c-9.472 9.456-14.080 20.544-14.080 33.904 0 13.376 4.608 24.48 14.080 33.952 9.456 9.44 20.544 14.032 33.936 14.032zM112 431.984c13.36 0 24.464-4.592 33.936-14.048 9.456-9.44 14.064-20.544 14.064-33.936 0-13.376-4.592-24.464-14.064-33.92-9.472-9.472-20.56-14.080-33.936-14.080-13.376 0-24.48 4.608-33.936 14.080-9.472 9.472-14.064 20.56-14.064 33.92 0 13.376 4.592 24.48 14.048 33.936 9.472 9.456 20.576 14.048 33.952 14.048zM256 368c22.304 0 40.8-7.664 56.56-23.456 15.776-15.76 23.44-34.256 23.44-56.528 0-22.272-7.664-40.784-23.44-56.576-15.792-15.776-34.304-23.456-56.56-23.456s-40.768 7.664-56.56 23.44c-15.776 15.792-23.44 34.304-23.44 56.592 0 22.288 7.664 40.784 23.456 56.544 15.744 15.76 34.24 23.44 56.544 23.44zM466.688 303.376c4.72-3.232 13.312-19.744 13.312-71.632 0-10.016-3.952-14.16-7.392-16.656-6.608-4.784-14.816-7.104-25.104-7.104h-26.336c-13.568 14.24-29.632 23.792-48.016 28.544 6.672 14.928 10.288 30.768 10.8 47.36 5.328-0.768 10.688-1.152 16.064-1.152 11.632 0 23.456 2.128 35.168 6.32 10.72 3.856 19.728 7.792 26.784 11.712 2.048 1.184 3.6 2.016 4.72 2.608zM45.312 303.36c1.136-0.592 2.688-1.44 4.8-2.624 7.072-3.92 16.080-7.856 26.736-11.68 11.68-4.192 23.52-6.32 35.168-6.32 5.36 0 10.72 0.384 16.064 1.152 0.512-16.576 4.128-32.416 10.8-47.36-18.384-4.768-34.448-14.304-48.016-28.544h-26.368c-10.288 0-18.512 2.32-25.12 7.12-3.44 2.48-7.376 6.608-7.376 16.64 0 51.856 8.592 68.384 13.312 71.616zM164.016 191.984c0.896-0.496 2.336-1.328 4.496-2.736 5.472-3.568 11.536-7.568 18.16-11.952 7.92-5.248 17.952-9.792 30.688-13.872 12.688-4.080 25.696-6.16 38.656-6.16 12.928 0 25.936 2.064 38.656 6.16 12.704 4.096 22.736 8.624 30.688 13.872 6.624 4.384 12.672 8.384 18.144 11.952 2.16 1.408 3.6 2.256 4.496 2.736 7.12-0.24 13.664-1.536 19.52-3.872 6.448-2.544 11.904-5.92 16.16-9.984 4.72-4.544 8.992-10.144 12.688-16.64 3.936-6.912 7.104-14.096 9.424-21.344 2.448-7.632 4.496-16.064 6.128-25.072 1.632-9.024 2.72-17.616 3.28-25.552 0.56-7.984 0.832-16.304 0.832-24.752 0-15.552-4.352-27.264-13.28-35.776-9.152-8.72-21.408-12.944-37.472-12.944h-218.528c-16.064 0-28.32 4.24-37.472 12.944-8.944 8.512-13.296 20.224-13.296 35.776 0 8.448 0.288 16.768 0.832 24.752 0.544 7.808 1.648 16.416 3.296 25.584 1.568 8.816 3.632 17.264 6.096 25.024 2.336 7.264 5.52 14.464 9.408 21.344 3.728 6.528 8.016 12.128 12.672 16.624 4.304 4.112 9.744 7.488 16.224 10.048 5.84 2.304 12.384 3.6 19.504 3.84zM400 447.984c-17.68 0-32.752-6.24-45.248-18.736-12.496-12.48-18.768-27.584-18.768-45.248 0-17.68 6.256-32.736 18.768-45.216 12.496-12.544 27.568-18.784 45.248-18.784 17.648 0 32.752 6.24 45.248 18.768 12.512 12.48 18.752 27.552 18.752 45.216 0 17.68-6.24 32.768-18.752 45.264-12.496 12.496-27.6 18.736-45.248 18.736v0zM112 447.984c-17.68 0-32.752-6.24-45.264-18.736-12.48-12.48-18.736-27.584-18.736-45.248 0-17.68 6.256-32.736 18.752-45.216 12.496-12.544 27.584-18.784 45.248-18.784 17.648 0 32.736 6.24 45.248 18.768 12.496 12.496 18.752 27.552 18.752 45.232 0 17.68-6.24 32.768-18.752 45.264-12.512 12.48-27.584 18.72-45.248 18.72v0zM256 384c-26.512 0-49.12-9.36-67.872-28.128-18.752-18.736-28.128-41.376-28.128-67.856 0-26.496 9.376-49.12 28.128-67.888 18.752-18.736 41.36-28.128 67.872-28.128 26.496 0 49.12 9.408 67.872 28.128 18.752 18.752 28.128 41.392 28.128 67.888 0 26.496-9.376 49.12-28.128 67.856-18.752 18.752-41.376 28.128-67.872 28.128v0zM465.008 320c-1.008 0-4.624-1.76-10.88-5.264-6.24-3.472-14.384-7.024-24.368-10.608-10.016-3.584-19.92-5.392-29.744-5.392-11.184 0-22.256 1.904-33.248 5.776 0.8-6.16 1.232-11.664 1.232-16.496 0-23.184-6.752-44.512-20.256-63.984 27.008-0.864 49.088-11.504 66.256-32.032h33.504c13.664 0 25.168 3.392 34.496 10.144 9.312 6.736 14 16.608 14 29.6 0 58.848-10.336 88.256-30.992 88.256v0zM46.992 320c-20.656 0-30.992-29.408-30.992-88.256 0-12.992 4.656-22.864 14-29.616 9.328-6.752 20.816-10.144 34.496-10.144h33.504c17.168 20.528 39.248 31.168 66.256 32.032-13.504 19.472-20.256 40.816-20.256 64 0 4.832 0.416 10.336 1.248 16.512-11.008-3.872-22.080-5.792-33.248-5.792-9.84 0-19.76 1.792-29.744 5.392-10.016 3.584-18.128 7.136-24.384 10.608-6.256 3.52-9.872 5.264-10.88 5.264v0zM345.488 208.016c-1.664 0-5.248-1.792-10.752-5.392-5.504-3.584-11.584-7.616-18.24-12.016-6.672-4.416-15.584-8.384-26.752-11.984-11.184-3.584-22.416-5.392-33.744-5.392s-22.592 1.792-33.744 5.392c-11.184 3.584-20.096 7.568-26.752 11.984-6.672 4.416-12.752 8.432-18.256 12.016-5.504 3.584-9.072 5.392-10.752 5.392-10.16 0-19.456-1.68-27.872-5.040-8.416-3.312-15.536-7.76-21.36-13.344-5.84-5.616-11.008-12.368-15.504-20.256-4.48-7.92-8.080-16.080-10.752-24.384-2.656-8.352-4.88-17.36-6.608-27.12-1.76-9.76-2.928-18.848-3.504-27.28-0.592-8.384-0.88-17.008-0.88-25.872 0-19.984 6.080-35.776 18.256-47.36 12.16-11.584 28.32-17.36 48.496-17.36h218.496c20.16 0 36.32 5.776 48.496 17.36 12.16 11.584 18.24 27.392 18.24 47.36 0 8.864-0.288 17.472-0.88 25.872-0.592 8.432-1.744 17.52-3.488 27.28-1.76 9.76-3.968 18.768-6.64 27.12-2.656 8.304-6.24 16.464-10.752 24.384-4.48 7.888-9.664 14.624-15.488 20.256-5.84 5.584-12.976 10.032-21.376 13.344-8.416 3.376-17.728 5.040-27.888 5.040v0z" />
<glyph unicode="&#xe622;" d="M255.984 448c28.976 0 53.040-9.952 73.536-30.432 20.512-20.512 30.48-44.576 30.48-73.552 0-28.992-9.968-53.040-30.48-73.552-20.496-20.48-44.56-30.432-73.536-30.432s-53.040 9.952-73.52 30.432c-20.496 20.512-30.464 44.576-30.464 73.552 0 28.976 9.968 53.040 30.448 73.552 20.512 20.48 44.56 30.432 73.536 30.432zM141.728 228c1.152-0.608 3.248-1.808 6.768-4.096 6.928-4.512 14.72-9.568 23.424-15.104 9.84-6.272 22.080-11.744 37.424-16.704 15.376-4.976 31.072-7.504 46.64-7.504 15.584 0 31.28 2.528 46.656 7.504 15.328 4.96 27.568 10.432 37.424 16.704 8.688 5.536 16.512 10.592 23.424 15.104 3.52 2.304 5.616 3.488 6.768 4.096 9.664-0.24 18.592-1.952 26.528-5.072 8.576-3.424 15.84-7.936 21.568-13.424 6.128-5.872 11.696-13.152 16.528-21.632 5.072-8.96 9.152-18.192 12.112-27.44 3.152-9.936 5.776-20.656 7.776-31.888 2.080-11.568 3.488-22.464 4.176-32.368 0.704-10.064 1.056-20.576 1.056-31.232 0-20.608-5.84-36.192-17.872-47.632-12.176-11.664-28.4-17.312-49.568-17.312h-273.136c-21.152 0-37.376 5.664-49.584 17.28-12 11.44-17.84 27.024-17.84 47.632 0 10.656 0.352 21.152 1.056 31.232 0.688 9.84 2.080 20.752 4.144 32.368 2.064 11.424 4.672 22.144 7.792 31.888 2.944 9.248 7.008 18.48 12.096 27.424 4.864 8.544 10.416 15.824 16.512 21.664 5.744 5.488 13.008 10.016 21.536 13.408 7.984 3.136 16.912 4.848 26.592 5.104zM255.984 464c-33.12 0-61.408-11.712-84.848-35.12-23.424-23.456-35.136-51.744-35.136-84.864 0-33.12 11.712-61.408 35.136-84.864 23.44-23.408 51.728-35.12 84.848-35.12 33.136 0 61.408 11.712 84.848 35.12 23.456 23.456 35.168 51.744 35.168 84.864 0 33.12-11.712 61.408-35.168 84.864-23.44 23.408-51.696 35.12-84.848 35.12v0zM367.872 244.016c-1.872 0-6.24-2.24-13.12-6.736-6.88-4.48-14.656-9.504-23.296-15.024-8.656-5.504-19.904-10.48-33.76-14.976-13.856-4.48-27.76-6.736-41.728-6.736-13.952 0-27.856 2.24-41.696 6.736-13.872 4.48-25.12 9.456-33.76 14.976-8.656 5.504-16.416 10.528-23.296 15.024-6.88 4.48-11.248 6.736-13.12 6.736-12.704 0-24.336-2.096-34.848-6.24-10.528-4.192-19.44-9.76-26.736-16.736-7.296-6.976-13.728-15.408-19.36-25.312s-10.128-20.048-13.44-30.48c-3.344-10.432-6.096-21.712-8.288-33.904-2.176-12.192-3.632-23.552-4.368-34.096-0.736-10.48-1.104-21.264-1.104-32.336 0-24.976 7.616-44.72 22.8-59.216 15.248-14.48 35.472-21.696 60.672-21.696h273.136c25.216 0 45.44 7.216 60.624 21.712 15.216 14.48 22.832 34.24 22.832 59.216 0 11.072-0.368 21.856-1.104 32.336-0.736 10.528-2.192 21.904-4.384 34.096-2.176 12.192-4.944 23.456-8.272 33.904-3.344 10.432-7.824 20.576-13.44 30.48-5.632 9.904-12.096 18.336-19.392 25.312-7.296 6.976-16.192 12.528-26.704 16.736-10.528 4.128-22.128 6.224-34.848 6.224v0z" />
<glyph unicode="&#xe623;" d="M480 96c8.816 0 16-7.184 16-16s-7.184-16-16-16h-448c-8.816 0-16 7.184-16 16s7.184 16 16 16h448zM480 112h-448c-17.6 0-32-14.4-32-32s14.4-32 32-32h448c17.6 0 32 14.4 32 32s-14.4 32-32 32v0zM480 240c8.816 0 16-7.184 16-16s-7.184-16-16-16h-448c-8.816 0-16 7.184-16 16s7.184 16 16 16h448zM480 256h-448c-17.6 0-32-14.4-32-32s14.4-32 32-32h448c17.6 0 32 14.4 32 32s-14.4 32-32 32v0zM480 368c8.816 0 16-7.184 16-16s-7.184-16-16-16h-448c-8.816 0-16 7.184-16 16s7.184 16 16 16h448zM480 384h-448c-17.6 0-32-14.4-32-32s14.4-32 32-32h448c17.6 0 32 14.4 32 32s-14.4 32-32 32v0z" />
<glyph unicode="&#xe624;" d="M260.64 479.968l-4.736 0.032c-138.544 0-253.312-112.736-255.856-251.344-2.576-141.152 110.144-258.048 251.312-260.624l4.736-0.032c138.544 0 253.328 112.768 255.856 251.312 2.544 141.168-110.176 258.048-251.312 260.656zM256.096-13.616l-4.416 0.064c-130.992 2.336-235.648 110.848-233.248 241.856 2.32 128.672 108.896 233.296 237.472 233.296l4.432-0.048c130.976-2.352 235.616-110.864 233.232-241.824-2.32-128.704-108.864-233.344-237.472-233.344zM242.24 173.12v15.36c0 6.608 1.328 12.528 4 17.76s6.080 10.128 10.24 14.72 8.592 9.008 13.28 13.28c4.688 4.272 9.12 8.688 13.28 13.28 4.16 4.592 7.568 9.488 10.24 14.72 2.672 5.232 4 11.152 4 17.76 0 5.536-0.8 10.768-2.4 15.68-1.6 4.896-4.048 9.168-7.36 12.8-3.312 3.632-7.472 6.512-12.48 8.64-5.008 2.128-10.944 3.2-17.76 3.2-12.592 0-22.768-4.752-30.56-14.24-7.792-9.504-12.112-21.92-12.96-37.28h-21.76c0.416 10.448 2.288 20 5.6 28.64s7.84 16.048 13.6 22.24c5.76 6.176 12.528 10.992 20.32 14.4 7.792 3.408 16.368 5.12 25.76 5.12 11.312 0 20.96-1.712 28.96-5.12 8-3.408 14.512-7.904 19.52-13.44 5.008-5.552 8.64-11.84 10.88-18.88 2.24-7.040 3.36-14.288 3.36-21.76 0-6.832-1.232-13.008-3.68-18.56-2.464-5.552-5.552-10.72-9.28-15.52-3.728-4.8-7.792-9.392-12.16-13.76-4.368-4.368-8.432-8.848-12.16-13.44-3.728-4.592-6.832-9.44-9.28-14.56-2.448-5.12-3.68-10.768-3.68-16.96v-14.080h-27.52zM256 92.064c-16.528 0-29.968 13.44-29.968 29.968s13.44 29.968 29.968 29.968 29.968-13.44 29.968-29.968-13.456-29.968-29.968-29.968zM256 136c-7.696 0-13.968-6.272-13.968-13.968s6.272-13.968 13.968-13.968c7.696 0 13.968 6.272 13.968 13.968 0 7.696-6.272 13.968-13.968 13.968z" />
<glyph unicode="&#xe625;" d="M434.24-10.976c-0.016 0-0.016 0 0 0h-356.464c-30.976 0.064-56.064 12.816-68.88 35.008-13.456 23.312-11.696 53.152 4.832 81.888l179.664 309.44c16.304 28.128 38.544 43.616 62.608 43.616s46.304-15.488 62.608-43.6l179.648-309.824c16.496-28.688 18.288-58.416 4.912-81.584-12.784-22.144-37.904-34.88-68.928-34.944zM256 442.976c-18.128 0-35.44-12.656-48.768-35.632l-179.648-309.424c-13.584-23.632-15.344-47.664-4.832-65.888 9.872-17.12 29.936-26.96 55.040-27.008h356.4c25.168 0.048 45.264 9.856 55.104 26.928 10.448 18.080 8.656 42-4.912 65.584l-179.616 309.792c-13.328 22.992-30.64 35.648-48.768 35.648zM256 164.752c-4.416 0-8 3.584-8 8v146.432c0 4.416 3.584 8 8 8s8-3.584 8-8v-146.432c0-4.416-3.584-8-8-8zM255.056 69.568c-16.528 0-29.968 13.44-29.968 29.968s13.44 29.968 29.968 29.968 29.968-13.44 29.968-29.968-13.44-29.968-29.968-29.968zM255.056 113.504c-7.696 0-13.968-6.272-13.968-13.968s6.272-13.968 13.968-13.968c7.696 0 13.968 6.272 13.968 13.968 0 7.696-6.256 13.968-13.968 13.968z" />
<glyph unicode="&#xe626;" d="M266.256 464c12.768 0 23.296-4.336 32.192-13.248 8.896-8.88 13.232-19.424 13.232-32.208 0-12.768-4.336-23.296-13.248-32.192-8.896-8.912-19.408-13.232-32.176-13.232-12.784 0-23.312 4.336-32.224 13.248-8.912 8.88-13.232 19.408-13.232 32.176 0 12.784 4.336 23.312 13.248 32.224 8.88 8.896 19.424 13.232 32.208 13.232zM122.88 397.424c11.248 0 20.576-3.856 28.512-11.792 8.064-8.048 11.808-17.104 11.808-28.512 0-11.408-3.744-20.464-11.792-28.512-7.936-7.952-17.264-11.808-28.528-11.808-11.264 0-20.608 3.856-28.544 11.792-8.032 8.048-11.792 17.12-11.792 28.528 0 11.408 3.744 20.464 11.792 28.512 7.952 7.936 17.28 11.792 28.544 11.792zM409.584 366.704c2.8 0 4.752-0.816 6.768-2.832 2.032-2.032 2.848-3.984 2.848-6.768s-0.832-4.736-2.88-6.8c-1.984-1.984-3.936-2.8-6.736-2.8-2.8 0-4.752 0.816-6.736 2.8-2.032 2.048-2.848 4.016-2.848 6.816 0 2.784 0.832 4.752 2.832 6.768 2 2 3.968 2.816 6.752 2.816zM61.424 248.96c9.888 0 17.776-3.296 24.864-10.384 7.072-7.056 10.352-14.944 10.352-24.832 0-9.872-3.296-17.776-10.368-24.848-7.056-7.056-14.96-10.352-24.848-10.352-9.872 0-17.776 3.296-24.832 10.336-7.072 7.088-10.368 14.992-10.368 24.864 0 9.888 3.28 17.792 10.352 24.848 7.088 7.072 14.976 10.368 24.848 10.368zM471.040 228.464c4.272 0 7.488-1.312 10.416-4.224 2.976-2.992 4.304-6.224 4.304-10.48 0-4.256-1.312-7.472-4.272-10.432-2.96-2.96-6.176-4.272-10.432-4.272-4.272 0-7.504 1.312-10.464 4.272-2.944 2.944-4.256 6.16-4.256 10.432 0 4.336 1.28 7.472 4.256 10.464 2.928 2.928 6.16 4.24 10.448 4.24zM122.88 100.48c8.384 0 15.12-2.8 21.232-8.848 6.032-5.952 8.848-12.704 8.848-21.248 0-8.528-2.816-15.28-8.864-21.264-6.080-6.016-12.816-8.816-21.216-8.816-8.592 0-15.36 2.768-21.328 8.752-5.984 5.984-8.768 12.768-8.768 21.328 0 8.576 2.784 15.344 8.784 21.344 5.968 5.968 12.736 8.752 21.312 8.752zM409.584 90.24c5.6 0 9.92-1.808 13.984-5.872 4.064-4.064 5.872-8.384 5.872-13.984 0-5.584-1.808-9.888-5.872-13.952-4.064-4.064-8.384-5.872-13.984-5.872-5.584 0-9.888 1.808-13.952 5.872-4.064 4.064-5.872 8.368-5.872 13.952 0 5.6 1.808 9.92 5.872 13.984 4.064 4.064 8.368 5.872 13.952 5.872zM266.256 33.904c7.040 0 12.656-2.32 17.632-7.296 4.992-4.992 7.312-10.608 7.312-17.648 0-7.040-2.32-12.656-7.328-17.648-4.976-4.992-10.576-7.312-17.616-7.312-7.056 0-12.672 2.32-17.648 7.296-4.992 4.992-7.328 10.608-7.328 17.648 0 7.040 2.32 12.656 7.328 17.648 4.976 4.992 10.576 7.312 17.648 7.312zM266.256 480c-17.088 0-31.584-5.968-43.52-17.936-11.968-11.936-17.936-26.432-17.936-43.52 0-17.056 5.968-31.568 17.936-43.504 11.936-11.968 26.448-17.936 43.52-17.936 17.056 0 31.568 5.968 43.504 17.936 11.968 11.936 17.936 26.448 17.936 43.504 0 17.088-5.968 31.584-17.936 43.52-11.952 11.968-26.448 17.936-43.504 17.936v0zM122.88 413.424c-15.584 0-28.864-5.488-39.856-16.48-10.992-10.992-16.48-24.24-16.48-39.824 0-15.584 5.488-28.848 16.48-39.824 10.992-10.992 24.272-16.48 39.856-16.48 15.552 0 28.848 5.488 39.824 16.48 10.992 10.992 16.48 24.24 16.48 39.824 0 15.584-5.488 28.848-16.48 39.824-10.976 10.992-24.256 16.48-39.824 16.48v0zM409.584 382.704c-7.040 0-13.056-2.496-18.080-7.52-4.992-5.008-7.504-11.024-7.504-18.064 0-7.040 2.528-13.056 7.52-18.080 5.024-5.024 11.040-7.52 18.080-7.52s13.088 2.496 18.080 7.52c5.024 5.024 7.536 11.040 7.536 18.080 0 7.040-2.528 13.056-7.536 18.080-5.008 5.008-11.040 7.504-18.096 7.504v0zM61.424 264.96c-14.080 0-26.128-5.024-36.16-15.056-10.016-10.016-15.040-22.080-15.040-36.16s5.024-26.128 15.040-36.16c10.032-10.016 22.080-15.040 36.16-15.040s26.144 5.024 36.16 15.040c10.032 10.032 15.056 22.080 15.056 36.16s-5.024 26.144-15.056 36.16c-10 10.048-22.064 15.056-36.16 15.056v0zM471.040 244.464c-8.544 0-15.808-2.976-21.776-8.944-5.968-6-8.944-13.232-8.944-21.776 0-8.544 2.976-15.776 8.944-21.744s13.232-8.96 21.776-8.96c8.512 0 15.776 2.992 21.744 8.96 5.968 5.968 8.96 13.216 8.96 21.744 0 8.544-2.992 15.776-8.96 21.776-5.952 5.968-13.216 8.944-21.744 8.944v0zM122.88 116.48c-12.816 0-23.696-4.496-32.64-13.456-8.96-8.944-13.456-19.824-13.456-32.64 0-12.784 4.496-23.68 13.456-32.64 8.944-8.96 19.824-13.44 32.64-13.44 12.592 0 23.392 4.464 32.464 13.44 9.072 8.96 13.616 19.856 13.616 32.64 0 12.816-4.544 23.696-13.616 32.64-9.056 8.96-19.872 13.456-32.464 13.456v0zM409.584 106.24c-9.808 0-18.224-3.52-25.264-10.56s-10.56-15.488-10.56-25.296c0-9.808 3.52-18.224 10.56-25.264 7.040-7.040 15.456-10.56 25.264-10.56 9.808 0 18.256 3.52 25.296 10.56 7.040 7.040 10.56 15.456 10.56 25.264 0 9.808-3.52 18.256-10.56 25.296-7.040 7.040-15.472 10.56-25.296 10.56v0zM266.256 49.904c-11.312 0-20.976-4-28.96-11.984-8.016-8.016-12.016-17.648-12.016-28.96 0-11.312 4-20.944 12.016-28.96 7.984-8 17.648-12 28.96-12 11.28 0 20.944 4 28.944 11.984 8.016 8.016 12.016 17.648 12.016 28.96 0 11.312-4 20.944-12.016 28.96-8 8.016-17.664 12-28.944 12v0z" />
<glyph unicode="&#xe627;" d="M261.328 288c35.296 0 64-28.704 64-64s-28.704-64-64-64-64 28.704-64 64 28.72 64 64 64zM261.328 304c-44.176 0-80-35.824-80-80s35.824-80 80-80c44.176 0 80 35.824 80 80s-35.808 80-80 80v0z" />
<glyph unicode="&#xe628;" d="M433.456 57.712l-166.208 163.248 166.288 169.584c3.504 3.664 3.408 9.456-0.208 12.992-3.648 3.504-9.456 3.408-12.96-0.256l-164.368-167.648-164.368 167.648c-3.504 3.664-9.312 3.76-12.96 0.256-3.632-3.536-3.712-9.328-0.208-12.992l166.288-169.584-166.208-163.248c-3.664-3.536-3.76-9.376-0.224-12.992 3.504-3.648 9.296-3.776 12.992-0.256l164.688 161.696 164.688-161.696c3.696-3.52 9.488-3.392 12.992 0.256 3.536 3.616 3.44 9.456-0.224 12.992z" />
<glyph unicode="&#xe629;" d="M348.96 390.544l-166.304-169.584 166.208-163.248c3.664-3.536 3.76-9.376 0.224-12.992-3.504-3.648-9.296-3.776-12.992-0.256l-172.8 169.664c-1.792 1.744-3.536 4.016-2.816 6.624 0 2.352 0.96 4.656 2.592 6.368l172.72 176.16c3.504 3.664 9.312 3.76 12.96 0.256 3.616-3.536 3.712-9.328 0.208-12.992z" />
<glyph unicode="&#xe62a;" d="M163.040 390.544l166.304-169.584-166.208-163.248c-3.664-3.536-3.76-9.376-0.224-12.992 3.504-3.648 9.296-3.776 12.992-0.256l172.8 169.664c1.792 1.744 3.536 4.016 2.816 6.624 0 2.352-0.96 4.656-2.592 6.368l-172.72 176.16c-3.504 3.664-9.312 3.76-12.96 0.256-3.616-3.536-3.712-9.328-0.208-12.992z" />
<glyph unicode="&#xe62b;" d="M89.456 131.040l169.584 166.304 163.248-166.208c3.536-3.664 9.376-3.76 12.992-0.224 3.648 3.504 3.776 9.296 0.256 12.992l-169.664 172.8c-1.744 1.792-4.016 3.536-6.624 2.816-2.352 0-4.656-0.96-6.368-2.592l-176.16-172.72c-3.664-3.504-3.76-9.312-0.256-12.96 3.536-3.616 9.328-3.712 12.992-0.208z" />
<glyph unicode="&#xe62c;" d="M422.544 316.96l-169.584-166.304-163.248 166.208c-3.536 3.664-9.376 3.76-12.992 0.224-3.648-3.504-3.776-9.296-0.256-12.992l169.664-172.8c1.744-1.792 4.016-3.536 6.624-2.816 2.352 0 4.656 0.96 6.368 2.592l176.16 172.72c3.664 3.504 3.76 9.312 0.256 12.96-3.536 3.616-9.328 3.712-12.992 0.208z" />
<glyph unicode="&#xe62d;" d="M260.608 479.968l-4.72 0.032c-138.544 0-253.328-112.736-255.84-251.344-2.56-141.152 110.16-258.048 251.28-260.624l4.736-0.032c138.544 0 253.36 112.768 255.888 251.312 1.248 68.4-24.192 133.168-71.68 182.336-47.488 49.296-111.28 77.040-179.664 78.32zM256.064-13.616l-4.416 0.064c-130.976 2.336-235.648 110.848-233.248 241.856 2.352 128.672 108.88 233.296 237.488 233.296l4.4-0.048c63.488-1.088 122.672-26.928 166.736-72.64 44.080-45.68 67.696-105.776 66.56-169.184-2.352-128.704-108.928-233.344-237.52-233.344zM338.448 316.224l-82.224-79.248-79.312 82.224c-3.504 3.664-9.328 3.744-12.976 0.256-3.664-3.504-3.744-9.344-0.24-12.992l79.28-82.256-82.192-79.232c-3.664-3.552-3.76-9.328-0.272-12.992 1.808-1.872 4.208-2.784 6.608-2.784 2.304 0 4.608 0.832 6.384 2.56l82.176 79.248 79.248-82.176c1.84-1.888 4.24-2.848 6.64-2.848 2.32 0 4.592 0.864 6.352 2.608 3.664 3.504 3.792 9.328 0.24 12.992l-79.216 82.192 82.192 79.248c3.664 3.52 3.744 9.312 0.256 12.992-3.488 3.648-9.312 3.664-12.944 0.208z" />
<glyph unicode="&#xe62e;" d="M260.64 479.968l-4.736 0.032c-138.544 0-253.312-112.736-255.856-251.344-2.576-141.152 110.144-258.048 251.312-260.624l4.736-0.032c138.544 0 253.328 112.768 255.856 251.312 2.544 141.168-110.176 258.048-251.312 260.656zM256.096-13.616l-4.416 0.064c-130.992 2.336-235.648 110.848-233.248 241.856 2.32 128.672 108.896 233.296 237.472 233.296l4.432-0.048c130.976-2.352 235.616-110.864 233.232-241.824-2.32-128.704-108.864-233.344-237.472-233.344zM359.856 294.048l-126.64-122.112-79.248 82.208c-3.536 3.664-9.376 3.76-12.992 0.224-3.648-3.504-3.776-9.296-0.256-12.992l85.664-88.8c1.744-1.792 4.016-3.536 6.624-2.816 2.352 0 4.656 0.96 6.368 2.592l133.216 128.528c3.664 3.504 3.76 9.312 0.256 12.96-3.536 3.616-9.328 3.712-12.992 0.208z" />
<glyph unicode="&#xe62f;" d="M260.656 479.936l-4.768 0.016c-138.592 0-253.312-112.736-255.84-251.28-1.28-68.352 24.208-133.072 71.664-182.32 47.488-49.216 111.264-77.040 179.632-78.256l4.832-0.048c138.48 0 253.168 112.736 255.792 251.264 2.48 141.2-110.24 258.112-251.312 260.624zM256.112-13.536l-4.464 0.016c-63.424 1.136-122.656 26.912-166.72 72.592-44.048 45.68-67.68 105.808-66.544 169.232 2.368 128.608 108.896 233.248 237.504 233.248l4.416-0.016c130.928-2.336 235.584-110.832 233.264-241.792-2.32-128.672-108.896-233.28-237.456-233.28zM383.744 228.208l-118.928 123.392c-3.568 3.664-9.28 3.728-12.992 0.24-3.6-3.504-3.776-9.312-0.288-12.976l103.664-107.472-220.304 4c-0.048 0-0.096 0-0.144 0-5.024 0-9.136-4.032-9.184-8.992-0.096-5.104 3.936-9.28 9.008-9.408l220.176-3.952-107.376-103.664c-3.632-3.504-3.712-9.328-0.224-12.992 1.792-1.824 4.224-2.784 6.624-2.784 2.32 0 4.592 0.832 6.368 2.576l129.968 125.392-6.336 6.608c-0.032 0-0.032 0.032-0.032 0.032z" />
<glyph unicode="&#xe630;" d="M260.608 479.968l-4.736 0.032c-138.544 0-253.344-112.784-255.824-251.344-1.312-68.368 24.176-133.088 71.616-182.368 47.472-49.216 111.28-77.008 179.664-78.272l4.736-0.016c138.544 0 253.328 112.768 255.824 251.312 1.264 68.4-24.176 133.104-71.632 182.352-47.472 49.28-111.28 77.024-179.648 78.304zM256.064-13.648l-4.432 0.064c-63.424 1.104-122.656 26.928-166.688 72.624-44.096 45.68-67.68 105.808-66.544 169.248 2.304 128.672 108.816 233.328 237.472 233.328l4.368-0.048c63.488-1.088 122.672-26.928 166.752-72.656 44.048-45.664 67.68-105.776 66.544-169.184-2.32-128.704-108.864-233.376-237.472-233.376zM377.36 230.992l-220.288 3.984 107.424 103.664c3.68 3.52 3.76 9.36 0.272 12.976-3.504 3.664-9.36 3.744-12.992 0.24l-130.016-125.376 6.336-6.608c0.048 0 0.048-0.048 0.048-0.048l119.024-123.456c1.792-1.84 4.208-2.784 6.608-2.784 2.288 0 4.592 0.848 6.384 2.592 3.648 3.52 3.712 9.344 0.224 12.976l-103.664 107.488 220.304-3.984c0.080 0 0.128 0 0.176 0 4.992 0 9.056 4 9.184 8.992 0.080 5.072-3.952 9.264-9.024 9.344z" />
</font>
</defs>
</svg>
