<svg xmlns="http://www.w3.org/2000/svg" viewBox="445 -445 922 922" enable-background="new 445 -445 922 922"><g opacity=".06"><path fill="none" d="M783.5 16c0-6.2.2-12.5.6-18.8C773 2.1 762.5 8.3 753 16c9.6 7.7 20 13.9 31.1 18.8-.4-6.3-.6-12.6-.6-18.8zM906 138.5c-6.2 0-12.5-.2-18.8-.6 4.9 11.1 11.2 21.5 18.8 31.1 7.7-9.6 13.9-20 18.8-31.1-6.3.4-12.6.6-18.8.6zM915 7c-4.2-2.7-8.6-5.1-13.1-7.3-9 12.5-15.8 26.1-20.3 40.7 14.6-4.5 28.2-11.3 40.7-20.3-2.2-4.5-4.6-8.9-7.3-13.1z"/><path fill="#9B3C2F" d="M877.8 55.9c-.2 1.1-.4 2.1-.6 3.2l-.6 4.5c-.1 1-.3 2-.4 3-.2 1.7-.3 3.3-.4 5-.1.8-.1 1.7-.2 2.5-.1 2.5-.2 5-.2 7.5 0 2 0 3.9.1 5.9 0 .6.1 1.3.1 1.9.1 1.3.1 2.6.3 3.9.1.8.2 1.5.2 2.3.1 1.2.2 2.4.4 3.6l.3 2.4c.2 1.1.3 2.3.5 3.4.1.8.3 1.7.5 2.5l.6 3.3c.2.8.4 1.7.6 2.5.2 1.1.5 2.1.8 3.2.2.8.4 1.7.7 2.5.3 1 .6 2.1.9 3.1.3.9.5 1.7.8 2.5.1.4.3.8.4 1.2 15.8 1.3 31.2 1.3 46.9 0 .1-.4.3-.8.4-1.2.3-.9.5-1.7.8-2.6.3-1 .6-2.1.9-3.1.2-.8.5-1.7.7-2.5.3-1.1.5-2.1.8-3.2.2-.8.4-1.7.6-2.5l.6-3.3c.2-.8.3-1.7.5-2.5.2-1.1.4-2.2.5-3.4l.3-2.4c.1-1.2.3-2.4.4-3.5.1-.8.2-1.5.2-2.3l.3-3.9c0-.7.1-1.3.1-2 .1-2 .1-3.9.1-5.9 0-2.3-.1-4.7-.2-7 0-.8-.1-1.5-.2-2.3-.1-1.6-.2-3.1-.4-4.7l-.3-2.7c-.2-1.4-.4-2.8-.6-4.3-.1-.9-.3-1.9-.5-2.8-.2-1.4-.5-2.7-.8-4.1-.2-.9-.4-1.9-.6-2.8-.3-1.4-.6-2.7-1-4.1-.2-.9-.4-1.8-.7-2.7-.4-1.4-.8-2.9-1.3-4.3-.2-.8-.5-1.6-.7-2.3-.6-1.8-1.3-3.6-1.9-5.4-.1-.4-.3-.8-.4-1.1v-.1c-14.9 10.4-31.3 18-48.9 22.5-.1 1-.2 1.8-.4 2.6zM793 91c-.2-.9-.4-1.7-.6-2.6-.5-1.9-.9-3.8-1.4-5.7-.2-1.1-.5-2.2-.7-3.2-.4-1.8-.7-3.5-1.1-5.3-.2-1.1-.4-2.1-.6-3.2-.4-2.1-.8-4.3-1.1-6.4-.1-.7-.2-1.3-.3-2-.4-2.7-.8-5.5-1.2-8.2-.1-1-.2-1.9-.3-2.9-.1-1.2-.3-2.4-.4-3.6v-.1c-14.9-5.8-28.7-13.9-41.1-24.1-.1.1-.2.2-.4.3-2.2 2.1-4.3 4.3-6.4 6.5-.4.5-.9.9-1.3 1.4-2.1 2.3-4.1 4.7-6 7.1-.1.1-.1.2-.2.3-1.9 2.4-3.6 4.9-5.3 7.4-.3.5-.7 1-1 1.5-1.7 2.5-3.3 5.1-4.8 7.8l-.3.6c23.6 20.6 50 36.9 78.8 48.7-.4-1.3-.8-2.5-1.1-3.8-.3-.9-.6-1.8-.8-2.7-1-2.5-1.7-5.2-2.4-7.8zM653.4-271.4c1.3-.4 2.7-.7 4.1-1 2.6-.7 5.2-1.3 7.8-1.9 1.5-.4 3.1-.7 4.7-1 2.4-.5 4.9-1 7.3-1.4 1.6-.3 3.3-.6 4.9-.8 2.4-.4 4.8-.8 7.3-1.1 1.6-.2 3.3-.5 4.9-.7 2.5-.3 5-.6 7.5-.8 1.6-.2 3.1-.3 4.7-.4 2.7-.2 5.5-.4 8.2-.5 1.3-.1 2.7-.2 4-.2 4.1-.2 8.2-.3 12.3-.3 3.4 0 6.9.1 10.3.2 1.1 0 2.1.1 3.2.2 2.4.1 4.7.2 7.1.4 1.2.1 2.5.2 3.7.3 2.2.2 4.3.3 6.5.6 1.3.1 2.7.3 4 .5 2 .2 4.1.5 6.1.7l4.2.6c2 .3 4 .6 5.9.9 1.4.2 2.7.5 4.1.8 2 .4 3.9.7 5.9 1.1 1.4.3 2.7.6 4.1.9 1.9.4 3.9.8 5.8 1.3 1.4.3 2.8.7 4.1 1.1l5.7 1.5c1.4.4 2.7.8 4.1 1.2 1.9.6 3.8 1.1 5.6 1.7 1.4.4 2.8.9 4.1 1.4 1.8.6 3.7 1.2 5.5 1.9 1.4.5 2.8 1 4.2 1.6 1.8.7 3.6 1.3 5.4 2 1.4.6 2.8 1.2 4.2 1.7 1.7.7 3.5 1.4 5.2 2.2 1.4.6 2.8 1.3 4.2 1.9 1.7.8 3.4 1.5 5 2.3l4.2 2.1c1.6.8 3.3 1.6 4.9 2.4 1.4.8 2.9 1.5 4.3 2.3 1.6.8 3.1 1.7 4.7 2.5 1.5.8 2.9 1.7 4.3 2.5l4.2 2.4c8.5 2.7 16.8 6.1 24.8 10.3 1.1-.8 2.2-1.5 3.3-2.2 1.6-1.1 3.2-2.2 4.8-3.2 1.6-1.1 3.2-2.1 4.9-3.1 1.6-1 3.2-2 4.9-3 1.7-1 3.3-1.9 5-2.9 1.6-.9 3.3-1.9 4.9-2.8l5.1-2.7c1.7-.9 3.3-1.8 5-2.6 1.7-.9 3.5-1.7 5.2-2.5l5.1-2.4c1.8-.8 3.6-1.6 5.4-2.3 1.7-.7 3.4-1.5 5.1-2.2 1.8-.7 3.6-1.4 5.5-2.1 1.7-.7 3.4-1.3 5.2-2 1.9-.7 3.7-1.3 5.6-1.9 1.7-.6 3.4-1.2 5.2-1.7 1.9-.6 3.8-1.2 5.7-1.7 1.7-.5 3.4-1 5.2-1.5 1.9-.5 3.9-1 5.9-1.5 1.7-.4 3.4-.9 5.2-1.3 2-.5 4-.9 6-1.3 1.7-.4 3.4-.8 5.1-1.1 2.1-.4 4.1-.7 6.2-1.1l5.1-.9c2.1-.3 4.3-.6 6.4-.9 1.6-.2 3.3-.5 4.9-.7 2.3-.3 4.6-.5 6.9-.7 1.5-.1 3.1-.3 4.6-.4 2.6-.2 5.1-.3 7.7-.4 1.3-.1 2.5-.2 3.8-.2 3.9-.1 7.7-.2 11.6-.2 4.1 0 8.2.1 12.3.3 1.3.1 2.7.2 4 .2 2.7.1 5.5.3 8.2.5 1.6.1 3.1.3 4.7.4 2.5.2 5 .5 7.5.8 1.6.2 3.3.4 4.9.7 2.4.3 4.8.7 7.3 1.1 1.6.3 3.3.5 4.9.8 2.4.4 4.9.9 7.3 1.4 1.6.3 3.1.6 4.7 1 2.6.6 5.2 1.2 7.8 1.9 1.3.3 2.7.7 4 1 3.4.9 6.8 1.9 10.1 2.9.5.2 1 .3 1.6.5.1 0 .1 0 .2.1C1126.6-374.3 1021.9-445 906-445s-220.6 70.7-264.5 177.1c.1 0 .1 0 .2-.1.5-.2 1.1-.3 1.6-.5 3.4-1 6.7-2 10.1-2.9zM1138.3 26.9c-1 1.3-2 2.5-3.1 3.7-1.2 1.5-2.4 3-3.7 4.4-1.1 1.2-2.1 2.4-3.2 3.6-1.3 1.4-2.5 2.8-3.8 4.2-1.1 1.2-2.2 2.4-3.3 3.5-1.3 1.4-2.6 2.7-3.9 4-1.1 1.2-2.3 2.3-3.4 3.4-1.3 1.3-2.7 2.6-4.1 3.9l-3.6 3.3c-1.4 1.3-2.8 2.5-4.2 3.8-1.2 1.1-2.4 2.1-3.6 3.1-1.4 1.2-2.9 2.4-4.4 3.6-1.2 1-2.4 2-3.7 3-1.5 1.2-3 2.4-4.6 3.5-1.2.9-2.5 1.9-3.7 2.8-1.6 1.2-3.2 2.3-4.8 3.4-1.2.9-2.4 1.7-3.7 2.6-1.7 1.2-3.5 2.3-5.2 3.4-1.2.8-2.3 1.5-3.5 2.3-2 1.3-4 2.5-6 3.7-1 .6-1.9 1.2-2.9 1.7-3 1.8-6 3.5-9.1 5.1-.4.2-.7.4-1.1.6-2.7 1.4-5.5 2.9-8.2 4.2-1.1.5-2.2 1-3.2 1.5-2.1 1-4.1 2-6.2 2.9-1.3.6-2.6 1.1-3.8 1.7-1.9.8-3.9 1.7-5.8 2.5-1.4.6-2.7 1.1-4.1 1.6-1.4.6-2.9 1.2-4.3 1.7-.1.4-.3.8-.5 1.2-1.4 3.8-2.9 7.6-4.5 11.3-.2.6-.5 1.2-.8 1.7-1.7 3.8-3.4 7.7-5.2 11.4l-.6 1.2c-1.9 3.9-3.9 7.8-6 11.7-.1.1-.2.3-.2.4-2.1 3.8-4.3 7.6-6.5 11.3-.1.2-.3.5-.4.7-4.6 14.8-11.5 28.7-20.4 41.4 0 0 .1 0 .1.1.1 0 .1 0 .2.1 2.1.8 4.3 1.6 6.4 2.3.7.2 1.3.4 2 .6 1.6.5 3.1 1 4.7 1.4l2.4.6c1.5.4 2.9.7 4.4 1.1.9.2 1.7.4 2.6.5 1.4.3 2.9.6 4.3.8.9.1 1.7.3 2.6.4l4.5.6 2.4.3c1.7.2 3.4.3 5.1.4.6 0 1.3.1 1.9.1 2.4.1 4.7.2 7.1.2 77.2 0 140-62.8 140-140v-.1c0-1.7 0-3.4-.1-5.1 0-.6-.1-1.2-.1-1.7-.1-1.1-.1-2.3-.2-3.4-.1-.7-.1-1.4-.2-2.1-.1-1-.2-2.1-.3-3.1-.1-.7-.2-1.5-.3-2.2-.1-1-.2-2-.4-3-.1-.8-.2-1.5-.4-2.2-.2-1-.3-1.9-.5-2.9-.1-.8-.3-1.6-.5-2.3l-.6-2.7-.6-2.4c-.2-.9-.4-1.7-.6-2.6-.2-.9-.5-1.7-.7-2.5l-.6-2.1c-3.2-5.2-6.6-10.4-10.2-15.4-.4.5-.8.9-1.1 1.3zM718.7-24.2c1.5 2.7 3.1 5.3 4.8 7.8.3.5.7 1 1 1.5 1.7 2.5 3.4 5 5.3 7.3l.3.3c1.9 2.4 3.9 4.8 6 7.1.4.5.9 1 1.3 1.4 2.1 2.2 4.2 4.4 6.4 6.5.1.1.2.2.4.3 12.4-10.2 26.2-18.3 41.1-24.1v-.1c.3-2.6.6-5.2 1-7.8.1-.8.2-1.7.3-2.5.6-4.1 1.2-8.1 2-12.1.2-1.2.5-2.4.7-3.6.6-2.9 1.2-5.7 1.8-8.6.3-1.5.7-2.9 1-4.3.3-1.1.5-2.3.8-3.4h-.4c-2.8.1-5.6.2-8.3.5-.4 0-.8.1-1.2.1-2.8.3-5.5.6-8.3 1-.3.1-.7.1-1 .2-2.8.5-5.7 1-8.5 1.7h-.2c-2.8.7-5.7 1.4-8.5 2.3-.1 0-.3.1-.4.1-13.2 8.2-25.9 17.5-37.7 27.7.1.4.2.6.3.7zM1158.6 303.4c-1.3.4-2.7.7-4 1-2.6.7-5.2 1.3-7.8 1.9-1.6.3-3.1.7-4.7 1-2.4.5-4.9 1-7.3 1.4-1.6.3-3.3.6-4.9.8-2.4.4-4.8.8-7.2 1.1-1.6.2-3.3.5-4.9.7-2.5.3-5 .6-7.5.8-1.6.2-3.1.3-4.7.4-2.7.2-5.5.4-8.2.5-1.3.1-2.7.2-4 .2-4.1.2-8.2.3-12.3.3-3.9 0-7.8-.1-11.6-.2-1.3 0-2.6-.2-3.9-.2-2.6-.1-5.1-.2-7.7-.4-1.6-.1-3.1-.3-4.7-.4-2.3-.2-4.5-.4-6.8-.7-1.6-.2-3.3-.4-4.9-.7-2.2-.3-4.3-.5-6.5-.9-1.7-.3-3.4-.6-5-.9-2.1-.4-4.2-.7-6.2-1.1-1.7-.3-3.4-.7-5.1-1.1-2-.4-4-.8-6-1.3-1.7-.4-3.4-.9-5.1-1.3-2-.5-3.9-1-5.9-1.5l-5.1-1.5c-1.9-.6-3.9-1.1-5.8-1.7-1.7-.5-3.4-1.1-5.1-1.7-1.9-.6-3.8-1.3-5.7-2-1.7-.6-3.4-1.3-5-1.9-1.9-.7-3.7-1.4-5.6-2.2-1.7-.7-3.3-1.4-5-2.1-1.8-.8-3.7-1.6-5.5-2.4-1.7-.8-3.3-1.5-4.9-2.3-1.8-.9-3.6-1.7-5.4-2.6-1.6-.8-3.2-1.7-4.9-2.5-1.8-.9-3.5-1.8-5.3-2.8l-4.8-2.7c-1.7-1-3.5-2-5.2-3-1.6-.9-3.1-1.9-4.7-2.9-1.7-1.1-3.4-2.1-5.1-3.2-1.6-1-3.1-2.1-4.6-3.1-1.1-.8-2.3-1.5-3.4-2.3-8 4.2-16.3 7.6-24.8 10.3-1.6 1-3.2 1.9-4.8 2.8-1.2.7-2.5 1.5-3.7 2.2-1.7 1-3.4 1.9-5.2 2.8-1.3.7-2.5 1.4-3.8 2.1-1.7.9-3.4 1.7-5.1 2.6-1.3.7-2.6 1.3-4 2-1.7.8-3.4 1.6-5.1 2.3-1.4.6-2.7 1.3-4.1 1.9-1.7.7-3.4 1.4-5.2 2.2l-4.2 1.8c-1.7.7-3.5 1.3-5.2 2-1.4.5-2.8 1.1-4.3 1.6-1.8.6-3.6 1.2-5.3 1.8-1.4.5-2.8 1-4.3 1.4-1.8.6-3.6 1.1-5.4 1.6-1.4.4-2.9.9-4.3 1.3-1.8.5-3.6 1-5.4 1.4-1.5.4-2.9.8-4.4 1.2-1.8.5-3.7.8-5.6 1.3-1.5.3-2.9.7-4.4 1-1.9.4-3.7.7-5.6 1.1-1.5.3-2.9.6-4.4.8-1.8.3-3.7.6-5.5.9-1.5.2-3 .5-4.5.7-1.9.3-3.9.5-5.8.7-1.4.2-2.9.4-4.3.5-2.1.2-4.2.4-6.3.5l-3.9.3c-2.3.2-4.6.3-7 .4-1.1 0-2.2.1-3.3.2-3.4.1-6.9.2-10.3.2-4.1 0-8.2-.1-12.3-.3-1.3-.1-2.7-.2-4-.2-2.7-.1-5.5-.3-8.2-.5-1.6-.1-3.1-.3-4.7-.4-2.5-.2-5-.5-7.5-.8-1.6-.2-3.3-.4-4.9-.7-2.4-.3-4.8-.7-7.2-1.1-1.6-.3-3.3-.5-4.9-.8-2.4-.4-4.9-.9-7.3-1.4-1.6-.3-3.1-.6-4.7-1-2.6-.6-5.2-1.2-7.8-1.9-1.4-.3-2.7-.7-4.1-1-3.4-.9-6.7-1.9-10.1-2.9-.5-.2-1.1-.3-1.6-.5-.1 0-.1 0-.2-.1C685.4 406.3 790.1 477 906 477c115.9 0 220.6-70.7 264.5-177.1-.1 0-.1 0-.2.1-.5.2-1 .3-1.5.4-3.4 1.1-6.8 2.1-10.2 3zM703.8 59.3c-1.9-1.8-3.8-3.6-5.6-5.4-.7-.7-1.4-1.3-2-2-3.1-3.1-6.2-6.3-9.2-9.6l-2.1-2.4c-2.3-2.5-4.5-5.1-6.7-7.6-.9-1.1-1.9-2.2-2.8-3.4-.9-1.1-1.8-2.1-2.7-3.2-3.5 5-7 10.1-10.2 15.4l-.9 3c-.1.5-.3 1-.4 1.6l-.9 3.6c-.1.5-.2 1-.4 1.5-.3 1.2-.5 2.5-.8 3.7-.1.5-.2.9-.3 1.4-.2 1.3-.5 2.6-.7 4-.1.4-.1.8-.2 1.1-.2 1.4-.4 2.9-.6 4.3 0 .3-.1.5-.1.8-.2 1.7-.3 3.4-.5 5.1v.1c-.3 3.5-.4 7-.4 10.5 0 2.8.1 5.5.3 8.3 0 .8.1 1.6.2 2.3.1 2 .3 3.9.6 5.9l.3 2.7c.3 1.9.6 3.7.9 5.6.1.8.3 1.7.4 2.5.4 2.2.9 4.5 1.5 6.7l.3 1.2c.7 2.6 1.4 5.2 2.2 7.8l.6 1.8c.7 1.9 1.3 3.9 2.1 5.8.3.8.6 1.6 1 2.4.7 1.7 1.4 3.4 2.2 5.1.4.8.7 1.6 1.1 2.4l2.7 5.4c.3.6.6 1.2.9 1.7 1.3 2.3 2.6 4.7 4.1 6.9.2.3.4.7.7 1 1.2 1.9 2.5 3.8 3.8 5.6l1.5 2.1c1.1 1.5 2.2 2.9 3.4 4.4.6.7 1.2 1.4 1.7 2.1 1.2 1.4 2.4 2.9 3.7 4.3.5.6 1.1 1.2 1.6 1.8 1.8 1.9 3.7 3.8 5.6 5.6l.1.1c-7.5-18.2-11.4-37.7-11.4-57.6.2-23.1 5.5-45.9 15.4-66.4zM703.8 59.2c0 .1 0 .1 0 0 0 .1 0 .1 0 0zM714.4 40.9c.4-.6.9-1.3 1.3-1.9 1.7-2.5 3.5-5 5.4-7.4.2-.3.4-.5.7-.8 1.7-2.2 3.5-4.3 5.4-6.4.5-.6 1-1.2 1.6-1.7 2.1-2.2 4.2-4.5 6.4-6.6l.2-.2-.2-.2c-2.2-2.1-4.3-4.3-6.4-6.6-.5-.6-1-1.1-1.5-1.7-1.9-2.1-3.7-4.2-5.4-6.4-.2-.3-.4-.5-.7-.8-1.9-2.4-3.7-4.9-5.4-7.4-.4-.6-.9-1.3-1.3-1.9-1.5-2.3-3-4.6-4.4-7-.1-.2-.3-.5-.4-.7-1 .9-1.9 1.8-2.9 2.7-1.1 1.1-2.2 2.1-3.2 3.2-2.2 2.2-4.4 4.5-6.5 6.8-.8.8-1.5 1.6-2.3 2.4-2.8 3.1-5.6 6.3-8.3 9.5-.7.8-1.3 1.7-2 2.5-1.5 1.8-2.9 3.6-4.3 5.5 1.4 1.8 2.8 3.6 4.3 5.4.7.8 1.3 1.7 2 2.5 2.7 3.2 5.5 6.4 8.3 9.5.7.8 1.4 1.5 2.1 2.3 2.2 2.4 4.4 4.7 6.7 7 1 1 2.1 2 3.1 3s2 1.9 3 2.8c.1-.2.3-.4.4-.6 1.3-2.1 2.8-4.5 4.3-6.8zM696.9-3.9c2.1-2.3 4.3-4.6 6.5-6.8-2.2 2.3-4.4 4.5-6.5 6.8zM684.3 10.5c-1.5 1.8-2.9 3.6-4.4 5.4v.1c1.5-1.8 2.9-3.7 4.4-5.5zM694.6-1.4c-2.8 3.1-5.6 6.3-8.3 9.5 2.7-3.3 5.5-6.4 8.3-9.5zM706.7-13.8c1-.9 1.9-1.8 2.9-2.7v-.1c-1.1.9-2 1.8-2.9 2.8zM728.7 22.7c2.1-2.2 4.2-4.5 6.4-6.6-2.2 2.2-4.3 4.4-6.4 6.6zM714.4 40.9c-1.5 2.3-3 4.7-4.5 7 1.5-2.3 3-4.7 4.5-7zM727.2 24.5c-1.9 2.1-3.7 4.2-5.4 6.4 1.7-2.2 3.5-4.4 5.4-6.4zM721.1 31.6c-1.9 2.4-3.7 4.9-5.4 7.4 1.7-2.5 3.5-5 5.4-7.4zM721.1.4c-1.9-2.4-3.7-4.9-5.4-7.4 1.7 2.5 3.5 5 5.4 7.4zM714.4-8.9c-1.5-2.3-3-4.6-4.4-7 1.4 2.4 2.9 4.7 4.4 7zM727.2 7.5c-1.9-2.1-3.7-4.2-5.4-6.4 1.7 2.2 3.5 4.4 5.4 6.4zM735.1 15.8c-2.2-2.1-4.3-4.3-6.4-6.6 2.1 2.3 4.2 4.5 6.4 6.6zM694.6 33.5c-2.8-3.1-5.6-6.3-8.3-9.5 2.7 3.2 5.5 6.3 8.3 9.5zM709.5 48.6c-.9-1-2-1.9-2.9-2.9 1 1 1.9 2 2.9 2.9zM703.5 42.7c-2.3-2.3-4.5-4.6-6.7-7 2.2 2.4 4.4 4.7 6.7 7zM680 16.1c1.4 1.8 2.9 3.6 4.3 5.4-1.5-1.9-2.9-3.7-4.3-5.4 0-.1 0-.1 0 0zM680 15.9c-.1.1-.1.1 0 0v.1-.1c0 .1 0 .1 0 0zM1020.4-53.2c.5 2 .9 4 1.4 5.9.3 1.3.5 2.6.8 3.8.4 2 .8 3.9 1.1 5.9.2 1.3.5 2.6.7 3.9.3 2 .6 3.9.9 5.9l.6 3.9c.3 2 .5 4 .7 6 .1 1.3.3 2.6.4 3.9.2 2 .4 4.1.5 6.2.1 1.3.2 2.5.3 3.8.1 2.2.2 4.5.3 6.7 0 1.1.1 2.1.2 3.2.1 3.3.2 6.6.2 9.9 0 4.1-.1 8.2-.3 12.3-.1 1.3-.2 2.7-.2 4-.1 2.7-.3 5.5-.5 8.2-.1 1.6-.3 3.2-.4 4.8-.2 2.5-.5 5-.8 7.4-.2 1.7-.4 3.3-.7 5-.3 2.4-.7 4.8-1.1 7.2-.3 1.7-.6 3.3-.9 5-.4 2.4-.9 4.8-1.4 7.2-.3 1.6-.7 3.2-1 4.8l-1.8 7.5c-.4 1.4-.7 2.9-1.1 4.3-.9 3.2-1.8 6.4-2.8 9.6l-.6 2.1v.1c1.8-.8 3.7-1.5 5.5-2.3.9-.4 1.8-.8 2.7-1.1l9-4.2c.2-.1.5-.2.7-.4 2.7-1.3 5.4-2.7 8.1-4.1.9-.5 1.8-1 2.8-1.5 2-1.1 3.9-2.2 5.8-3.3 1.1-.6 2.1-1.3 3.2-1.9 1.8-1 3.5-2.1 5.2-3.2l3.3-2.1c1.7-1.1 3.3-2.2 5-3.3 1.1-.8 2.2-1.5 3.3-2.3 1.6-1.1 3.2-2.3 4.8-3.4 1.1-.8 2.2-1.6 3.2-2.4 1.6-1.2 3.2-2.4 4.7-3.6 1-.8 2.1-1.6 3.1-2.4 1.6-1.3 3.2-2.6 4.8-4 .9-.8 1.9-1.5 2.8-2.3 1.8-1.5 3.5-3.1 5.3-4.7l2.1-1.8c2.4-2.2 4.8-4.5 7.2-6.9l.6-.6c2.1-2.1 4.2-4.3 6.3-6.5.7-.8 1.4-1.6 2.2-2.4 1.5-1.6 3-3.3 4.5-5 .8-.9 1.6-1.9 2.4-2.9 1.3-1.6 2.7-3.2 4-4.8.8-1 1.7-2.1 2.5-3.1.7-.9 1.4-1.8 2.2-2.8-1-1.3-2.1-2.6-3.1-3.9-1.2-1.5-2.5-3.1-3.7-4.6-1.6-1.9-3.2-3.7-4.8-5.6-1.3-1.5-2.6-2.9-3.9-4.3-1.7-1.9-3.5-3.7-5.2-5.5-1.3-1.3-2.6-2.7-3.9-4-1.8-1.8-3.7-3.6-5.6-5.4-1.3-1.2-2.6-2.5-3.9-3.7-2.1-1.9-4.2-3.7-6.3-5.5-1.2-1-2.4-2.1-3.7-3.2-2.5-2-5-4-7.6-6-.9-.7-1.8-1.5-2.8-2.2-3.5-2.7-7.1-5.2-10.8-7.7-.1-.1-.2-.1-.2-.2-3.5-2.3-7-4.6-10.5-6.8-.2-.1-.4-.1-.6-.2-2.6-.8-5.3-1.5-8-2.1-.2 0-.4-.1-.6-.1-2.7-.6-5.5-1.1-8.2-1.6-.4-.1-.8-.1-1.3-.2-2.7-.4-5.4-.8-8-1-.5 0-1-.1-1.5-.1-2.7-.2-5.4-.4-8.1-.5h-.5c.1.5.2 1 .3 1.4.1 1.3.4 2.6.7 3.8zM1111.3-7.9c1.7 1.8 3.5 3.6 5.2 5.5-1.7-1.9-3.5-3.7-5.2-5.5zM1091.5-26.4c2.1 1.8 4.2 3.6 6.3 5.5-2-1.9-4.2-3.7-6.3-5.5zM1101.7-17.3c1.9 1.8 3.8 3.6 5.6 5.4-1.8-1.9-3.7-3.6-5.6-5.4zM1080.3-35.6c2.6 2 5.1 3.9 7.6 6-2.5-2-5.1-4-7.6-6zM1066.7-45.5c3.7 2.5 7.3 5.1 10.8 7.7-3.5-2.6-7.1-5.2-10.8-7.7zM1120.3 1.9c1.6 1.8 3.3 3.7 4.8 5.6-1.5-1.9-3.1-3.7-4.8-5.6zM1132.1 16c-1-1.3-2.1-2.6-3.1-3.9 1 1.3 2 2.6 3.1 3.9-.1 0-.1 0 0 0zM1066.5-45.6c-3.4-2.3-6.9-4.6-10.5-6.8h-.1c3.6 2.2 7.1 4.4 10.6 6.8zM1107.4 44c-2.4 2.3-4.7 4.6-7.2 6.9l7.2-6.9zM1032.7 97.3c2.7-1.3 5.4-2.7 8.1-4.1-2.7 1.4-5.4 2.8-8.1 4.1zM1092.9 57.4c1.8-1.5 3.5-3.1 5.3-4.7-1.8 1.6-3.6 3.2-5.3 4.7zM1108 43.3c2.1-2.1 4.2-4.3 6.3-6.5-2.1 2.3-4.2 4.4-6.3 6.5zM1061.2 81.1c1.7-1.1 3.3-2.2 5-3.3-1.7 1.2-3.4 2.3-5 3.3zM1052.6 86.5c1.8-1 3.5-2.1 5.2-3.2-1.7 1.1-3.4 2.1-5.2 3.2zM1123.4 26.6c1.3-1.6 2.7-3.2 4-4.8-1.3 1.7-2.7 3.3-4 4.8zM1116.4 34.5c1.5-1.6 3-3.3 4.5-5-1.4 1.7-3 3.3-4.5 5zM1043.5 91.7c2-1.1 3.9-2.2 5.8-3.3-1.8 1.1-3.8 2.2-5.8 3.3zM1132 16c-.7.9-1.4 1.9-2.2 2.8.8-.9 1.5-1.8 2.2-2.8zM1077.5 69.8c1.6-1.2 3.2-2.4 4.7-3.6-1.6 1.2-3.1 2.4-4.7 3.6zM1069.4 75.6c1.6-1.1 3.2-2.3 4.8-3.4-1.5 1.1-3.1 2.3-4.8 3.4zM1023 101.9l9-4.2-9 4.2zM1085.3 63.7c1.6-1.3 3.2-2.6 4.8-4-1.6 1.4-3.2 2.7-4.8 4zM1020.3 103.1c-1.8.8-3.6 1.6-5.5 2.3 1.9-.7 3.7-1.5 5.5-2.3zM1132 16.1c.1-.1.1-.1 0 0 .1-.1.1-.1 0 0 0-.1 0-.1 0 0 0-.1 0-.1 0 0zM972.7 131c-2.9.7-5.9 1.3-8.9 1.9-1.1.2-2.2.5-3.4.7-4.1.8-8.2 1.4-12.3 2l-2.1.3c-2.7.4-5.4.7-8.1 1-5.8 14.9-13.9 28.7-24.1 41.1.1.1.2.3.4.4 2.1 2.2 4.2 4.3 6.5 6.3.5.5 1 .9 1.5 1.4 2.3 2.1 4.6 4.1 7 5.9.1.1.3.2.4.3 2.3 1.8 4.8 3.5 7.2 5.2.5.4 1 .7 1.6 1.1 2.5 1.7 5.1 3.2 7.7 4.7l.6.3c10.2-11.8 19.6-24.4 27.7-37.7.1-.2.1-.4.2-.6.8-2.7 1.5-5.4 2.1-8.1 0-.2.1-.3.1-.5.6-2.7 1.1-5.5 1.6-8.2.1-.4.1-.8.2-1.3.4-2.7.8-5.3 1-8 0-.5.1-1 .1-1.5.2-2.7.4-5.4.5-8.1v-.5c-1.2.3-2.3.5-3.5.8-1.2.4-2.6.8-4 1.1zM937.9 136.9c.1-.1.1-.1 0 0 0-.1 0-.1 0 0zM751.9-63.5c3.8-2.3 7.7-4.5 11.6-6.7 0 0 .1 0 .1-.1 3.9-2.2 7.9-4.2 12-6.2.3-.1.6-.3.9-.4 3.9-1.9 7.8-3.6 11.7-5.3l1.5-.6c3.8-1.6 7.7-3.2 11.6-4.6.3-.1.7-.3 1-.4l1.8-4.5 1.5-3.9c.8-2 1.7-4 2.6-6 .5-1.2 1-2.4 1.6-3.6 1-2.2 2-4.4 3.1-6.6.5-1 .9-2 1.4-2.9 1.5-3.1 3.1-6.1 4.7-9.1 0-.1.1-.1.1-.2 1.7-3.1 3.4-6.1 5.1-9.2.5-.8 1-1.7 1.5-2.5 1.3-2.1 2.6-4.3 3.9-6.4.7-1.1 1.4-2.2 2.1-3.2 1.2-1.8 2.4-3.7 3.6-5.5.8-1.2 1.6-2.3 2.4-3.5 1.2-1.7 2.4-3.4 3.6-5 .9-1.2 1.8-2.4 2.7-3.5 1.2-1.6 2.4-3.2 3.7-4.8.9-1.2 1.9-2.4 2.9-3.5 1.2-1.5 2.5-3 3.8-4.5 1-1.2 2-2.3 3-3.5 1.3-1.5 2.6-2.9 3.9-4.4 1-1.1 2.1-2.3 3.1-3.4 1.3-1.4 2.7-2.8 4.1-4.2l3.3-3.3c1.4-1.4 2.8-2.7 4.2-4.1 1.1-1.1 2.2-2.1 3.4-3.2 1.5-1.3 2.9-2.7 4.4-4 1.1-1 2.3-2 3.4-3 1.5-1.3 3.1-2.6 4.7-3.9 1.2-1 2.3-1.9 3.5-2.8.4-.3.8-.7 1.3-1.1-5-3.5-10.1-6.9-15.4-10.2-1-.3-2-.6-3.1-.9-.5-.1-1-.3-1.5-.4l-3.6-.9c-.5-.1-1-.2-1.5-.4-1.2-.3-2.5-.5-3.7-.8-.5-.1-.9-.2-1.4-.3-1.3-.2-2.6-.5-4-.7-.4-.1-.8-.1-1.2-.2-1.4-.2-2.9-.4-4.3-.6-.3 0-.6-.1-.9-.1-1.6-.2-3.3-.3-4.9-.5h-.2c-3.5-.3-7-.4-10.5-.4-77.2 0-140 62.8-140 140.1 0 2.3.1 4.7.2 7 0 .8.1 1.5.2 2.3.1 1.6.2 3.1.4 4.6l.3 2.7c.2 1.4.3 2.8.6 4.2.1.9.3 1.9.5 2.8.2 1.4.5 2.7.8 4 .2.9.4 1.9.6 2.8.3 1.3.6 2.7 1 4 .2.9.5 1.8.7 2.7.4 1.4.8 2.8 1.3 4.2.2.8.5 1.6.8 2.4.6 1.8 1.3 3.6 1.9 5.4.1.4.3.8.4 1.1v.1c12.7-8.9 26.6-15.8 41.4-20.4-.2.2 0 .1.3 0zM881.9 237.1c-.7-.7-1.5-1.3-2.2-2-3.3-3-6.5-6.1-9.6-9.3-.6-.6-1.2-1.2-1.8-1.9-1.8-1.9-3.7-3.8-5.5-5.7v-.1c-20.5 9.9-43.2 15.2-66.1 15.2-19.9 0-39.4-3.9-57.6-11.4l.1.1c1.8 1.9 3.7 3.8 5.6 5.6.6.6 1.2 1.1 1.9 1.7 1.4 1.2 2.8 2.5 4.2 3.7.7.6 1.5 1.2 2.2 1.8 1.4 1.1 2.8 2.2 4.3 3.3.7.5 1.4 1.1 2.2 1.6 1.8 1.3 3.6 2.5 5.4 3.6.4.3.8.6 1.2.8 2.2 1.4 4.5 2.7 6.8 4 .7.4 1.3.7 2 1 1.7.9 3.4 1.8 5.1 2.6.9.4 1.7.8 2.6 1.2l4.8 2.1c.9.4 1.7.7 2.6 1.1 1.8.7 3.6 1.3 5.5 2 .7.2 1.4.5 2.1.7 2.5.8 5.1 1.5 7.6 2.2.5.1 1.1.2 1.6.4 2.1.5 4.2 1 6.3 1.4.9.2 1.8.3 2.7.5 1.8.3 3.6.6 5.4.8 1 .1 1.9.3 2.9.4 1.9.2 3.7.4 5.6.5.9.1 1.7.1 2.6.2 2.7.2 5.4.3 8.2.3 1.7 0 3.5 0 5.2-.1.5 0 1-.1 1.5-.1 1.2-.1 2.5-.1 3.7-.2.6 0 1.2-.1 1.8-.2l3.3-.3c.7-.1 1.3-.2 2-.3 1.1-.1 2.1-.3 3.2-.4l2.1-.3c1-.2 2-.3 3.1-.5.7-.1 1.4-.3 2.1-.4 1-.2 2-.4 2.9-.6.7-.2 1.5-.4 2.2-.5.9-.2 1.9-.4 2.8-.7.8-.2 1.6-.4 2.4-.7.8-.2 1.5-.4 2.3-.7 5.2-3.2 10.4-6.6 15.4-10.2l-3.3-2.7-3.3-2.7c-2.9-2.2-5.5-4.5-8.1-6.8zM618.6 268.6c-.4-1.3-.7-2.7-1-4-.7-2.6-1.3-5.2-1.9-7.8-.4-1.5-.7-3.1-1-4.7-.5-2.4-1-4.9-1.4-7.3-.3-1.6-.6-3.2-.8-4.9-.4-2.4-.8-4.8-1.1-7.3-.2-1.6-.5-3.3-.7-4.9-.3-2.5-.6-5-.8-7.5-.2-1.6-.3-3.1-.4-4.7-.2-2.7-.4-5.5-.5-8.2-.1-1.3-.2-2.7-.2-4-.2-4.1-.3-8.2-.3-12.3 0-3.4.1-6.9.2-10.3 0-1 .1-2.1.2-3.1.1-2.4.2-4.7.4-7.1.1-1.2.2-2.5.3-3.7.2-2.2.3-4.3.6-6.5.1-1.3.3-2.7.5-4 .2-2 .5-4.1.7-6.1.2-1.4.4-2.8.6-4.1.3-2 .6-4 .9-5.9.2-1.4.5-2.7.8-4.1.4-2 .7-3.9 1.1-5.9.3-1.4.6-2.7.9-4 .4-2 .9-3.9 1.3-5.9.3-1.3.7-2.7 1-4 .5-2 1-3.9 1.5-5.9.4-1.3.8-2.7 1.2-4 .6-1.9 1.1-3.8 1.7-5.7.4-1.3.9-2.6 1.3-4 .6-1.9 1.2-3.8 1.9-5.7l1.5-3.9c.7-1.9 1.4-3.7 2.1-5.6.5-1.3 1.1-2.6 1.6-4 .8-1.8 1.5-3.6 2.3-5.4l1.8-3.9c.8-1.8 1.6-3.6 2.4-5.3.6-1.3 1.3-2.6 2-3.9.9-1.7 1.7-3.5 2.6-5.2l2.1-3.9c.9-1.7 1.8-3.4 2.7-5 .7-1.3 1.5-2.6 2.3-3.9.9-1.5 1.8-3.1 2.7-4.6 2.7-8.5 6.1-16.8 10.3-24.8-.8-1.1-1.5-2.2-2.2-3.3-1.1-1.6-2.2-3.2-3.2-4.8-1-1.6-2.1-3.2-3.1-4.8-1-1.6-2.1-3.3-3-4.9-1-1.6-1.9-3.3-2.9-5-1-1.7-1.9-3.3-2.8-5l-2.7-5.1c-.9-1.7-1.8-3.4-2.6-5.1-.9-1.7-1.7-3.5-2.5-5.2l-2.4-5.1c-.8-1.8-1.5-3.5-2.3-5.3-.7-1.7-1.5-3.4-2.2-5.2l-2.1-5.4c-.7-1.7-1.3-3.5-2-5.2-.7-1.8-1.3-3.7-1.9-5.5-.6-1.7-1.2-3.5-1.8-5.2-.6-1.9-1.1-3.8-1.7-5.7-.5-1.7-1.1-3.5-1.5-5.2-.5-1.9-1-3.9-1.5-5.8-.4-1.7-.9-3.5-1.3-5.2-.5-2-.9-4-1.3-6-.4-1.7-.8-3.4-1.1-5.2-.4-2-.7-4.1-1.1-6.1l-.9-5.1c-.3-2.1-.6-4.3-.9-6.4-.2-1.7-.5-3.3-.7-5-.3-2.3-.5-4.5-.7-6.8-.1-1.5-.3-3.1-.4-4.6-.2-2.6-.3-5.1-.4-7.7-.1-1.3-.2-2.6-.2-3.8-.1-3.8-.2-7.7-.2-11.6 0-4.1.1-8.2.3-12.3.1-1.3.2-2.7.2-4 .1-2.7.3-5.5.5-8.2.1-1.6.3-3.1.4-4.7.2-2.5.5-5 .8-7.5.2-1.6.4-3.3.7-4.9.3-2.4.7-4.8 1.1-7.3.3-1.6.5-3.3.8-4.9.4-2.4.9-4.9 1.4-7.3.3-1.6.6-3.1 1-4.7.6-2.6 1.2-5.2 1.9-7.8.3-1.4.7-2.7 1-4.1.9-3.4 1.9-6.8 2.9-10.1.2-.5.3-1.1.5-1.6 0-.1 0-.1.1-.2C515.7-204.6 445-99.9 445 16s70.7 220.6 177.1 264.5c0-.1 0-.1-.1-.2-.2-.5-.3-1-.5-1.6-1-3.3-2-6.7-2.9-10.1zM662 11.4l.1.1zM672.1-5.1c1.3-1.8 2.6-3.6 4-5.4.4-.5.8-1.1 1.2-1.6 1.1-1.4 2.2-2.7 3.3-4 .5-.5.9-1.1 1.4-1.6 1.3-1.5 2.6-2.9 3.9-4.3.3-.3.5-.6.8-.9 1.6-1.7 3.3-3.4 5-5 .4-.4.8-.7 1.2-1.1 1.3-1.2 2.7-2.5 4-3.7.6-.5 1.1-1 1.7-1.4.5-.4 1-.9 1.6-1.3-.2-.6-.4-1.2-.7-1.8-.4-1.1-.8-2.1-1.2-3.2-.5-1.4-1-2.7-1.5-4.1-.4-1.1-.7-2.2-1.1-3.3-.4-1.4-.8-2.8-1.2-4.1l-.9-3.3c-.4-1.4-.7-2.8-1-4.2-.2-1.1-.5-2.2-.7-3.3-.3-1.5-.6-2.9-.8-4.4-.2-1.1-.4-2.1-.6-3.2-.2-1.5-.4-3.1-.6-4.6-.1-1-.3-2-.4-3-.2-1.7-.3-3.4-.4-5.2-.1-.9-.1-1.7-.2-2.6-.1-2.6-.2-5.2-.2-7.8 0-83.7 68.1-151.7 151.7-151.7 2.3 0 4.6.1 6.9.2h.6c-.5-.2-.9-.4-1.4-.6-.9-.4-1.7-.8-2.6-1.1-1.9-.8-3.9-1.6-5.8-2.4-.9-.3-1.7-.7-2.6-1-2.5-1-5-1.9-7.6-2.9-.2-.1-.5-.2-.7-.3-2.8-1-5.5-1.9-8.3-2.8-.9-.3-1.7-.5-2.6-.8l-6-1.8c-.9-.3-1.9-.5-2.8-.8-2.2-.6-4.5-1.2-6.7-1.8-.6-.2-1.3-.3-1.9-.5-2.8-.7-5.7-1.3-8.6-1.9-.8-.2-1.6-.3-2.3-.5-2.2-.4-4.3-.8-6.5-1.2-1-.2-1.9-.3-2.9-.5-2.1-.4-4.3-.7-6.5-1-.8-.1-1.6-.2-2.4-.4-2.9-.4-5.8-.8-8.8-1.1-.5-.1-1.1-.1-1.6-.2-2.4-.2-4.8-.4-7.3-.6-1-.1-1.9-.1-2.9-.2-2.1-.1-4.3-.2-6.4-.3-.9 0-1.8-.1-2.7-.1-3-.1-6-.1-9-.1-4.1 0-8.2.1-12.3.3-1.4.1-2.7.2-4 .3-2.7.2-5.5.3-8.2.5-1.6.1-3.2.3-4.8.5-2.5.2-4.9.5-7.4.8-1.7.2-3.4.5-5.1.8-2.3.3-4.7.7-7 1.1-1.8.3-3.5.7-5.2 1-2.3.4-4.5.8-6.8 1.3-1.8.4-3.5.8-5.3 1.3-2.2.5-4.4 1-6.6 1.6-1.8.5-3.6 1-5.3 1.5-2.1.6-4.3 1.2-6.4 1.9l-5.4 1.8c-1.6.5-3.3 1.1-4.9 1.7-.6 1.6-1.1 3.3-1.7 4.9l-1.8 5.4c-.7 2.1-1.2 4.3-1.9 6.4-.5 1.8-1 3.6-1.5 5.3-.6 2.2-1.1 4.4-1.6 6.6-.4 1.8-.9 3.5-1.3 5.3-.5 2.2-.9 4.5-1.3 6.8-.3 1.7-.7 3.5-1 5.2-.4 2.3-.7 4.7-1.1 7-.2 1.7-.5 3.4-.8 5.1-.3 2.4-.5 4.9-.8 7.4-.2 1.6-.4 3.2-.5 4.8-.2 2.7-.4 5.5-.5 8.2-.1 1.4-.2 2.7-.3 4-.2 4.1-.3 8.2-.3 12.3 0 3.7.1 7.3.2 11 0 1.2.1 2.4.2 3.7.1 2.4.2 4.9.4 7.3.1 1.4.3 2.9.4 4.3.2 2.2.4 4.4.6 6.5.2 1.5.4 3 .6 4.6.3 2.1.5 4.1.8 6.2.2 1.6.5 3.1.8 4.7.3 2 .7 4 1.1 6 .3 1.6.6 3.2 1 4.7.4 2 .8 3.9 1.3 5.8.4 1.6.8 3.2 1.2 4.7l1.5 5.7c.4 1.6.9 3.1 1.3 4.7.5 1.9 1.1 3.8 1.7 5.6.5 1.6 1 3.1 1.5 4.7.6 1.9 1.3 3.7 1.9 5.6.5 1.5 1.1 3.1 1.7 4.6.7 1.8 1.4 3.7 2.1 5.5.6 1.5 1.2 3 1.9 4.5l2.4 5.4c.7 1.5 1.3 3 2 4.4.8 1.8 1.7 3.6 2.6 5.4.7 1.4 1.4 2.9 2.2 4.3.9 1.8 1.9 3.6 2.9 5.4.8 1.4 1.5 2.8 2.3 4.2 1 1.8 2.1 3.6 3.1 5.4.8 1.3 1.6 2.7 2.4 4 1.1 1.8 2.3 3.6 3.4 5.4.8 1.3 1.6 2.5 2.4 3.8.2.3.5.7.7 1 1.1-1.7 2.2-3.4 3.4-5.1.1-.2.2-.2.2-.3zM691.7-27.9c.4-.4.8-.7 1.2-1.1-.4.4-.8.7-1.2 1.1zM672.1-5.1c0 .1-.1.2-.1.2 0-.1.1-.1.1-.2zM698.6-34.1c-.6.5-1.1 1-1.7 1.4.6-.4 1.1-.9 1.7-1.4zM682-17.7c-.5.5-.9 1.1-1.4 1.6.4-.5.9-1.1 1.4-1.6zM686.7-22.9c-.3.3-.5.6-.8.9.2-.3.5-.6.8-.9zM677.3-12.1c-.4.5-.8 1-1.2 1.6.4-.5.8-1.1 1.2-1.6zM781.4-265.5c2.2.4 4.3.8 6.5 1.2-2.2-.4-4.4-.8-6.5-1.2zM790.2-263.8c2.9.6 5.7 1.2 8.6 1.9-2.9-.6-5.8-1.2-8.6-1.9zM818.8-256.1c2.8.9 5.6 1.8 8.3 2.8-2.7-1-5.5-1.9-8.3-2.8zM848-244.9c-.5-.2-1-.4-1.5-.7.4.2.9.4 1.5.7-.1 0-.1 0 0 0zM838-249.2c2 .8 3.9 1.6 5.8 2.4-1.9-.8-3.8-1.6-5.8-2.4zM827.9-253c2.5.9 5.1 1.9 7.6 2.9-2.6-1.1-5.1-2-7.6-2.9zM646.5-257.2c2.1-.7 4.3-1.2 6.4-1.9-2.2.6-4.3 1.2-6.4 1.9zM730.9-269.9c3 0 6 .1 9 .2-3-.2-6-.2-9-.2zM682.1-265.8c2.3-.4 4.7-.7 7-1.1-2.4.4-4.7.7-7 1.1zM742.6-269.7c2.2.1 4.3.2 6.4.3-2.1-.1-4.3-.2-6.4-.3zM810.2-258.8l6 1.8-6-1.8zM694.2-267.6c2.4-.3 4.9-.5 7.4-.8-2.5.3-5 .5-7.4.8zM706.3-268.9c2.7-.2 5.5-.4 8.2-.5-2.7.1-5.4.3-8.2.5zM772-267c2.2.3 4.3.6 6.5 1-2.2-.3-4.3-.7-6.5-1zM760.8-268.4c2.9.3 5.9.7 8.8 1.1-2.9-.4-5.9-.8-8.8-1.1zM751.9-269.2c2.4.2 4.9.4 7.3.6-2.5-.2-4.9-.4-7.3-.6zM670.1-263.4c2.2-.5 4.5-.9 6.8-1.3-2.3.4-4.6.8-6.8 1.3zM800.6-261.3c2.2.6 4.5 1.1 6.7 1.8-2.2-.7-4.4-1.3-6.7-1.8zM658.2-260.6c2.2-.6 4.4-1.1 6.6-1.6-2.2.5-4.4 1-6.6 1.6zM718.6-269.7c4.1-.2 8.2-.3 12.3-.3l-12.3.3zM641.1-255.5c-1.6.5-3.3 1-4.9 1.6v.1c1.6-.6 3.3-1.1 4.9-1.7zM689.8-74.9c-.1-1-.3-2-.4-3 .1 1 .3 2 .4 3zM689-83.1c-.1-.9-.1-1.7-.2-2.6.1.9.2 1.8.2 2.6zM692.5-59.4c-.2-1.1-.5-2.2-.7-3.3.2 1.1.5 2.2.7 3.3zM840.4-245.1c2.3 0 4.6.1 6.9.2-2.3-.2-4.6-.2-6.9-.2-83.7 0-151.7 68.1-151.7 151.7-.1-83.7 68-151.7 151.7-151.7zM691-67.1c-.2-1.1-.4-2.1-.6-3.2.2 1.1.4 2.2.6 3.2zM696.8-44.5c-.4-1.1-.7-2.2-1.1-3.3.3 1.2.7 2.2 1.1 3.3zM694.5-51.9l-.9-3.3c.2 1.1.5 2.2.9 3.3zM699.5-37.2c-.4-1.1-.8-2.1-1.2-3.2.3 1.1.7 2.1 1.2 3.2zM623.4-115.5c-.3-2.1-.6-4.1-.8-6.2.2 2.1.5 4.1.8 6.2zM665.4-4.5c-1.2-1.8-2.3-3.6-3.4-5.4 1.1 1.7 2.3 3.5 3.4 5.4zM668.5.3c0-.1.1-.1 0 0-.2-.4-.5-.7-.7-1.1.3.4.5.7.7 1.1zM625.2-104.8c-.4-2-.7-4-1.1-6 .4 2 .7 4 1.1 6zM621.9-126.3c-.2-2.2-.4-4.4-.6-6.5.2 2.2.4 4.3.6 6.5zM620.3-148.1c-.1-3.7-.2-7.3-.2-11 0 3.7 0 7.4.2 11zM620.1-159.1c0-4.1.1-8.2.3-12.3-.2 4.1-.3 8.2-.3 12.3zM620.9-137.1c-.2-2.4-.3-4.8-.4-7.3.1 2.4.2 4.8.4 7.3zM659.6-14c-1.1-1.8-2.1-3.6-3.1-5.4 1 1.8 2 3.6 3.1 5.4zM644.6-43.1l-2.4-5.4 2.4 5.4zM633.1-73.4c-.6-1.9-1.1-3.8-1.7-5.6.6 1.8 1.1 3.7 1.7 5.6zM640.4-53.1c-.7-1.8-1.4-3.7-2.1-5.5.6 1.9 1.3 3.7 2.1 5.5zM630.1-83.8l-1.5-5.7 1.5 5.7zM654.2-23.5c-1-1.8-1.9-3.6-2.9-5.4 1 1.8 1.9 3.6 2.9 5.4zM627.4-94.3c-.4-1.9-.9-3.9-1.3-5.8.5 2 .9 3.9 1.3 5.8zM649.2-33.2c-.9-1.8-1.8-3.6-2.6-5.4.8 1.8 1.7 3.6 2.6 5.4zM627.8-225.2c.5-2.2 1-4.4 1.6-6.6-.6 2.2-1.1 4.4-1.6 6.6zM636.5-63.2c-.7-1.8-1.3-3.7-1.9-5.6.7 1.9 1.3 3.8 1.9 5.6zM620.6-175.4c.2-2.7.3-5.5.5-8.2-.2 2.7-.4 5.4-.5 8.2zM636.2-253.8c-.6 1.6-1.1 3.3-1.7 4.9.6-1.6 1.1-3.3 1.7-4.9zM630.9-237.1c.6-2.1 1.2-4.3 1.9-6.4-.7 2.1-1.3 4.2-1.9 6.4zM621.6-188.5c.2-2.5.5-4.9.8-7.4-.3 2.5-.5 5-.8 7.4zM623.2-200.9c.3-2.3.7-4.7 1.1-7-.5 2.3-.8 4.6-1.1 7zM625.2-213.2c.4-2.3.8-4.5 1.3-6.8-.4 2.3-.8 4.6-1.3 6.8zM636.2-253.9c-.1.1-.1.1 0 0 0 .1 0 .1 0 0 0 .1 0 .1 0 0zM938.8 28.8c.5 1.4 1 2.7 1.5 4.1.4 1.1.7 2.1 1.1 3.2.4 1.4.9 2.8 1.2 4.2.3 1.1.6 2.2.9 3.2.4 1.4.7 2.8 1 4.3.2 1.1.5 2.2.7 3.2.3 1.5.6 2.9.8 4.4.2 1.1.4 2.1.5 3.2.2 1.5.4 3.1.6 4.6.1 1 .3 2 .4 3 .2 1.7.3 3.4.4 5.1.1.9.1 1.7.2 2.6.1 2.6.2 5.2.2 7.8 0 2 0 4.1-.1 6.1 0 .6-.1 1.3-.1 1.9l-.3 4.2c-.1.8-.1 1.5-.2 2.3-.1 1.3-.3 2.6-.4 3.9-.1.7-.2 1.5-.3 2.2-.2 1.4-.4 2.8-.7 4.3l-.3 1.8c-.4 2-.7 4-1.2 5.9l-.3 1.2c-.4 1.6-.7 3.1-1.1 4.7l-.6 2.1c-.2.8-.4 1.5-.6 2.3.8-.1 1.7-.2 2.5-.3 1.2-.2 2.4-.3 3.6-.5 3-.4 5.9-.9 8.8-1.4 1-.2 2-.3 3-.5 3.8-.7 7.6-1.5 11.4-2.4.8-.2 1.5-.4 2.3-.6 2.1-.5 4.2-1.1 6.4-1.7 0-.4 0-.9-.1-1.4-.1-1-.2-2.1-.3-3.1-.1-1.3-.2-2.5-.4-3.8-.1-1.1-.3-2.1-.4-3.1-.2-1.2-.4-2.5-.6-3.7-.2-1.1-.4-2.1-.6-3.1-.2-1.2-.5-2.4-.8-3.6-.2-1-.5-2.1-.7-3.1-.3-1.2-.6-2.4-1-3.6-.3-1-.5-2-.8-3-.4-1.2-.8-2.5-1.2-3.7-.3-.9-.6-1.9-.9-2.8-.5-1.4-1-2.8-1.6-4.2-.3-.7-.5-1.5-.8-2.2-.8-2.1-1.7-4.1-2.7-6.1-.4-.8-.8-1.7-1.2-2.5l-1.8-3.6-1.5-2.7c-.6-1.1-1.2-2.2-1.9-3.3-.5-.9-1.1-1.8-1.7-2.7-.7-1-1.3-2.1-2-3.1l-1.8-2.7-2.1-3c-.6-.9-1.3-1.7-1.9-2.6-.7-1-1.5-1.9-2.3-2.9-.7-.8-1.4-1.7-2.1-2.5-.8-.9-1.6-1.9-2.4-2.8-.7-.8-1.4-1.6-2.2-2.4-.9-.9-1.8-1.8-2.6-2.7l-2.2-2.2-.6-.6.6 1.5c.5.8.9 1.8 1.3 2.9zM946.5 58.5c-.2-1.1-.4-2.1-.5-3.2.2 1.1.4 2.2.5 3.2zM948.1 73.9c0-.9-.1-1.7-.2-2.6.1.9.2 1.7.2 2.6zM942.8 122.2l.6-2.1-.6 2.1zM947.5 66.2c-.1-1-.2-2-.4-3 .2 1 .3 2 .4 3zM946.9 102.3c.1-.7.2-1.5.3-2.2-.1.7-.2 1.5-.3 2.2zM948.1 89.7c0-.6.1-1.3.1-1.9 0 .6-.1 1.3-.1 1.9zM947.6 96.2c.1-.8.1-1.5.2-2.3-.1.8-.1 1.5-.2 2.3zM941.3 36.1c-.3-1.1-.7-2.1-1.1-3.2.4 1 .7 2.1 1.1 3.2zM944.5 115.4l.3-1.2-.3 1.2zM938.8 28.8c-.4-1.1-.8-2.1-1.2-3.1.4 1 .8 2 1.2 3.1zM946 108.3l.3-1.8c-.2.6-.2 1.2-.3 1.8zM943.4 43.5c-.3-1.1-.6-2.2-.9-3.2.3 1 .6 2.1.9 3.2zM945.2 51c-.2-1.1-.5-2.2-.7-3.2.2 1 .4 2.1.7 3.2zM957 122.3c-2.9.5-5.9 1-8.8 1.4 3-.4 5.9-.9 8.8-1.4zM973.7 118.8c2.1-.5 4.3-1 6.4-1.6v-.1c-2.1.6-4.3 1.2-6.4 1.7zM971.4 119.3c-3.8.9-7.6 1.7-11.4 2.4 3.9-.7 7.7-1.5 11.4-2.4zM942.1 124.6c.8-.1 1.7-.2 2.5-.4-.8.1-1.6.2-2.5.4 0-.1 0 0 0 0zM840.4 277.1c-3.2 0-6.4-.1-9.6-.3-1.1-.1-2.1-.2-3.2-.3-2.1-.2-4.2-.3-6.3-.6-1.3-.2-2.6-.4-4-.6-1.8-.3-3.6-.5-5.4-.9l-4.2-.9c-1.7-.4-3.4-.7-5-1.1-1.4-.4-2.8-.8-4.3-1.2-1.6-.5-3.2-.9-4.7-1.4-1.5-.5-2.9-1-4.3-1.5-1.5-.5-3-1-4.5-1.6-1.4-.6-2.9-1.2-4.3-1.8-1.4-.6-2.9-1.2-4.3-1.8l-4.2-2.1c-1.4-.7-2.7-1.3-4.1-2.1-1.4-.8-2.8-1.6-4.1-2.4-1.3-.8-2.6-1.5-3.9-2.3-1.4-.9-2.7-1.8-4-2.7-1.2-.8-2.5-1.6-3.7-2.5-1.3-.9-2.6-2-3.9-2.9l-3.6-2.7c-1.3-1-2.5-2.1-3.7-3.2-1.1-1-2.3-1.9-3.4-3-1.2-1.1-2.3-2.3-3.5-3.4-1.1-1.1-2.2-2.1-3.2-3.2-1.1-1.2-2.2-2.4-3.3-3.7-1-1.1-2.1-2.2-3-3.4-1.1-1.3-2.1-2.6-3.1-3.9-1-1.2-1.9-2.4-2.9-3.6-1-1.3-1.9-2.7-2.8-4.1-.8-1.1-1.6-2.2-2.3-3.3-1.2-.8-2.2-1.6-3.4-2.4-1.3-.9-2.7-1.8-4-2.8-1.2-.9-2.4-1.9-3.7-2.9-1.3-1-2.6-2-3.8-3.1-1.2-1-2.3-2-3.4-3-1.2-1.1-2.5-2.2-3.7-3.3-1.1-1-2.1-2.1-3.1-3.2l-3.5-3.5c-1-1.1-1.9-2.2-2.9-3.3-1.1-1.3-2.2-2.5-3.3-3.8-.9-1.1-1.7-2.3-2.6-3.4-1-1.3-2.1-2.7-3.1-4-.8-1.1-1.6-2.3-2.4-3.5-1-1.4-1.9-2.8-2.8-4.3l-2.1-3.6c-.9-1.5-1.8-3-2.6-4.5l-1.8-3.6c-.8-1.6-1.6-3.1-2.4-4.7-.6-1.2-1-2.4-1.6-3.6-.7-1.6-1.5-3.3-2.1-4.9-.5-1.2-.9-2.4-1.3-3.6-.6-1.7-1.3-3.4-1.8-5.2-.4-1.2-.7-2.4-1-3.6-.5-1.8-1.1-3.6-1.6-5.4-.3-1.2-.5-2.3-.8-3.5-.4-1.9-.9-3.8-1.3-5.7-.2-1-.3-2.1-.5-3.1-.3-2.1-.7-4.1-1-6.2-.1-.8-.1-1.7-.2-2.5-.6-5.5-1-11-1-16.6 0-2.3.1-4.6.2-6.9v-.6c-.2.5-.4.9-.6 1.4-.4.9-.8 1.8-1.1 2.7-.8 1.9-1.6 3.8-2.4 5.8-.4.9-.7 1.8-1.1 2.6-1 2.5-1.9 4.9-2.8 7.4-.1.3-.2.6-.3.8-1 2.8-1.9 5.5-2.8 8.3-.3.9-.5 1.8-.8 2.6l-1.8 6c-.3 1-.5 1.9-.8 2.9l-1.8 6.6c-.2.7-.3 1.3-.5 2-.7 2.8-1.3 5.7-1.9 8.5-.2.8-.3 1.6-.5 2.3-.4 2.1-.8 4.3-1.2 6.5-.2 1-.3 1.9-.5 2.9-.4 2.1-.7 4.3-1 6.4-.1.8-.2 1.6-.4 2.4-.4 2.9-.8 5.8-1.1 8.8-.1.5-.1 1.1-.2 1.6-.2 2.4-.4 4.8-.6 7.3-.1 1-.1 1.9-.2 2.8-.1 2.1-.2 4.3-.3 6.4 0 .9-.1 1.8-.1 2.7-.1 3-.1 6-.1 9 0 4.1.1 8.2.3 12.3.1 1.3.2 2.7.2 4 .2 2.8.3 5.5.5 8.3.1 1.6.3 3.2.5 4.8.2 2.5.5 4.9.8 7.4.2 1.7.5 3.4.8 5.1.3 2.3.7 4.7 1.1 7 .3 1.7.7 3.5 1 5.2.4 2.3.8 4.5 1.3 6.8.4 1.8.8 3.5 1.3 5.3.5 2.2 1 4.4 1.6 6.6l1.5 5.4c.6 2.1 1.2 4.3 1.8 6.4l1.8 5.4c.5 1.6 1.1 3.2 1.6 4.9 1.6.6 3.3 1.1 5 1.7 1.8.6 3.5 1.2 5.3 1.7 2.2.7 4.3 1.3 6.5 1.9 1.7.5 3.5 1 5.2 1.5 2.2.6 4.5 1.1 6.7 1.6 1.7.4 3.4.8 5.2 1.2 2.3.5 4.6.9 6.9 1.4 1.7.3 3.4.7 5.1 1 2.4.4 4.8.7 7.1 1.1 1.7.2 3.3.5 5 .7 2.5.3 5 .6 7.5.8 1.6.2 3.1.4 4.7.5 2.7.2 5.5.4 8.3.5 1.3.1 2.7.2 4 .2 4.1.2 8.2.3 12.3.3 3 0 6-.1 8.9-.2.9 0 1.8-.1 2.7-.1 2.1-.1 4.3-.2 6.4-.3 1-.1 1.9-.1 2.9-.2 2.4-.2 4.9-.4 7.3-.6.5-.1 1.1-.1 1.6-.2 2.9-.3 5.9-.7 8.8-1.1.8-.1 1.6-.2 2.4-.4 2.2-.3 4.3-.6 6.4-1 1-.2 2-.3 2.9-.5 2.2-.4 4.3-.8 6.4-1.2.8-.2 1.6-.3 2.4-.5 2.9-.6 5.7-1.2 8.5-1.9.7-.2 1.3-.3 1.9-.5 2.2-.6 4.4-1.1 6.7-1.8 1-.3 1.9-.5 2.9-.8l6-1.8c.9-.3 1.8-.5 2.6-.8 2.8-.9 5.5-1.8 8.3-2.8l.9-.3c2.5-.9 5-1.8 7.4-2.8.9-.3 1.8-.7 2.7-1.1l5.7-2.4 2.7-1.2c.5-.2.9-.4 1.4-.6h-.7c-2.2.2-4.5.2-6.7.2zM827.1 285.3c-2.7 1-5.5 1.9-8.3 2.8 2.8-.9 5.6-1.8 8.3-2.8zM816.2 288.9l-6 1.8c2-.5 4-1.1 6-1.8zM807.3 291.6c-2.2.6-4.4 1.2-6.7 1.8 2.3-.6 4.5-1.2 6.7-1.8zM843.8 278.7l-5.7 2.4c1.9-.7 3.8-1.5 5.7-2.4zM848 276.9c-.1 0-.1 0 0 0l-1.5.6c.5-.1 1-.3 1.5-.6zM787.8 296.2c-2.1.4-4.3.8-6.4 1.2 2.1-.3 4.3-.7 6.4-1.2zM835.4 282.2c-2.5 1-4.9 1.9-7.4 2.8 2.5-.9 4.9-1.8 7.4-2.8zM749 301.3c-2.1.1-4.3.2-6.4.3 2.1 0 4.3-.1 6.4-.3zM739.9 301.8c-3 .1-6 .2-8.9.2 2.9-.1 5.9-.1 8.9-.2zM689.2 298.8c-2.4-.3-4.8-.7-7.1-1.1 2.3.5 4.7.8 7.1 1.1zM730.9 301.9c-4.1 0-8.2-.1-12.3-.3 4.1.2 8.2.3 12.3.3zM759.2 300.5c-2.4.2-4.9.4-7.3.6 2.4-.1 4.9-.3 7.3-.6zM769.6 299.3c-2.9.4-5.8.8-8.8 1.1 2.9-.3 5.9-.7 8.8-1.1zM778.5 298c-2.1.4-4.3.7-6.4 1 2.1-.3 4.2-.7 6.4-1zM714.6 301.4c-2.8-.2-5.5-.3-8.3-.5 2.8.2 5.5.4 8.3.5zM701.6 300.4c-2.5-.3-5-.5-7.5-.8 2.5.3 5 .5 7.5.8zM636.2 285.8c1.7.6 3.3 1.1 4.9 1.7-1.6-.6-3.3-1.1-4.9-1.7zM798.7 293.8c-2.8.7-5.7 1.3-8.5 1.9 2.8-.6 5.7-1.2 8.5-1.9zM676.9 296.8c-2.3-.4-4.6-.9-6.9-1.4 2.3.5 4.6.9 6.9 1.4zM652.9 291.1c-2.2-.6-4.3-1.2-6.5-1.9 2.2.7 4.4 1.3 6.5 1.9zM664.9 294.2c-2.2-.5-4.5-1-6.7-1.6 2.2.6 4.4 1.1 6.7 1.6zM688.4 187.9l-3.5-3.5 3.5 3.5zM661.3 150.4c-.8-1.6-1.6-3.1-2.4-4.7.8 1.6 1.6 3.1 2.4 4.7zM654 133.5c-.6-1.7-1.3-3.4-1.8-5.2.5 1.7 1.2 3.4 1.8 5.2zM657.4 142c-.7-1.6-1.5-3.3-2.1-4.9.7 1.7 1.4 3.3 2.1 4.9zM651.1 124.7c-.5-1.8-1.1-3.6-1.6-5.4.5 1.8 1.1 3.6 1.6 5.4zM648.8 115.8c-.4-1.9-.9-3.8-1.3-5.7.4 1.9.8 3.8 1.3 5.7zM647 106.9c-.3-2.1-.7-4.1-1-6.2.3 2.1.7 4.2 1 6.2zM710.1 206.2c-1.3-.9-2.7-1.8-4-2.8 1.3.9 2.6 1.8 4 2.8zM702.4 200.5c-1.3-1-2.6-2-3.8-3.1 1.2 1.1 2.5 2.1 3.8 3.1zM695.2 194.4c-1.2-1.1-2.5-2.2-3.7-3.3 1.2 1.1 2.4 2.2 3.7 3.3zM645 74.7c-.1 2.3-.2 4.6-.2 6.9 0 5.6.4 11.1 1 16.6-.6-5.5-1-11-1-16.6.1-2.3.1-4.6.2-6.9zM682 181c-1.1-1.3-2.2-2.5-3.3-3.8 1.1 1.3 2.2 2.6 3.3 3.8zM676.1 173.8c-1-1.3-2.1-2.7-3.1-4 1 1.4 2.1 2.7 3.1 4zM670.7 166.3c-1-1.4-1.9-2.8-2.8-4.3.9 1.5 1.9 2.9 2.8 4.3zM665.8 158.5c-.9-1.5-1.8-3-2.6-4.5.8 1.5 1.7 3 2.6 4.5zM798.4 271.2c1.4.4 2.8.9 4.3 1.2-1.5-.3-2.9-.8-4.3-1.2zM789.4 268.3c1.4.5 2.9 1.1 4.3 1.5-1.5-.4-2.9-1-4.3-1.5zM807.7 273.5c1.4.3 2.8.7 4.2.9-1.4-.2-2.8-.6-4.2-.9zM780.6 264.9c1.4.6 2.8 1.3 4.3 1.8-1.5-.6-2.9-1.2-4.3-1.8zM730.9 230.5c-1.1-1.2-2.2-2.4-3.3-3.7 1.1 1.3 2.2 2.5 3.3 3.7zM840.4 277.1c2.3 0 4.6-.1 6.8-.2-2.3.2-4.6.2-6.8.2zM715.8 211.9c.9 1.4 1.9 2.7 2.8 4.1-.9-1.4-1.8-2.8-2.8-4.1zM827.6 276.5c1.1.1 2.1.2 3.2.3-1.1 0-2.2-.2-3.2-.3zM817.3 275.3c1.3.2 2.6.5 4 .6-1.4-.1-2.7-.4-4-.6zM772.1 260.9c1.4.7 2.8 1.5 4.2 2.1l-4.2-2.1zM748.3 246c1.3 1 2.5 2 3.9 2.9-1.3-.9-2.6-1.9-3.9-2.9zM755.9 251.4c1.3.9 2.6 1.8 4 2.7-1.3-.8-2.6-1.8-4-2.7zM741.1 240.1c1.2 1.1 2.4 2.2 3.7 3.2-1.3-1.1-2.5-2.2-3.7-3.2zM734.2 233.7c1.2 1.1 2.3 2.3 3.5 3.4-1.2-1.1-2.4-2.3-3.5-3.4zM721.5 219.6c1 1.3 2 2.6 3.1 3.9-1.1-1.3-2.1-2.6-3.1-3.9zM763.9 256.4c1.4.8 2.7 1.6 4.1 2.4-1.4-.7-2.8-1.6-4.1-2.4zM620.3 203.4c-.2-4.1-.3-8.2-.3-12.3l.3 12.3zM645.1 74l-.6 1.5c.1-.4.3-.9.6-1.5 0 .1 0 .1 0 0zM624.5 140.6c.4-2.2.8-4.3 1.2-6.5-.4 2.2-.8 4.4-1.2 6.5zM640.9 83.9c.8-1.9 1.6-3.9 2.4-5.8-.9 2-1.7 3.9-2.4 5.8zM626.2 131.8c.6-2.9 1.2-5.7 1.9-8.5-.6 2.8-1.2 5.7-1.9 8.5zM622.4 227.8c-.3-2.5-.5-4.9-.8-7.4.3 2.5.5 5 .8 7.4zM620.3 179.4c.1-2.2.2-4.3.3-6.4-.1 2.1-.2 4.3-.3 6.4zM623 150c.3-2.2.6-4.3 1-6.4-.3 2.1-.6 4.2-1 6.4zM624.2 239.9c-.4-2.3-.7-4.7-1.1-7 .4 2.4.7 4.7 1.1 7zM629.4 263.8c-.6-2.2-1.1-4.4-1.6-6.6.5 2.2 1 4.4 1.6 6.6zM632.8 275.5c-.7-2.1-1.2-4.2-1.8-6.4.5 2.2 1.1 4.3 1.8 6.4zM626.6 251.9c-.5-2.2-.9-4.5-1.3-6.8.4 2.3.8 4.6 1.3 6.8zM621.6 161.2c.3-2.9.7-5.9 1.1-8.8-.4 2.9-.8 5.9-1.1 8.8zM628.7 121.3c.6-2.2 1.1-4.4 1.8-6.6-.7 2.2-1.3 4.4-1.8 6.6zM620.1 191.1c0-3 .1-6 .2-9-.2 3-.2 6-.2 9zM633.9 103.2c.9-2.8 1.8-5.5 2.8-8.3-1 2.7-1.9 5.5-2.8 8.3zM621.1 215.7c-.2-2.7-.4-5.5-.5-8.3.1 2.8.3 5.5.5 8.3zM637 94c.9-2.5 1.8-5 2.8-7.4-1 2.5-1.9 4.9-2.8 7.4zM631.2 111.8l1.8-6-1.8 6zM620.8 170.1c.2-2.4.4-4.9.6-7.3-.2 2.5-.4 4.9-.6 7.3zM634.5 281c.5 1.6 1 3.2 1.6 4.8h.1c-.6-1.6-1.1-3.2-1.7-4.8zM636.1 285.8c.1 0 .1.1 0 0 .1 0 .1 0 0 0 .1 0 .1 0 0 0zM796.1-70.1c.4-1.1.7-2.2 1.1-3.3-.3.1-.6.2-.8.3-2.1.9-4.1 1.8-6.2 2.7-.4.2-.7.3-1.1.5h.9c1.6-.1 3.2-.1 4.9-.1.3 0 .7-.1 1.2-.1zM794.8-70c-1.6 0-3.3.1-4.9.1 1.6-.1 3.2-.1 4.9-.1zM796.3-73c.3-.1.6-.2.8-.3-.3 0-.5.1-.8.3zM789-69.9c.4-.2.7-.3 1.1-.5-.4.2-.8.3-1.1.5zM992.1 125.9v1.1c0 1.8-.1 3.5-.1 5.3v.8-.1c1.1-2.4 2.1-4.9 3.2-7.4.1-.2.2-.5.3-.7-1.2.3-2.3.7-3.4 1zM991.9 133zM995.4 124.9c-.1.2-.2.5-.3.7.1-.3.2-.5.3-.7zM992 127c0 1.8-.1 3.5-.1 5.3.1-1.8.1-3.5.1-5.3zM918.4-8.8c.4.5.7 1 1.1 1.5 1.2 1.6 2.3 3.3 3.4 4.9l.6.9.9.6c1.6 1.1 3.3 2.2 4.8 3.4.5.4 1 .7 1.5 1.1 1.9 1.4 3.9 2.9 5.7 4.5l.1.1.2-.2c1.9-1.8 3.7-3.6 5.5-5.5.4-.5.9-.9 1.3-1.4 1.7-1.9 3.4-3.8 5-5.7.3-.4.7-.8 1-1.2 1.5-1.9 2.9-3.7 4.3-5.7l.6-.9c1.5-2.1 2.9-4.2 4.3-6.4.3-.5.6-1 1-1.5 1.3-2.2 2.6-4.4 3.8-6.6l.6-1.2c1.1-2.1 2.2-4.3 3.2-6.5.1-.3.3-.6.4-.9 1.1-2.4 2.1-4.8 3-7.2.2-.5.4-1.1.6-1.6.9-2.4 1.8-4.9 2.5-7.4 0-.1.1-.2.1-.3-.1 0-.2.1-.3.1-2.5.8-5 1.6-7.5 2.6l-1.5.6c-2.5 1-4.9 2-7.3 3-.3.1-.5.2-.8.4-2.3 1.1-4.5 2.2-6.8 3.3-.3.2-.7.4-1 .5-2.3 1.2-4.6 2.5-6.8 3.9-.4.3-.9.5-1.3.8-2.2 1.4-4.4 2.9-6.6 4.4-.2.1-.4.3-.6.4-2.1 1.5-4.1 3-6 4.6-.3.3-.7.5-1 .8-2 1.7-4 3.4-5.9 5.2-.4.4-.8.7-1.2 1.1-1.9 1.8-3.9 3.7-5.7 5.6l-.1.1.1.1c1.8 1.8 3.3 3.8 4.8 5.7zM918.4-8.8c-1.5-2-3-3.9-4.5-5.8 1.5 1.9 3 3.9 4.5 5.8zM922.9-2.4c-1.1-1.7-2.3-3.3-3.4-4.9 1.1 1.6 2.3 3.3 3.4 4.9zM924.4-.8c1.6 1.1 3.3 2.2 4.8 3.4-1.5-1.2-3.2-2.3-4.8-3.4zM930.8 3.7c1.9 1.4 3.9 2.9 5.7 4.5-1.8-1.6-3.8-3.1-5.7-4.5zM1005.4-58c-.5 0-1.1.1-1.6.1-1.9.2-3.8.3-5.7.6-.2 0-.4 0-.7.1-2.1.3-4.2.6-6.3 1l-1.5.3c-.8.2-1.6.3-2.4.5-.1.4-.2.7-.3 1.1l-.6 2.4c-.3 1-.6 2-.9 3.1-.2.8-.5 1.6-.7 2.4-.3 1-.7 2-1 3-.3.8-.5 1.6-.8 2.4-.4 1-.7 2-1.1 2.9-.3.8-.6 1.5-.9 2.3-.4 1-.9 2-1.3 3l-.9 2.1c-.6 1.4-1.3 2.7-1.9 4-.4.9-.9 1.7-1.3 2.6-.5 1.1-1.1 2.1-1.6 3.1-.4.8-.8 1.5-1.3 2.2-.5.9-1 1.7-1.5 2.6-.5.8-.9 1.5-1.4 2.3l-1.5 2.4c-.5.8-1 1.5-1.5 2.3-.5.8-1 1.5-1.6 2.3-.5.8-1.1 1.5-1.6 2.3-.5.7-1.1 1.5-1.6 2.2-.6.8-1.1 1.5-1.7 2.2-.6.7-1.1 1.4-1.7 2.1-.6.7-1.2 1.5-1.8 2.2l-1.8 2.1-1.8 2.1c-.7.7-1.4 1.5-2 2.2-1 1.1-2.1 2.1-3.1 3.2l-2.3 2.3.1.1-.1.1.5.5c.6.6 1.1 1.2 1.7 1.7 1.2 1.2 2.4 2.4 3.5 3.6.6.7 1.2 1.3 1.8 2 1.1 1.2 2.1 2.4 3.1 3.6l1.8 2.1c1 1.2 2 2.5 2.9 3.7.5.7 1.1 1.4 1.6 2.2 1 1.3 1.9 2.6 2.8 4 .5.7 1 1.4 1.4 2.1 1 1.5 1.9 3 2.8 4.5.4.6.7 1.2 1.1 1.8 1.2 2 2.3 4 3.4 6 .1.1.2.3.2.4 1.2 2.2 2.3 4.5 3.4 6.8.2.4.3.8.5 1.1.8 1.9 1.7 3.7 2.4 5.6.3.7.6 1.4.8 2.2.6 1.6 1.2 3.1 1.8 4.7.3.8.6 1.7.9 2.5.5 1.5 1 3 1.4 4.5.3.9.5 1.8.8 2.7l1.2 4.5c.2.9.5 1.8.7 2.7.4 1.5.7 3.1 1 4.6.2.9.4 1.8.5 2.7.3 1.6.5 3.3.8 5l.3 2.4c.3 2.1.5 4.2.7 6.4 0 .3.1.7.1 1v.1c.4-.1.8-.2 1.2-.4 1.5-.5 2.9-1 4.3-1.4l3.6-1.2c.6-1.6 1.1-3.2 1.6-4.9l1.8-5.4c.7-2.1 1.3-4.3 1.9-6.4.5-1.8 1-3.5 1.5-5.3.6-2.2 1.1-4.4 1.6-6.6.4-1.7.9-3.5 1.2-5.2.5-2.3.9-4.6 1.4-6.8.3-1.7.7-3.4 1-5.1.4-2.3.7-4.7 1.1-7.1.2-1.7.5-3.3.7-5 .3-2.5.6-5 .8-7.4.2-1.6.4-3.2.5-4.8.2-2.7.4-5.5.5-8.3.1-1.3.2-2.7.2-4 .2-4.1.3-8.1.3-12.2v-.1c0-3.2-.1-6.5-.2-9.7 0-1.1-.1-2.2-.2-3.3-.1-2.1-.2-4.3-.3-6.4-.1-1.3-.2-2.6-.3-4-.2-1.9-.3-3.8-.5-5.7-.1-1.4-.3-2.9-.5-4.3-.2-1.8-.4-3.5-.6-5.3-.2-1.5-.4-3-.7-4.5-.3-1.7-.5-3.4-.8-5-.3-1.5-.5-3-.8-4.6-.3-1.6-.6-3.3-.9-4.9-.3-1.5-.7-3.1-1-4.6-.4-1.6-.7-3.2-1.1-4.8-.4-1.5-.8-3.1-1.1-4.6-.2-.8-.4-1.7-.7-2.5-.5-.1-1.1-.1-1.7-.1zM1011.7 70c-.4 2.3-.9 4.6-1.4 6.8.6-2.2 1-4.5 1.4-6.8zM1016.9 16c0-3.2-.1-6.5-.2-9.7.1 3.2.2 6.5.2 9.7zM1013.8 57.8c-.3 2.4-.7 4.7-1.1 7.1.4-2.4.7-4.7 1.1-7.1zM1009.1 82.1c-.5 2.2-1 4.4-1.6 6.6.6-2.2 1.1-4.4 1.6-6.6zM1011-41.6c.3 1.6.6 3.3.9 4.9-.2-1.6-.5-3.2-.9-4.9zM1015.3 45.4c-.3 2.5-.5 5-.8 7.4.3-2.5.6-5 .8-7.4zM1012.8-32.1c.3 1.7.5 3.4.8 5-.2-1.6-.5-3.3-.8-5zM1015.4-13c.2 1.9.3 3.8.5 5.7-.2-1.9-.3-3.8-.5-5.7zM1016.2-3.4c.1 2.1.2 4.3.3 6.4 0-2.1-.1-4.3-.3-6.4zM1009-51c.4 1.6.7 3.2 1.1 4.8-.4-1.6-.8-3.2-1.1-4.8zM1014.3-22.6c.2 1.8.4 3.5.6 5.3-.2-1.8-.4-3.5-.6-5.3zM1006 94.1c-.6 2.1-1.2 4.3-1.9 6.4.7-2.2 1.3-4.3 1.9-6.4zM1007.8-55.6c-.2-.8-.4-1.7-.6-2.5.2.9.4 1.7.6 2.5zM1000.8 110.7c.6-1.6 1.1-3.2 1.6-4.9-.6 1.7-1.1 3.3-1.6 4.9 0 .1 0 0 0 0zM1016.4 32.3c-.2 2.8-.3 5.5-.5 8.3.2-2.7.3-5.5.5-8.3zM1016.9 16.1c0 4.1-.1 8.2-.3 12.2.2-4 .3-8.1.3-12.2zM945.5 16.1l.1-.1-.1-.1s-.1.1 0 .2c-.1-.1 0 0 0 0zM980.6 67.8c.3.7.6 1.4.8 2.2-.2-.8-.5-1.5-.8-2.2zM983.2 74.7c.3.8.6 1.7.9 2.5-.3-.8-.6-1.7-.9-2.5zM985.5 81.7c.3.9.5 1.8.8 2.7-.2-.9-.5-1.8-.8-2.7zM977.7 61.1c.2.4.3.8.5 1.1-.2-.4-.4-.8-.5-1.1zM987.5 88.9c.2.9.5 1.8.7 2.7-.2-.9-.5-1.8-.7-2.7zM974.1 53.9c.1.1.2.3.2.4-.1-.1-.2-.3-.2-.4zM991.5 112.6c0 .3.1.7.1 1-.1-.3-.1-.6-.1-1zM989.1 96.2c.2.9.4 1.8.5 2.7-.1-.9-.3-1.8-.5-2.7zM990.5 103.9l.3 2.4-.3-2.4zM951.2 21.9c.6.7 1.2 1.3 1.8 2-.6-.6-1.2-1.3-1.8-2zM960.9 33.4c.5.7 1.1 1.4 1.6 2.2-.5-.8-1.1-1.5-1.6-2.2zM956.2 27.5l1.8 2.1c-.7-.7-1.2-1.4-1.8-2.1zM969.6 46.1c.4.6.7 1.2 1.1 1.8-.4-.6-.8-1.2-1.1-1.8zM946 16.6c.6.6 1.1 1.2 1.7 1.7l-1.7-1.7zM965.3 39.5c.5.7 1 1.4 1.4 2.1-.4-.7-.9-1.4-1.4-2.1zM1000.7 110.8l-3.6 1.2 3.6-1.2zM992.8 113.4c-.4.1-.8.2-1.2.4.4-.1.8-.2 1.2-.4zM1000.7 110.8s.1 0 0 0c.1 0 .1 0 0 0 .1-.1.1 0 0 0zM985.4-49c-.2.8-.5 1.6-.7 2.4.2-.8.5-1.6.7-2.4zM983.7-43.6c-.3.8-.5 1.6-.8 2.4.2-.9.5-1.7.8-2.4zM979.5-33l-.9 2.1.9-2.1zM981.7-38.3c-.3.8-.6 1.5-.9 2.3.3-.8.6-1.6.9-2.3zM976.7-26.9c-.4.9-.9 1.7-1.3 2.6.5-.9.9-1.7 1.3-2.6zM947.8 13.6c1.1-1.1 2.1-2.1 3.1-3.2-1 1.1-2 2.2-3.1 3.2zM965.1-7c-.5.8-1.1 1.5-1.6 2.3.5-.8 1.1-1.6 1.6-2.3zM961.8-2.5c-.6.8-1.1 1.5-1.7 2.2.6-.7 1.2-1.5 1.7-2.2zM958.4 1.8c-.6.7-1.2 1.5-1.8 2.2.6-.7 1.2-1.4 1.8-2.2zM954.8 6.1L953 8.2l1.8-2.1zM986.9-54.4l-.6 2.4.6-2.4zM971.1-16.4c-.5.8-.9 1.5-1.4 2.3.4-.7.9-1.5 1.4-2.3zM973.8-21.2c-.4.8-.8 1.5-1.3 2.2.5-.7.9-1.4 1.3-2.2zM968.2-11.6c-.5.8-1 1.5-1.5 2.3.5-.8 1-1.6 1.5-2.3zM796.1 39.5c.1 0 .3.1.4.1 2.5.8 5 1.6 7.6 2.3.5.1 1 .3 1.5.4 2.5.6 5 1.2 7.5 1.7l1.5.3c2.6.5 5.1.9 7.7 1.2.4.1.9.1 1.3.1 2.7.3 5.3.6 8 .7h.7c2.6.1 5.3.2 7.9.2h1.2c2.6 0 5.2-.1 7.9-.3.5 0 1.1-.1 1.6-.1 2.6-.2 5.2-.5 7.8-.8.5-.1 1.1-.1 1.6-.2 2.6-.4 5.2-.8 7.9-1.3.2 0 .3-.1.5-.1 4.5-17.6 12.1-34 22.5-48.9h-.1c-.2-.1-.5-.2-.7-.3-1.9-.7-3.9-1.4-5.8-2.1-.8-.2-1.5-.5-2.3-.7-1.5-.5-2.9-.9-4.4-1.3-.9-.2-1.8-.5-2.6-.7-1.4-.4-2.7-.7-4.1-1-.9-.2-1.8-.4-2.8-.6-1.4-.3-2.7-.5-4.1-.8-.9-.2-1.8-.3-2.8-.4-1.4-.2-2.9-.4-4.3-.6-.9-.1-1.7-.2-2.6-.3-1.6-.2-3.2-.3-4.9-.4-.7 0-1.4-.1-2.1-.1-2.3-.1-4.7-.2-7.1-.2-2 0-4 0-6 .1-.4 0-.8 0-1.2.1-1.6.1-3.1.2-4.7.3-.6.1-1.2.1-1.8.2-1.3.1-2.7.3-4 .4l-2.1.3c-1.2.2-2.5.4-3.7.6-.7.1-1.5.3-2.2.4-1.2.2-2.4.4-3.5.7-.8.2-1.5.3-2.3.5-1.2.3-2.3.5-3.4.8-.8.2-1.5.4-2.3.6-1.1.3-2.3.6-3.4 1-.7.2-1.5.5-2.2.7-.4.1-.9.3-1.3.5-.6 7.9-1 15.8-1 23.5-.3 7.7.1 15.6.7 23.5zM1193.4-236.6c.4 1.4.7 2.7 1 4.1.7 2.6 1.3 5.2 1.9 7.7.3 1.6.7 3.1 1 4.7.5 2.4 1 4.9 1.4 7.3.3 1.6.6 3.3.8 4.9.4 2.4.8 4.8 1.1 7.2.2 1.6.5 3.3.7 4.9.3 2.5.6 5 .8 7.5.2 1.6.3 3.1.4 4.7.2 2.7.4 5.5.5 8.2.1 1.3.2 2.7.2 4 .2 4.1.3 8.2.3 12.3 0 3.9-.1 7.8-.2 11.6 0 1.3-.2 2.6-.2 3.9-.1 2.6-.2 5.1-.4 7.7-.1 1.6-.3 3.1-.4 4.7-.2 2.3-.4 4.5-.7 6.8-.2 1.6-.4 3.3-.7 4.9-.3 2.2-.5 4.3-.9 6.5-.3 1.7-.6 3.4-.9 5-.4 2.1-.7 4.2-1.1 6.2-.3 1.7-.7 3.4-1.1 5.1-.4 2-.8 4-1.3 6-.4 1.7-.9 3.4-1.3 5.2-.5 2-1 3.9-1.5 5.9-.5 1.7-1 3.5-1.5 5.2-.6 1.9-1.1 3.8-1.7 5.7-.6 1.7-1.2 3.5-1.7 5.2-.6 1.9-1.3 3.7-1.9 5.6-.6 1.7-1.3 3.4-2 5.1-.7 1.8-1.4 3.7-2.1 5.5-.7 1.7-1.4 3.4-2.2 5.1-.8 1.8-1.5 3.6-2.3 5.4l-2.4 5.1c-.8 1.7-1.6 3.5-2.5 5.2-.8 1.7-1.7 3.4-2.6 5l-2.7 5.1c-.9 1.7-1.9 3.3-2.8 5-1 1.7-1.9 3.3-2.9 5-1 1.7-2 3.3-3.1 4.9l-3 4.8c-1.1 1.6-2.2 3.3-3.3 4.9-.7 1.1-1.4 2.2-2.2 3.2 4.2 8 7.6 16.3 10.3 24.8l2.7 4.5c.8 1.3 1.6 2.6 2.3 3.9.9 1.6 1.8 3.3 2.7 4.9.7 1.3 1.5 2.7 2.2 4 .9 1.7 1.7 3.3 2.5 5 .7 1.4 1.4 2.7 2.1 4.1.8 1.7 1.6 3.4 2.3 5.1.6 1.4 1.3 2.8 1.9 4.2.8 1.7 1.5 3.5 2.2 5.2.6 1.4 1.2 2.8 1.7 4.2.7 1.8 1.3 3.5 2 5.3.5 1.4 1.1 2.8 1.6 4.2.6 1.8 1.2 3.6 1.8 5.5.5 1.4 1 2.8 1.4 4.2.6 1.8 1.1 3.7 1.7 5.6.4 1.4.9 2.8 1.2 4.2.5 1.9 1 3.8 1.5 5.6.4 1.4.8 2.8 1.1 4.2.5 1.9.9 3.9 1.3 5.8.3 1.4.6 2.7.9 4.1.4 1.9.8 3.9 1.1 5.8.3 1.4.6 2.8.8 4.2l.9 6c.2 1.4.4 2.7.6 4.1.3 2.1.5 4.1.7 6.2.2 1.3.3 2.6.5 4 .2 2.2.4 4.3.6 6.5.1 1.2.2 2.5.3 3.7.2 2.4.3 4.7.4 7.1 0 1.1.1 2.1.2 3.2.1 3.4.2 6.8.2 10.3 0 4.1-.1 8.2-.3 12.3-.1 1.4-.2 2.7-.2 4-.1 2.7-.3 5.5-.5 8.2-.1 1.6-.3 3.2-.5 4.8-.2 2.5-.5 4.9-.8 7.4-.2 1.7-.4 3.3-.7 5-.3 2.4-.7 4.7-1.1 7.1-.3 1.7-.6 3.4-.9 5-.4 2.4-.9 4.8-1.4 7.1-.3 1.6-.7 3.2-1 4.8l-1.8 7.5c-.4 1.4-.7 2.9-1.1 4.3-.9 3.3-1.8 6.6-2.8 9.8-.2.6-.4 1.2-.5 1.8v.2c106.3-43.8 177-148.5 177-264.4 0-115.9-70.7-220.6-177.1-264.5 0 .1 0 .1.1.2.2.5.3 1.1.5 1.6 1 3.4 2 6.7 2.9 10.1zM1149.9 11.5l.1-.1-.1.1zM874 136.9c-1.3-.2-2.7-.3-4-.5-.8-.1-1.6-.2-2.3-.3-2.8-.4-5.7-.8-8.5-1.2-.4-.1-.7-.1-1.1-.2-2.5-.4-4.9-.8-7.3-1.3-.9-.2-1.8-.3-2.7-.5-2-.4-3.9-.8-5.9-1.2l-2.7-.6c-2.2-.5-4.4-1-6.5-1.6-.6-.2-1.2-.3-1.8-.4-2.7-.7-5.5-1.5-8.2-2.2-.7-.2-1.5-.4-2.2-.7-1.4-.4-2.8-.8-4.2-1.3 11.8 28.7 28.2 55.2 48.7 78.8l.6-.3c2.6-1.5 5.2-3.1 7.8-4.8.5-.3 1-.7 1.5-1 2.5-1.7 5-3.5 7.3-5.3.1-.1.2-.1.3-.2 2.4-1.9 4.8-3.9 7.1-6 .5-.4 1-.9 1.4-1.3 2.2-2.1 4.4-4.2 6.5-6.4.1-.1.2-.3.4-.4-10.2-12.5-18.3-26.3-24.2-41.1zM874 136.8c.1 0 .1 0 0 0zM868.6 120.2l-1.2-4.8c-.1-.4-.2-.7-.3-1.1-.4-2-.8-4-1.2-5.9-.1-.6-.2-1.1-.3-1.7-.2-1.4-.5-2.9-.7-4.3-.1-.7-.2-1.5-.3-2.2-.2-1.3-.3-2.6-.4-4-.1-.7-.1-1.5-.2-2.2l-.3-4.2c0-.7-.1-1.3-.1-2-.1-2-.1-4.1-.1-6.1 0-2.6.1-5.2.2-7.7 0-.7.1-1.5.1-2.2.1-2 .3-3.9.5-5.9.1-.7.1-1.4.2-2.1.3-2.5.7-5.1 1.1-7.6l-2.4.3c-2.1.3-4.1.6-6.2.9-.8.1-1.6.1-2.4.2-2.1.2-4.2.4-6.3.5-.9 0-1.7 0-2.6.1-1.9.1-3.8.2-5.7.2H838.6c-2.2 0-4.5-.1-6.7-.2-.9 0-1.7-.1-2.6-.2-1.8-.1-3.7-.3-5.5-.5l-2.4-.3c-2.5-.3-5-.7-7.5-1.1h-.2c-2.6-.4-5.1-1-7.6-1.6-.7-.2-1.5-.4-2.2-.5-1.8-.5-3.7-.9-5.5-1.5-.4-.1-.9-.2-1.4-.4.4 2.8.8 5.7 1.2 8.5.1.7.2 1.4.4 2.1.3 2.1.7 4.2 1.1 6.3.2.9.3 1.7.5 2.6.4 2 .8 3.9 1.2 5.9.2.8.4 1.7.6 2.5.5 2.1 1 4.1 1.5 6.2.2.7.3 1.3.5 2 1.4 5.5 3 10.9 4.8 16.3.2.6.4 1.2.6 1.9l1.5 4.5c1.4.5 2.8 1 4.2 1.4.7.2 1.5.5 2.2.7 2.7.9 5.4 1.7 8 2.5.1 0 .3.1.5.1 2.5.7 5.1 1.4 7.6 2.1.9.2 1.7.4 2.6.6 1.9.5 3.7.9 5.6 1.3 1 .2 2 .4 3 .7 1.8.4 3.5.8 5.3 1.1l3 .6c1.9.4 3.8.7 5.7 1 .9.1 1.8.3 2.6.4 2.7.4 5.4.8 8.1 1.1h.2c-.2-.8-.4-1.6-.7-2.4.2-.6 0-1.3-.2-1.9zM863.8 87.8c0 .7.1 1.3.1 2 0-.7-.1-1.4-.1-2zM863.7 81.7zM868.6 120.2c.2.7.4 1.3.6 2-.2-.7-.4-1.4-.6-2zM867.2 114.3c.1.4.2.7.3 1.1-.1-.4-.2-.8-.3-1.1zM864.1 71.7c0 .7-.1 1.5-.1 2.2 0-.7 0-1.5.1-2.2zM864.8 100.1c.1.7.2 1.5.3 2.2-.1-.7-.2-1.5-.3-2.2zM864.8 63.7c-.1.7-.1 1.4-.2 2.1 0-.7.1-1.4.2-2.1zM864.2 93.9c.1.7.1 1.5.2 2.2-.1-.7-.1-1.4-.2-2.2zM865.8 106.6c.1.6.2 1.1.3 1.7-.2-.6-.2-1.1-.3-1.7zM811.2 110.8l-1.5-4.5 1.5 4.5c0-.1 0-.1 0 0zM798.6 60.6c-.4-2.8-.8-5.6-1.2-8.5.4 2.9.8 5.7 1.2 8.5zM800.6 71.5c.4 2 .8 3.9 1.2 5.9-.5-2-.9-3.9-1.2-5.9zM804.3 88.1c1.4 5.5 3 10.9 4.8 16.3-1.8-5.4-3.3-10.8-4.8-16.3zM799 62.7c.3 2.1.7 4.2 1.1 6.3-.4-2.1-.8-4.2-1.1-6.3zM802.3 79.9c.5 2.1 1 4.1 1.5 6.2-.5-2.1-1-4.1-1.5-6.2zM804.3 53.9c-1.8-.5-3.7-.9-5.5-1.5 1.8.6 3.6 1.1 5.5 1.5zM863.5 56.5c-2.1.3-4.1.6-6.2.9 2.1-.3 4.1-.6 6.2-.9zM829.7 57.9c-1.8-.1-3.7-.3-5.5-.5 1.8.2 3.6.4 5.5.5zM854.9 57.5c-2.1.2-4.2.4-6.3.5 2.1 0 4.2-.3 6.3-.5zM814.1 56c-2.6-.4-5.1-1-7.6-1.6 2.5.7 5 1.2 7.6 1.6zM821.8 57.2c-2.5-.3-5-.7-7.5-1.1 2.5.4 5 .8 7.5 1.1zM839 58.3c-2.2 0-4.5-.1-6.7-.2 2.2.1 4.4.2 6.7.2zM840.4 58.3c1.9 0 3.8-.1 5.7-.2-2 .1-4 .2-6 .2h.3zM850.2 121.4c-1.8-.4-3.6-.7-5.3-1.1 1.8.4 3.5.7 5.3 1.1zM869.9 124.6h-.1zM858.9 123c-1.9-.3-3.8-.6-5.7-1 1.9.3 3.8.7 5.7 1zM811.3 110.8c1.4.5 2.8.9 4.2 1.4-1.5-.5-2.9-1-4.2-1.4-.1 0 0 0 0 0zM869.6 124.6c-2.7-.3-5.4-.7-8.1-1.1 2.7.3 5.4.7 8.1 1.1zM833.7 117.6c-2.5-.7-5.1-1.4-7.6-2.1 2.6.8 5.1 1.5 7.6 2.1zM825.7 115.4c-2.7-.8-5.4-1.6-8-2.5 2.6.9 5.3 1.7 8 2.5zM841.9 119.6c-1.9-.4-3.7-.9-5.6-1.3 1.9.4 3.7.9 5.6 1.3zM811.2 110.7v.1h.1-.1zM926.7-218.1c1.4 1 2.8 2 4.2 3.1.5.4 1 .7 1.4 1.1 3.7 2.9 7.3 5.9 10.8 9 .4.4.8.8 1.3 1.2 1.3 1.2 2.5 2.4 3.7 3.6.6.6 1.1 1.1 1.6 1.7 1.1 1.1 2.1 2.2 3.1 3.3.6.6 1.1 1.3 1.7 2 1 1.1 1.9 2.2 2.8 3.3.6.7 1.1 1.4 1.7 2.1.9 1.1 1.8 2.2 2.6 3.4.5.7 1.1 1.5 1.6 2.2.8 1.1 1.6 2.3 2.4 3.5.5.8 1 1.5 1.5 2.3.8 1.2 1.5 2.4 2.3 3.6.5.8.9 1.5 1.4 2.3.8 1.3 1.5 2.6 2.2 3.9.4.7.8 1.5 1.2 2.2l2.1 4.2c.3.7.7 1.3 1 2 .8 1.7 1.5 3.4 2.3 5.1.2.4.4.9.6 1.3 1.8 4.2 3.3 8.5 4.7 13 .1.1.1.2.2.3 4.7 7.8 9.1 15.8 13.1 24 .1.3.3.5.4.8 1.9 3.9 3.7 7.8 5.4 11.8.2.4.4.9.6 1.3 1.6 3.9 3.2 7.8 4.7 11.7.1.3.3.6.4.9.4.1.7.3 1.1.4 3.8 1.5 7.7 3 11.5 4.6.5.2 1.1.5 1.6.7 3.9 1.7 7.7 3.4 11.5 5.3.4.2.7.4 1.1.5 4 1.9 7.9 4 11.8 6.1.1.1.2.1.3.2 3.8 2.1 7.6 4.3 11.4 6.6.2.1.5.3.7.4 1.9.6 3.9 1.3 5.8 2 .2.1.3.1.5.2 2.2.8 4.4 1.7 6.6 2.6.6.3 1.2.6 1.9.8 1.5.7 3 1.3 4.5 2l2.4 1.2c1.3.6 2.6 1.3 3.8 1.9.9.5 1.7.9 2.5 1.4 1.2.7 2.4 1.3 3.5 2 .9.5 1.7 1 2.6 1.6l3.3 2.1c.9.6 1.7 1.1 2.5 1.7 1.1.7 2.1 1.5 3.2 2.2.8.6 1.6 1.2 2.5 1.8 1 .8 2.1 1.6 3.1 2.4.8.6 1.6 1.3 2.4 1.9 1 .8 2 1.7 3 2.6.7.6 1.5 1.3 2.2 1.9 1 .9 2 1.9 3 2.9.7.6 1.3 1.3 2 1.9 1.1 1.1 2.2 2.2 3.2 3.3.5.6 1.1 1.1 1.6 1.7 3.1 3.4 6.1 7 9 10.7.4.6.8 1.1 1.2 1.7 1 1.3 2 2.7 2.9 4 .5.7.9 1.4 1.4 2.1.6 1 1.3 1.9 1.9 2.9.2-.3.5-.7.7-1 .8-1.3 1.6-2.5 2.5-3.8 1.2-1.8 2.3-3.6 3.4-5.4.8-1.3 1.6-2.7 2.4-4 1-1.8 2.1-3.5 3.1-5.3.8-1.4 1.5-2.8 2.3-4.2 1-1.8 1.9-3.5 2.8-5.3.7-1.4 1.5-2.9 2.2-4.4.9-1.8 1.7-3.6 2.6-5.4.7-1.5 1.4-3 2-4.5.8-1.8 1.6-3.6 2.3-5.4.6-1.5 1.3-3 1.9-4.6.7-1.8 1.4-3.6 2.1-5.5.6-1.5 1.1-3.1 1.7-4.7.7-1.8 1.3-3.7 1.9-5.5.5-1.6 1-3.1 1.5-4.7.6-1.9 1.1-3.7 1.7-5.6.5-1.6.9-3.2 1.4-4.8l1.5-5.7 1.2-4.8c.4-1.9.9-3.9 1.3-5.8.3-1.6.7-3.2 1-4.8.4-2 .7-4 1.1-6 .3-1.6.5-3.1.8-4.7.3-2.1.6-4.1.8-6.2.2-1.5.4-3.1.6-4.6.2-2.2.4-4.4.6-6.5.1-1.4.3-2.9.4-4.3.2-2.4.3-4.9.4-7.3.1-1.2.2-2.4.2-3.6.1-3.7.2-7.3.2-11 0-4.1-.1-8.2-.3-12.3-.1-1.4-.2-2.7-.3-4.1-.2-2.7-.3-5.5-.5-8.2-.1-1.6-.3-3.3-.5-4.9-.2-2.4-.5-4.9-.8-7.3-.2-1.7-.5-3.5-.8-5.2-.3-2.3-.7-4.6-1-6.9-.3-1.8-.7-3.6-1-5.3-.4-2.2-.8-4.4-1.3-6.6-.4-1.8-.8-3.6-1.3-5.4-.5-2.2-1-4.3-1.6-6.5l-1.5-5.4c-.6-2.1-1.2-4.2-1.8-6.4l-1.8-5.4c-.5-1.6-1.1-3.3-1.7-4.9-1.6-.6-3.2-1.1-4.9-1.6l-5.4-1.8c-2.1-.7-4.2-1.2-6.4-1.8l-5.4-1.5c-2.2-.6-4.4-1.1-6.6-1.6-1.8-.4-3.5-.9-5.3-1.3-2.2-.5-4.5-.9-6.8-1.3-1.7-.3-3.5-.7-5.2-1-2.3-.4-4.7-.7-7-1.1-1.7-.2-3.4-.5-5.1-.8-2.5-.3-4.9-.5-7.4-.8-1.6-.2-3.2-.4-4.8-.5-2.7-.2-5.5-.4-8.3-.5-1.3-.1-2.7-.2-4-.2-4.1-.2-8.2-.3-12.3-.3-3.7 0-7.3.1-11 .2-1.2 0-2.4.1-3.6.2-2.4.1-4.9.2-7.3.4-1.4.1-2.9.3-4.3.4l-6.6.6-4.5.6c-2.1.3-4.2.5-6.3.9-1.5.2-3.1.5-4.6.8-2 .3-4.1.7-6.1 1.1-1.6.3-3.1.6-4.7 1-2 .4-4 .8-5.9 1.3-1.6.4-3.1.8-4.7 1.1-1.9.5-3.9 1-5.8 1.5-1.5.4-3.1.9-4.6 1.3-1.9.6-3.8 1.1-5.7 1.7-1.5.5-3.1 1-4.6 1.5-1.9.6-3.8 1.3-5.7 1.9-1.5.5-3 1.1-4.5 1.7-1.9.7-3.7 1.4-5.6 2.2l-4.5 1.8c-1.8.8-3.7 1.6-5.5 2.4-1.5.7-2.9 1.3-4.4 2-1.8.9-3.7 1.7-5.5 2.6-1.4.7-2.8 1.4-4.3 2.1-1.8.9-3.6 1.9-5.4 2.9-1.4.8-2.8 1.5-4.1 2.3-1.8 1-3.6 2.1-5.4 3.1-1.3.8-2.7 1.6-4 2.4-1.8 1.1-3.6 2.2-5.4 3.4-1.3.8-2.6 1.6-3.9 2.5-.3.2-.7.5-1 .7 1 .6 2 1.3 2.9 2 1.3.3 2 .7 2.6 1.2zM1080.1-55.6l2.4 1.2c-.8-.5-1.6-.9-2.4-1.2zM1120.2-28.1c.7.6 1.3 1.3 2 1.9-.6-.6-1.3-1.2-2-1.9zM1086.3-52.5c.9.5 1.7.9 2.5 1.4-.8-.5-1.6-1-2.5-1.4zM1109.6-37.4c.8.6 1.6 1.3 2.4 1.9-.8-.6-1.6-1.2-2.4-1.9zM1125.4-22.8c.5.6 1.1 1.1 1.6 1.7-.5-.6-1-1.2-1.6-1.7zM1140.1-4.8c.5.7.9 1.4 1.4 2.1-.4-.7-.9-1.4-1.4-2.1zM1104-41.6c.8.6 1.6 1.2 2.5 1.8-.8-.6-1.7-1.2-2.5-1.8zM1115-32.9c.7.6 1.5 1.3 2.2 1.9-.7-.6-1.5-1.2-2.2-1.9zM1073.7-58.5c.6.3 1.2.6 1.9.8-.7-.2-1.3-.5-1.9-.8zM1066.6-61.2c.2.1.3.1.5.2-.2-.1-.4-.1-.5-.2zM1092.4-49.1c.9.5 1.7 1 2.6 1.6-.9-.6-1.8-1.1-2.6-1.6zM1098.3-45.5c.9.6 1.7 1.1 2.5 1.7-.8-.6-1.7-1.1-2.5-1.7zM1136-10.5c.4.6.8 1.1 1.2 1.7-.4-.5-.8-1.1-1.2-1.7zM1159.2-259.1c2.1.6 4.3 1.2 6.4 1.8-2.2-.6-4.3-1.2-6.4-1.8zM945.5-235.8c1.8-1 3.6-1.9 5.4-2.9-1.8 1-3.6 1.9-5.4 2.9zM921.7-221.5c.1 0 .1.1 0 0 .4-.2.7-.4 1-.7-.3.3-.6.5-1 .7zM1097.4-269.4c2.8.2 5.5.3 8.3.5-2.8-.2-5.5-.4-8.3-.5zM1048.3-268.1l6.6-.6-6.6.6zM1070.1-269.7c3.7-.1 7.3-.2 11-.2-3.7 0-7.4 0-11 .2zM1037.5-266.6l6.3-.9c-2.1.3-4.2.5-6.3.9zM1059.1-269.1c2.4-.2 4.9-.3 7.3-.4-2.4.1-4.8.2-7.3.4zM955.2-240.8c1.8-.9 3.6-1.8 5.5-2.6-1.9.8-3.7 1.7-5.5 2.6zM1016.2-262.6c2-.5 3.9-.9 5.9-1.3-1.9.5-3.9.9-5.9 1.3zM1110.4-268.4c2.5.2 4.9.5 7.4.8-2.4-.3-4.9-.5-7.4-.8zM975-249.6c1.9-.7 3.7-1.5 5.6-2.2-1.9.7-3.7 1.4-5.6 2.2zM1005.7-259.9c1.9-.5 3.9-1 5.8-1.5-1.9.5-3.8 1-5.8 1.5zM936-230.4c1.8-1.1 3.6-2.1 5.4-3.1-1.8 1-3.6 2-5.4 3.1zM1175.8-253.8c-1.6-.6-3.2-1.1-4.9-1.6 1.7.5 3.3 1 4.9 1.6zM965-245.4c1.8-.8 3.7-1.6 5.5-2.4-1.8.8-3.6 1.6-5.5 2.4zM985.1-253.4c1.9-.7 3.8-1.3 5.7-1.9-1.9.5-3.8 1.2-5.7 1.9zM926.6-224.6c1.8-1.1 3.6-2.3 5.4-3.4-1.8 1.1-3.6 2.2-5.4 3.4zM1147.2-262.2c2.2.5 4.4 1 6.6 1.6-2.2-.6-4.4-1.1-6.6-1.6zM1081.1-269.9c4.1 0 8.2.1 12.3.3-4.1-.2-8.2-.3-12.3-.3zM1135.1-264.8c2.3.4 4.5.8 6.8 1.3-2.2-.4-4.5-.8-6.8-1.3zM1026.8-264.8c2-.4 4-.7 6.1-1.1-2 .4-4.1.7-6.1 1.1zM1122.9-266.8c2.3.3 4.7.7 7 1.1-2.3-.5-4.6-.8-7-1.1zM995.4-256.9c1.9-.6 3.8-1.2 5.7-1.7-1.9.6-3.8 1.1-5.7 1.7zM974.5-164.4c-.4-.7-.8-1.5-1.2-2.2.4.7.8 1.5 1.2 2.2zM977.6-158.1c-.3-.7-.7-1.3-1-2 .4.6.7 1.3 1 2zM967.4-176.4c-.5-.8-1-1.5-1.5-2.3.5.8 1 1.5 1.5 2.3zM980.5-151.7c-.2-.4-.4-.9-.6-1.3.2.4.4.8.6 1.3zM926.7-218.1c-.7-.5-1.4-.9-2-1.4.7.5 1.4.9 2 1.4zM948.2-200.1c.6.6 1.1 1.1 1.6 1.7-.5-.6-1-1.2-1.6-1.7zM932.4-214c-.5-.4-1-.7-1.4-1.1.5.4 1 .7 1.4 1.1zM959.2-187.7c-.6-.7-1.1-1.4-1.7-2.1.6.7 1.2 1.4 1.7 2.1zM971.1-170.5c-.5-.8-.9-1.5-1.4-2.3.5.8.9 1.6 1.4 2.3zM963.5-182.1c-.5-.7-1.1-1.5-1.6-2.2.5.7 1 1.4 1.6 2.2zM944.5-203.8c-.4-.4-.8-.8-1.3-1.2.5.4.9.8 1.3 1.2zM954.7-193.2c-.6-.7-1.1-1.3-1.7-2 .6.7 1.1 1.4 1.7 2zM1179.2-243.5c.7 2.1 1.2 4.2 1.8 6.4-.5-2.2-1.1-4.3-1.8-6.4zM1185.4-219.9c.5 2.2.9 4.4 1.3 6.6-.4-2.2-.8-4.4-1.3-6.6zM1187.8-110.8c-.3 2-.7 4-1.1 6 .5-2 .8-4 1.1-6zM1190.7-132.8c-.2 2.2-.4 4.4-.6 6.5.2-2.2.4-4.3.6-6.5zM1189.5-121.7c-.3 2.1-.5 4.1-.8 6.2.3-2.1.5-4.1.8-6.2zM1185.8-100.1c-.4 1.9-.8 3.9-1.3 5.8.5-1.9.9-3.8 1.3-5.8zM1183.4-89.5l-1.5 5.7 1.5-5.7zM1187.8-207.9c.4 2.3.7 4.6 1 6.9-.3-2.3-.6-4.6-1-6.9zM1173.8-58.5c-.7 1.8-1.4 3.6-2.1 5.5.7-1.9 1.4-3.7 2.1-5.5zM1165.4-38.6c-.8 1.8-1.7 3.6-2.6 5.4.9-1.8 1.8-3.6 2.6-5.4zM1169.8-48.5c-.8 1.8-1.5 3.6-2.3 5.4.7-1.8 1.5-3.6 2.3-5.4zM1160.6-28.9c-.9 1.8-1.9 3.6-2.8 5.3 1-1.7 1.9-3.5 2.8-5.3zM1191.7-171.4c.2 4.1.3 8.2.3 12.3l-.3-12.3zM1191.9-159.1c0 3.7-.1 7.3-.2 11 .2-3.6.2-7.3.2-11zM1190.9-183.7c.2 2.7.4 5.5.5 8.2-.1-2.7-.3-5.4-.5-8.2zM1191.5-144.4c-.1 2.4-.2 4.9-.4 7.3.2-2.5.3-4.9.4-7.3zM1180.6-79c-.5 1.9-1.1 3.7-1.7 5.6.6-1.9 1.1-3.8 1.7-5.6zM1177.4-68.7c-.6 1.8-1.2 3.7-1.9 5.5.6-1.8 1.2-3.7 1.9-5.5zM1182.6-231.8c.6 2.2 1.1 4.3 1.6 6.5-.6-2.2-1.1-4.3-1.6-6.5zM1189.6-195.8c.3 2.4.5 4.9.8 7.3-.3-2.5-.5-4.9-.8-7.3zM1155.5-19.4c-1 1.8-2.1 3.6-3.1 5.3 1.1-1.7 2.1-3.5 3.1-5.3zM1143.5.3c.2-.3.4-.7.7-1-.3.3-.5.6-.7 1-.1-.1 0-.1 0 0zM1177.5-248.9c-.5-1.6-1-3.3-1.6-4.9h-.1c.6 1.6 1.1 3.3 1.7 4.9zM1150-10c-1.1 1.8-2.3 3.6-3.4 5.4 1.1-1.8 2.3-3.6 3.4-5.4zM1175.9-253.8c-.1-.1-.1-.1 0 0-.1 0-.1 0 0 0-.1 0-.1 0 0 0zM1167.1 81.6c0 83.7-68.1 151.7-151.7 151.7h-1.5c-2.1 0-4.1-.1-6.2-.2-1-.1-2.1-.2-3.1-.2-1.5-.1-3.1-.2-4.6-.4-1.1-.1-2.2-.3-3.4-.4-1.4-.2-2.9-.3-4.3-.6-1.2-.2-2.3-.4-3.5-.6-1.4-.2-2.8-.5-4.1-.8-1.2-.2-2.3-.5-3.5-.8-1.3-.3-2.7-.6-4-1-1.2-.3-2.3-.6-3.5-1l-3.9-1.2c-1.2-.4-2.3-.8-3.5-1.1-1.3-.4-2.6-.9-3.8-1.4-1.1-.4-2.3-.9-3.4-1.3-.5-.2-1.1-.4-1.6-.6-.4.5-.9 1.1-1.4 1.6-.5.5-.9 1.1-1.4 1.6-1.2 1.4-2.5 2.8-3.7 4.1-.3.4-.7.8-1 1.1-1.6 1.7-3.3 3.4-5 5-.2.2-.5.4-.7.7-1.5 1.4-3 2.7-4.5 4.1-.5.4-1 .9-1.5 1.3-1.4 1.1-2.7 2.3-4.1 3.4l-1.5 1.2c-1.8 1.4-3.7 2.8-5.6 4.1 0 0-.1 0-.1.1-1.7 1.2-3.4 2.3-5.1 3.4.3.2.6.4.9.7 1.3.9 2.7 1.8 4.1 2.6 1.7 1.1 3.4 2.2 5.2 3.3 1.4.9 2.8 1.7 4.2 2.5 1.7 1 3.5 2 5.2 3 1.4.8 2.9 1.6 4.3 2.4 1.7.9 3.5 1.9 5.3 2.8 1.5.8 2.9 1.5 4.4 2.2 1.8.9 3.5 1.7 5.3 2.6 1.5.7 3 1.4 4.5 2 1.8.8 3.6 1.6 5.4 2.3 1.5.6 3 1.3 4.6 1.9 1.8.7 3.7 1.4 5.5 2.1 1.5.6 3.1 1.1 4.6 1.7 1.8.7 3.7 1.3 5.6 1.9 1.6.5 3.1 1 4.7 1.5 1.9.6 3.8 1.2 5.7 1.7 1.6.5 3.1.9 4.7 1.3 1.9.5 3.8 1 5.8 1.5 1.6.4 3.1.8 4.7 1.2 2 .5 3.9.9 5.9 1.3 1.6.3 3.1.7 4.7 1 2 .4 4 .7 6 1.1 1.6.3 3.1.5 4.7.8 2.1.3 4.1.6 6.2.8 1.5.2 3 .4 4.6.6l6.6.6c1.4.1 2.9.3 4.3.4 2.4.2 4.9.3 7.3.4 1.2.1 2.4.2 3.6.2 3.7.1 7.3.2 11 .2 4.1 0 8.2-.1 12.3-.3 1.4-.1 2.7-.2 4.1-.3 2.7-.2 5.5-.3 8.2-.5 1.6-.1 3.2-.3 4.9-.5 2.4-.2 4.9-.5 7.3-.8 1.7-.2 3.4-.5 5.2-.8 2.3-.3 4.6-.7 6.9-1.1 1.8-.3 3.6-.7 5.3-1 2.2-.4 4.4-.8 6.6-1.3 1.8-.4 3.6-.8 5.4-1.3 2.2-.5 4.3-1 6.5-1.6l5.4-1.5 6.3-1.8 5.4-1.8c1.6-.5 3.2-1.1 4.8-1.6.6-1.6 1.1-3.3 1.7-4.9.6-1.8 1.2-3.5 1.7-5.3.7-2.2 1.3-4.4 1.9-6.6.5-1.7 1-3.4 1.4-5.1.6-2.3 1.1-4.6 1.7-6.9.4-1.7.8-3.3 1.2-5 .5-2.4 1-4.8 1.4-7.2l.9-4.8c.4-2.5.8-4.9 1.1-7.4.2-1.6.5-3.1.7-4.7.3-2.6.6-5.1.8-7.7.2-1.5.3-3 .5-4.5.2-2.8.4-5.6.5-8.4.1-1.3.2-2.6.2-3.8.2-4.1.3-8.2.3-12.3 0-3-.1-6-.2-8.9 0-.9-.1-1.8-.1-2.7-.1-2.1-.2-4.3-.3-6.4-.1-1-.1-1.9-.2-2.9-.2-2.4-.4-4.9-.6-7.3-.1-.5-.1-1.1-.1-1.6-.3-2.9-.7-5.9-1.1-8.8-.1-.8-.2-1.6-.4-2.4-.3-2.2-.6-4.3-1-6.5-.2-1-.3-1.9-.5-2.9-.4-2.2-.8-4.3-1.2-6.5-.2-.8-.3-1.6-.5-2.3-.6-2.9-1.2-5.7-1.9-8.6-.2-.6-.3-1.3-.5-1.9-.6-2.2-1.1-4.5-1.8-6.7-.3-.9-.5-1.9-.8-2.8l-1.8-6c-.3-.9-.5-1.7-.8-2.6-.9-2.8-1.8-5.6-2.8-8.3-.1-.3-.2-.5-.3-.8-.9-2.5-1.8-5-2.8-7.5-.3-.9-.7-1.8-1.1-2.7l-2.4-5.7-1.2-2.7c-.2-.5-.4-.9-.6-1.4v7.3zM1167.1 81.6c0-2.3-.1-4.5-.2-6.8.2 2.3.2 4.6.2 6.8zM973.8 227.5c1.2.3 2.3.7 3.5 1-1.2-.3-2.4-.7-3.5-1zM988.9 231c1.1.2 2.3.4 3.5.6-1.2-.2-2.4-.4-3.5-.6zM959.1 222.5c1.1.5 2.3.9 3.4 1.3-1.1-.4-2.3-.9-3.4-1.3zM966.4 225.2c1.1.4 2.3.8 3.5 1.1-1.2-.3-2.4-.7-3.5-1.1zM981.3 229.5c1.2.3 2.3.5 3.5.8-1.2-.3-2.4-.6-3.5-.8zM996.6 232.2c1.1.1 2.2.3 3.4.4-1.2-.1-2.3-.3-3.4-.4zM1167.1 81.7c0 83.7-68.1 151.7-151.7 151.7h-1.5 1.5c83.7 0 151.7-68.1 151.7-151.7zM1004.6 232.9c1 .1 2.1.2 3.1.2-1.1 0-2.1-.1-3.1-.2zM1171 287.4c1.6-.5 3.2-1 4.8-1.6v-.1c-1.6.7-3.2 1.2-4.8 1.7zM1032.8 297.9c-2-.3-4-.7-6-1.1 2 .4 4 .7 6 1.1zM1043.7 299.5c-2.1-.3-4.1-.5-6.2-.8 2.1.3 4.1.5 6.2.8zM1011.5 293.4c-1.9-.5-3.9-1-5.8-1.5 2 .5 3.9 1 5.8 1.5zM1141.9 295.4c-2.2.5-4.4.9-6.6 1.3 2.2-.4 4.4-.8 6.6-1.3zM1153.8 292.6c-2.1.6-4.3 1.1-6.5 1.6 2.2-.6 4.3-1.1 6.5-1.6zM1093.4 301.7c-4.1.2-8.2.3-12.3.3l12.3-.3zM1081.1 301.9c-3.7 0-7.3-.1-11-.2 3.6.2 7.3.2 11 .2zM1066.4 301.5c-2.4-.1-4.9-.2-7.3-.4 2.5.2 4.9.3 7.3.4zM1054.8 300.7l-6.6-.6c2.3.2 4.5.4 6.6.6zM1022.1 295.8c-2-.4-3.9-.8-5.9-1.3 2 .5 4 .9 5.9 1.3zM941.3 265.5c-1.7-1-3.5-2-5.2-3 1.8 1 3.5 2 5.2 3zM960.6 275.4c-1.8-.8-3.6-1.7-5.3-2.6 1.8.9 3.5 1.8 5.3 2.6zM950.9 270.6c-1.8-.9-3.5-1.8-5.3-2.8 1.8 1 3.5 1.9 5.3 2.8zM931.9 260c-1.7-1.1-3.4-2.2-5.2-3.3 1.8 1.1 3.5 2.2 5.2 3.3zM921.7 253.5c.3.2.7.4 1 .6-.3-.2-.6-.4-1-.6.1-.1.1 0 0 0zM1165.5 289.2l-6.3 1.8c2.1-.5 4.2-1.1 6.3-1.8zM1001.1 290.6c-1.9-.5-3.8-1.1-5.7-1.7 1.9.6 3.8 1.1 5.7 1.7zM970.5 279.8c-1.8-.8-3.6-1.5-5.4-2.3 1.8.7 3.6 1.5 5.4 2.3zM990.7 287.4c-1.9-.6-3.7-1.3-5.6-1.9 1.9.6 3.8 1.2 5.6 1.9zM980.6 283.8c-1.8-.7-3.7-1.4-5.5-2.1 1.8.7 3.6 1.4 5.5 2.1zM1105.7 300.9c-2.7.2-5.5.4-8.2.5 2.7-.1 5.4-.3 8.2-.5zM1117.8 299.6c-2.4.3-4.9.5-7.3.8 2.5-.3 4.9-.5 7.3-.8zM1129.9 297.8c-2.3.4-4.6.7-6.9 1.1 2.3-.4 4.6-.7 6.9-1.1zM927 250s-.1 0 0 0c-.1 0 0 0 0 0zM934 244.7l-1.5 1.2 1.5-1.2zM939.7 240.1c-.5.4-1 .9-1.5 1.3.5-.5 1-.9 1.5-1.3zM950.9 229.2c-.3.4-.7.8-1 1.1.4-.3.7-.7 1-1.1zM944.9 235.4c-.2.2-.5.4-.7.7.2-.3.4-.5.7-.7zM956.1 223.4c-.5.5-.9 1.1-1.4 1.6.5-.5.9-1 1.4-1.6zM1181.6 114.7c.6 2.2 1.2 4.5 1.8 6.7-.6-2.3-1.2-4.5-1.8-6.7zM1172.2 86.6c1 2.5 1.9 5 2.8 7.5-.9-2.5-1.8-5-2.8-7.5zM1183.8 123.3c.7 2.8 1.3 5.7 1.9 8.6-.6-2.9-1.2-5.8-1.9-8.6zM1191.3 173c.1 2.1.2 4.3.3 6.4 0-2.1-.1-4.3-.3-6.4zM1191.8 182.1c.1 3 .2 6 .2 8.9-.1-2.9-.1-5.9-.2-8.9zM1184.2 256.9c-.5 2.3-1.1 4.6-1.7 6.9.7-2.2 1.2-4.6 1.7-6.9zM1190.5 162.8c.2 2.4.4 4.9.6 7.3-.1-2.4-.3-4.9-.6-7.3zM1191.9 191.1c0 4.1-.1 8.2-.3 12.3.2-4.1.3-8.2.3-12.3zM1186.2 134.2c.4 2.2.8 4.3 1.2 6.5-.3-2.2-.7-4.4-1.2-6.5zM1175.3 94.9c1 2.8 1.9 5.5 2.8 8.3-.9-2.8-1.8-5.6-2.8-8.3zM1181.1 269c-.6 2.2-1.2 4.4-1.9 6.6.7-2.2 1.3-4.4 1.9-6.6zM1188 143.5c.4 2.1.7 4.3 1 6.5-.3-2.2-.7-4.3-1-6.5zM1189.3 152.4c.4 2.9.8 5.8 1.1 8.8-.3-2.9-.7-5.9-1.1-8.8zM1175.8 285.8c.6-1.6 1.1-3.3 1.7-4.9-.6 1.6-1.1 3.3-1.7 4.9zM1178.9 105.8l1.8 6c-.5-2-1.1-4-1.8-6zM1188.9 232.6c-.4 2.5-.7 4.9-1.1 7.4.4-2.5.7-4.9 1.1-7.4zM1166.9 74c0 .1 0 .1 0 0l.6 1.5c-.1-.5-.3-1-.6-1.5zM1168.7 78.2l2.4 5.7c-.7-1.9-1.5-3.8-2.4-5.7zM1190.4 220.2c-.3 2.6-.5 5.2-.8 7.7.3-2.6.6-5.2.8-7.7zM1186.8 244.8c-.5 2.4-.9 4.8-1.4 7.2.5-2.4 1-4.8 1.4-7.2zM1191.4 207.2c-.2 2.8-.3 5.6-.5 8.4.2-2.7.4-5.5.5-8.4zM1175.8 285.9c.1-.1.1-.1 0 0 0-.1 0-.1 0 0 0-.1 0-.1 0 0zM801.9-21.4c1.5-.4 2.9-.7 4.4-1.1.5-.1 1-.2 1.5-.4 1.9-.4 3.9-.8 5.8-1.2.7-.1 1.3-.2 2-.3 1.3-.2 2.7-.4 4-.6l2.4-.3c1.2-.1 2.5-.3 3.7-.4.8-.1 1.6-.2 2.5-.2 1.3-.1 2.6-.2 3.8-.2.8 0 1.5-.1 2.3-.1 1.8-.1 3.5-.1 5.3-.1h2.2c2.1 0 4.2.1 6.3.2 1 0 2 .1 3 .2 1.6.1 3.1.2 4.7.4 1.1.1 2.1.3 3.2.4 1.5.2 3 .4 4.4.6l3.3.6c1.4.2 2.9.5 4.3.8 1.1.2 2.2.5 3.3.7 1.4.3 2.8.7 4.2 1l3.3.9c1.4.4 2.7.8 4.1 1.2 1.1.3 2.2.7 3.3 1.1 1.3.5 2.7.9 4 1.4 1.1.4 2.2.8 3.3 1.3.5.2.9.4 1.4.5l-.6-.6-2.1-2.1c-.9-.9-1.9-1.9-2.9-2.8-.7-.7-1.5-1.4-2.2-2-1-.9-1.9-1.7-2.9-2.6-.8-.7-1.6-1.3-2.4-2l-3-2.4c-.8-.6-1.6-1.3-2.5-1.9-1-.8-2.1-1.5-3.1-2.2-.8-.6-1.7-1.2-2.6-1.7l-3.3-2.1c-.9-.5-1.7-1.1-2.6-1.6-1.1-.7-2.3-1.3-3.5-2-.8-.5-1.7-.9-2.5-1.4-1.3-.7-2.6-1.3-3.9-2-.7-.4-1.5-.7-2.2-1.1-2-1-4.1-1.9-6.2-2.7-.6-.2-1.2-.5-1.8-.7-1.5-.6-3.1-1.2-4.6-1.7-.9-.3-1.8-.6-2.6-.9-1.3-.4-2.6-.9-3.9-1.2-1-.3-1.9-.5-2.9-.8-1.2-.3-2.5-.7-3.7-1-1-.2-2-.5-3-.7-1.2-.3-2.5-.5-3.7-.8-1-.2-2.1-.4-3.1-.6-1.2-.2-2.5-.4-3.7-.6-1.1-.2-2.1-.3-3.2-.4-1.2-.1-2.5-.3-3.7-.4-1.1-.1-2.1-.2-3.2-.3-.4 0-.9 0-1.3-.1-.6 2.2-1.2 4.4-1.7 6.6-.2.6-.3 1.3-.5 1.9-.9 3.8-1.7 7.7-2.4 11.6-.2.9-.3 1.8-.5 2.7-.6 3.1-1.1 6.1-1.5 9.2-.2 1.1-.3 2.2-.5 3.3-.1.9-.2 1.7-.3 2.6.7-.2 1.5-.4 2.2-.6.6.1 1.4-.1 2.1-.3zM797.4-20.1s.1 0 0 0c.2-.9.3-1.8.4-2.6-.1.8-.3 1.7-.4 2.6zM798.3-26.1c.5-3.1 1-6.1 1.5-9.2-.6 3.1-1.1 6.2-1.5 9.2zM800.2-38c.7-3.9 1.5-7.7 2.4-11.6-.8 3.9-1.6 7.8-2.4 11.6zM804.8-58.1c-.6 2.2-1.1 4.4-1.6 6.6.5-2.2 1.1-4.4 1.6-6.6.1 0 0 0 0 0zM815.6-24.3c-.7.1-1.3.2-2 .3.7-.1 1.4-.2 2-.3zM807.8-22.8c-.5.1-1 .2-1.5.4.5-.2 1-.3 1.5-.4zM859-25.1c-1.1-.1-2.1-.3-3.2-.4 1.1.1 2.1.2 3.2.4zM866.7-24l-3.3-.6 3.3.6zM851.1-25.9c-1-.1-2-.2-3-.2 1 0 2 .1 3 .2zM801.9-21.4c-.8.2-1.5.4-2.3.6.8-.2 1.6-.4 2.3-.6zM839.6-26.3h2.2-2.2zM881.8-20.5l-3.3-.9 3.3.9zM828.2-25.8c-.8.1-1.6.1-2.5.2.8-.1 1.7-.1 2.5-.2zM822-25.2l-2.4.3 2.4-.3zM874.3-22.4c-1.1-.3-2.2-.5-3.3-.7 1.1.2 2.2.4 3.3.7zM896.5-15.5c-1.1-.4-2.2-.8-3.3-1.3 1.1.4 2.2.8 3.3 1.3zM834.3-26.2c-.8 0-1.5.1-2.3.1.8 0 1.6 0 2.3-.1zM889.2-18.2c-1.1-.4-2.2-.7-3.3-1.1 1.1.4 2.2.7 3.3 1.1zM1015.9-70.1h.9c1.8 0 3.6.1 5.4.1h.8c-.2-.1-.5-.2-.7-.3-2.2-1-4.4-1.9-6.7-2.9-.2-.1-.5-.2-.8-.3.4 1.2.8 2.3 1.1 3.4zM1016.9-70c1.8 0 3.6.1 5.4.1-1.9-.1-3.6-.1-5.4-.1zM1023-69.9c-.2-.1-.5-.2-.7-.3.3.1.5.2.7.3zM1014.9-73.4c.3.1.5.2.8.3-.3-.1-.6-.2-.8-.3zM903.4-208c-1.1.9-2.3 1.8-3.4 2.8-1.5 1.2-2.9 2.4-4.4 3.7-1.1.9-2.1 1.8-3.2 2.7-1.5 1.3-3 2.7-4.5 4.1-.9.9-1.9 1.7-2.8 2.6-1.9 1.8-3.8 3.6-5.6 5.4-.5.5-1 1-1.5 1.4-2.3 2.3-4.6 4.7-6.8 7.1-.8.8-1.5 1.7-2.2 2.5-1.5 1.6-2.9 3.2-4.3 4.9-.9 1-1.7 2-2.6 3.1-1.3 1.5-2.5 3-3.7 4.5-.9 1.1-1.7 2.2-2.6 3.3-1.2 1.5-2.3 3-3.4 4.5-.9 1.1-1.7 2.3-2.5 3.5-1.1 1.5-2.2 3-3.2 4.5-.8 1.2-1.6 2.4-2.4 3.5-1 1.6-2.1 3.1-3.1 4.7-.8 1.2-1.5 2.4-2.3 3.6-1 1.6-2 3.3-3 4.9-.7 1.2-1.4 2.3-2.1 3.5l-3 5.4c-.6 1.1-1.2 2.1-1.8 3.2-1.3 2.4-2.5 4.8-3.7 7.2-.3.5-.5 1-.8 1.5-1.4 2.9-2.8 5.9-4.2 8.9-.5 1-.9 2.1-1.3 3.1-.7 1.7-1.5 3.4-2.2 5.1h.1l2.1-.6c3.2-1 6.4-1.9 9.6-2.8 1.4-.4 2.8-.7 4.2-1.1 2.5-.6 5.1-1.3 7.6-1.9 1.6-.4 3.2-.7 4.8-1 2.4-.5 4.8-1 7.2-1.4 1.7-.3 3.3-.6 5-.9 2.4-.4 4.7-.7 7.1-1.1 1.7-.2 3.4-.5 5.1-.7 2.4-.3 4.8-.5 7.3-.8 1.6-.2 3.3-.3 4.9-.5 2.6-.2 5.2-.4 7.8-.5 1.5-.1 2.9-.2 4.4-.2 3.7-.1 7.4-.2 11.1-.2H908c2.7 0 5.4.1 8.1.1 1.3 0 2.6.1 4 .2l6 .3c1.4.1 2.9.2 4.3.3 1.9.1 3.7.3 5.6.5 1.5.1 3 .3 4.4.5 1.8.2 3.6.4 5.4.7 1.5.2 3 .4 4.4.6 1.8.3 3.6.5 5.4.8 1.5.2 2.9.5 4.4.8 1.8.3 3.6.7 5.4 1 1.4.3 2.8.6 4.3.9 1.9.4 3.7.8 5.5 1.3 1.4.3 2.7.6 4.1 1 .4.1.9.2 1.4.3v-.4c-.1-2.8-.3-5.6-.5-8.4 0-.4-.1-.8-.1-1.2-.3-2.8-.6-5.5-1.1-8.3-.1-.3-.1-.7-.2-1-.5-2.8-1-5.7-1.7-8.5v-.2c-.7-2.9-1.4-5.7-2.3-8.6 0-.1-.1-.2-.1-.3-1.9-3.1-4-6.2-6-9.3-.3-.5-.7-1-1-1.5-2.5-3.6-5-7.2-7.7-10.7-.8-1.1-1.7-2.2-2.5-3.2-1.8-2.4-3.7-4.8-5.6-7.1l-3.3-3.9c-1.7-2-3.5-4.1-5.3-6.1-1.2-1.4-2.5-2.7-3.8-4-1.7-1.9-3.5-3.7-5.3-5.5-1.4-1.4-2.8-2.7-4.1-4-1.8-1.7-3.5-3.4-5.4-5.1-1.5-1.3-3-2.6-4.4-3.9-1.8-1.6-3.6-3.2-5.5-4.8-1.5-1.3-3.1-2.6-4.7-3.8-1.3-1-2.6-2-3.8-3-1.2.6-2 1.3-2.9 2zM849.7-152.1c-1.1 1.5-2.2 3-3.2 4.5 1.1-1.5 2.1-3 3.2-4.5zM833.6-127.3l-3 5.4c.9-1.8 1.9-3.6 3-5.4zM838.7-135.8c-1 1.6-2 3.3-3 4.9 1-1.6 1.9-3.2 3-4.9zM828.8-118.7c-1.3 2.4-2.5 4.8-3.7 7.2 1.2-2.4 2.4-4.8 3.7-7.2zM844.1-144c-1 1.6-2.1 3.1-3.1 4.7 1-1.6 2-3.2 3.1-4.7zM824.3-109.9c-1.4 2.9-2.8 5.9-4.2 8.9 1.4-3.1 2.7-6 4.2-8.9zM871.2-178.3c2.2-2.4 4.5-4.7 6.8-7.1-2.3 2.4-4.6 4.8-6.8 7.1zM869-175.8c-1.5 1.6-2.9 3.2-4.3 4.9 1.4-1.7 2.8-3.3 4.3-4.9zM900-205.3c-1.5 1.2-2.9 2.4-4.4 3.7 1.5-1.2 2.9-2.5 4.4-3.7zM862.1-167.9c-1.3 1.5-2.5 3-3.7 4.5 1.2-1.5 2.4-3 3.7-4.5zM892.4-198.9c-1.5 1.3-3 2.7-4.5 4.1 1.5-1.3 3-2.7 4.5-4.1zM906-210c-.9.6-1.7 1.3-2.5 2 .8-.7 1.6-1.4 2.5-2zM885.1-192.2c-1.9 1.8-3.8 3.6-5.6 5.4 1.8-1.8 3.7-3.6 5.6-5.4zM816.6-92.9c.7-1.7 1.4-3.4 2.2-5.1-.7 1.7-1.5 3.4-2.2 5.1zM855.7-160c-1.2 1.5-2.3 3-3.4 4.5 1.1-1.6 2.3-3.1 3.4-4.5zM959.8-155.5c2.6 3.5 5.2 7.1 7.7 10.7-2.5-3.6-5.1-7.2-7.7-10.7zM951.6-165.8c1.9 2.3 3.8 4.7 5.6 7.1-1.8-2.4-3.7-4.8-5.6-7.1zM909.8-207c-1.3-1-2.5-2.1-3.8-3.1h-.1c1.4 1.1 2.6 2.1 3.9 3.1zM943-175.8c1.8 2 3.5 4 5.3 6.1-1.8-2.1-3.5-4.1-5.3-6.1zM974.4-134c-1.9-3.1-4-6.2-6-9.2 2.1 3.1 4.1 6.1 6 9.2 0 .1 0 .1 0 0zM914.5-203.2c1.9 1.6 3.7 3.2 5.5 4.8-1.8-1.6-3.6-3.2-5.5-4.8zM934-185.3c1.8 1.8 3.5 3.7 5.3 5.5-1.8-1.9-3.6-3.7-5.3-5.5zM924.5-194.5l5.4 5.1c-1.9-1.7-3.6-3.4-5.4-5.1zM905.9-210c.1 0 .1 0 0 0 .1 0 .1 0 0 0 .1-.1.1-.1 0 0 .1-.1.1-.1 0 0zM911.6 237.6c.8-.6 1.6-1.2 2.3-1.9 3.2-2.7 6.4-5.5 9.5-8.3.8-.7 1.6-1.5 2.3-2.2l6.9-6.6c1.1-1.1 2.1-2.1 3.1-3.2.9-1 1.8-1.9 2.8-2.9-.2-.1-.3-.2-.5-.3-2.5-1.5-4.9-3-7.2-4.6l-1.8-1.2c-2.5-1.8-5.1-3.6-7.5-5.5-.2-.2-.4-.3-.6-.5-2.3-1.8-4.5-3.7-6.6-5.6-.5-.5-1-.9-1.6-1.4-2.3-2.1-4.5-4.3-6.7-6.5l-.1-.1-.1.1c-2.1 2.2-4.4 4.4-6.6 6.5-.5.5-1.1 1-1.7 1.5-2.1 1.9-4.2 3.7-6.4 5.5-.2.2-.5.4-.7.6-2.4 1.9-4.9 3.7-7.4 5.4-.6.4-1.3.9-1.9 1.3-2.3 1.5-4.6 3-7 4.5-.2.1-.4.3-.6.4.9 1 1.8 1.9 2.7 2.9 1.1 1.1 2.1 2.2 3.2 3.3 2.2 2.2 4.5 4.3 6.7 6.5.8.8 1.6 1.6 2.5 2.3 3.1 2.8 6.3 5.6 9.5 8.3.8.7 1.6 1.3 2.4 1.9 1.8 1.5 3.7 2.9 5.5 4.4 1.9-1.7 3.7-3.1 5.6-4.6zM938.1 212.1c-2.5-1.5-4.9-3-7.2-4.6 2.3 1.6 4.7 3.2 7.2 4.6zM921 200.4c-2.3-1.8-4.5-3.7-6.6-5.6 2.1 1.9 4.3 3.8 6.6 5.6zM929.1 206.3c-2.5-1.8-5.1-3.6-7.5-5.5 2.4 2 4.9 3.8 7.5 5.5zM912.8 193.3c-2.3-2.1-4.5-4.3-6.7-6.5 2.2 2.3 4.4 4.4 6.7 6.5zM898.1 235.7c-3.2-2.7-6.4-5.4-9.5-8.3 3.1 2.8 6.2 5.6 9.5 8.3zM886.1 225.1c-2.3-2.1-4.5-4.3-6.7-6.5 2.2 2.2 4.4 4.3 6.7 6.5zM900.5 237.6c1.8 1.5 3.6 3 5.5 4.4h.1c-2-1.4-3.8-2.9-5.6-4.4zM873.4 212.5c.9 1 1.9 1.9 2.8 2.8-1-.9-1.9-1.9-2.8-2.8zM906 242c1.9-1.4 3.8-2.9 5.6-4.4-1.9 1.5-3.7 2.9-5.6 4.4zM923.5 227.4c-3.1 2.8-6.3 5.6-9.5 8.3 3.2-2.7 6.3-5.5 9.5-8.3zM938.6 212.5c-1 .9-1.9 1.9-2.8 2.9.9-1 1.9-1.9 2.8-2.9zM932.7 218.6l-6.9 6.6 6.9-6.6zM905.9 242c.1.1.1.1 0 0h.1-.1c.1 0 .1 0 0 0zM881.1 207.6c-2.3 1.5-4.6 3-7 4.5 2.4-1.5 4.7-3 7-4.5zM890.4 200.9c-2.4 1.9-4.9 3.7-7.4 5.4 2.5-1.7 5-3.5 7.4-5.4zM905.9 186.8c-2.1 2.2-4.4 4.4-6.6 6.5 2.2-2.1 4.4-4.2 6.6-6.5zM897.6 194.8c-2.1 1.9-4.2 3.7-6.4 5.5 2.1-1.8 4.3-3.6 6.4-5.5zM992-95.4v1.4c1.1.3 2.2.7 3.3 1-.1-.3-.2-.6-.4-.9l-2.7-6.3c-.1-.3-.3-.7-.4-1v.9c.2 1.7.2 3.3.2 4.9zM995.4-92.9c-.1-.3-.3-.6-.4-.9.1.3.3.6.4.9zM991.9-101c.1.3.3.7.4 1-.1-.4-.3-.7-.4-1zM992-95.4c0-1.6-.1-3.2-.1-4.8.1 1.6.1 3.2.1 4.8zM810-75.2c-.5 1.5-1 2.9-1.5 4.4-.1.4-.2.8-.4 1.2h.2c.3 0 .6.1.9.1 2.2.2 4.4.4 6.5.7.8.1 1.6.2 2.3.3 1.7.2 3.3.5 5 .8.9.2 1.8.3 2.7.5 1.5.3 3 .6 4.6 1 .9.2 1.9.4 2.8.7 1.5.4 2.9.8 4.4 1.2.9.3 1.9.5 2.8.8 1.5.4 2.9.9 4.4 1.4.9.3 1.8.6 2.6.9 1.5.5 3 1.1 4.5 1.7.8.3 1.6.6 2.3.9 1.8.7 3.5 1.5 5.2 2.3.5.2 1 .4 1.5.7 2.2 1.1 4.5 2.2 6.7 3.3.3.2.6.3.9.5 1.9 1 3.7 2 5.5 3.1.7.4 1.4.8 2.1 1.3 1.4.9 2.8 1.7 4.2 2.7.8.5 1.5 1 2.3 1.6 1.3.9 2.5 1.8 3.8 2.7.8.6 1.6 1.2 2.3 1.8 1.2.9 2.4 1.8 3.5 2.8.8.6 1.5 1.3 2.3 1.9 1.2 1 2.3 2 3.4 3 .7.7 1.5 1.3 2.2 2 1.1 1.1 2.3 2.2 3.4 3.3.7.6 1.3 1.3 2 1.9l.4.4.1-.1.1.1c1.2-1.3 2.4-2.5 3.7-3.7.2-.2.5-.4.7-.6 1.1-1.1 2.3-2.2 3.4-3.2.5-.4 1-.8 1.4-1.3.9-.8 1.8-1.6 2.8-2.4.6-.5 1.1-.9 1.7-1.4l2.7-2.1c.6-.5 1.2-.9 1.8-1.4.9-.7 1.8-1.3 2.7-2 .6-.4 1.2-.9 1.8-1.3.9-.6 1.9-1.3 2.8-1.9l1.8-1.2c1-.6 2-1.2 3-1.9.6-.4 1.2-.7 1.8-1.1 1.1-.7 2.3-1.3 3.4-1.9.5-.3 1-.5 1.4-.8 3.3-1.8 6.6-3.4 10-5 .4-.2.8-.4 1.3-.5 1.3-.6 2.6-1.1 3.9-1.7.6-.2 1.1-.4 1.7-.7 1.2-.5 2.3-.9 3.5-1.3.6-.2 1.3-.4 1.9-.7 1.1-.4 2.3-.8 3.4-1.2.7-.2 1.3-.4 2-.6 1.2-.4 2.3-.7 3.5-1 .6-.2 1.3-.4 1.9-.5.4-.1.8-.2 1.3-.4.2-.8.3-1.6.5-2.3.1-.6.2-1.1.3-1.7.4-2 .7-4.1.9-6.1 0-.3.1-.7.1-1 .2-1.8.4-3.5.5-5.3.1-.6.1-1.3.1-1.9 0-.5 0-1 .1-1.5-.9-.2-1.8-.5-2.7-.7-1.4-.4-2.8-.7-4.2-1.1-1.7-.4-3.5-.8-5.3-1.2-1.4-.3-2.7-.6-4.1-.9-1.8-.4-3.6-.7-5.5-1.1-1.3-.2-2.7-.5-4-.7l-5.7-.9-3.9-.6c-2-.3-4-.5-6-.7-1.2-.1-2.4-.3-3.6-.4-2.2-.2-4.3-.4-6.5-.6-1.1-.1-2.1-.2-3.2-.3-2.5-.2-5-.3-7.5-.4-.7 0-1.4-.1-2.2-.1-3.3-.1-6.5-.2-9.8-.2-4.1 0-8.3.1-12.4.3-.8 0-1.7.1-2.5.2-3.2.2-6.5.4-9.7.6-1.4.1-2.7.3-4 .4-2.7.3-5.4.5-8.1.9-1.6.2-3.1.5-4.7.7-2.5.4-4.9.7-7.4 1.1-1.7.3-3.3.6-5 1-2.3.4-4.7.9-7 1.4l-5.1 1.2c-2.2.5-4.5 1-6.7 1.6-1.7.5-3.5 1-5.2 1.5-2.2.6-4.4 1.2-6.5 1.9-1.7.5-3.5 1.1-5.2 1.7-1.7.6-3.4 1.1-5.1 1.7-.2 1-.6 2.2-1 3.4zM906.1-23.5l-.1-.1-.1.1s.1.1.2 0c-.1.1 0 0 0 0zM808.2-69.6c.2-.4.3-.8.4-1.2-.2.4-.3.8-.4 1.2zM811.2-78.7c-.4 1.2-.8 2.3-1.2 3.5.4-1.2.8-2.4 1.2-3.5zM913.9-31.1c.5-.4 1-.8 1.4-1.3-.5.5-.9.9-1.4 1.3zM958.2-58.9c.6-.2 1.1-.4 1.7-.7-.5.3-1.1.5-1.7.7zM953.1-56.7c.4-.2.8-.4 1.3-.5-.5.2-.9.3-1.3.5zM931.6-44.8l1.8-1.2-1.8 1.2zM927-41.6c.6-.4 1.2-.9 1.8-1.3-.6.4-1.2.8-1.8 1.3zM936.4-47.9c.6-.4 1.2-.7 1.8-1.1-.6.4-1.2.7-1.8 1.1zM941.6-50.9c.5-.3 1-.5 1.4-.8-.5.2-.9.5-1.4.8zM909.8-27.2c.2-.2.5-.4.7-.6-.3.2-.5.4-.7.6zM922.5-38.3c.6-.5 1.2-.9 1.8-1.4-.6.5-1.2 1-1.8 1.4zM918.1-34.7c.6-.5 1.1-.9 1.7-1.4-.6.4-1.1.9-1.7 1.4zM963.4-60.9c.6-.2 1.3-.4 1.9-.7-.6.3-1.2.5-1.9.7zM974.3-64.4c.6-.2 1.3-.4 1.9-.5-.6.2-1.3.4-1.9.5zM968.8-62.7c.7-.2 1.3-.4 2-.6-.7.2-1.3.4-2 .6zM880.3-44.8c.8.5 1.5 1 2.3 1.6-.8-.5-1.5-1.1-2.3-1.6zM823.1-67.7c.9.2 1.8.3 2.7.5-.9-.1-1.8-.3-2.7-.5zM886.4-40.5c.8.6 1.6 1.2 2.3 1.8-.8-.7-1.6-1.3-2.3-1.8zM830.3-66.2c.9.2 1.9.4 2.8.7-.9-.2-1.8-.5-2.8-.7zM903.5-25.9c.7.6 1.3 1.3 2 1.9-.7-.6-1.3-1.2-2-1.9zM892.2-36c.8.6 1.5 1.3 2.3 1.9-.7-.6-1.5-1.3-2.3-1.9zM897.9-31.1c.7.7 1.5 1.3 2.2 2-.7-.7-1.4-1.4-2.2-2zM874-48.7c.7.4 1.4.8 2.1 1.3-.7-.5-1.4-.9-2.1-1.3zM867.6-52.3c.3.2.6.3.9.5-.3-.2-.6-.4-.9-.5zM837.5-64.3c.9.3 1.9.5 2.8.8-.9-.3-1.8-.6-2.8-.8zM844.7-62.1c.9.3 1.8.6 2.6.9-.8-.3-1.7-.6-2.6-.9zM859.5-56.3c.5.2 1 .4 1.5.7-.5-.3-1-.5-1.5-.7zM808.4-69.6c.3 0 .6.1.9.1-.4 0-.7 0-.9-.1zM851.9-59.5c.8.3 1.6.6 2.3.9-.7-.3-1.5-.6-2.3-.9zM815.7-68.8c.8.1 1.6.2 2.3.3-.7-.1-1.5-.2-2.3-.3zM938.8-93c2 .2 4 .5 6 .7-2.1-.2-4.1-.4-6-.7zM948.6-91.7l5.7.9-5.7-.9zM821.5-82.1c2.2-.7 4.4-1.3 6.5-1.9-2.2.6-4.3 1.2-6.5 1.9zM881.3-93.8c3.2-.3 6.5-.5 9.7-.6-3.2.1-6.4.3-9.7.6zM857.1-90.7c2.5-.4 4.9-.8 7.4-1.1-2.5.3-4.9.7-7.4 1.1zM958.3-90.1c1.8.3 3.6.7 5.5 1.1-1.9-.4-3.7-.7-5.5-1.1zM928.7-93.9c2.2.2 4.3.3 6.5.6-2.2-.3-4.4-.5-6.5-.6zM845.1-88.4c2.3-.5 4.7-.9 7-1.4-2.3.5-4.7.9-7 1.4zM833.2-85.5c2.2-.6 4.5-1.1 6.7-1.6-2.2.5-4.4 1-6.7 1.6zM918-94.6c2.5.1 5 .2 7.5.4-2.5-.2-5-.3-7.5-.4zM869.2-92.5l8.1-.9c-2.7.3-5.4.5-8.1.9zM915.8-94.7c-3.3-.1-6.5-.2-9.8-.2-4.1 0-8.3.1-12.4.3 4.1-.2 8.3-.3 12.4-.3 3.3 0 6.5.1 9.8.2zM967.9-88.1c1.8.4 3.5.8 5.3 1.2-1.8-.4-3.6-.8-5.3-1.2zM816.3-80.4c-1.7.6-3.4 1.1-5 1.6v.1c1.6-.6 3.3-1.2 5-1.7zM980.1-85.2c-.9-.2-1.8-.4-2.7-.7.9.3 1.8.5 2.7.7zM811.2-78.7c0-.1.1-.1 0 0 0-.1 0-.1 0 0 0-.1 0 0 0 0zM990.5-72.1l-.6 3.9.3-.1-.1.3c1.2-.2 2.4-.4 3.6-.5.9-.1 1.8-.3 2.8-.4 1.9-.2 3.7-.4 5.6-.6.6 0 1.1-.1 1.7-.2-.1-.4-.2-.8-.4-1.2-.5-1.5-1-2.9-1.5-4.4l-1.2-3.6c-1.1-.4-2.1-.7-3.2-1.1-1.6-.6-3.3-1.1-4.9-1.6-.4-.1-.7-.2-1.1-.3-.2 2.5-.4 4.9-.7 7.4-.1.9-.2 1.6-.3 2.4zM990.2-67.9l.1-.3-.3.1v.3c0-.1.1-.1.2-.1zM1003.8-69.6c-.6 0-1.1.1-1.7.2.6-.1 1.1-.1 1.7-.2zM993.8-68.4c.9-.1 1.8-.3 2.8-.4-1 .1-1.9.2-2.8.4zM1002-75.2l-1.2-3.6 1.2 3.6zM1003.8-69.6c-.1-.4-.3-.8-.4-1.2.2.4.3.8.4 1.2zM1003.8-69.6zM991.6-81.8c.4.1.7.2 1.1.4-.4-.2-.8-.3-1.1-.4zM1000.7-78.8c-1.1-.4-2.1-.7-3.2-1.1 1.1.4 2.2.8 3.2 1.1zM1000.8-78.7v-.1h-.1.1zM990.5-72.1l.3-2.4c-.1.9-.2 1.6-.3 2.4z"/></g></svg>