<?xml version="1.0" encoding="utf-8"?>
<!-- Generator: Adobe Illustrator 17.0.0, SVG Export Plug-In . SVG Version: 6.00 Build 0)  -->
<!DOCTYPE svg PUBLIC "-//W3C//DTD SVG 1.1//EN" "http://www.w3.org/Graphics/SVG/1.1/DTD/svg11.dtd">
<svg version="1.1" xmlns="http://www.w3.org/2000/svg" xmlns:xlink="http://www.w3.org/1999/xlink" x="0px" y="0px"
	 width="30.194px" height="40px" viewBox="-27.975 -63.317 30.194 40" enable-background="new -27.975 -63.317 30.194 40"
	 xml:space="preserve">
<g id="Layer_1">
	<g>
		<g>
			<g>
				<path fill="#A84333" d="M-12.878-23.817c-0.114,0-0.229-0.039-0.322-0.117c-0.583-0.49-14.275-12.143-14.275-24.259
					c0-8.063,6.548-14.624,14.597-14.624S1.719-56.256,1.719-48.193c0,12.331-13.696,23.78-14.279,24.262
					C-12.652-23.855-12.766-23.817-12.878-23.817z"/>
				<path fill="#E5E5E5" d="M-12.878-62.317c8.012,0,14.097,6.536,14.097,14.124c0,12.237-14.097,23.876-14.097,23.876
					S-26.975-36.17-26.975-48.193C-26.975-55.781-20.89-62.317-12.878-62.317 M-12.878-63.317c-8.324,0-15.097,6.785-15.097,15.124
					c0,12.346,13.863,24.145,14.453,24.641c0.186,0.156,0.415,0.235,0.644,0.235c0.226,0,0.452-0.076,0.637-0.229
					c0.59-0.487,14.46-12.083,14.46-24.647C2.219-56.532-4.554-63.317-12.878-63.317L-12.878-63.317z"/>
			</g>
		</g>
		<path fill="#FFFFFF" d="M-11.075-41.6c1.854-3.218,3.932-7.308,3.932-9.517c-0.001-3.161-2.574-5.734-5.736-5.734
			c-3.162,0-5.735,2.573-5.735,5.735c0,2.212,2.076,6.301,3.932,9.517c-2.107,0.338-3.493,1.226-3.493,2.297
			c-0.001,1.397,2.276,2.451,5.296,2.451s5.296-1.054,5.296-2.452C-7.583-40.375-8.969-41.262-11.075-41.6z M-15.734-51.117
			c0-1.575,1.281-2.854,2.855-2.854c1.575,0,2.856,1.28,2.856,2.854c0,1.576-1.281,2.858-2.856,2.858
			C-14.453-48.259-15.734-49.541-15.734-51.117z M-12.879-37.583c-2.69,0-4.565-0.905-4.565-1.72c0-0.607,1.174-1.363,3.151-1.621
			c0.095,0.163,0.175,0.294,0.261,0.439c0.047,0.079,0.097,0.161,0.141,0.237c0.109,0.179,0.201,0.329,0.288,0.472
			c0.028,0.044,0.057,0.094,0.083,0.134c0.094,0.155,0.167,0.272,0.223,0.363c0.006,0.007,0.014,0.022,0.02,0.031
			c0.056,0.09,0.089,0.141,0.089,0.141l0.308,0.487l0.311-0.487c0,0,0.029-0.046,0.084-0.132c0.013-0.02,0.031-0.051,0.047-0.077
			c0.055-0.086,0.119-0.189,0.204-0.329c0.02-0.031,0.042-0.069,0.064-0.101c0.091-0.151,0.191-0.314,0.308-0.508
			c0.039-0.066,0.085-0.143,0.127-0.215c0.089-0.148,0.173-0.287,0.271-0.454c1.978,0.258,3.15,1.013,3.15,1.621
			C-8.315-38.488-10.19-37.583-12.879-37.583z"/>
	</g>
</g>
<g id="source_files" display="none">
</g>
</svg>
