<?xml version="1.0" encoding="utf-8"?>
<!-- Generator: Adobe Illustrator 17.1.0, SVG Export Plug-In . SVG Version: 6.00 Build 0)  -->
<!DOCTYPE svg PUBLIC "-//W3C//DTD SVG 1.1//EN" "http://www.w3.org/Graphics/SVG/1.1/DTD/svg11.dtd">
<svg version="1.1" id="Layer_1" xmlns="http://www.w3.org/2000/svg" xmlns:xlink="http://www.w3.org/1999/xlink" x="32px" y="32px" height="32px" width="32px"
	 viewBox="0 0 30.2 40" enable-background="new 0 0 30.2 40" xml:space="preserve">
<g id="Layer_1_1_">
	<g>
		<g>
			<g>
				<path fill="#0B8C61" d="M15.1,39.5c-0.1,0-0.2,0-0.3-0.1C14.2,38.9,0.5,27.2,0.5,15.1C0.5,7.1,7,0.5,15.1,0.5
					s14.6,6.6,14.6,14.6c0,12.3-13.7,23.8-14.3,24.3C15.3,39.5,15.2,39.5,15.1,39.5z"/>
				<path fill="#E5E5E5" d="M15.1,1c8,0,14.1,6.5,14.1,14.1C29.2,27.4,15.1,39,15.1,39S1,27.1,1,15.1C1,7.5,7.1,1,15.1,1 M15.1,0
					C6.8,0,0,6.8,0,15.1c0,12.3,13.9,24.1,14.5,24.6c0.2,0.2,0.4,0.2,0.6,0.2c0.2,0,0.5-0.1,0.6-0.2c0.6-0.5,14.5-12.1,14.5-24.6
					C30.2,6.8,23.4,0,15.1,0L15.1,0z"/>
			</g>
		</g>
		<g>
			<path fill="#FFFFFF" d="M8.3,15.3c2.9-0.8,5.8,1.2,6.1,4.2c0,0.1,0,0.2,0.1,0.4c0.1,0,0.2,0,0.4,0c2.4-0.1,4.8-0.1,7.2-0.2
				c-1,0.3-1.7,1.2-1.7,2.3c0,1.3,1.1,2.4,2.4,2.4c1.3,0,2.4-1.1,2.4-2.4c0-1.2-0.9-2.2-2-2.3c1.8-0.1,1.4-0.1,1.7-1.7
				c0.1-0.8,0.2-1.6,0.3-2.3c0.1-0.7-0.1-0.9-0.8-0.9c-1.1,0-2-0.1-3.1-0.1c0,0-0.1,0-0.1-0.1c0-0.8,0-2.7,0-2.7s-0.4-0.3-0.9,0
				c0,0.9,0,1.8,0,2.8c0,0-1.3,0-3.1-0.1c-0.1,0-0.3-0.1-0.4-0.4c-0.3-0.8-0.9-2.3-1.7-4.6c0,0-0.4-1-1.5-1c-0.9,0-5.2,0-5.2,0v5.7
				c0,0-0.4,0.2-0.7,0.2C7.4,15.3,7.5,15.5,8.3,15.3z M23.9,22c0,0.7-0.6,1.2-1.2,1.2s-1.2-0.6-1.2-1.2c0-0.7,0.6-1.2,1.2-1.2
				C23.4,20.8,23.9,21.3,23.9,22z M9.6,11.3l0-1.1l4.4,0l1.4,4.2l0,0c-1.9,0-4,0-5.8,0.1L9.6,11.3z"/>
			<path fill="#FFFFFF" d="M9.4,15.8c-2.4,0-4.3,1.9-4.3,4.3s1.9,4.3,4.3,4.3c2.4,0,4.3-1.9,4.3-4.3C13.7,17.7,11.8,15.8,9.4,15.8z
				 M9.4,22.5c-1.3,0-2.4-1.1-2.4-2.4c0-1.3,1.1-2.4,2.4-2.4c1.3,0,2.4,1.1,2.4,2.4S10.7,22.5,9.4,22.5z"/>
		</g>
	</g>
</g>
<g id="source_files" display="none">
</g>
</svg>
