<?xml version="1.0" encoding="utf-8"?>
<!-- Generator: Adobe Illustrator 17.0.0, SVG Export Plug-In . SVG Version: 6.00 Build 0)  -->
<!DOCTYPE svg PUBLIC "-//W3C//DTD SVG 1.1//EN" "http://www.w3.org/Graphics/SVG/1.1/DTD/svg11.dtd">
<svg version="1.1" xmlns="http://www.w3.org/2000/svg" xmlns:xlink="http://www.w3.org/1999/xlink" x="0px" y="0px"
	 width="30.194px" height="40px" viewBox="72.098 -63.317 30.194 40" enable-background="new 72.098 -63.317 30.194 40"
	 xml:space="preserve">
<g id="Layer_1">
	<g>
		<g>
			<g>
				<path fill="#A84333" d="M87.195-23.817c-0.114,0-0.229-0.039-0.322-0.117c-0.582-0.49-14.274-12.143-14.274-24.259
					c0-8.063,6.548-14.624,14.597-14.624s14.597,6.561,14.597,14.624c0,12.331-13.695,23.78-14.278,24.262
					C87.421-23.855,87.308-23.817,87.195-23.817z"/>
				<path fill="#E5E5E5" d="M87.195-62.317c8.012,0,14.097,6.536,14.097,14.124c0,12.237-14.097,23.876-14.097,23.876
					S73.098-36.17,73.098-48.193C73.098-55.781,79.184-62.317,87.195-62.317 M87.195-63.317c-8.324,0-15.097,6.785-15.097,15.124
					c0,12.346,13.863,24.145,14.453,24.641c0.186,0.156,0.415,0.235,0.644,0.235c0.226,0,0.452-0.076,0.637-0.229
					c0.59-0.487,14.46-12.083,14.46-24.647C102.292-56.532,95.519-63.317,87.195-63.317L87.195-63.317z"/>
			</g>
		</g>
		<g>
			<g>
				<path fill="#186D5D" d="M87.195-30.817c-0.114,0-0.229-0.039-0.322-0.117c-0.37-0.312-9.081-7.726-9.081-15.462
					c0-5.194,4.219-9.42,9.403-9.42s9.403,4.226,9.403,9.42c0,7.874-8.714,15.159-9.085,15.465
					C87.421-30.855,87.308-30.817,87.195-30.817z"/>
				<path fill="#E5E5E5" d="M87.195-55.317c5.06,0,8.903,4.128,8.903,8.92c0,7.729-8.903,15.08-8.903,15.08
					s-8.903-7.487-8.903-15.08C78.292-51.189,82.135-55.317,87.195-55.317 M87.195-56.317c-5.461,0-9.903,4.45-9.903,9.92
					c0,7.967,8.882,15.527,9.26,15.845c0.186,0.156,0.415,0.235,0.644,0.235c0.226,0,0.452-0.076,0.637-0.229
					c0.378-0.312,9.267-7.744,9.267-15.851C97.098-51.866,92.656-56.317,87.195-56.317L87.195-56.317z"/>
			</g>
		</g>
	</g>
</g>
<g id="source_files" display="none">
</g>
</svg>
