<?xml version="1.0" encoding="utf-8"?>
<!-- Generator: Adobe Illustrator 17.0.0, SVG Export Plug-In . SVG Version: 6.00 Build 0)  -->
<!DOCTYPE svg PUBLIC "-//W3C//DTD SVG 1.1//EN" "http://www.w3.org/Graphics/SVG/1.1/DTD/svg11.dtd">
<svg version="1.1" xmlns="http://www.w3.org/2000/svg" xmlns:xlink="http://www.w3.org/1999/xlink" x="0px" y="0px"
	 width="30.194px" height="40px" viewBox="22.265 -63.317 30.194 40" enable-background="new 22.265 -63.317 30.194 40"
	 xml:space="preserve">
<g id="Layer_1">
	<g>
		<g>
			<g>
				<path fill="#186D5D" d="M37.362-23.817c-0.114,0-0.229-0.039-0.322-0.117c-0.583-0.49-14.275-12.143-14.275-24.259
					c0-8.063,6.548-14.624,14.597-14.624s14.597,6.561,14.597,14.624c0,12.331-13.695,23.78-14.278,24.262
					C37.588-23.855,37.475-23.817,37.362-23.817z"/>
				<path fill="#E5E5E5" d="M37.362-62.317c8.012,0,14.097,6.536,14.097,14.124c0,12.237-14.097,23.876-14.097,23.876
					S23.265-36.17,23.265-48.193C23.265-55.781,29.351-62.317,37.362-62.317 M37.362-63.317c-8.324,0-15.097,6.785-15.097,15.124
					c0,12.346,13.863,24.145,14.453,24.641c0.186,0.156,0.415,0.235,0.644,0.235c0.226,0,0.452-0.076,0.637-0.229
					c0.59-0.487,14.46-12.083,14.46-24.647C52.459-56.532,45.687-63.317,37.362-63.317L37.362-63.317z"/>
			</g>
		</g>
		<g>
			<path fill="#FFFFFF" d="M30.582-48.026c2.868-0.803,5.752,1.237,6.111,4.19c0.013,0.119,0.031,0.239,0.051,0.388
				c0.127,0.016,0.245,0.045,0.36,0.041c2.406-0.062,4.816-0.066,7.22-0.187c-1.002,0.278-1.741,1.196-1.741,2.285
				c0,1.31,1.064,2.374,2.375,2.374c1.309,0,2.375-1.064,2.375-2.374c0-1.184-0.874-2.165-2.008-2.343
				c1.773-0.112,1.43-0.058,1.727-1.654c0.144-0.77,0.235-1.551,0.299-2.331c0.061-0.729-0.124-0.9-0.838-0.928
				c-1.063-0.038-2.043-0.078-3.105-0.121c-0.032-0.001-0.085-0.024-0.085-0.066c0-0.801,0.041-2.747,0.041-2.747
				s-0.43-0.316-0.925-0.039c0,0.908,0,1.829,0,2.794c0,0-1.296-0.034-3.144-0.072c-0.082-0.002-0.31-0.141-0.418-0.433
				c-0.278-0.767-0.885-2.262-1.681-4.562c0,0-0.412-0.982-1.455-0.982c-0.863,0-5.174,0-5.174,0v5.749c0,0-0.39,0.164-0.717,0.197
				C29.711-48.005,29.798-47.807,30.582-48.026z M46.205-41.308c0,0.688-0.56,1.248-1.247,1.248c-0.687,0-1.247-0.56-1.247-1.248
				c0-0.687,0.56-1.246,1.247-1.246C45.645-42.554,46.205-41.995,46.205-41.308z M31.835-52.03l0.004-1.072l4.376-0.007l1.397,4.217
				l0.05,0.02c-1.906-0.026-4.042,0.002-5.83,0.067L31.835-52.03z"/>
			<path fill="#FFFFFF" d="M31.661-47.507c-2.371,0-4.299,1.928-4.299,4.298c0,2.37,1.928,4.298,4.299,4.298
				c2.369,0,4.296-1.928,4.296-4.298C35.958-45.579,34.03-47.507,31.661-47.507z M31.661-40.823c-1.317,0-2.387-1.07-2.387-2.386
				c0-1.316,1.07-2.387,2.387-2.387c1.316,0,2.387,1.071,2.387,2.387C34.048-41.893,32.977-40.823,31.661-40.823z"/>
		</g>
	</g>
</g>
<g id="source_files" display="none">
</g>
</svg>
