<?xml version="1.0" encoding="utf-8"?>
<!-- Generator: Adobe Illustrator 17.1.0, SVG Export Plug-In . SVG Version: 6.00 Build 0)  -->
<!DOCTYPE svg PUBLIC "-//W3C//DTD SVG 1.1//EN" "http://www.w3.org/Graphics/SVG/1.1/DTD/svg11.dtd">
<svg version="1.1" id="Layer_1" xmlns="http://www.w3.org/2000/svg" xmlns:xlink="http://www.w3.org/1999/xlink" x="32px" y="32px" height="32px" width="32px"
	 viewBox="0 0 30.2 40" enable-background="new 0 0 30.2 40" xml:space="preserve">
<g id="Layer_1_1_">
	<g>
		<g>
			<g>
				<path fill="#C1122B" d="M15.1,39.5c-0.1,0-0.2,0-0.3-0.1C14.2,38.9,0.5,27.2,0.5,15.1C0.5,7.1,7,0.5,15.1,0.5
					s14.6,6.6,14.6,14.6c0,12.3-13.7,23.8-14.3,24.3C15.3,39.5,15.2,39.5,15.1,39.5z"/>
				<path fill="#E5E5E5" d="M15.1,1c8,0,14.1,6.5,14.1,14.1C29.2,27.4,15.1,39,15.1,39S1,27.1,1,15.1C1,7.5,7.1,1,15.1,1 M15.1,0
					C6.8,0,0,6.8,0,15.1c0,12.3,13.9,24.1,14.5,24.6c0.2,0.2,0.4,0.2,0.6,0.2c0.2,0,0.5-0.1,0.6-0.2c0.6-0.5,14.5-12.1,14.5-24.6
					C30.2,6.8,23.4,0,15.1,0L15.1,0z"/>
			</g>
		</g>
		<path fill="#FFFFFF" d="M16.9,21.7c1.9-3.2,3.9-7.3,3.9-9.5c0-3.2-2.6-5.7-5.7-5.7S9.4,9,9.4,12.2c0,2.2,2.1,6.3,3.9,9.5
			c-2.1,0.3-3.5,1.2-3.5,2.3c0,1.4,2.3,2.5,5.3,2.5s5.3-1.1,5.3-2.5C20.4,22.9,19,22.1,16.9,21.7z M12.2,12.2c0-1.6,1.3-2.9,2.9-2.9
			c1.6,0,2.9,1.3,2.9,2.9c0,1.6-1.3,2.9-2.9,2.9C13.5,15.1,12.2,13.8,12.2,12.2z M15.1,25.7c-2.7,0-4.6-0.9-4.6-1.7
			c0-0.6,1.2-1.4,3.2-1.6c0.1,0.2,0.2,0.3,0.3,0.4c0,0.1,0.1,0.2,0.1,0.2c0.1,0.2,0.2,0.3,0.3,0.5c0,0,0.1,0.1,0.1,0.1
			c0.1,0.2,0.2,0.3,0.2,0.4c0,0,0,0,0,0c0.1,0.1,0.1,0.1,0.1,0.1l0.3,0.5l0.3-0.5c0,0,0,0,0.1-0.1c0,0,0-0.1,0-0.1
			c0.1-0.1,0.1-0.2,0.2-0.3c0,0,0-0.1,0.1-0.1c0.1-0.2,0.2-0.3,0.3-0.5c0-0.1,0.1-0.1,0.1-0.2c0.1-0.1,0.2-0.3,0.3-0.5
			c2,0.3,3.2,1,3.2,1.6C19.7,24.8,17.8,25.7,15.1,25.7z"/>
	</g>
</g>
<g id="source_files" display="none">
</g>
</svg>
