<?xml version="1.0" encoding="utf-8"?>
<!-- Generator: Adobe Illustrator 17.0.0, SVG Export Plug-In . SVG Version: 6.00 Build 0)  -->
<!DOCTYPE svg PUBLIC "-//W3C//DTD SVG 1.1//EN" "http://www.w3.org/Graphics/SVG/1.1/DTD/svg11.dtd">
<svg version="1.1" id="Layer_1" xmlns="http://www.w3.org/2000/svg" xmlns:xlink="http://www.w3.org/1999/xlink" x="0px" y="0px"
	 width="40px" height="48px" viewBox="-32.878 -67.317 40 48" enable-background="new -32.878 -67.317 40 48" xml:space="preserve">
<g>
	<g>
		<g>
			<path fill="#8F301D" d="M-12.878-19.317c-0.19,0-0.382-0.058-0.537-0.176c-0.795-0.601-19.463-14.902-19.463-29.791
				c0-9.944,8.972-18.033,20-18.033s20,8.09,20,18.033c0,15.154-18.675,29.205-19.47,29.796
				C-12.501-19.374-12.69-19.317-12.878-19.317z"/>
		</g>
	</g>
	<g>
		<path fill="#FFFFFF" d="M-10.354-38.634c2.596-4.504,5.505-10.231,5.505-13.324c0-4.426-3.602-8.028-8.029-8.028
			c-4.427,0-8.029,3.602-8.029,8.029c0,3.097,2.907,8.821,5.505,13.324c-2.95,0.473-4.89,1.716-4.89,3.216
			c-0.002,1.956,3.187,3.432,7.414,3.432s7.414-1.476,7.414-3.433C-5.464-36.918-7.405-38.16-10.354-38.634z M-20.033-51.957
			c0-3.944,3.209-7.154,7.155-7.154c3.944,0,7.154,3.209,7.155,7.153c0,2.315-1.863,6.771-5.387,12.887l-0.483,0.837l-0.06,0.102
			c-0.109,0.185-0.204,0.344-0.301,0.505l-0.077,0.129l-0.175,0.295l-0.237,0.391l-0.176,0.291l-0.058,0.092l-0.046,0.074
			c-0.058,0.094-0.109,0.177-0.154,0.252l-0.153-0.249l-0.043-0.07l-0.068-0.111l-0.304-0.5l-0.093-0.152l-0.109-0.183l-0.092-0.154
			l-0.098-0.164c-0.056-0.093-0.111-0.186-0.17-0.284l0,0l-0.635-1.1C-18.119-45.09-20.033-49.668-20.033-51.957z M-12.879-33.01
			c-3.766,0-6.391-1.267-6.391-2.408c0-0.851,1.644-1.908,4.412-2.27c0.133,0.227,0.245,0.412,0.366,0.614
			c0.066,0.111,0.136,0.226,0.198,0.332c0.153,0.251,0.282,0.461,0.403,0.661c0.038,0.062,0.08,0.131,0.116,0.188
			c0.132,0.217,0.234,0.382,0.312,0.508c0.008,0.01,0.019,0.031,0.028,0.043c0.078,0.126,0.124,0.197,0.124,0.197l0.431,0.682
			l0.435-0.682c0,0,0.041-0.064,0.117-0.185c0.018-0.028,0.043-0.071,0.066-0.108c0.077-0.12,0.166-0.264,0.286-0.461
			c0.028-0.043,0.06-0.096,0.089-0.142c0.127-0.211,0.268-0.44,0.431-0.71c0.055-0.093,0.119-0.2,0.179-0.301
			c0.124-0.207,0.241-0.402,0.379-0.635c2.768,0.361,4.41,1.418,4.41,2.269C-6.49-34.277-9.114-33.01-12.879-33.01z"/>
		<path fill="#FFFFFF" d="M-8.941-51.964c0-2.174-1.763-3.938-3.938-3.938s-3.938,1.763-3.938,3.938
			c0,2.174,1.763,3.938,3.938,3.938S-8.941-49.79-8.941-51.964z M-15.941-51.964c0-1.689,1.374-3.062,3.062-3.062
			s3.062,1.374,3.062,3.062c0,1.689-1.374,3.062-3.062,3.062S-15.941-50.276-15.941-51.964z"/>
	</g>
</g>
</svg>
