<?xml version="1.0" encoding="utf-8"?>
<!-- Generator: Adobe Illustrator 17.0.0, SVG Export Plug-In . SVG Version: 6.00 Build 0)  -->
<!DOCTYPE svg PUBLIC "-//W3C//DTD SVG 1.1//EN" "http://www.w3.org/Graphics/SVG/1.1/DTD/svg11.dtd">
<svg version="1.1" id="Layer_1" xmlns="http://www.w3.org/2000/svg" xmlns:xlink="http://www.w3.org/1999/xlink" x="0px" y="0px"
	 width="40px" height="48px" viewBox="17.362 -67.317 40 48" enable-background="new 17.362 -67.317 40 48" xml:space="preserve">
<g>
	<g>
		<g>
			<path fill="#0A5647" d="M37.362-19.317c-0.19,0-0.382-0.058-0.537-0.176c-0.795-0.601-19.463-14.902-19.463-29.791
				c0-9.944,8.972-18.033,20-18.033s20,8.09,20,18.033c0,15.154-18.675,29.205-19.47,29.796
				C37.739-19.374,37.551-19.317,37.362-19.317z"/>
		</g>
	</g>
	<g>
		<path fill="#FFFFFF" d="M35.854-54.162l-5.744,0.01l-0.005,1.407l-0.004,4.232c1.756-0.064,3.767-0.1,5.717-0.1
			c0.656,0,1.306,0.004,1.936,0.013l-0.066-0.026L35.854-54.162z M35.817-49.487c-1.601,0-3.287,0.025-4.841,0.071l0.004-3.327
			l0.002-0.535l4.24-0.007l1.258,3.799C36.261-49.487,36.039-49.487,35.817-49.487z"/>
		<path fill="#FFFFFF" d="M50.94-43.756c0.176-0.936,0.304-1.937,0.404-3.147c0.044-0.529,0.034-1.133-0.376-1.596
			c-0.41-0.463-1.02-0.547-1.561-0.568c-1.148-0.041-2.222-0.084-3.341-0.13c0.013-1.177,0.047-2.809,0.048-2.83l0.01-0.455
			l-0.367-0.269c-0.084-0.062-0.536-0.369-1.175-0.37c-0.344,0-0.507,0.088-0.816,0.261l-0.28,0.25v0.513v2.77
			c-0.875-0.017-1.75-0.041-3.501-0.067c0-0.001,0-0.001,0-0.002c0-0.305-0.17-0.702-0.357-1.191
			c-0.434-1.135-0.832-2.69-1.557-4.782l0.164-0.025v-0.065c-0.875-0.678-1.464-1.864-3.003-1.864H28.44h-0.706v0.953v6.908
			c0,0.011-0.191,0.021-0.238,0.025l-0.71,0.067l-0.13,0.662c-0.109,0.663-0.184,1.298,0.214,1.771
			c-2.078,1.09-3.508,3.267-3.508,5.772c0,3.593,2.922,6.517,6.516,6.517c3.409,0,6.207-2.633,6.486-5.973l0.074,0.01l0.121-0.055
			c0.121,0.019,0.269-0.03,0.435-0.03h0.016l0.044,0.073c1.031-0.026,2.071-0.008,3.112-0.026c1.225-0.022,2.476-0.025,3.73-0.062
			c-0.355,0.599-0.556,1.304-0.556,2.033c0,2.201,1.791,3.996,3.993,3.996c2.201,0,3.992-1.788,3.992-3.989
			c0-1.045-0.419-2.017-1.105-2.74c0.308-0.29,0.478-0.754,0.591-1.529C50.841-43.165,50.88-43.434,50.94-43.756z M29.877-35.523
			c-3.112,0-5.644-2.531-5.644-5.642c0-2.504,1.641-4.629,3.904-5.365c0.164-0.021,0.34-0.054,0.558-0.116
			c0.213-0.06,0.429-0.102,0.645-0.135c0.177-0.017,0.355-0.027,0.536-0.027c3.109,0,5.639,2.531,5.639,5.642
			S32.986-35.523,29.877-35.523z M50.473-46.976c-0.085,1.023-0.204,2.049-0.393,3.059c-0.39,2.095,0.06,2.025-2.267,2.172
			c1.489,0.233,2.636,1.521,2.636,3.075c0,1.72-1.398,3.116-3.117,3.116c-1.721,0-3.118-1.397-3.118-3.116
			c0-1.43,0.971-2.709,2.286-3.073c-3.156,0.158-6.319,0.171-9.478,0.171c-0.01,0-0.019,0-0.029,0c-0.142,0-0.288,0.039-0.445,0.018
			c-0.027-0.196-0.05-0.316-0.067-0.473c-0.402-3.3-3.205-5.713-6.353-5.713c-0.295,0-0.592,0.034-0.892,0.079
			c-0.447,0.044-0.881,0.137-1.298,0.266c-0.026,0.002-0.059,0.011-0.083,0.011c-0.465,0-0.411-0.352-0.274-1.185
			c0.431-0.043,1.027-0.257,1.027-0.257v-7.624c0,0,5.49,0,6.623,0c1.369,0,1.91,1.328,1.91,1.328
			c1.046,3.02,1.843,5.001,2.207,6.009c0.141,0.383,0.609,0.576,0.717,0.578c2.427,0.05,4.296,0.105,4.296,0.105
			c0-1.266,0-2.476,0-3.668c0-0.111,0.22-0.15,0.389-0.15c0.385,0,0.573,0.2,0.573,0.2s-0.095,2.555-0.095,3.606
			c0,0.056,0.048,0.086,0.09,0.087c1.395,0.056,2.671,0.109,4.066,0.158C50.321-48.157,50.553-47.933,50.473-46.976z"/>
		<path fill="#FFFFFF" d="M45.695-38.67c0,0.903,0.735,1.638,1.637,1.638c0.901,0,1.637-0.735,1.637-1.638
			c0-0.902-0.736-1.637-1.637-1.637C46.43-40.306,45.695-39.571,45.695-38.67z M48.094-38.67c0,0.421-0.342,0.763-0.762,0.763
			c-0.42,0-0.761-0.342-0.761-0.763c0-0.419,0.341-0.761,0.761-0.761C47.751-39.43,48.094-39.089,48.094-38.67z"/>
		<path fill="#FFFFFF" d="M29.877-44.299c-1.728,0-3.133,1.405-3.133,3.134c0,1.728,1.405,3.132,3.133,3.132
			c1.728,0,3.133-1.405,3.133-3.132S31.604-44.299,29.877-44.299z M29.877-38.908c-1.245,0-2.258-1.013-2.258-2.257
			c0-1.245,1.013-2.259,2.258-2.259c1.245,0,2.258,1.013,2.258,2.259C32.135-39.92,31.121-38.908,29.877-38.908z"/>
	</g>
</g>
</svg>
