<?xml version="1.0" encoding="utf-8"?>
<!-- Generator: Adobe Illustrator 17.1.0, SVG Export Plug-In . SVG Version: 6.00 Build 0)  -->
<!DOCTYPE svg PUBLIC "-//W3C//DTD SVG 1.1//EN" "http://www.w3.org/Graphics/SVG/1.1/DTD/svg11.dtd" [
	<!ENTITY ns_extend "http://ns.adobe.com/Extensibility/1.0/">
	<!ENTITY ns_ai "http://ns.adobe.com/AdobeIllustrator/10.0/">
	<!ENTITY ns_graphs "http://ns.adobe.com/Graphs/1.0/">
	<!ENTITY ns_vars "http://ns.adobe.com/Variables/1.0/">
	<!ENTITY ns_imrep "http://ns.adobe.com/ImageReplacement/1.0/">
	<!ENTITY ns_sfw "http://ns.adobe.com/SaveForWeb/1.0/">
	<!ENTITY ns_custom "http://ns.adobe.com/GenericCustomNamespace/1.0/">
	<!ENTITY ns_adobe_xpath "http://ns.adobe.com/XPath/1.0/">
]>
<svg version="1.1" id="Layer_1" xmlns:x="&ns_extend;" xmlns:i="&ns_ai;" xmlns:graph="&ns_graphs;"
	 xmlns="http://www.w3.org/2000/svg" xmlns:xlink="http://www.w3.org/1999/xlink" x="0px" y="0px" width="35px" height="40px"
	 viewBox="0 0 35 40" enable-background="new 0 0 35 40" xml:space="preserve">
<metadata>
	<sfw  xmlns="&ns_sfw;">
		<slices></slices>
		<sliceSourceBounds  width="16383" height="103" y="-88.5" x="-8112" bottomLeftOrigin="true"></sliceSourceBounds>
	</sfw>
</metadata>
<g>
	<path fill="#FFFFFF" d="M17.5,0C7.85,0,0,8.396,0,16.666C0,29.092,16.415,39.377,17.114,39.88C17.225,39.96,17.363,40,17.5,40
		c0.134,0,0.271-0.039,0.381-0.117C18.58,39.389,35,29.313,35,16.666C35,8.396,27.15,0,17.5,0z"/>
	<g>
		<path fill="#C1122B" d="M26.94,12.852h-4.093l-2.103-3.386c-0.206-0.359-0.667-0.48-1-0.284c-0.168,0.098-0.287,0.251-0.337,0.437
			c-0.051,0.192-0.023,0.394,0.078,0.571l1.699,2.661h-7.888l1.724-2.701c0.083-0.143,0.109-0.338,0.057-0.526
			c-0.05-0.188-0.17-0.344-0.338-0.441c-0.332-0.195-0.8-0.066-0.984,0.253l-2.122,3.417H8.06c-0.653,0-1.185,0.532-1.185,1.185
			v1.034c0,0.615,0.454,1.212,0.991,1.301l0.131,0.022h18.945l0.149-0.02c0.551-0.072,1.034-0.681,1.034-1.304v-1.034
			C28.125,13.385,27.593,12.852,26.94,12.852z"/>
		<path fill="#C1122B" d="M10.071,25.025c0.009,0.277,0.153,0.421,0.328,0.421h14.207c0.177,0,0.321-0.144,0.321-0.32l0.009-0.125
			l1.213-7.357H8.853L10.071,25.025z M21.395,20.092c0-0.372,0.275-0.674,0.647-0.674c0.371,0,0.645,0.302,0.645,0.674v2.521
			c0,0.372-0.274,0.674-0.645,0.674c-0.372,0-0.647-0.301-0.647-0.674V20.092z M18.367,20.092c0-0.372,0.274-0.674,0.646-0.674
			s0.646,0.302,0.646,0.674v2.521c0,0.372-0.274,0.674-0.646,0.674s-0.646-0.301-0.646-0.674V20.092z M15.34,20.092
			c0-0.372,0.274-0.674,0.646-0.674c0.371,0,0.646,0.302,0.646,0.674v2.521c0,0.372-0.275,0.674-0.646,0.674
			c-0.373,0-0.646-0.301-0.646-0.674V20.092z M12.313,20.092c0-0.372,0.274-0.674,0.646-0.674c0.371,0,0.645,0.302,0.645,0.674
			v2.521c0,0.372-0.274,0.674-0.645,0.674c-0.372,0-0.646-0.301-0.646-0.674V20.092z"/>
		<path fill="#C1122B" d="M17.5,0C7.85,0,0,8.396,0,16.666C0,29.092,16.415,39.377,17.114,39.88C17.225,39.96,17.363,40,17.5,40
			c0.134,0,0.271-0.039,0.381-0.117C18.58,39.389,35,29.313,35,16.666C35,8.396,27.15,0,17.5,0z M29.375,15.072
			c0,1.079-0.709,2.076-1.656,2.428l-1.282,7.361c-0.018,1.219-1.111,2.289-2.426,2.289H10.93c-1.315,0-2.406-1.069-2.434-2.383
			l-1.281-7.285c-0.92-0.367-1.591-1.344-1.591-2.41v-1.034c0-1.343,1.093-2.435,2.435-2.435h2.877l1.746-2.809
			c0.5-0.873,1.771-1.222,2.681-0.693c0.944,0.543,1.268,1.754,0.725,2.699l-0.513,0.802h3.328l-0.487-0.763
			c-0.283-0.488-0.355-1.029-0.217-1.544c0.137-0.508,0.463-0.931,0.918-1.194c0.895-0.521,2.174-0.186,2.699,0.724l1.726,2.778
			h3.397c1.343,0,2.435,1.093,2.435,2.435V15.072z"/>
	</g>
</g>
</svg>
