<?xml version="1.0" encoding="utf-8"?>
<!-- Generator: Adobe Illustrator 17.1.0, SVG Export Plug-In . SVG Version: 6.00 Build 0)  -->
<!DOCTYPE svg PUBLIC "-//W3C//DTD SVG 1.1//EN" "http://www.w3.org/Graphics/SVG/1.1/DTD/svg11.dtd" [
	<!ENTITY ns_extend "http://ns.adobe.com/Extensibility/1.0/">
	<!ENTITY ns_ai "http://ns.adobe.com/AdobeIllustrator/10.0/">
	<!ENTITY ns_graphs "http://ns.adobe.com/Graphs/1.0/">
	<!ENTITY ns_vars "http://ns.adobe.com/Variables/1.0/">
	<!ENTITY ns_imrep "http://ns.adobe.com/ImageReplacement/1.0/">
	<!ENTITY ns_sfw "http://ns.adobe.com/SaveForWeb/1.0/">
	<!ENTITY ns_custom "http://ns.adobe.com/GenericCustomNamespace/1.0/">
	<!ENTITY ns_adobe_xpath "http://ns.adobe.com/XPath/1.0/">
]>
<svg version="1.1" id="Layer_1" xmlns:x="&ns_extend;" xmlns:i="&ns_ai;" xmlns:graph="&ns_graphs;"
	 xmlns="http://www.w3.org/2000/svg" xmlns:xlink="http://www.w3.org/1999/xlink" x="0px" y="0px" width="35px" height="40px"
	 viewBox="0 0 35 40" enable-background="new 0 0 35 40" xml:space="preserve">
<metadata>
	<sfw  xmlns="&ns_sfw;">
		<slices></slices>
		<sliceSourceBounds  width="16383" height="103" y="-88.5" x="-8112" bottomLeftOrigin="true"></sliceSourceBounds>
	</sfw>
</metadata>
<g>
	<path fill="#FFFFFF" d="M17.5,0C7.85,0,0,8.396,0,16.666C0,29.092,16.415,39.377,17.114,39.88C17.225,39.96,17.363,40,17.5,40
		c0.134,0,0.271-0.039,0.381-0.117C18.58,39.389,35,29.313,35,16.666C35,8.396,27.15,0,17.5,0z"/>
	<g>
		<path fill="#C1122B" d="M17.499,10.683c-1.55,0-2.812,1.261-2.812,2.811c0,1.553,1.261,2.816,2.812,2.816
			c1.551,0,2.813-1.263,2.813-2.816C20.312,11.944,19.051,10.683,17.499,10.683z"/>
		<path fill="#C1122B" d="M17.499,7.935c-3.066,0-5.56,2.494-5.56,5.56c0,1.074,0.585,3.889,4.502,10.677l0.484,0.839l0.167,0.282
			l0.112,0.188l0.054,0.09l0.107,0.18l0.135,0.222l0.13-0.215l0.046-0.077l0.11-0.187l0.04-0.067l0.238-0.399l0.494-0.857
			c3.917-6.8,4.502-9.608,4.502-10.677C23.06,10.429,20.565,7.935,17.499,7.935z M17.499,17.247c-2.067,0-3.749-1.684-3.749-3.753
			c0-2.068,1.682-3.748,3.749-3.748c2.068,0,3.751,1.681,3.751,3.748C21.25,15.563,19.568,17.247,17.499,17.247z"/>
		<path fill="#C1122B" d="M17.5,0C7.85,0,0,8.396,0,16.666C0,29.092,16.415,39.377,17.114,39.88C17.225,39.96,17.363,40,17.5,40
			c0.134,0,0.271-0.039,0.381-0.117C18.58,39.389,35,29.313,35,16.666C35,8.396,27.15,0,17.5,0z M24.17,27.526
			c-0.003,2.16-3.358,3.29-6.671,3.29c-3.315,0-6.671-1.131-6.671-3.293c0-1.448,1.69-2.623,4.331-3.078
			c-2.151-3.762-4.471-8.402-4.471-10.95c0-3.755,3.055-6.81,6.81-6.81s6.81,3.055,6.812,6.809c0,2.546-2.323,7.187-4.472,10.952
			C22.48,24.9,24.17,26.076,24.17,27.526z"/>
		<path fill="#C1122B" d="M18.968,25.953c-0.036,0.06-0.074,0.125-0.11,0.185c-0.05,0.086-0.105,0.177-0.151,0.255
			c-0.139,0.23-0.258,0.424-0.366,0.603c-0.026,0.038-0.052,0.083-0.076,0.12c-0.101,0.166-0.177,0.289-0.242,0.391
			c-0.019,0.031-0.04,0.068-0.056,0.091c-0.065,0.102-0.1,0.157-0.1,0.157l-0.369,0.578l-0.366-0.578c0,0-0.039-0.061-0.106-0.167
			c-0.007-0.011-0.017-0.028-0.024-0.037c-0.067-0.108-0.153-0.247-0.265-0.431c-0.031-0.048-0.065-0.107-0.099-0.159
			c-0.103-0.17-0.213-0.348-0.342-0.561c-0.052-0.09-0.112-0.188-0.167-0.281c-0.032-0.055-0.066-0.112-0.098-0.165l-0.476,0.076
			c-2.161,0.347-3.096,1.157-3.096,1.494c0,0.215,0.336,0.601,1.074,0.943c1,0.463,2.408,0.718,3.965,0.718
			c3.26,0,5.039-1.098,5.039-1.662c0-0.337-0.935-1.147-3.095-1.493L18.968,25.953z"/>
	</g>
</g>
</svg>
