<?xml version="1.0" encoding="utf-8"?>
<!-- Generator: Adobe Illustrator 17.1.0, SVG Export Plug-In . SVG Version: 6.00 Build 0)  -->
<!DOCTYPE svg PUBLIC "-//W3C//DTD SVG 1.1//EN" "http://www.w3.org/Graphics/SVG/1.1/DTD/svg11.dtd" [
	<!ENTITY ns_extend "http://ns.adobe.com/Extensibility/1.0/">
	<!ENTITY ns_ai "http://ns.adobe.com/AdobeIllustrator/10.0/">
	<!ENTITY ns_graphs "http://ns.adobe.com/Graphs/1.0/">
	<!ENTITY ns_vars "http://ns.adobe.com/Variables/1.0/">
	<!ENTITY ns_imrep "http://ns.adobe.com/ImageReplacement/1.0/">
	<!ENTITY ns_sfw "http://ns.adobe.com/SaveForWeb/1.0/">
	<!ENTITY ns_custom "http://ns.adobe.com/GenericCustomNamespace/1.0/">
	<!ENTITY ns_adobe_xpath "http://ns.adobe.com/XPath/1.0/">
]>
<svg version="1.1" id="Layer_1" xmlns:x="&ns_extend;" xmlns:i="&ns_ai;" xmlns:graph="&ns_graphs;"
	 xmlns="http://www.w3.org/2000/svg" xmlns:xlink="http://www.w3.org/1999/xlink" x="0px" y="0px" width="28px" height="33px"
	 viewBox="0 0 28 33" enable-background="new 0 0 28 33" xml:space="preserve">
<metadata>
	<sfw  xmlns="&ns_sfw;">
		<slices></slices>
		<sliceSourceBounds  height="96" width="16383" y="-85.5" x="-8112" bottomLeftOrigin="true"></sliceSourceBounds>
	</sfw>
</metadata>
<g>
	<path opacity="0.25" fill="#282828" d="M14,25c-6.059,0-10.988,1.679-10.988,3.333c0,2.485,10.307,4.542,10.746,4.643
		C13.828,32.992,13.914,33,14,33c0.084,0,0.17-0.008,0.239-0.023c0.439-0.099,10.749-2.114,10.749-4.643
		C24.988,26.679,20.059,25,14,25z"/>
	<g>
		<path fill="#FFFFFF" d="M14,0C6.28,0,0,6.717,0,13.332c0,9.941,13.132,18.169,13.691,18.572C13.78,31.968,13.891,32,14,32
			c0.107,0,0.217-0.031,0.305-0.094C14.864,31.511,28,23.45,28,13.332C28,6.717,21.72,0,14,0z"/>
		<path fill="#C1122B" d="M14,0C6.28,0,0,6.717,0,13.333c0,9.941,13.132,18.169,13.691,18.572C13.78,31.968,13.891,32,14,32
			c0.107,0,0.217-0.031,0.305-0.094C14.864,31.511,28,23.45,28,13.333C28,6.717,21.72,0,14,0z M14.002,30.908
			C10.865,28.805,1,21.533,1,13.333C1,7.511,6.56,1,14,1s13,6.511,13,12.333C27,21.682,17.14,28.843,14.002,30.908z"/>
		<g>
			<g>
				<path fill="#C1122B" d="M19.457,22.366H8.494c-1.074,0-1.965-0.873-1.988-1.946l-1.079-6.143
					C4.661,13.986,4.1,13.177,4.1,12.295v-0.866c0-1.097,0.892-1.989,1.988-1.989h2.441l1.479-2.379
					c0.408-0.709,1.438-0.99,2.177-0.563c0.37,0.214,0.635,0.559,0.747,0.973c0.11,0.413,0.054,0.846-0.16,1.216l-0.479,0.751h2.98
					L14.813,8.72c-0.229-0.395-0.288-0.833-0.177-1.251c0.11-0.413,0.375-0.758,0.745-0.971c0.731-0.428,1.766-0.151,2.191,0.588
					l1.463,2.354h2.877c1.096,0,1.988,0.892,1.988,1.989v0.866c0,0.894-0.594,1.719-1.382,1.996l-1.08,6.199
					C21.423,21.492,20.532,22.366,19.457,22.366z M6.088,10.383c-0.576,0-1.045,0.47-1.045,1.046v0.866
					c0,0.54,0.401,1.064,0.874,1.143l0.33,0.055l1.195,6.836c0.019,0.635,0.488,1.094,1.052,1.094h10.964
					c0.565,0,1.034-0.459,1.045-1.023l1.199-6.915l0.344-0.045c0.494-0.064,0.912-0.588,0.912-1.145v-0.866
					c0-0.576-0.469-1.046-1.045-1.046H18.51L16.762,7.57c-0.186-0.324-0.605-0.433-0.909-0.256
					c-0.153,0.088-0.262,0.229-0.307,0.398c-0.046,0.175-0.021,0.358,0.072,0.518l1.373,2.152h-6.42l1.393-2.183
					c0.077-0.134,0.1-0.313,0.055-0.483c-0.046-0.17-0.156-0.313-0.308-0.401c-0.304-0.179-0.729-0.061-0.895,0.23l-1.763,2.838
					H6.088z"/>
			</g>
			<g>
				<path fill="#C1122B" d="M19.956,21.986H8.049c-0.697,0-1.264-0.566-1.264-1.263l-1.207-7.266h16.845l-1.204,7.282
					C21.22,21.419,20.653,21.986,19.956,21.986z M6.69,14.399l1.031,6.247c0.006,0.253,0.151,0.397,0.328,0.397h11.907
					c0.177,0,0.321-0.144,0.321-0.32l0.006-0.097l1.029-6.226H6.69z"/>
			</g>
			<g>
				<g>
					<path fill="#C1122B" d="M17.807,19.181c0.311,0,0.541-0.253,0.541-0.565v-2.113c0-0.312-0.23-0.565-0.541-0.565
						c-0.312,0-0.542,0.253-0.542,0.565v2.113C17.264,18.929,17.495,19.181,17.807,19.181z"/>
				</g>
				<g>
					<path fill="#C1122B" d="M15.268,19.181c0.312,0,0.542-0.253,0.542-0.565v-2.113c0-0.312-0.23-0.565-0.542-0.565
						s-0.542,0.253-0.542,0.565v2.113C14.727,18.929,14.957,19.181,15.268,19.181z"/>
				</g>
				<g>
					<path fill="#C1122B" d="M12.731,19.181c0.311,0,0.542-0.253,0.542-0.565v-2.113c0-0.312-0.23-0.565-0.542-0.565
						c-0.312,0-0.542,0.253-0.542,0.565v2.113C12.19,18.929,12.419,19.181,12.731,19.181z"/>
				</g>
				<g>
					<path fill="#C1122B" d="M10.194,19.181c0.311,0,0.541-0.253,0.541-0.565v-2.113c0-0.312-0.23-0.565-0.541-0.565
						c-0.312,0-0.542,0.253-0.542,0.565v2.113C9.652,18.929,9.882,19.181,10.194,19.181z"/>
				</g>
			</g>
		</g>
	</g>
</g>
</svg>
