<?xml version="1.0" encoding="utf-8"?>
<!-- Generator: Adobe Illustrator 17.1.0, SVG Export Plug-In . SVG Version: 6.00 Build 0)  -->
<!DOCTYPE svg PUBLIC "-//W3C//DTD SVG 1.1//EN" "http://www.w3.org/Graphics/SVG/1.1/DTD/svg11.dtd" [
	<!ENTITY ns_extend "http://ns.adobe.com/Extensibility/1.0/">
	<!ENTITY ns_ai "http://ns.adobe.com/AdobeIllustrator/10.0/">
	<!ENTITY ns_graphs "http://ns.adobe.com/Graphs/1.0/">
	<!ENTITY ns_vars "http://ns.adobe.com/Variables/1.0/">
	<!ENTITY ns_imrep "http://ns.adobe.com/ImageReplacement/1.0/">
	<!ENTITY ns_sfw "http://ns.adobe.com/SaveForWeb/1.0/">
	<!ENTITY ns_custom "http://ns.adobe.com/GenericCustomNamespace/1.0/">
	<!ENTITY ns_adobe_xpath "http://ns.adobe.com/XPath/1.0/">
]>
<svg version="1.1" id="Layer_1" xmlns:x="&ns_extend;" xmlns:i="&ns_ai;" xmlns:graph="&ns_graphs;"
	 xmlns="http://www.w3.org/2000/svg" xmlns:xlink="http://www.w3.org/1999/xlink" x="0px" y="0px" width="28px" height="33px"
	 viewBox="0 0 28 33" enable-background="new 0 0 28 33" xml:space="preserve">
<metadata>
	<sfw  xmlns="&ns_sfw;">
		<slices></slices>
		<sliceSourceBounds  height="96" width="16383" y="-85.5" x="-8112" bottomLeftOrigin="true"></sliceSourceBounds>
	</sfw>
</metadata>
<g>
	<path opacity="0.25" fill="#282828" d="M14,25c-6.059,0-10.988,1.679-10.988,3.333c0,2.485,10.307,4.542,10.746,4.643
		C13.828,32.992,13.914,33,14,33c0.084,0,0.17-0.008,0.239-0.023c0.439-0.099,10.749-2.114,10.749-4.643
		C24.988,26.679,20.059,25,14,25z"/>
	<g>
		<path fill="#FFFFFF" d="M14,0C6.28,0,0,6.717,0,13.332c0,9.941,13.132,18.169,13.691,18.572C13.78,31.968,13.891,32,14,32
			c0.107,0,0.217-0.031,0.305-0.094C14.864,31.511,28,23.45,28,13.332C28,6.717,21.72,0,14,0z"/>
		<g>
			<path fill="#C1122B" d="M14,0C6.28,0,0,6.717,0,13.333c0,9.941,13.132,18.169,13.691,18.571C13.78,31.968,13.891,32,14,32
				c0.107,0,0.217-0.031,0.305-0.094C14.864,31.511,28,23.45,28,13.333C28,6.717,21.72,0,14,0z M14.002,30.908
				C10.865,28.805,1,21.533,1,13.333C1,7.511,6.56,1,14,1s13,6.511,13,12.333C27,21.682,17.14,28.843,14.002,30.908z"/>
			<path fill="#C1122B" d="M14,7.796c-1.654,0-3,1.344-3,2.998c0,1.656,1.346,3.003,3,3.003c1.655,0,3-1.347,3-3.003
				C17,9.141,15.654,7.796,14,7.796z M14,13.047c-1.24,0-2.25-1.01-2.25-2.253c0-1.24,1.009-2.248,2.25-2.248
				c1.241,0,2.25,1.009,2.25,2.248C16.25,12.037,15.24,13.047,14,13.047z"/>
			<path fill="#C1122B" d="M14,5.348c-3.004,0-5.448,2.444-5.448,5.448c0,2.039,1.856,5.75,3.577,8.76
				c-2.113,0.363-3.465,1.304-3.465,2.462c0,1.729,2.685,2.634,5.337,2.634c2.65,0,5.335-0.904,5.337-2.632
				c0-1.16-1.352-2.1-3.465-2.464c1.719-3.012,3.578-6.725,3.578-8.762C19.448,7.792,17.003,5.348,14,5.348z M18.031,22.018
				c0,0.451-1.423,1.329-4.031,1.329c-1.246,0-2.372-0.204-3.172-0.574c-0.591-0.273-0.859-0.582-0.859-0.754
				c0-0.269,0.748-0.917,2.477-1.195l0.381-0.061c0.025,0.042,0.053,0.088,0.078,0.132c0.045,0.075,0.092,0.153,0.134,0.225
				c0.104,0.17,0.191,0.313,0.274,0.448c0.027,0.042,0.054,0.089,0.079,0.127c0.089,0.147,0.159,0.258,0.212,0.345
				c0.006,0.007,0.013,0.021,0.019,0.029c0.053,0.086,0.085,0.134,0.085,0.134l0.293,0.463l0.295-0.463c0,0,0.028-0.044,0.08-0.125
				c0.012-0.019,0.029-0.048,0.045-0.073c0.052-0.082,0.113-0.18,0.194-0.313c0.019-0.029,0.04-0.066,0.061-0.096
				c0.086-0.143,0.181-0.298,0.293-0.483c0.037-0.063,0.081-0.136,0.121-0.204c0.029-0.048,0.06-0.1,0.088-0.148l0.38,0.061
				C17.283,21.101,18.031,21.749,18.031,22.018z M14.847,19.337l-0.396,0.688l-0.189,0.316l-0.032,0.054l-0.089,0.151l-0.036,0.06
				l-0.104,0.172L13.892,20.6l-0.085-0.144l-0.043-0.072l-0.09-0.15l-0.135-0.227l-0.387-0.67c-3.134-5.43-3.602-7.682-3.602-8.541
				c0-2.453,1.995-4.448,4.448-4.448c2.453,0,4.448,1.995,4.449,4.447C18.449,11.65,17.981,13.897,14.847,19.337z"/>
		</g>
	</g>
</g>
</svg>
