<?xml version="1.0" encoding="utf-8"?>
<!-- Generator: Adobe Illustrator 17.1.0, SVG Export Plug-In . SVG Version: 6.00 Build 0)  -->
<!DOCTYPE svg PUBLIC "-//W3C//DTD SVG 1.1//EN" "http://www.w3.org/Graphics/SVG/1.1/DTD/svg11.dtd" [
	<!ENTITY ns_extend "http://ns.adobe.com/Extensibility/1.0/">
	<!ENTITY ns_ai "http://ns.adobe.com/AdobeIllustrator/10.0/">
	<!ENTITY ns_graphs "http://ns.adobe.com/Graphs/1.0/">
	<!ENTITY ns_vars "http://ns.adobe.com/Variables/1.0/">
	<!ENTITY ns_imrep "http://ns.adobe.com/ImageReplacement/1.0/">
	<!ENTITY ns_sfw "http://ns.adobe.com/SaveForWeb/1.0/">
	<!ENTITY ns_custom "http://ns.adobe.com/GenericCustomNamespace/1.0/">
	<!ENTITY ns_adobe_xpath "http://ns.adobe.com/XPath/1.0/">
]>
<svg version="1.1" id="Layer_1" xmlns:x="&ns_extend;" xmlns:i="&ns_ai;" xmlns:graph="&ns_graphs;"
	 xmlns="http://www.w3.org/2000/svg" xmlns:xlink="http://www.w3.org/1999/xlink" x="0px" y="0px" width="28px" height="33px"
	 viewBox="0 0 28 33" enable-background="new 0 0 28 33" xml:space="preserve">
<metadata>
	<sfw  xmlns="&ns_sfw;">
		<slices></slices>
		<sliceSourceBounds  height="96" width="16383" y="-85.5" x="-8112" bottomLeftOrigin="true"></sliceSourceBounds>
	</sfw>
</metadata>
<g>
	<path opacity="0.25" fill="#282828" d="M14,25c-6.059,0-10.988,1.679-10.988,3.333c0,2.485,10.307,4.542,10.746,4.643
		C13.828,32.992,13.914,33,14,33c0.084,0,0.17-0.008,0.239-0.023c0.439-0.099,10.749-2.114,10.749-4.643
		C24.988,26.679,20.059,25,14,25z"/>
	<g>
		<path fill="#FFFFFF" d="M14,0C6.28,0,0,6.717,0,13.332c0,9.941,13.132,18.169,13.691,18.572C13.78,31.968,13.891,32,14,32
			c0.107,0,0.217-0.031,0.305-0.094C14.864,31.511,28,23.45,28,13.332C28,6.717,21.72,0,14,0z"/>
		<g>
			<path fill="#0B8C61" d="M14,0C6.28,0,0,6.717,0,13.333c0,9.941,13.132,18.169,13.691,18.571C13.78,31.968,13.891,32,14,32
				c0.107,0,0.217-0.031,0.305-0.094C14.864,31.511,28,23.45,28,13.333C28,6.717,21.72,0,14,0z M14.002,30.908
				C10.865,28.805,1,21.533,1,13.333C1,7.511,6.56,1,14,1c7.44,0,13,6.511,13,12.333C27,21.682,17.14,28.843,14.002,30.908z"/>
			<path fill="#0B8C61" d="M23.703,15.582c0.123-0.658,0.214-1.36,0.284-2.208c0.035-0.422,0.026-0.962-0.358-1.396
				c-0.433-0.489-1.081-0.514-1.358-0.525c-0.659-0.024-1.281-0.048-1.916-0.073c0.011-0.745,0.028-1.56,0.028-1.56l0.011-0.52
				l-0.419-0.307c-0.106-0.078-0.495-0.332-1.044-0.332c-0.306,0-0.599,0.077-0.872,0.23l-0.512,0.286v0.586v1.502
				c-0.378-0.009-0.845-0.02-1.376-0.031c-0.062-0.164-0.135-0.355-0.217-0.572c-0.298-0.78-0.706-1.847-1.203-3.283l-0.011-0.03
				l-0.013-0.03c-0.234-0.557-0.969-1.5-2.238-1.5H7.811h-1v1v4.407L6.3,11.276l-0.125,0.757c-0.061,0.373-0.13,0.911,0.148,1.375
				C4.939,14.233,4,15.729,4,17.455c0,2.606,2.121,4.727,4.728,4.727c2.39,0,4.349-1.79,4.661-4.096
				c0.107,0.016,0.212,0.03,0.315,0.03h0.018l0.037-0.001c0.706-0.018,1.421-0.031,2.137-0.043c0.639-0.011,1.288-0.023,1.94-0.039
				c-0.103,0.311-0.158,0.641-0.158,0.98c0,1.735,1.412,3.147,3.148,3.147c1.736,0,3.147-1.412,3.147-3.147
				c0-0.706-0.242-1.369-0.651-1.903c0.135-0.239,0.23-0.556,0.292-0.981C23.636,15.978,23.662,15.798,23.703,15.582z M8.728,21.181
				C6.672,21.181,5,19.51,5,17.455c0-1.562,0.969-2.898,2.335-3.451c0.026,0.001,0.046,0.009,0.074,0.009
				c0.197,0,0.409-0.034,0.685-0.112c0.289-0.081,0.586-0.122,0.881-0.122c0.21,0,0.417,0.021,0.619,0.061
				c0.888,0.213,1.652,0.741,2.166,1.464c0.041,0.06,0.082,0.121,0.119,0.184c0.057,0.091,0.105,0.188,0.155,0.285
				c0.16,0.334,0.279,0.693,0.325,1.075c0.009,0.083,0.022,0.176,0.037,0.283l0.011,0.082l0.041,0.296
				C12.417,19.539,10.763,21.181,8.728,21.181z M22.973,19.013c0,1.184-0.964,2.147-2.147,2.147c-1.186,0-2.148-0.963-2.148-2.147
				c0-0.985,0.669-1.815,1.575-2.067c-2.174,0.109-4.353,0.113-6.529,0.169c-0.007,0-0.013,0-0.02,0
				c-0.092,0-0.188-0.022-0.289-0.036c-0.032-0.402-0.111-0.788-0.238-1.156c-0.004-0.012-0.007-0.024-0.011-0.037
				c-0.063-0.177-0.134-0.348-0.217-0.515c-0.076-0.163-0.161-0.318-0.255-0.469c-0.032-0.05-0.062-0.099-0.096-0.147
				c-0.646-0.956-1.628-1.642-2.748-1.879c-0.362-0.089-0.734-0.149-1.122-0.149c-0.509,0-0.991,0.102-1.451,0.252
				c-0.181-0.073-0.192-0.312-0.115-0.784c0.296-0.029,0.649-0.178,0.649-0.178V6.819c0,0,3.899,0,4.679,0
				c0.943,0,1.316,0.888,1.316,0.888c0.72,2.081,1.269,3.432,1.52,4.126c0.097,0.264,0.303,0.39,0.378,0.392
				c1.672,0.035,2.844,0.065,2.844,0.065c0-0.873,0-1.706,0-2.527c0.136-0.076,0.267-0.103,0.383-0.103
				c0.265,0,0.453,0.138,0.453,0.138s-0.037,1.76-0.037,2.484c0,0.038,0.048,0.059,0.077,0.06c0.961,0.038,1.848,0.075,2.808,0.109
				c0.646,0.025,0.813,0.18,0.758,0.839c-0.059,0.705-0.14,1.412-0.271,2.108c-0.269,1.444,0.042,1.395-1.562,1.496
				C22.183,17.055,22.973,17.943,22.973,19.013z"/>
			<path fill="#0B8C61" d="M19.57,19.013c0,0.693,0.564,1.257,1.256,1.257c0.692,0,1.256-0.564,1.256-1.257
				c0-0.692-0.564-1.255-1.256-1.255C20.134,17.758,19.57,18.321,19.57,19.013z M21.832,19.013c0,0.555-0.451,1.007-1.006,1.007
				c-0.555,0-1.006-0.452-1.006-1.007c0-0.554,0.451-1.005,1.006-1.005C21.381,18.008,21.832,18.459,21.832,19.013z"/>
			<path fill="#0B8C61" d="M12.919,8.341L8.961,8.347l-0.004,0.97l-0.003,2.916c1.209-0.044,2.595-0.069,3.939-0.069
				c0.452,0,0.9,0.003,1.334,0.009l-0.045-0.018L12.919,8.341z M12.893,11.663c-1.138,0-2.34,0.018-3.438,0.052l0.003-2.397
				L9.46,8.846l3.098-0.005l0.935,2.824C13.294,11.664,13.094,11.663,12.893,11.663z"/>
			<path fill="#0B8C61" d="M8.728,15.385c-1.142,0-2.07,0.929-2.07,2.07s0.928,2.069,2.07,2.069c1.141,0,2.069-0.928,2.069-2.069
				S9.869,15.385,8.728,15.385z M8.728,19.023c-0.865,0-1.57-0.704-1.57-1.569c0-0.866,0.704-1.57,1.57-1.57
				c0.865,0,1.569,0.704,1.569,1.57C10.297,18.32,9.593,19.023,8.728,19.023z"/>
		</g>
	</g>
</g>
</svg>
