<?xml version="1.0" encoding="utf-8"?>
<!-- Generator: Adobe Illustrator 17.1.0, SVG Export Plug-In . SVG Version: 6.00 Build 0)  -->
<!DOCTYPE svg PUBLIC "-//W3C//DTD SVG 1.1//EN" "http://www.w3.org/Graphics/SVG/1.1/DTD/svg11.dtd" [
	<!ENTITY ns_extend "http://ns.adobe.com/Extensibility/1.0/">
	<!ENTITY ns_ai "http://ns.adobe.com/AdobeIllustrator/10.0/">
	<!ENTITY ns_graphs "http://ns.adobe.com/Graphs/1.0/">
	<!ENTITY ns_vars "http://ns.adobe.com/Variables/1.0/">
	<!ENTITY ns_imrep "http://ns.adobe.com/ImageReplacement/1.0/">
	<!ENTITY ns_sfw "http://ns.adobe.com/SaveForWeb/1.0/">
	<!ENTITY ns_custom "http://ns.adobe.com/GenericCustomNamespace/1.0/">
	<!ENTITY ns_adobe_xpath "http://ns.adobe.com/XPath/1.0/">
]>
<svg version="1.1" id="Layer_1" xmlns:x="&ns_extend;" xmlns:i="&ns_ai;" xmlns:graph="&ns_graphs;"
	 xmlns="http://www.w3.org/2000/svg" xmlns:xlink="http://www.w3.org/1999/xlink" x="0px" y="0px" width="35px" height="40px"
	 viewBox="0 0 35 40" enable-background="new 0 0 35 40" xml:space="preserve">
<metadata>
	<sfw  xmlns="&ns_sfw;">
		<slices></slices>
		<sliceSourceBounds  width="16383" height="103" y="-88.5" x="-8112" bottomLeftOrigin="true"></sliceSourceBounds>
	</sfw>
</metadata>
<g>
	<path fill="#FFFFFF" d="M17.5,0C7.85,0,0,8.396,0,16.666C0,29.092,16.415,39.377,17.114,39.88C17.225,39.96,17.363,40,17.5,40
		c0.134,0,0.271-0.039,0.381-0.117C18.58,39.389,35,29.313,35,16.666C35,8.396,27.15,0,17.5,0z"/>
	<path fill="#C1122B" d="M17.5,0C7.85,0,0,8.396,0,16.666C0,29.092,16.415,39.377,17.114,39.88C17.225,39.96,17.363,40,17.5,40
		c0.134,0,0.271-0.039,0.381-0.117C18.58,39.389,35,29.313,35,16.666C35,8.396,27.15,0,17.5,0z M17.503,38.635
		C13.582,36.007,1.25,26.916,1.25,16.666C1.25,9.389,8.199,1.25,17.5,1.25s16.25,8.139,16.25,15.416
		C33.75,27.103,21.425,36.054,17.503,38.635z"/>
	<g>
		<g>
			<path fill="#C1122B" d="M24.322,27.957H10.617c-1.342,0-2.456-1.091-2.485-2.432l-1.349-7.679
				c-0.958-0.364-1.659-1.374-1.659-2.477v-1.083c0-1.371,1.115-2.486,2.485-2.486h3.051l1.848-2.974
				c0.51-0.886,1.798-1.237,2.721-0.703c0.463,0.267,0.794,0.699,0.933,1.217c0.138,0.517,0.068,1.058-0.2,1.52l-0.599,0.939h3.725
				L18.516,10.9c-0.287-0.494-0.36-1.042-0.221-1.564c0.138-0.516,0.468-0.947,0.931-1.213c0.914-0.535,2.208-0.189,2.738,0.735
				l1.829,2.942h3.597c1.37,0,2.485,1.115,2.485,2.486v1.083c0,1.118-0.742,2.149-1.728,2.495l-1.35,7.748
				C26.779,26.865,25.665,27.957,24.322,27.957z M7.61,12.978c-0.721,0-1.306,0.587-1.306,1.308v1.083
				c0,0.676,0.501,1.329,1.092,1.428l0.412,0.069l1.494,8.545c0.024,0.794,0.61,1.367,1.316,1.367h13.705
				c0.707,0,1.293-0.574,1.306-1.279l1.499-8.644l0.43-0.056c0.618-0.079,1.139-0.735,1.139-1.431v-1.083
				c0-0.721-0.586-1.308-1.306-1.308h-4.253l-2.185-3.516c-0.232-0.405-0.756-0.541-1.136-0.32c-0.191,0.11-0.327,0.287-0.383,0.497
				c-0.058,0.219-0.026,0.448,0.09,0.648l1.716,2.69h-8.025l1.741-2.729c0.097-0.168,0.125-0.391,0.069-0.604
				c-0.058-0.213-0.195-0.391-0.386-0.501c-0.38-0.223-0.912-0.076-1.119,0.288l-2.204,3.547H7.61z"/>
		</g>
		<g>
			<path fill="#C1122B" d="M24.944,27.482H10.061c-0.871,0-1.58-0.708-1.58-1.579L6.972,16.82h21.056l-1.505,9.103
				C26.525,26.774,25.816,27.482,24.944,27.482z M8.362,17.999l1.289,7.808c0.008,0.317,0.189,0.496,0.41,0.496h14.883
				c0.221,0,0.402-0.18,0.402-0.401l0.007-0.121l1.286-7.783H8.362z"/>
		</g>
		<g>
			<g>
				<path fill="#C1122B" d="M22.258,23.976c0.389,0,0.676-0.316,0.676-0.706v-2.642c0-0.39-0.287-0.706-0.676-0.706
					c-0.39,0-0.678,0.316-0.678,0.706v2.642C21.58,23.661,21.868,23.976,22.258,23.976z"/>
			</g>
			<g>
				<path fill="#C1122B" d="M19.086,23.976c0.39,0,0.677-0.316,0.677-0.706v-2.642c0-0.39-0.287-0.706-0.677-0.706
					s-0.677,0.316-0.677,0.706v2.642C18.409,23.661,18.696,23.976,19.086,23.976z"/>
			</g>
			<g>
				<path fill="#C1122B" d="M15.914,23.976c0.389,0,0.677-0.316,0.677-0.706v-2.642c0-0.39-0.288-0.706-0.677-0.706
					c-0.39,0-0.677,0.316-0.677,0.706v2.642C15.237,23.661,15.524,23.976,15.914,23.976z"/>
			</g>
			<g>
				<path fill="#C1122B" d="M12.742,23.976c0.389,0,0.676-0.316,0.676-0.706v-2.642c0-0.39-0.287-0.706-0.676-0.706
					c-0.39,0-0.677,0.316-0.677,0.706v2.642C12.065,23.661,12.353,23.976,12.742,23.976z"/>
			</g>
		</g>
	</g>
</g>
</svg>
