<?xml version="1.0" encoding="UTF-8" standalone="no"?>
<!-- Generator: Adobe Illustrator 17.1.0, SVG Export Plug-In . SVG Version: 6.00 Build 0)  -->

<svg
   xmlns:ns="&amp;ns_sfw;"
   xmlns:dc="http://purl.org/dc/elements/1.1/"
   xmlns:cc="http://creativecommons.org/ns#"
   xmlns:rdf="http://www.w3.org/1999/02/22-rdf-syntax-ns#"
   xmlns:svg="http://www.w3.org/2000/svg"
   xmlns="http://www.w3.org/2000/svg"
   xmlns:sodipodi="http://sodipodi.sourceforge.net/DTD/sodipodi-0.dtd"
   xmlns:inkscape="http://www.inkscape.org/namespaces/inkscape"
   version="1.1"
   id="Layer_1"
   x="0px"
   y="0px"
   width="28px"
   height="33px"
   viewBox="0 0 28 33"
   enable-background="new 0 0 28 33"
   xml:space="preserve"
   sodipodi:docname="green_shop.svg"
   inkscape:version="0.92.3 (2405546, 2018-03-11)"><defs
   id="defs23" /><sodipodi:namedview
   pagecolor="#ffffff"
   bordercolor="#666666"
   borderopacity="1"
   objecttolerance="10"
   gridtolerance="10"
   guidetolerance="10"
   inkscape:pageopacity="0"
   inkscape:pageshadow="2"
   inkscape:window-width="1707"
   inkscape:window-height="910"
   id="namedview21"
   showgrid="false"
   inkscape:zoom="7.1515152"
   inkscape:cx="-9.0021186"
   inkscape:cy="16.5"
   inkscape:window-x="32"
   inkscape:window-y="20"
   inkscape:window-maximized="0"
   inkscape:current-layer="g14" />
<metadata
   id="metadata2">
	<ns:sfw>
		<ns:slices />
		<ns:sliceSourceBounds
   height="96"
   width="16383"
   y="-85.5"
   x="-8112"
   bottomLeftOrigin="true" />
	</ns:sfw>
<rdf:RDF><cc:Work
     rdf:about=""><dc:format>image/svg+xml</dc:format><dc:type
       rdf:resource="http://purl.org/dc/dcmitype/StillImage" /><dc:title></dc:title></cc:Work></rdf:RDF></metadata>
<g
   id="g18">
	<path
   opacity="0.25"
   fill="#282828"
   d="M14,25c-6.059,0-10.988,1.679-10.988,3.333c0,2.485,10.307,4.542,10.746,4.643   C13.828,32.992,13.914,33,14,33c0.084,0,0.17-0.008,0.239-0.023c0.439-0.099,10.749-2.114,10.749-4.643   C24.988,26.679,20.059,25,14,25z"
   id="path4" />
	<g
   id="g16">
		<path
   fill="#FFFFFF"
   d="M14,0C6.28,0,0,6.717,0,13.332c0,9.941,13.132,18.169,13.691,18.572C13.78,31.968,13.891,32,14,32    c0.107,0,0.217-0.031,0.305-0.094C14.864,31.511,28,23.45,28,13.332C28,6.717,21.72,0,14,0z"
   id="path6" />
		<g
   id="g14">
			<path
   fill="#C1122B"
   d="M21.552,10.282h-3.274l-1.683-2.709c-0.165-0.287-0.533-0.384-0.8-0.228     c-0.135,0.078-0.229,0.201-0.27,0.35c-0.041,0.153-0.019,0.315,0.062,0.457l1.359,2.129h-6.311l1.379-2.161     c0.066-0.114,0.087-0.271,0.046-0.421c-0.04-0.15-0.136-0.275-0.271-0.353c-0.266-0.156-0.64-0.053-0.787,0.202l-1.697,2.733     H6.448c-0.522,0-0.948,0.426-0.948,0.948v0.827c0,0.492,0.363,0.97,0.793,1.041l0.105,0.018h15.156l0.119-0.016     c0.44-0.058,0.827-0.545,0.827-1.043V11.23C22.5,10.708,22.074,10.282,21.552,10.282z"
   id="path8"
   style="fill:#0b8c61;fill-opacity:1" />
			<path
   fill="#C1122B"
   d="M8.057,20.02c0.007,0.222,0.122,0.337,0.263,0.337h11.365c0.142,0,0.257-0.115,0.257-0.256l0.007-0.1     l0.971-5.886H7.082L8.057,20.02z M17.116,16.074c0-0.298,0.22-0.539,0.518-0.539c0.297,0,0.516,0.241,0.516,0.539v2.017     c0,0.298-0.219,0.539-0.516,0.539c-0.298,0-0.518-0.241-0.518-0.539V16.074z M14.694,16.074c0-0.298,0.219-0.539,0.517-0.539     s0.517,0.241,0.517,0.539v2.017c0,0.298-0.219,0.539-0.517,0.539s-0.517-0.241-0.517-0.539V16.074z M12.272,16.074     c0-0.298,0.219-0.539,0.517-0.539c0.297,0,0.517,0.241,0.517,0.539v2.017c0,0.298-0.22,0.539-0.517,0.539     c-0.298,0-0.517-0.241-0.517-0.539V16.074z M9.85,16.074c0-0.298,0.219-0.539,0.517-0.539c0.297,0,0.516,0.241,0.516,0.539v2.017     c0,0.298-0.219,0.539-0.516,0.539c-0.298,0-0.517-0.241-0.517-0.539V16.074z"
   id="path10"
   style="fill:#0b8c61;fill-opacity:1" />
			<path
   fill="#C1122B"
   d="M14,0C6.28,0,0,6.717,0,13.333c0,9.941,13.132,18.169,13.691,18.571C13.78,31.968,13.891,32,14,32     c0.107,0,0.217-0.031,0.305-0.094C14.864,31.511,28,23.45,28,13.333C28,6.717,21.72,0,14,0z M23.5,12.057     c0,0.863-0.567,1.661-1.325,1.942l-1.025,5.889c-0.015,0.976-0.889,1.831-1.94,1.831H8.744c-1.052,0-1.925-0.855-1.947-1.906     l-1.024-5.828C5.036,13.691,4.5,12.91,4.5,12.057V11.23c0-1.074,0.874-1.948,1.948-1.948H8.75l1.396-2.247     c0.4-0.698,1.417-0.978,2.145-0.555c0.755,0.435,1.015,1.403,0.58,2.159l-0.41,0.642h2.662l-0.39-0.61     c-0.227-0.391-0.284-0.823-0.174-1.235c0.109-0.406,0.37-0.745,0.734-0.955c0.716-0.417,1.739-0.148,2.159,0.579l1.381,2.223     h2.718c1.074,0,1.948,0.874,1.948,1.948V12.057z"
   id="path12"
   style="fill:#0b8c61;fill-opacity:1" />
		</g>
	</g>
</g>
</svg>