<?xml version="1.0" encoding="UTF-8" standalone="no"?>
<!-- Generator: Adobe Illustrator 17.1.0, SVG Export Plug-In . SVG Version: 6.00 Build 0)  -->

<svg
   xmlns:ns="&amp;ns_sfw;"
   xmlns:dc="http://purl.org/dc/elements/1.1/"
   xmlns:cc="http://creativecommons.org/ns#"
   xmlns:rdf="http://www.w3.org/1999/02/22-rdf-syntax-ns#"
   xmlns:svg="http://www.w3.org/2000/svg"
   xmlns="http://www.w3.org/2000/svg"
   xmlns:sodipodi="http://sodipodi.sourceforge.net/DTD/sodipodi-0.dtd"
   xmlns:inkscape="http://www.inkscape.org/namespaces/inkscape"
   version="1.1"
   id="Layer_1"
   x="0px"
   y="0px"
   width="28px"
   height="33px"
   viewBox="0 0 28 33"
   enable-background="new 0 0 28 33"
   xml:space="preserve"
   sodipodi:docname="green_producer.svg"
   inkscape:version="0.92.3 (2405546, 2018-03-11)"><defs
   id="defs29" /><sodipodi:namedview
   pagecolor="#ffffff"
   bordercolor="#666666"
   borderopacity="1"
   objecttolerance="10"
   gridtolerance="10"
   guidetolerance="10"
   inkscape:pageopacity="0"
   inkscape:pageshadow="2"
   inkscape:window-width="1803"
   inkscape:window-height="857"
   id="namedview27"
   showgrid="false"
   inkscape:zoom="17.609546"
   inkscape:cx="3.0055332"
   inkscape:cy="16.5"
   inkscape:window-x="0"
   inkscape:window-y="0"
   inkscape:window-maximized="0"
   inkscape:current-layer="g20" />
<metadata
   id="metadata2">
	<ns:sfw>
		<ns:slices />
		<ns:sliceSourceBounds
   height="96"
   width="16383"
   y="-85.5"
   x="-8112"
   bottomLeftOrigin="true" />
	</ns:sfw>
<rdf:RDF><cc:Work
     rdf:about=""><dc:format>image/svg+xml</dc:format><dc:type
       rdf:resource="http://purl.org/dc/dcmitype/StillImage" /><dc:title></dc:title></cc:Work></rdf:RDF></metadata>
<g
   id="g24">
	<path
   opacity="0.25"
   fill="#282828"
   d="M14,25c-6.059,0-10.988,1.679-10.988,3.333c0,2.485,10.307,4.542,10.746,4.643   C13.828,32.992,13.914,33,14,33c0.084,0,0.17-0.008,0.239-0.023c0.439-0.099,10.749-2.114,10.749-4.643   C24.988,26.679,20.059,25,14,25z"
   id="path4" />
	<g
   id="g22">
		<path
   fill="#FFFFFF"
   d="M14,0C6.28,0,0,6.717,0,13.332c0,9.941,13.132,18.169,13.691,18.572C13.78,31.968,13.891,32,14,32    c0.107,0,0.217-0.031,0.305-0.094C14.864,31.511,28,23.45,28,13.332C28,6.717,21.72,0,14,0z"
   id="path6" />
		<g
   id="g20">
			<path
   fill="#C1122B"
   d="M9.46,8.846L9.458,9.319l-0.003,2.397c1.098-0.034,2.3-0.052,3.438-0.052c0.201,0,0.401,0.001,0.6,0.002     l-0.935-2.824L9.46,8.846z"
   id="path8"
   style="fill:#0b8c61;fill-opacity:1" />
			<circle
   fill="#C1122B"
   cx="8.728"
   cy="17.454"
   r="1.569"
   id="circle10"
   style="fill:#0b8c61;fill-opacity:1" />
			<path
   fill="#C1122B"
   d="M12.395,17.13c-0.015-0.107-0.027-0.199-0.037-0.282c-0.047-0.382-0.165-0.741-0.325-1.075     c-0.049-0.096-0.097-0.193-0.155-0.285c-0.038-0.063-0.078-0.124-0.119-0.184c-0.514-0.723-1.278-1.251-2.166-1.464     c-0.202-0.04-0.409-0.061-0.619-0.061c-0.295,0-0.592,0.041-0.881,0.122c-0.276,0.077-0.487,0.112-0.685,0.112     c-0.027,0-0.048-0.008-0.074-0.009C5.969,14.557,5,15.892,5,17.455c0,2.055,1.672,3.727,3.728,3.727     c2.035,0,3.689-1.642,3.719-3.671l-0.041-0.296L12.395,17.13z M8.728,19.523c-1.142,0-2.07-0.928-2.07-2.069     s0.928-2.07,2.07-2.07c1.141,0,2.069,0.929,2.069,2.07S9.869,19.523,8.728,19.523z"
   id="path12"
   style="fill:#0b8c61;fill-opacity:1" />
			<circle
   fill="#C1122B"
   cx="20.826"
   cy="19.013"
   r="1.006"
   id="circle14"
   style="fill:#0b8c61;fill-opacity:1" />
			<path
   fill="#C1122B"
   d="M22.72,15.398c0.13-0.696,0.212-1.403,0.271-2.108c0.055-0.659-0.112-0.814-0.758-0.839     c-0.961-0.034-1.848-0.071-2.808-0.109c-0.029-0.001-0.077-0.022-0.077-0.06c0-0.724,0.037-2.484,0.037-2.484     S19.196,9.66,18.931,9.66c-0.116,0-0.247,0.026-0.383,0.103c0,0.821,0,1.654,0,2.527c0,0-1.172-0.031-2.844-0.065     c-0.074-0.002-0.281-0.128-0.378-0.392c-0.251-0.694-0.8-2.045-1.52-4.126c0,0-0.373-0.888-1.316-0.888c-0.781,0-4.679,0-4.679,0     v5.199c0,0-0.353,0.148-0.649,0.178c-0.078,0.472-0.067,0.711,0.115,0.784c0.46-0.15,0.942-0.252,1.451-0.252     c0.389,0,0.761,0.061,1.122,0.149c1.119,0.237,2.101,0.923,2.748,1.879c0.034,0.048,0.064,0.097,0.096,0.147     c0.094,0.151,0.179,0.306,0.255,0.47c0.083,0.167,0.154,0.338,0.217,0.515c0.004,0.012,0.008,0.024,0.011,0.037     c0.127,0.368,0.206,0.754,0.238,1.156c0.101,0.014,0.196,0.036,0.289,0.036c0.007,0,0.013,0,0.02,0     c2.176-0.056,4.355-0.06,6.529-0.169c-0.906,0.251-1.575,1.082-1.575,2.067c0,1.184,0.962,2.147,2.148,2.147     c1.184,0,2.147-0.963,2.147-2.147c0-1.071-0.79-1.958-1.816-2.119C22.761,16.794,22.451,16.842,22.72,15.398z M12.893,12.163     c-1.343,0-2.729,0.025-3.938,0.069l0.003-2.916l0.004-0.97l3.957-0.006l1.263,3.813l0.045,0.018     C13.793,12.166,13.345,12.163,12.893,12.163z M22.082,19.013c0,0.693-0.564,1.257-1.256,1.257c-0.692,0-1.256-0.564-1.256-1.257     c0-0.692,0.564-1.255,1.256-1.255C21.518,17.758,22.082,18.321,22.082,19.013z"
   id="path16"
   style="fill:#0b8c61;fill-opacity:1" />
			<path
   fill="#C1122B"
   d="M14,0C6.28,0,0,6.717,0,13.332c0,9.941,13.132,18.169,13.691,18.572C13.78,31.968,13.891,32,14,32     c0.107,0,0.217-0.031,0.305-0.094C14.864,31.511,28,23.45,28,13.332C28,6.717,21.72,0,14,0z M23.973,19.013     c0,1.735-1.412,3.147-3.147,3.147c-1.736,0-3.148-1.412-3.148-3.147c0-0.34,0.055-0.67,0.158-0.98     c-0.652,0.016-1.301,0.027-1.94,0.039c-0.716,0.013-1.431,0.025-2.137,0.043l-0.037,0.001h-0.018     c-0.102,0-0.208-0.014-0.315-0.03c-0.312,2.306-2.272,4.096-4.661,4.096C6.121,22.181,4,20.061,4,17.455     c0-1.725,0.939-3.222,2.323-4.047c-0.278-0.463-0.209-1.002-0.148-1.375L6.3,11.276l0.511-0.051V6.819v-1h1h4.679     c1.269,0,2.003,0.943,2.238,1.5l0.012,0.03l0.011,0.03c0.497,1.435,0.905,2.503,1.203,3.283c0.083,0.217,0.156,0.408,0.217,0.572     c0.531,0.011,0.998,0.022,1.376,0.031V9.763V9.177l0.512-0.286c0.273-0.153,0.566-0.23,0.872-0.23     c0.55,0,0.938,0.254,1.044,0.332l0.419,0.307l-0.011,0.52c0,0.001-0.017,0.815-0.028,1.56c0.635,0.025,1.257,0.05,1.916,0.073     c0.277,0.011,0.925,0.036,1.358,0.525c0.384,0.434,0.393,0.974,0.358,1.396c-0.07,0.848-0.161,1.55-0.284,2.208     c-0.04,0.216-0.066,0.397-0.089,0.547c-0.062,0.425-0.158,0.742-0.292,0.981C23.731,17.644,23.973,18.308,23.973,19.013z"
   id="path18"
   style="fill:#0b8c61;fill-opacity:1" />
		</g>
	</g>
</g>
</svg>