<?xml version="1.0" encoding="utf-8"?>
<!-- Generator: Adobe Illustrator 17.1.0, SVG Export Plug-In . SVG Version: 6.00 Build 0)  -->
<!DOCTYPE svg PUBLIC "-//W3C//DTD SVG 1.1//EN" "http://www.w3.org/Graphics/SVG/1.1/DTD/svg11.dtd" [
	<!ENTITY ns_extend "http://ns.adobe.com/Extensibility/1.0/">
	<!ENTITY ns_ai "http://ns.adobe.com/AdobeIllustrator/10.0/">
	<!ENTITY ns_graphs "http://ns.adobe.com/Graphs/1.0/">
	<!ENTITY ns_vars "http://ns.adobe.com/Variables/1.0/">
	<!ENTITY ns_imrep "http://ns.adobe.com/ImageReplacement/1.0/">
	<!ENTITY ns_sfw "http://ns.adobe.com/SaveForWeb/1.0/">
	<!ENTITY ns_custom "http://ns.adobe.com/GenericCustomNamespace/1.0/">
	<!ENTITY ns_adobe_xpath "http://ns.adobe.com/XPath/1.0/">
]>
<svg version="1.1" id="Layer_1" xmlns:x="&ns_extend;" xmlns:i="&ns_ai;" xmlns:graph="&ns_graphs;"
	 xmlns="http://www.w3.org/2000/svg" xmlns:xlink="http://www.w3.org/1999/xlink" x="0px" y="0px" width="35px" height="40px"
	 viewBox="0 0 35 40" enable-background="new 0 0 35 40" xml:space="preserve">
<metadata>
	<sfw  xmlns="&ns_sfw;">
		<slices></slices>
		<sliceSourceBounds  width="16383" height="103" y="-88.5" x="-8112" bottomLeftOrigin="true"></sliceSourceBounds>
	</sfw>
</metadata>
<g>
	<path fill="#FFFFFF" d="M17.5,0C7.85,0,0,8.396,0,16.666C0,29.092,16.415,39.377,17.114,39.88C17.225,39.96,17.363,40,17.5,40
		c0.134,0,0.271-0.039,0.381-0.117C18.58,39.389,35,29.313,35,16.666C35,8.396,27.15,0,17.5,0z"/>
	<g>
		<path fill="#C1122B" d="M11.824,11.058l-0.002,0.59l-0.003,2.996c1.373-0.042,2.874-0.065,4.297-0.065
			c0.251,0,0.502,0.001,0.75,0.002l-1.169-3.53L11.824,11.058z"/>
		<circle fill="#C1122B" cx="10.91" cy="21.818" r="1.962"/>
		<path fill="#C1122B" d="M15.494,21.413c-0.018-0.133-0.034-0.249-0.046-0.353c-0.058-0.477-0.206-0.926-0.406-1.344
			c-0.061-0.121-0.122-0.242-0.193-0.356c-0.047-0.079-0.098-0.155-0.149-0.23c-0.643-0.904-1.597-1.564-2.707-1.83
			c-0.252-0.05-0.511-0.076-0.774-0.076c-0.369,0-0.739,0.051-1.101,0.153c-0.345,0.097-0.609,0.14-0.856,0.14
			c-0.034,0-0.059-0.01-0.092-0.012c-1.708,0.692-2.919,2.361-2.919,4.314c0,2.569,2.09,4.658,4.66,4.658
			c2.544,0,4.611-2.053,4.649-4.589l-0.051-0.37L15.494,21.413z M10.91,24.404c-1.427,0-2.587-1.16-2.587-2.586
			s1.16-2.587,2.587-2.587c1.426,0,2.587,1.161,2.587,2.587S12.336,24.404,10.91,24.404z"/>
		<circle fill="#C1122B" cx="26.032" cy="23.767" r="1.258"/>
		<path fill="#C1122B" d="M28.399,19.248c0.163-0.87,0.265-1.754,0.338-2.635c0.069-0.824-0.14-1.017-0.947-1.049
			c-1.201-0.043-2.309-0.088-3.511-0.136c-0.037-0.001-0.096-0.027-0.096-0.075c0-0.905,0.046-3.106,0.046-3.106
			s-0.235-0.172-0.566-0.172c-0.145,0-0.309,0.033-0.479,0.128c0,1.026,0,2.067,0,3.158c0,0-1.465-0.039-3.555-0.082
			c-0.093-0.002-0.351-0.16-0.472-0.49c-0.314-0.867-1-2.557-1.901-5.157c0,0-0.466-1.11-1.645-1.11c-0.976,0-5.849,0-5.849,0v6.499
			c0,0-0.441,0.185-0.811,0.222c-0.097,0.59-0.083,0.889,0.143,0.98c0.575-0.187,1.177-0.314,1.814-0.314
			c0.486,0,0.951,0.076,1.403,0.187c1.399,0.297,2.627,1.154,3.435,2.349c0.042,0.06,0.08,0.122,0.12,0.184
			c0.117,0.189,0.224,0.383,0.319,0.587c0.103,0.209,0.192,0.422,0.271,0.644c0.005,0.015,0.009,0.03,0.014,0.046
			c0.159,0.46,0.258,0.942,0.298,1.444c0.126,0.017,0.245,0.045,0.361,0.045c0.008,0,0.016,0,0.025,0
			c2.72-0.07,5.444-0.075,8.161-0.211c-1.133,0.314-1.969,1.352-1.969,2.583c0,1.481,1.203,2.684,2.685,2.684
			c1.48,0,2.684-1.203,2.684-2.684c0-1.338-0.988-2.448-2.27-2.648C28.451,20.992,28.063,21.053,28.399,19.248z M16.116,15.204
			c-1.679,0-3.412,0.031-4.923,0.086l0.004-3.644l0.005-1.212l4.946-0.008l1.579,4.767l0.056,0.023
			C17.241,15.208,16.682,15.204,16.116,15.204z M27.602,23.767c0,0.867-0.705,1.572-1.57,1.572c-0.865,0-1.57-0.705-1.57-1.572
			c0-0.865,0.705-1.569,1.57-1.569C26.897,22.197,27.602,22.902,27.602,23.767z"/>
		<path fill="#C1122B" d="M17.5,0C7.85,0,0,8.396,0,16.666C0,29.092,16.415,39.377,17.114,39.88C17.225,39.96,17.363,40,17.5,40
			c0.134,0,0.271-0.039,0.381-0.117C18.58,39.389,35,29.313,35,16.666C35,8.396,27.15,0,17.5,0z M29.966,23.767
			c0,2.169-1.765,3.934-3.934,3.934c-2.17,0-3.935-1.765-3.935-3.934c0-0.424,0.069-0.837,0.198-1.226
			c-0.816,0.02-1.626,0.034-2.425,0.048c-0.895,0.016-1.789,0.032-2.671,0.054l-0.046,0.001h-0.022
			c-0.128,0-0.259-0.018-0.393-0.038c-0.39,2.883-2.84,5.12-5.827,5.12c-3.259,0-5.91-2.651-5.91-5.908
			c0-2.156,1.174-4.027,2.904-5.059c-0.347-0.579-0.262-1.252-0.185-1.718l0.156-0.946l0.638-0.064V8.523v-1.25h1.25h5.849
			c1.586,0,2.504,1.179,2.797,1.876l0.016,0.037l0.013,0.038c0.621,1.794,1.131,3.129,1.504,4.103
			c0.104,0.271,0.195,0.51,0.272,0.715c0.664,0.014,1.248,0.028,1.721,0.039v-1.877v-0.733l0.64-0.358
			c0.341-0.191,0.708-0.288,1.09-0.288c0.687,0,1.173,0.317,1.306,0.415l0.524,0.384l-0.014,0.65c0,0.001-0.021,1.019-0.035,1.95
			c0.793,0.032,1.571,0.062,2.394,0.092c0.346,0.013,1.156,0.045,1.697,0.656c0.48,0.542,0.491,1.217,0.447,1.745
			c-0.088,1.06-0.201,1.937-0.355,2.76c-0.05,0.27-0.083,0.496-0.111,0.684c-0.078,0.531-0.197,0.928-0.365,1.226
			C29.664,22.055,29.966,22.885,29.966,23.767z"/>
	</g>
</g>
</svg>
