<?xml version="1.0" encoding="utf-8"?>
<!-- Generator: Adobe Illustrator 17.1.0, SVG Export Plug-In . SVG Version: 6.00 Build 0)  -->
<!DOCTYPE svg PUBLIC "-//W3C//DTD SVG 1.1//EN" "http://www.w3.org/Graphics/SVG/1.1/DTD/svg11.dtd" [
	<!ENTITY ns_extend "http://ns.adobe.com/Extensibility/1.0/">
	<!ENTITY ns_ai "http://ns.adobe.com/AdobeIllustrator/10.0/">
	<!ENTITY ns_graphs "http://ns.adobe.com/Graphs/1.0/">
	<!ENTITY ns_vars "http://ns.adobe.com/Variables/1.0/">
	<!ENTITY ns_imrep "http://ns.adobe.com/ImageReplacement/1.0/">
	<!ENTITY ns_sfw "http://ns.adobe.com/SaveForWeb/1.0/">
	<!ENTITY ns_custom "http://ns.adobe.com/GenericCustomNamespace/1.0/">
	<!ENTITY ns_adobe_xpath "http://ns.adobe.com/XPath/1.0/">
]>
<svg version="1.1" id="Layer_1" xmlns:x="&ns_extend;" xmlns:i="&ns_ai;" xmlns:graph="&ns_graphs;"
	 xmlns="http://www.w3.org/2000/svg" xmlns:xlink="http://www.w3.org/1999/xlink" x="0px" y="0px" width="35px" height="40px"
	 viewBox="0 0 35 40" enable-background="new 0 0 35 40" xml:space="preserve">
<metadata>
	<sfw  xmlns="&ns_sfw;">
		<slices></slices>
		<sliceSourceBounds  width="16383" height="103" y="-88.5" x="-8112" bottomLeftOrigin="true"></sliceSourceBounds>
	</sfw>
</metadata>
<g>
	<path fill="#FFFFFF" d="M17.5,0C7.85,0,0,8.396,0,16.666C0,29.092,16.415,39.377,17.114,39.88C17.225,39.96,17.363,40,17.5,40
		c0.134,0,0.271-0.039,0.381-0.117C18.58,39.389,35,29.313,35,16.666C35,8.396,27.15,0,17.5,0z"/>
	<g>
		<path fill="#C1122B" d="M17.5,0C7.85,0,0,8.396,0,16.666C0,29.092,16.415,39.377,17.114,39.88C17.225,39.96,17.363,40,17.5,40
			c0.134,0,0.271-0.039,0.381-0.117C18.58,39.389,35,29.313,35,16.666C35,8.396,27.15,0,17.5,0z M17.503,38.635
			C13.582,36.007,1.25,26.916,1.25,16.666C1.25,9.389,8.199,1.25,17.5,1.25s16.25,8.139,16.25,15.416
			C33.75,27.103,21.425,36.054,17.503,38.635z"/>
		<path fill="#C1122B" d="M17.499,9.745c-2.067,0-3.749,1.68-3.749,3.748c0,2.07,1.682,3.753,3.749,3.753
			c2.068,0,3.751-1.684,3.751-3.753C21.25,11.426,19.568,9.745,17.499,9.745z M17.499,16.309c-1.551,0-2.812-1.263-2.812-2.816
			c0-1.55,1.261-2.811,2.812-2.811c1.551,0,2.813,1.261,2.813,2.811C20.312,15.046,19.051,16.309,17.499,16.309z"/>
		<path fill="#C1122B" d="M17.499,6.685c-3.755,0-6.81,3.055-6.81,6.81c0,2.549,2.32,7.188,4.471,10.95
			c-2.641,0.454-4.331,1.63-4.331,3.078c0,2.162,3.356,3.293,6.671,3.293c3.313,0,6.668-1.13,6.671-3.29
			c0-1.45-1.69-2.626-4.332-3.079c2.149-3.765,4.472-8.407,4.472-10.952C24.31,9.74,21.254,6.685,17.499,6.685z M22.538,27.523
			c0,0.564-1.779,1.662-5.039,1.662c-1.557,0-2.965-0.255-3.965-0.718c-0.738-0.342-1.074-0.728-1.074-0.943
			c0-0.337,0.935-1.147,3.096-1.494l0.476-0.076c0.032,0.053,0.066,0.11,0.098,0.165c0.056,0.094,0.115,0.191,0.167,0.281
			c0.129,0.213,0.239,0.391,0.342,0.561c0.033,0.052,0.068,0.112,0.099,0.159c0.112,0.184,0.198,0.323,0.265,0.431
			c0.007,0.008,0.017,0.026,0.024,0.037c0.066,0.107,0.106,0.167,0.106,0.167l0.366,0.578l0.369-0.578c0,0,0.034-0.055,0.1-0.157
			c0.015-0.024,0.037-0.061,0.056-0.091c0.065-0.102,0.141-0.224,0.242-0.391c0.024-0.037,0.05-0.082,0.076-0.12
			c0.108-0.179,0.227-0.373,0.366-0.603c0.046-0.078,0.101-0.17,0.151-0.255c0.036-0.06,0.075-0.126,0.11-0.185l0.475,0.076
			C21.604,26.376,22.538,27.186,22.538,27.523z M18.559,24.171l-0.495,0.86l-0.236,0.396l-0.041,0.067l-0.111,0.188l-0.045,0.075
			l-0.13,0.215l-0.135-0.222l-0.107-0.18l-0.054-0.09l-0.112-0.188l-0.168-0.283l-0.483-0.837
			c-3.917-6.787-4.502-9.603-4.502-10.677c0-3.066,2.494-5.56,5.56-5.56c3.066,0,5.561,2.494,5.562,5.559
			C23.061,14.563,22.476,17.372,18.559,24.171z"/>
	</g>
</g>
</svg>
