<?xml version="1.0" encoding="utf-8"?>
<!-- Generator: Adobe Illustrator 17.1.0, SVG Export Plug-In . SVG Version: 6.00 Build 0)  -->
<!DOCTYPE svg PUBLIC "-//W3C//DTD SVG 1.1//EN" "http://www.w3.org/Graphics/SVG/1.1/DTD/svg11.dtd" [
	<!ENTITY ns_extend "http://ns.adobe.com/Extensibility/1.0/">
	<!ENTITY ns_ai "http://ns.adobe.com/AdobeIllustrator/10.0/">
	<!ENTITY ns_graphs "http://ns.adobe.com/Graphs/1.0/">
	<!ENTITY ns_vars "http://ns.adobe.com/Variables/1.0/">
	<!ENTITY ns_imrep "http://ns.adobe.com/ImageReplacement/1.0/">
	<!ENTITY ns_sfw "http://ns.adobe.com/SaveForWeb/1.0/">
	<!ENTITY ns_custom "http://ns.adobe.com/GenericCustomNamespace/1.0/">
	<!ENTITY ns_adobe_xpath "http://ns.adobe.com/XPath/1.0/">
]>
<svg version="1.1" id="Layer_1" xmlns:x="&ns_extend;" xmlns:i="&ns_ai;" xmlns:graph="&ns_graphs;"
	 xmlns="http://www.w3.org/2000/svg" xmlns:xlink="http://www.w3.org/1999/xlink" x="0px" y="0px" width="35px" height="40px"
	 viewBox="0 0 35 40" enable-background="new 0 0 35 40" xml:space="preserve">
<metadata>
	<sfw  xmlns="&ns_sfw;">
		<slices></slices>
		<sliceSourceBounds  width="16383" height="103" y="-88.5" x="-8112" bottomLeftOrigin="true"></sliceSourceBounds>
	</sfw>
</metadata>
<g>
	<path fill="#FFFFFF" d="M17.5,0C7.85,0,0,8.396,0,16.666C0,29.092,16.415,39.377,17.114,39.88C17.225,39.96,17.363,40,17.5,40
		c0.134,0,0.271-0.039,0.381-0.117C18.58,39.389,35,29.313,35,16.666C35,8.396,27.15,0,17.5,0z"/>
	<g>
		<path fill="#0B8C61" d="M17.5,0C7.85,0,0,8.396,0,16.666C0,29.092,16.415,39.377,17.114,39.88C17.225,39.96,17.363,40,17.5,40
			c0.134,0,0.271-0.039,0.381-0.117C18.58,39.389,35,29.313,35,16.666C35,8.396,27.15,0,17.5,0z M17.503,38.635
			C13.582,36.007,1.25,26.916,1.25,16.666C1.25,9.389,8.199,1.25,17.5,1.25c9.301,0,16.25,8.139,16.25,15.416
			C33.75,27.102,21.425,36.054,17.503,38.635z"/>
		<path fill="#0B8C61" d="M29.628,19.477c0.154-0.823,0.267-1.7,0.355-2.76c0.044-0.528,0.033-1.203-0.447-1.745
			c-0.541-0.611-1.351-0.643-1.697-0.656c-0.824-0.029-1.601-0.06-2.394-0.092c0.014-0.931,0.035-1.95,0.035-1.95l0.014-0.65
			l-0.524-0.384c-0.133-0.097-0.619-0.415-1.306-0.415c-0.382,0-0.749,0.097-1.09,0.288l-0.64,0.358v0.733v1.877
			c-0.472-0.011-1.057-0.024-1.721-0.039c-0.077-0.205-0.168-0.444-0.272-0.715c-0.372-0.974-0.882-2.309-1.504-4.103l-0.013-0.038
			l-0.016-0.037c-0.293-0.697-1.211-1.876-2.797-1.876H9.763h-1.25v1.25v5.508l-0.638,0.064l-0.156,0.946
			c-0.077,0.466-0.162,1.139,0.185,1.718C6.174,17.791,5,19.662,5,21.818c0,3.258,2.651,5.908,5.91,5.908
			c2.987,0,5.437-2.237,5.827-5.12c0.134,0.02,0.265,0.038,0.393,0.038h0.022l0.047-0.001c0.882-0.023,1.777-0.038,2.671-0.054
			c0.799-0.014,1.61-0.029,2.425-0.048c-0.129,0.388-0.198,0.801-0.198,1.226c0,2.169,1.765,3.934,3.935,3.934
			c2.169,0,3.934-1.765,3.934-3.934c0-0.882-0.303-1.712-0.814-2.379c0.168-0.298,0.288-0.695,0.365-1.226
			C29.545,19.973,29.578,19.747,29.628,19.477z M10.91,26.477c-2.57,0-4.66-2.09-4.66-4.658c0-1.953,1.211-3.622,2.919-4.314
			c0.033,0.002,0.058,0.012,0.092,0.012c0.247,0,0.511-0.043,0.856-0.14c0.362-0.101,0.732-0.153,1.101-0.153
			c0.263,0,0.521,0.026,0.774,0.076c1.11,0.267,2.065,0.926,2.708,1.83c0.052,0.076,0.102,0.152,0.149,0.23
			c0.071,0.114,0.132,0.235,0.193,0.356c0.201,0.418,0.348,0.867,0.406,1.344c0.012,0.104,0.028,0.22,0.046,0.354l0.014,0.103
			l0.051,0.37C15.521,24.424,13.453,26.477,10.91,26.477z M28.717,23.767c0,1.481-1.204,2.684-2.684,2.684
			c-1.483,0-2.685-1.203-2.685-2.684c0-1.231,0.836-2.269,1.969-2.583c-2.718,0.136-5.442,0.141-8.161,0.211
			c-0.008,0-0.016,0-0.024,0c-0.115,0-0.235-0.027-0.361-0.045c-0.04-0.502-0.139-0.985-0.298-1.444
			c-0.005-0.015-0.009-0.03-0.014-0.046c-0.079-0.222-0.168-0.435-0.271-0.644c-0.095-0.204-0.201-0.397-0.319-0.586
			c-0.04-0.062-0.078-0.124-0.12-0.184c-0.808-1.195-2.035-2.052-3.435-2.349c-0.452-0.111-0.917-0.187-1.403-0.187
			c-0.637,0-1.239,0.127-1.814,0.314c-0.226-0.091-0.24-0.39-0.143-0.98c0.37-0.037,0.811-0.222,0.811-0.222V8.523
			c0,0,4.873,0,5.849,0c1.178,0,1.645,1.11,1.645,1.11c0.901,2.601,1.587,4.29,1.901,5.157c0.122,0.33,0.379,0.488,0.472,0.49
			c2.09,0.043,3.555,0.082,3.555,0.082c0-1.091,0-2.132,0-3.158c0.17-0.095,0.334-0.128,0.479-0.128
			c0.331,0,0.566,0.172,0.566,0.172s-0.046,2.201-0.046,3.106c0,0.048,0.06,0.074,0.096,0.075c1.201,0.048,2.309,0.094,3.511,0.136
			c0.807,0.031,1.016,0.224,0.947,1.049c-0.073,0.881-0.175,1.765-0.338,2.635c-0.336,1.804,0.052,1.744-1.953,1.87
			C27.728,21.319,28.717,22.428,28.717,23.767z"/>
		<path fill="#0B8C61" d="M24.462,23.767c0,0.867,0.705,1.572,1.57,1.572c0.865,0,1.57-0.705,1.57-1.572
			c0-0.865-0.705-1.569-1.57-1.569C25.168,22.197,24.462,22.902,24.462,23.767z M27.29,23.767c0,0.694-0.564,1.259-1.258,1.259
			c-0.693,0-1.257-0.565-1.257-1.259c0-0.693,0.564-1.257,1.257-1.257C26.726,22.51,27.29,23.074,27.29,23.767z"/>
		<path fill="#0B8C61" d="M16.148,10.426l-4.946,0.008l-0.005,1.212l-0.004,3.644c1.512-0.055,3.244-0.086,4.923-0.086
			c0.565,0,1.124,0.004,1.667,0.011l-0.056-0.023L16.148,10.426z M16.117,14.579c-1.423,0-2.924,0.023-4.297,0.065l0.003-2.996
			l0.002-0.59l3.873-0.006l1.169,3.53C16.618,14.58,16.368,14.579,16.117,14.579z"/>
		<path fill="#0B8C61" d="M10.91,19.231c-1.427,0-2.587,1.161-2.587,2.587s1.16,2.586,2.587,2.586c1.426,0,2.587-1.16,2.587-2.586
			S12.336,19.231,10.91,19.231z M10.91,23.779c-1.082,0-1.962-0.88-1.962-1.961c0-1.082,0.88-1.962,1.962-1.962
			c1.082,0,1.962,0.88,1.962,1.962C12.871,22.9,11.991,23.779,10.91,23.779z"/>
	</g>
</g>
</svg>
