<svg xmlns="http://www.w3.org/2000/svg" viewBox="0 0 300 300.8" enable-background="new 0 0 300 300.8"><path fill="#808285" d="M150 300.8c-78.3 0-144.2-61.1-150-139.1-.2-2.3 1.5-4.3 3.8-4.4 2.3-.2 4.3 1.5 4.4 3.8C13.7 234.8 76 292.6 150 292.6c74 0 136.3-57.7 141.8-131.4.2-2.3 2.1-4 4.4-3.8 2.3.2 4 2.1 3.8 4.4-5.8 77.9-71.7 139-150 139zm145.9-157.3c-2.1 0-4-1.7-4.1-3.8C286.3 66 224 8.3 150 8.3 76 8.3 13.7 66 8.2 139.7c-.2 2.3-2.1 4-4.4 3.8-2.3-.2-4-2.2-3.8-4.4C5.8 61.1 71.7 0 150 0s144.2 61.1 150 139.1c.2 2.3-1.5 4.3-3.8 4.4h-.3z"/></svg>