<?xml version="1.0" encoding="UTF-8" standalone="no"?>
<svg
   xmlns:dc="http://purl.org/dc/elements/1.1/"
   xmlns:cc="http://creativecommons.org/ns#"
   xmlns:rdf="http://www.w3.org/1999/02/22-rdf-syntax-ns#"
   xmlns:svg="http://www.w3.org/2000/svg"
   xmlns="http://www.w3.org/2000/svg"
   xmlns:sodipodi="http://sodipodi.sourceforge.net/DTD/sodipodi-0.dtd"
   xmlns:inkscape="http://www.inkscape.org/namespaces/inkscape"
   viewBox="0 0 300 104"
   enable-background="new 0 0 300 104"
   id="svg2"
   version="1.1"
   inkscape:version="0.48.3.1 r9886"
   sodipodi:docname="logo-black.svg"
   width="100%"
   height="100%">
  <metadata
     id="metadata24">
    <rdf:RDF>
      <cc:Work
         rdf:about="">
        <dc:format>image/svg+xml</dc:format>
        <dc:type
           rdf:resource="http://purl.org/dc/dcmitype/StillImage" />
        <dc:title></dc:title>
      </cc:Work>
    </rdf:RDF>
  </metadata>
  <defs
     id="defs22" />
  <sodipodi:namedview
     pagecolor="#ffffff"
     bordercolor="#666666"
     borderopacity="1"
     objecttolerance="10"
     gridtolerance="10"
     guidetolerance="10"
     inkscape:pageopacity="0"
     inkscape:pageshadow="2"
     inkscape:window-width="1280"
     inkscape:window-height="741"
     id="namedview20"
     showgrid="false"
     inkscape:zoom="1.8101934"
     inkscape:cx="126.57728"
     inkscape:cy="62.030566"
     inkscape:window-x="0"
     inkscape:window-y="27"
     inkscape:window-maximized="1"
     inkscape:current-layer="g4" />
  <g
     id="g4"
     fill="#fff">
    <path
       d="M142.7 15.6c.4 3.2.4 7.5 0 10.7-.5 4.6-3.8 8.4-9.1 8.4s-8.5-3.8-9.1-8.4c-.4-3.2-.4-7.5 0-10.7.5-4.6 3.8-8.4 9.1-8.4s8.6 3.8 9.1 8.4m-5.3 10.7c.4-3.2.4-7.5 0-10.7-.2-1.7-1.4-3-3.7-3-2.3 0-3.5 1.4-3.7 3-.4 3.2-.4 7.5 0 10.7.2 1.7 1.4 3 3.7 3 2.3 0 3.5-1.3 3.7-3"
       id="path6"
       style="fill:#000000" />
    <path
       d="M156.4 7.6c4.4 0 8 3.6 8 8s-3.6 8-8 8H153c-.2 0-.4.2-.4.4v9.5c0 .4-.3.8-.8.8H148c-.4 0-.8-.3-.8-.8V8.4c0-.4.3-.8.8-.8h8.4zm-3.5 5.3c-.2 0-.4.2-.4.4v4.6c0 .2.2.4.4.4h3.4c1.4 0 2.7-1.2 2.7-2.7 0-1.4-1.2-2.7-2.7-2.7h-3.4zM172.9 28.6c0 .2.2.4.4.4h9c.4 0 .8.3.8.8v3.8c0 .4-.3.8-.8.8h-14c-.4 0-.8-.3-.8-.8V8.4c0-.4.3-.8.8-.8h13.8c.4 0 .8.3.8.8v3.8c0 .4-.3.8-.8.8h-8.9c-.2 0-.4.2-.4.4V18c0 .2.2.4.4.4h8.6c.4 0 .8.3.8.8V23c0 .4-.3.8-.8.8h-8.6c-.2 0-.4.2-.4.4v4.4zM199.4 34.3c-.6 0-.9-.3-1-.6l-5.2-13.4c-.1-.2-.3-.2-.3.1v13.2c0 .4-.3.8-.8.8h-3.8c-.4 0-.8-.3-.8-.8V8.4c0-.4.3-.8.8-.8h4.5c.6 0 .8.3 1 .7l5.2 14.5c.1.2.3.2.3-.1V8.4c0-.4.3-.8.8-.8h3.8c.4 0 .8.3.8.8v25.1c0 .4-.3.8-.8.8h-4.5zM224.4 24v9.5c0 .4-.3.8-.8.8h-3.8c-.4 0-.8-.3-.8-.8V8.4c0-.4.3-.8.8-.8h13.3c.4 0 .8.3.8.8v3.8c0 .4-.3.8-.8.8h-8.4c-.2 0-.4.2-.4.4V18c0 .2.2.4.4.4h8c.4 0 .8.3.8.8V23c0 .4-.3.8-.8.8h-8c-.1-.2-.3 0-.3.2M255.6 15.6c.4 3.2.4 7.5 0 10.7-.5 4.6-3.8 8.4-9.1 8.4s-8.5-3.8-9.1-8.4c-.4-3.2-.4-7.5 0-10.7.5-4.6 3.8-8.4 9.1-8.4s8.6 3.8 9.1 8.4m-5.3 10.7c.4-3.2.4-7.5 0-10.7-.2-1.7-1.4-3-3.7-3-2.3 0-3.5 1.4-3.7 3-.4 3.2-.4 7.5 0 10.7.2 1.7 1.4 3 3.7 3 2.3 0 3.5-1.3 3.7-3M278 15.6c.4 3.2.4 7.5 0 10.7-.5 4.6-3.8 8.4-9.1 8.4s-8.5-3.8-9.1-8.4c-.4-3.2-.4-7.5 0-10.7.5-4.6 3.8-8.4 9.1-8.4s8.5 3.8 9.1 8.4m-5.4 10.7c.4-3.2.4-7.5 0-10.7-.2-1.7-1.4-3-3.7-3-2.3 0-3.5 1.4-3.7 3-.4 3.2-.4 7.5 0 10.7.2 1.7 1.4 3 3.7 3 2.3 0 3.5-1.3 3.7-3"
       id="path8"
       style="fill:#000000" />
    <path
       d="M291.2 7.6c4.7 0 8 3.8 8.5 8.4.4 3.2.4 6.6 0 9.8-.5 4.6-3.8 8.4-8.5 8.4h-8c-.4 0-.8-.3-.8-.8v-25c0-.4.3-.8.8-.8h8zm-3 5.3c-.2 0-.4.2-.4.4v15.2c0 .2.2.4.4.4h3c1.8 0 2.9-1.4 3.1-3.1.4-3.2.4-6.6 0-9.8-.2-1.7-1.4-3.1-3.1-3.1h-3zM137.5 67.9c-.4 0-.6-.1-.8-.6l-9.1-20.8c-.1-.1-.3-.1-.3.1v20.6c0 .4-.3.7-.8.7h-.8c-.4 0-.8-.3-.8-.7V43.3c0-.4.3-.7.8-.7h2c.4 0 .6.1.8.6l9.1 20.6c.1.1.3.1.3-.1V43.3c0-.4.3-.7.8-.7h.8c.4 0 .8.3.8.7v23.9c0 .4-.3.7-.8.7h-2zM146.7 65.3c0 .2.2.4.4.4h9.9c.4 0 .8.3.8.7v.9c0 .4-.3.7-.8.7h-12c-.4 0-.8-.3-.8-.7v-24c0-.4.3-.7.8-.7h12c.4 0 .8.3.8.7v.9c0 .4-.3.7-.8.7h-9.9c-.2 0-.4.1-.4.4v8.2c0 .2.2.4.4.4h9.4c.4 0 .8.3.8.7v.8c0 .4-.3.7-.8.7h-9.4c-.2 0-.4.1-.4.4v8.8zM170 45.3v21.9c0 .4-.3.7-.8.7h-1c-.4 0-.8-.3-.8-.7V45.3c0-.2-.2-.4-.4-.4h-5.6c-.4 0-.8-.3-.8-.7v-.9c0-.4.3-.7.8-.7H176c.4 0 .8.3.8.7v.9c0 .4-.3.7-.8.7h-5.6c-.2 0-.4.2-.4.4M187 67.9h-2.1c-.3 0-.6-.2-.7-.5L179 43.3c-.1-.4.2-.7.8-.7h.9c.3 0 .6.1.7.5l4.3 20.7c0 .1.1.2.2.2h.1c.1 0 .2-.1.2-.2l4-20.7c.1-.4.4-.5.7-.5h1.3c.3 0 .6.2.7.5l4.3 20.7c0 .1.1.2.2.2h.1c.1 0 .2-.1.2-.2l4.6-20.7c.1-.4.4-.5.7-.5h.9c.6 0 .8.4.8.7l-5.5 24.1c-.1.4-.4.5-.7.5h-2.1c-.3 0-.6-.2-.7-.5l-4-19.3c0-.2-.3-.2-.3 0l-3.8 19.3c0 .4-.3.5-.6.5M223.9 49.8c.4 2.9.4 7.9 0 10.9-.6 4.7-3.9 7.5-8.5 7.5s-7.8-2.9-8.5-7.5c-.4-2.9-.4-8 0-10.9.6-3.9 3.5-7.5 8.5-7.5s7.9 3.6 8.5 7.5m-2.6 10.9c.5-3 .5-7.9 0-10.9-.4-2.6-2.3-5.2-5.9-5.2-3.6 0-5.5 2.6-5.9 5.2-.5 3-.5 7.9 0 10.9.3 2.1 1.8 5.2 5.9 5.2 4.1 0 5.6-3.1 5.9-5.2"
       id="path10"
       style="fill:#000000" />
    <path
       d="m 230.9,57.8 c -0.2,0 -0.4,0.1 -0.4,0.4 l 0,9 c 0,0.4 -0.3,0.7 -0.8,0.7 l -0.9,0 c -0.4,0 -0.8,-0.3 -0.8,-0.7 l 0,-23.9 c 0,-0.4 0.3,-0.7 0.8,-0.7 l 6.5,0 c 4.4,0 8,3.4 8,7.6 0,3.3 -1.8,5.2 -4.5,6.9 -0.5,0.3 -0.6,0.6 -0.3,1.2 l 4.8,8.6 c 0.3,0.5 0,1.1 -0.7,1.1 l -0.8,0 c -0.6,0 -0.9,-0.3 -1.1,-0.7 l -4.9,-9 c -0.1,-0.2 -0.3,-0.4 -0.7,-0.4 l -4.2,0 z m 0,-12.9 c -0.2,0 -0.4,0.1 -0.4,0.4 l 0,9.8 c 0,0.2 0.2,0.4 0.4,0.4 l 4.4,0 c 3,0 5.6,-2.4 5.6,-5.3 0,-2.9 -2.5,-5.3 -5.6,-5.3 z m 18.4,12.2 C 249.2,57 249,57 249,57.2 l 0,10 c 0,0.4 -0.3,0.7 -0.8,0.7 l -0.9,0 c -0.4,0 -0.8,-0.3 -0.8,-0.7 l 0,-23.9 c 0,-0.4 0.3,-0.7 0.8,-0.7 l 0.9,0 c 0.4,0 0.8,0.3 0.8,0.7 l 0,9.6 c 0,0.2 0.2,0.2 0.3,0.1 l 8.8,-10 c 0.1,-0.1 0.4,-0.4 1,-0.4 l 0.6,0 c 0.9,0 1.1,0.8 0.6,1.3 l -9.4,10.5 c -0.2,0.3 -0.3,0.5 0,0.9 L 261,66.6 c 0.4,0.5 0.3,1.3 -0.7,1.3 l -0.8,0 c -0.6,0 -0.8,-0.3 -1,-0.5 z"
       id="path12"
       style="fill:#000000"
       inkscape:connector-curvature="0"
       sodipodi:nodetypes="cssssssssscccssccsccsssssssscssssssssssccssccccsscc" />
    <path
       d="m 3,44.3 0.5,0 c 1.2,0 2.2,-0.9 2.4,-2 0.5,-2.4 1.1,-4.7 2,-7 6.6,-18.2 23.5,-30.4 42,-30.4 18.5,0 35.4,12.2 42,30.3 0.8,2.2 1.5,4.6 2,6.9 0.3,1.3 1.6,2.2 2.9,1.9 1.3,-0.3 2.2,-1.6 1.9,-2.9 C 98.2,38.5 97.4,36 96.5,33.5 89.2,13.5 70.5,0 49.9,0 29.3,0 10.6,13.5 3.3,33.6 2.4,36.1 1.7,38.7 1.1,41.3 l 0,0.2 L 3.5,42 1.1,41.5 C 0.8,42.8 1.7,44.1 3,44.3 M 99.8,53 C 99.9,52 99.4,51 98.4,50.5 95,48.9 90.7,47.4 85.9,46.3 84.4,45.9 82.8,45.6 81.2,45.3 77.9,44.7 74.3,44.1 70.5,43.7 69.8,36.3 66.6,30.9 61,27.1 54.7,22.9 46.9,22.7 40.1,26.5 33.5,30.1 29.3,36.6 29,43.8 17.9,45.2 8.2,47.6 1.4,50.9 1.3,50.9 1.3,51 1.2,51 1.1,51 1.1,51.1 1,51.1 l -0.1,0.1 c -0.1,0.1 -0.2,0.1 -0.2,0.2 -0.4,0.4 -0.6,1 -0.6,1.6 0,1.4 0.1,2.7 0.2,4.1 0,0.4 0.1,0.7 0.1,1.1 0.3,2.6 0.8,5.2 1.5,7.7 0.2,0.7 0.3,1.4 0.5,2 0.3,0.9 0.6,1.7 0.9,2.6 0.7,1.8 1.4,3.6 2.2,5.2 0.8,1.6 1.7,3.1 2.6,4.6 0.7,1.2 1.5,2.3 2.4,3.5 1,1.3 2,2.6 3.2,3.8 1.5,1.7 3.1,3.2 4.8,4.6 1.4,1.2 2.9,2.3 4.4,3.3 1.9,1.3 3.8,2.4 5.9,3.4 2,0.9 4,1.8 6.1,2.4 2.1,0.7 4.3,1.2 6.5,1.6 2.8,0.5 5.7,0.8 8.7,0.8 l 0.1,0 c 13.6,0 26.5,-5.9 35.8,-15.9 1.8,-1.9 3.4,-3.9 4.9,-6.1 0.2,-0.2 0.3,-0.5 0.5,-0.7 1.5,-2.4 2.9,-4.8 4,-7.4 0.9,-2 1.6,-4 2.2,-6 1.3,-4.5 2.1,-9.5 2.2,-14.6 0,0.1 0,0.1 0,0 M 85.7,51.3 c 3.3,0.8 6.3,1.8 8.9,2.9 -3.4,1.6 -6.7,2.9 -9.9,4.1 -1.9,0.7 -3.7,1.2 -5.5,1.7 -3.5,1 -7.1,1.6 -10.7,2 1.3,-4.4 2,-8.8 2.2,-13.4 3.6,0.4 7,1 10.2,1.6 1.7,0.4 3.3,0.7 4.8,1.1 m -13,23.1 C 69.5,74.8 66.2,75 63,75 c 1.5,-2.5 2.7,-5.2 3.8,-7.8 3.6,-0.2 7,-0.7 10.4,-1.5 -1.3,2.9 -2.8,5.8 -4.5,8.7 m -9.8,12.5 c -2.8,0 -5.6,-0.1 -8.4,-0.5 1.9,-2.1 3.7,-4.3 5.4,-6.5 1.2,0.1 2.5,0.1 3.7,0.1 1.8,0 3.7,-0.1 5.5,-0.2 -1.9,2.4 -4,4.8 -6.2,7.1 M 40.2,82.4 c 1.6,-1.7 3,-3.4 4.4,-5.2 3.2,0.9 6.4,1.6 9.5,2 -1.7,2.1 -3.5,4.1 -5.4,6 -2.8,-0.7 -5.6,-1.6 -8.5,-2.8 M 6.6,65 C 6.1,63.1 5.7,61.2 5.4,59.2 c 7.2,-1.8 16.6,-1.4 26.2,1.3 -0.9,2 -2,3.9 -3.2,5.8 C 19.3,64 11.6,64.2 6.6,65 m 50.7,9.7 c -3.2,-0.3 -6.5,-0.9 -9.8,-1.7 1.4,-2.2 2.6,-4.5 3.7,-6.9 3.5,0.6 6.8,1 10.1,1.1 -1.1,2.5 -2.4,5.1 -4,7.5 M 42.7,71.4 c -1.5,-0.5 -3,-1.1 -4.5,-1.8 -1.7,-0.7 -3.3,-1.3 -4.9,-1.9 1.1,-1.9 2.2,-3.8 3.1,-5.8 3.5,1.2 6.8,2.2 10,3 -1.1,2.3 -2.4,4.5 -3.7,6.5 M 30.5,72 c 1.8,0.6 3.8,1.3 5.7,2.2 1.2,0.5 2.3,1 3.5,1.4 -1.3,1.7 -2.8,3.3 -4.3,4.8 -3.1,-1.2 -6.2,-2.3 -9.3,-3 1.5,-1.8 3,-3.6 4.4,-5.4 m 12,-41.3 c 5.2,-2.9 11.1,-2.7 15.8,0.4 4.2,2.8 6.5,6.7 7.3,12 -5,-0.4 -10.2,-0.6 -15.5,-0.6 -5.5,0 -10.9,0.3 -16,0.7 0.4,-5.1 3.5,-9.8 8.4,-12.5 m 7.5,16.8 2.1,0 c 1,0 2,0 3.1,0.1 3.6,0.1 7.2,0.3 10.6,0.6 -0.2,4.8 -1,9.5 -2.5,14.1 -3.2,0 -6.5,-0.3 -10,-0.9 -1.6,-0.3 -3.2,-0.6 -4.9,-1 -3.2,-0.7 -6.6,-1.7 -10.2,-3 -0.1,0 -0.2,-0.1 -0.3,-0.1 C 36.4,56.8 35,56.3 33.5,55.9 23.9,53.1 14.6,52.4 6.8,53.9 17.1,49.8 32.9,47.5 50,47.5 M 8.2,69.7 c 4.2,-0.5 10.1,-0.7 17.2,0.9 -1.5,1.9 -3.2,3.8 -5,5.5 -3.3,-0.5 -6.5,-0.8 -9.6,-0.7 -1,-1.8 -1.9,-3.7 -2.6,-5.7 m 9.5,15.2 c -1.1,-1.2 -2.2,-2.4 -3.2,-3.8 -0.2,-0.3 -0.4,-0.5 -0.6,-0.8 0.5,0 1,0 1.5,0.1 2,0.2 4.2,0.4 6.5,0.9 2.8,0.6 6,1.5 9.3,2.7 -2.5,2.1 -5.3,4.1 -8.2,5.8 -1.8,-1.4 -3.6,-3.1 -5.3,-4.9 m 9.9,8 c 3.2,-2 6.1,-4.3 8.8,-6.8 2.7,1.2 5.3,2.2 8,2.9 -3,2.6 -6.3,5.1 -10,7.1 -2.4,-0.8 -4.7,-1.9 -6.8,-3.2 m 13.1,5.2 c 3.5,-2.3 6.6,-5 9.4,-7.5 2.7,0.5 5.3,0.9 7.9,1.1 -3.2,3 -6.3,5.4 -9.4,7.4 -2.6,-0.2 -5.3,-0.5 -7.9,-1 m 17.1,0.2 c 2.4,-1.9 4.7,-4.1 7.2,-6.6 3.6,-0.1 7.2,-0.6 10.8,-1.3 -5.3,4 -11.5,6.7 -18,7.9 M 86.7,79.2 c -1.1,1.6 -2.3,3.1 -3.5,4.5 -4.4,1.2 -8.8,2.2 -13.2,2.7 2.1,-2.4 3.9,-4.9 5.6,-7.5 4.4,-0.7 8.8,-1.7 13.1,-3 -0.7,1.2 -1.3,2.2 -2,3.3 m -7.8,-5.9 c 1.6,-3.1 3,-6.2 4.1,-9.3 3.7,-1.2 7.4,-2.6 11.3,-4.3 -0.5,3.5 -1.5,6.9 -2.7,10.2 -4.2,1.4 -8.4,2.5 -12.7,3.4"
       id="path18"
       style="fill:#000000"
       inkscape:connector-curvature="0"
       sodipodi:nodetypes="csccsccsccscccccccccccccccscscscccscsccccccccsscccccccccccccccccccccccsccccccccccccccccccccccccccccccccscccscccccccccccccccccccccccccccccccccccccccccccccccc" />
  </g>
</svg>
