<?xml version="1.0" encoding="utf-8"?>
<!-- Generator: Adobe Illustrator 18.1.0, SVG Export Plug-In . SVG Version: 6.00 Build 0)  -->
<!DOCTYPE svg PUBLIC "-//W3C//DTD SVG 1.1//EN" "http://www.w3.org/Graphics/SVG/1.1/DTD/svg11.dtd">
<svg version="1.1" id="Layer_1" xmlns="http://www.w3.org/2000/svg" xmlns:xlink="http://www.w3.org/1999/xlink" x="0px" y="0px"
	 viewBox="265 892.8 550 134.3" enable-background="new 265 892.8 550 134.3" xml:space="preserve">
<g id="Layer_1_1_" display="none">
	<g display="inline">
		
			<text transform="matrix(0.9994 3.560383e-02 -3.560383e-02 0.9994 1023.0334 999.8911)" font-family="'LondrinaSketch-Regular'" font-size="32.2299" letter-spacing="1">BETA</text>
		<g>
			<g>
				<path fill="#444345" d="M156.5,1047.3v-20.9c0-2.3-2.1-4-4.4-4h-33.4c-2.4,0-4.6,1.6-4.6,4v20.9c0,2.3,2.4,4.2,4.6,4.2h33.4
					C154.4,1051.4,156.5,1049.6,156.5,1047.3z M118.8,1026.3h33.8v21.3h-33.8V1026.3z"/>
				<path fill="#444345" d="M197.5,895.5c-8.4,16.7-11.9,18.9-11.9,25.8c0,6.6,5.6,12.2,12.3,12.2c6.6,0,12.3-5.4,12.3-12.2
					c0-7-3.1-10.9-11.9-25.8C198,895.1,197.7,895.1,197.5,895.5z M194.2,921.1c0,2.2-1.3,3-2.5,3c-1.5,0-2.5-1.1-2.5-2.6
					c0-4.8,2.4-8,4.4-10.8c0.7-0.9,1.3-1.7,1.7-2.5C195.4,907.9,194.2,917.1,194.2,921.1z"/>
				<path fill="#444345" d="M92.5,1032.2c-2.5-1.6-7.5-4.6-7.5-4.6s0,0,0,6.3c0,6.3,10.6,8.6,10.6,8.6
					C95.4,1039.5,95.1,1033.8,92.5,1032.2z"/>
				<path fill="#444345" d="M92.5,1043.5c-2.5-1.6-7.5-4.6-7.5-4.6s0,0,0,6.3c0,6.3,10.6,8.6,10.6,8.6
					C95.4,1050.9,95.1,1045.2,92.5,1043.5z"/>
				<path fill="#444345" d="M95.5,1065.2c-0.2-3-0.4-8.6-2.9-10.3c-2.5-1.6-7.7-4.6-7.7-4.6s0,0,0,6.3
					C85,1062.9,95.5,1065.2,95.5,1065.2z"/>
				<path fill="#444345" d="M99.1,1042.5c0,0,11-2.4,11-8.6c0-6.3,0-6.3,0-6.3s-6.2,3-8.7,4.6C98.8,1033.8,99.3,1039.5,99.1,1042.5z
					"/>
				<path fill="#444345" d="M99.1,1053.8c0,0,11-2.3,11-8.6c0-6.2,0-6.3,0-6.3s-6.2,3-8.7,4.6C98.8,1045.2,99.3,1050.9,99.1,1053.8z
					"/>
				<path fill="#444345" d="M110.1,1056.6c0-6.3,0-6.3,0-6.3s-6.1,2.9-8.6,4.6c-2.5,1.6-2.4,7.3-2.5,10.3
					C99,1065.2,110.1,1062.9,110.1,1056.6z"/>
				<path fill="#444345" d="M101.1,1025.9c0-2.9-0.7-6.6-4-10.3c0,0-3.9,4.8-3.9,9.5c0,3.1,1.7,5.7,3.9,8.4
					C97.1,1033.7,101.1,1029,101.1,1025.9z"/>
				<path fill="#444345" d="M84.3,851.2c0.8,0,1.5-0.1,2.2-0.4c1.6,1.5,3.7,2.2,5.8,2.2c2.1,0,4.2-0.8,5.8-2.2
					c0.7,0.3,1.5,0.4,2.2,0.4c3.5,0,6.3-2.8,6.3-6.3s-2.8-6.3-6.3-6.3c-0.3,0-0.6,0-0.9,0.1c-1.6-2.4-4.2-3.7-7.1-3.7
					c-2.9,0-5.5,1.3-7.1,3.7c-0.3,0-0.6-0.1-0.9-0.1c-3.5,0-6.3,2.8-6.3,6.3C78.2,848.4,81,851.2,84.3,851.2z"/>
				<path fill="#444345" d="M94,862c0,0.9,0.8,1.7,1.8,1.7c0.9,0,1.7-0.8,1.7-1.7s-1.7-3.6-1.7-3.6S94,860.9,94,862z"/>
				<path fill="#444345" d="M99.1,858.3c0.9,0,1.8-0.8,1.8-1.7s-1.8-3.6-1.8-3.6s-1.7,2.6-1.7,3.6C97.3,857.5,98.2,858.3,99.1,858.3
					z"/>
				<path fill="#444345" d="M92,859.2c0-0.9-1.7-3.6-1.7-3.6s-1.8,2.6-1.8,3.6s0.8,1.7,1.8,1.7C91.2,861,92,860.2,92,859.2z"/>
				<path fill="#444345" d="M8.8,1010.5c0,6.4,5.2,11.7,11.7,11.7s11.7-5.2,11.7-11.7s-5.2-11.7-11.7-11.7S8.8,1004,8.8,1010.5z
					 M29.1,1010.5c0,4.8-4,8.8-8.7,8.8c-4.8,0-8.8-4-8.8-8.8c0-4.8,4-8.8,8.8-8.8S29.1,1005.7,29.1,1010.5z"/>
				<polygon fill="#444345" points="16,1014.9 22,1012 24.8,1006.1 19,1009.1 				"/>
				<path fill="#444345" d="M113.9,866.3c0-0.1-0.1-0.2-0.1-0.3L113.9,866.3L113.9,866.3z"/>
				<path fill="#444345" d="M110.6,876.1c7.1-2,14.4,3.1,15.4,10.5c0,0.3,0.1,0.6,0.1,0.9c0.3,0,0.6,0.1,0.9,0.1
					c6-0.2,12.1-0.2,18.1-0.5c-2.5,0.7-4.4,3-4.4,5.7c0,3.3,2.7,6,6,6s6-2.7,6-6c0-3-2.2-5.4-5-5.9c4.4-0.3,3.6-0.2,4.4-4.2
					c0.4-1.9,0.6-3.9,0.8-5.8c0.2-1.8-0.3-2.2-2.1-2.4c-2.7-0.1-5.1-0.2-7.9-0.3c-0.1,0-0.2-0.1-0.2-0.2c0-2,0.5-6.8,0.5-6.8
					s-0.9-0.8-1.9-0.1c0,2.4,0,4.6,0,7.1c0,0-3.6-0.1-8.2-0.2c-0.2,0-0.9-0.4-1.3-1.1c-0.7-1.9-2.4-5.6-4.4-11.4
					c0,0-1.1-2.4-3.8-2.4c-2.1,0-13.4,0-13.4,0v14.2c0,0-0.8,0.4-1.5,0.5C108.2,876.1,108.7,876.5,110.6,876.1z M149.8,892.9
					c0,1.7-1.5,3.1-3.1,3.1c-1.7,0-3.1-1.5-3.1-3.1c0-1.7,1.5-3.1,3.1-3.1C148.4,889.8,149.8,891.1,149.8,892.9z M113.8,866v-2.7h11
					l3.5,10.5l0.1,0.1c-4.7-0.1-10.1,0-14.6,0.2V866z"/>
				<path fill="#444345" d="M113.3,877.3c-6,0-10.8,4.8-10.8,10.8c0,6,4.8,10.8,10.8,10.8c5.9,0,10.8-4.8,10.8-10.8
					C124.1,882.1,119.3,877.3,113.3,877.3z M113.3,894.1c-3.3,0-6-2.7-6-6c0-3.3,2.7-6,6-6s6,2.7,6,6
					C119.3,891.4,116.6,894.1,113.3,894.1z"/>
				<path fill="#444345" d="M87.2,1074.3l-7.9-4.2c0.5-1.7,0.5-3.7,0-5.6c-1.6-5.5-7.9-8.9-13.4-7.3c-5.6,1.6-8.8,7.3-7.1,12.8
					c1.6,5.5,7.9,8.9,13.4,7.3c1.8-0.6,3.5-1.5,4.6-2.8l7.9,4.4c0.8,0.4,1.7,0.1,2.2-0.7l1.1-1.9C88.4,1075.5,88,1074.8,87.2,1074.3
					z M70.8,1073.2c-3.2,0.9-7-1.1-7.9-4.2c-0.9-3.2,0.9-6.6,4.2-7.5c3.2-0.9,7,1.1,7.9,4.2C75.9,1069,74.1,1072.3,70.8,1073.2z"/>
				<path fill="#444345" d="M42.4,987.3c6-6.8,2.7-11.7,1.7-13.6c-0.9-1.9-1.3-4.7-1.3-4.7l0.2-0.9l0.2-1.1
					c-1.3-0.4-2.7,0.3-2.7,0.3c0.3,2.1-0.3,4.4-0.6,5.3c-0.4,0.9-1.6,2.8-2.2,4c-0.6,1.1-2.1,4.7-9.9,8.1
					c-7.9,3.4-18.3,0.3-18.3,0.3c-2.7-0.7-4.9,0.4-4.9,0.4L4,986.3l0.1,0.8l-0.3,0.5l0.1,0.6c7.7,11.9,23.6,7.9,23.6,7.9
					S36.4,994,42.4,987.3z"/>
				<path fill="#444345" d="M215.2,1059.3c3.5-0.1,6.8-0.7,10.1-2c1.1-0.5,1.5-1.3,1.6-2.5c0.1-0.7,0.1-1.3,0.1-1.9
					c0-0.1,0-0.1,0-0.2c0-0.1-0.3-0.4-0.7-0.4c-1.6-0.1-1.9-0.5-2.4-2c-0.4-1.1-0.7-2.1-1.1-3.1c3.9-0.9,3.4-3.7,2-7.3
					c-1.1,1.6-0.3,2.1-2.1,2.5c-1.7,0.4-3,1.3-3.8,3c-0.1,0.3-0.3,0.7-0.5,1.1c-0.2-2,0.7-3.2,2.4-4.7c-0.8-0.8-4-0.4-4.8-0.9
					c-3.1-2.2-17.5-4.8-26.5,2c-0.5-0.5-0.9-0.9-1.5-1.3c2.1-0.9,2.9-2,2.5-3.7c-0.3-1.3-1.3-2-2.4-1.9c-1.9,0.1-2.6,0.9-2.9,4.2
					c-0.7-0.7-1.1-1.1-1.9-1.9c0,0.6-0.2,1.1-0.1,1.5c0.3,0.9,1.1,1.5,1.9,1.8c0.7,0.1,1.1,0.5,1.3,1.1c0.2,0.4,0.4,0.9,0.8,1.1
					c0.9,0.9,1.1,2.1,1.1,3.5c0,3,0.1,6,0.5,9c0.4,3.2,1.1,6.3,2.6,9.2c0.5,0.9,1.1,0.9,1.9,0.8c0.3-0.1,0.6-0.8,0.6-1.1
					c0.2-2.4,1.3-4.4,2.4-6.4c4.2,1.3,8.3,1.5,12.5,1.3c0.2,0,0.6,0.4,0.8,0.7c0.8,1.5,1.5,3.2,2.2,4.8c0.4,0.9,1.3,0.9,2,0.8
					c0.2-0.1,0.3-0.9,0.3-1.3c0-1.7,0-3.6,0-5.3c0.2-0.1,0.3-0.1,0.3-0.2C214.7,1059.3,215.1,1059.3,215.2,1059.3z M187.2,1039.8
					c-0.5-1.1-0.2-1.9,0.6-2c0.5-0.1,1.1-0.1,1.1,0.6C189.1,1039.2,188.5,1039.7,187.2,1039.8z"/>
				<path fill="#444345" d="M33.5,924.2c6.6-0.6,8.9-3.9,10.8-10.3c1.1-3.9,1.3-7.7,1.5-11.8c-0.3-3.3-0.3-6.6-0.7-9.9
					c-0.7-4.6-1.8-9.3-4-13.4c-1.7-3.3-2.2-5.3-5.9-5.9c-4-0.5-8.4,1-10.1,5.6c-0.5,1.3-1.1,2.4-1.3,3.7c-0.7,2.8-2.4,5-4.4,7
					c-5.8,5.3-7.7,12.1-6.4,19.6C14.5,918.6,23.5,925.1,33.5,924.2z M21.2,893.3c3.5-3.3,6-6.8,7.1-11.5c0.2-0.9,0.7-1.8,1.1-2.6
					c1.3-2.3,4.2-2.7,6.1-0.8c0.8,0.9,1.3,1.9,1.7,2.9c2.8,6.6,4,13.7,4,19.9c0,4.7-0.3,8.4-1.5,11.9c-1.7,5-5.3,7.5-10.1,7
					c-4-0.4-7.3-2.4-9.9-5.5C15.2,908.4,15.4,898.6,21.2,893.3z"/>
				<path fill="#444345" d="M29.5,917.1c3.2,0.3,5.6-0.7,7.1-3.6c2.8-5.6,3-11.3,1.1-17.2c-0.4-1.3-1.3-2.2-2.5-2.7
					c-3.5-1.5-7.1-1.5-10.5-0.1c-1.6,0.8-3.2,1.8-3.9,3.6c-0.4,0.9-0.3,1.6,0.7,2.1c1.5,0.8,3,1.5,4.6,2.4c0.5,0.3,0.9,0.7,1.3,0.9
					c0,0.1-0.1,0.3-0.2,0.4c-0.4-0.1-0.8-0.1-1.1-0.2c-1.7-0.5-3.5-1.1-5.2-1.5c-0.9-0.3-1.5,0.1-1.7,0.9c-0.1,0.4-0.2,0.8-0.2,1.1
					C17.9,910,22.8,916.4,29.5,917.1z"/>
				<path fill="#444345" d="M30.6,889c0.9,0.3,1.9,0.5,2.9,0.7c1.9-0.1,2.7-0.6,2.7-2.5c0-1.3-0.3-2.8-0.7-4.2c-0.3-1.1-1.1-2-2.4-2
					c-1.3-0.1-2.5,0.5-3,1.7c-0.5,1.1-0.9,2.4-1.1,3.8C28.7,887.8,29.1,888.5,30.6,889z"/>
				<path fill="#444345" d="M56.9,983.4c-0.4,0.1-0.9-0.1-0.9-0.5c0,0-0.5-1.3-2-2.9c-0.4-0.4-0.8-0.7-1.1-0.9
					c-0.6-0.5-1.3-0.9-1.8-1.6c0.9,8.1,4.4,14,8.3,14c4.7,0,8.6-8.4,8.6-18.9s-4-18.9-8.7-18.9c-3.1,0-5.8,3.7-7.3,9.1
					c0.6,0.9,1.1,1.3,1.9,1.8c0.4,0.3,0.9,0.7,1.3,1.1c1.9,1.8,2.4,3.5,2.4,3.6s0,0.1,0,0.2c0,0.3-0.2,0.6-0.6,0.7s-0.9-0.1-0.9-0.5
					c0,0-0.5-1.3-2-2.9c-0.4-0.4-0.8-0.7-1.1-0.9c-0.5-0.3-0.9-0.7-1.3-1.1c-0.2,0.9-0.4,1.8-0.5,2.8c0.7,2.4,1.6,3.1,2.8,4
					c0.4,0.3,0.9,0.7,1.3,1.1c1.9,1.8,2.4,3.5,2.4,3.6s0,0.1,0,0.2c0,0.3-0.2,0.6-0.6,0.7s-0.9-0.1-0.9-0.5c0,0-0.5-1.3-2-2.9
					c-0.4-0.4-0.8-0.7-1.1-0.9c-0.7-0.5-1.5-1.1-2-1.9c0,0.6,0,1.1,0,1.7c0.7,3.5,1.7,4.4,3.1,5.3c0.4,0.3,0.9,0.7,1.3,1.1
					c1.9,1.8,2.4,3.5,2.4,3.6c0,0.1,0,0.1,0,0.2C57.5,983,57.3,983.3,56.9,983.4z"/>
				<path fill="#444345" d="M196.9,877c1.6,1.8,3.6,3.6,6,3.8c1.7,0.3,3.9-0.9,5.2-0.9c2.8,0,2.2,0.7,5.2,0.7c2.9,0,8.5-7,9.9-14.2
					c0.3-1.8,0-4.9-1.3-7.9c-1.6-3.5-6.4-4.8-9.5-4.2c-0.8,0.1-2.5,0.5-3.9,0.7c0.3-0.9,0.9-2.6,2.6-3.5c0.5-0.3,0.7-0.9,0.4-1.3
					c-0.3-0.5-0.9-0.7-1.3-0.4c-2.7,1.5-3.6,4.2-3.8,5.4c-1.3-0.3-4.4-0.8-5.8-0.8c-1.7,0.1-3.4,0.6-4.9,1.7c-1.3,1.1-2,2.5-2.6,4
					c-0.8,2.2-1.1,4.4-0.8,6.8C192.8,870.8,194.4,874.1,196.9,877z M202.8,858.9c1.5,0,2.7,1.1,2.7,2.5c0,1.8-1.3,3.3-2.8,3.3
					c-1.1,0-2.1-1.5-2.1-3.2C200.8,860,201.5,858.9,202.8,858.9z"/>
				<path fill="#444345" d="M204.7,852.3c1.1,0.1,2.4,0.2,2.9-0.9c0.6-1.1-0.3-2.2-1.1-3.1c-1.8-1.9-4.6-2.3-7.7-0.9
					c0.4,0.7,0.8,1.3,1.1,1.8C200.9,851,202.6,852,204.7,852.3z"/>
				<path fill="#444345" d="M133.7,858.3c1.9-4,4.6-7.1,4.6-7.1c4,1.5,10.8,3.2,15.6-0.2c6.4-4.6,5.8-14.6,15-19.5
					c2.1-1.1-18.1-5.9-28.7,0.2c-7.9,4.5-7.3,12-7.1,14.6c10.1-12,25.2-11.4,25.2-11.4s-21.4,7.4-27.7,22.2
					C130.2,858.1,133.1,859.6,133.7,858.3z"/>
				<path fill="#444345" d="M212,1007c4.8-9.9-0.6-17-2.7-19.6c-2.1,18.9-17.9,28.5-17.9,28.5s16.7-21.8,13.2-41
					c-0.3-1.5-4.2-1.1-3.9,0.7c0.8,5.4,0.2,10.3,0.2,10.3c-5,1.1-13,4-15.8,10.7c-3.5,8.9,4,18.7-2,29.9
					C181.8,1029.2,205.5,1020.4,212,1007z"/>
				<path fill="#444345" d="M37.2,932.9c-2,1.5-1.6,5.4-0.1,7.5c1.5,1.9,5.3,3.4,7.3,1.8c0.4-0.3,1.6-1.1,1.6-1.1
					c2.2,1.7,3.6,0,4.6,1.3c1.1,1.5,3.8,4.7,4.6,5.8c0.9,1.1,2.4,1.9,3.2,1.3c0.8-0.6,3.5-2.5,4.6-3.3c1.1-0.8,1.1-1.8,0.5-2.6
					c-0.6-0.8-2.2-0.6-3-1.5c-0.8-0.9-3.1-3.8-3.8-4.7c-0.9-1.3-0.1-2.7,1.6-3.4c11.8-4.6,16,2.3,19.7-0.5
					c2.8-2.1-0.3-11.2-6.6-19.3s-14.6-13.4-17.4-11.1C49.5,906.8,61,914.9,37.2,932.9z M57.2,907.8c0.7-0.5,6.4,2.8,11.5,9.1
					c4.9,6.3,6.3,12.1,5.6,12.6c-0.7,0.5-6.4-2-11.4-8.3C57.9,914.9,56.6,908.3,57.2,907.8z"/>
				<path fill="#444345" d="M15,980.9c8.2,0,15-3.9,15-5.9c0,0,0-0.6,0-6.2c0-5.7-10.3-10.3-10.3-14.4c0-4,10.3-8.7,10.3-14.4
					c0-5.7,0-6.2,0-6.2c0-2.1-6.8-5.9-15-5.9s-15,3.8-15,5.8c0,0,0,0.6,0,6.2c0,5.7,10.3,10.3,10.3,14.4c0,4-10.3,8.7-10.3,14.4
					c0,5.7,0,6.2,0,6.2C0,977.1,6.8,980.9,15,980.9z M3.5,934.1c1.8-1.1,5.3-2.9,10.9-2.9s10.6,2.9,10.6,2.9
					c0.4,0.2,1.8,1.1,0.9,1.6c-2.2,1.3-6.6,2.7-11.6,2.7s-9.3-1.5-11.5-2.8C1.8,935,3.5,934.1,3.5,934.1z M2.9,968.8
					c0-1.7,2.7-4.4,4.7-6.4c2.8-2.7,5.4-4.7,5.4-7.9c0-3.2-2.7-5.2-5.5-7.9c-2-2-4.8-4.7-4.8-6.4l-0.1-2.6c2.7,1.5,7.1,2.9,11.7,2.9
					c4.7,0,9.1-1.3,11.8-2.9l-0.1,2.6c0,1.7-2.8,4.4-4.8,6.4c-2.8,2.7-5.4,4.7-5.4,7.9c0,3.2,2.2,5.2,5,7.9c2,2,4.4,4.7,4.4,6.4v3.5
					c-1.9-1.3-9.5-2-9.5-5.9c0-1.9-2.7-1.9-2.7,0c0,3.9-8.1,4.6-10.1,5.9v-3.5H2.9z"/>
				<path fill="#444345" d="M210.9,900.8c0,11,8.9,19.9,19.9,19.9c11,0,19.9-8.9,19.9-19.9c0-10.9-8.9-19.9-19.9-19.9
					C219.8,880.9,210.9,889.8,210.9,900.8z M236.2,884.7c6.7,2.2,11.5,8.6,11.5,16c0,3.9-1.3,7.5-3.5,10.3c-0.6-0.5-1.3-1.8-0.7-3.2
					c0.6-1.3,0.8-4.6,0.7-5.8c-0.1-1.3-0.8-4.2-2.5-4.2c-1.7,0-2.9-0.6-4-2.7c-2.1-4.2,4-5.1,1.8-7.5c-0.6-0.7-3.7,2.7-4.2-1.8
					C235.5,885.7,235.8,885.1,236.2,884.7z M240.2,914.9c-2.7,1.7-5.9,2.8-9.4,2.8c-1.8,0-3.7-0.3-5.3-0.9c0.9-0.6,1.1-1.3,2-1.3
					c1.1,0,1.9-0.4,3.1-0.7c1.1-0.2,3-1.3,4.6-1.5C236.7,913.3,239.4,913.5,240.2,914.9z M228.4,884c-0.4,0.8-1.5,1.1-2.1,1.7
					c-1.5,1.3-2,1.1-2.8,2.3c-0.8,1.3-3.3,3-3.3,3.9s1.3,1.9,1.8,1.7c0.7-0.2,2.4-0.2,3.3,0.2c0.9,0.4,8.1,0.7,5.8,6.8
					c-0.7,1.9-3.9,1.5-4.7,4.7c-0.1,0.5-0.6,2.4-0.6,3.1c-0.1,0.9,0.7,4.8-0.3,4.8s-3.6-3.4-3.6-4c0-0.6-0.7-2.8-0.7-4.6
					s-3.2-1.8-3.2-4.2c0-2.2,1.7-3.3,1.3-4.4c-0.4-1.1-3.4-1.1-4.6-1.3C217.1,889,222.2,884.9,228.4,884z"/>
				<path fill="#444345" d="M135.7,1029.6c-4,0-7.3,3.3-7.3,7.3s3.3,7.3,7.3,7.3c4,0,7.3-3.3,7.3-7.3
					C142.9,1032.9,139.7,1029.6,135.7,1029.6z M132.5,1040c0-0.2-0.3-0.9-0.3-1.6c0-0.7-1.1-0.7-1.1-1.5c0-0.8,0.7-1.3,0.5-1.6
					c-0.1-0.4-1.3-0.4-1.6-0.5c0.8-2,2.7-3.6,4.9-4c-0.2,0.3-0.6,0.4-0.8,0.6c-0.5,0.5-0.8,0.4-1.1,0.9s-1.1,1.1-1.1,1.5
					c0,0.3,0.5,0.7,0.7,0.7c0.2-0.1,0.9-0.1,1.1,0.1c0.4,0.1,3,0.3,2.1,2.4c-0.3,0.7-1.5,0.6-1.7,1.7c-0.1,0.2-0.2,0.9-0.2,1.1
					c0,0.4,0.3,1.7-0.1,1.7C133.5,1041.4,132.5,1040.2,132.5,1040z M135.7,1043.1c-0.7,0-1.3-0.1-1.9-0.3c0.4-0.2,0.4-0.5,0.8-0.5
					s0.7-0.2,1.1-0.3c0.4-0.1,1.1-0.5,1.6-0.5c0.5,0,1.5,0,1.8,0.5C138.1,1042.7,137,1043.1,135.7,1043.1z M140.7,1040.6
					c-0.2-0.2-0.5-0.7-0.2-1.1c0.2-0.5,0.3-1.6,0.2-2.1c-0.1-0.5-0.3-1.5-0.9-1.5s-1.1-0.2-1.5-0.9c-0.8-1.5,1.5-1.8,0.7-2.7
					c-0.2-0.3-1.3,0.9-1.5-0.7c0-0.1,0.1-0.3,0.3-0.5c2.4,0.9,4.2,3.2,4.2,5.9C141.9,1038.4,141.4,1039.6,140.7,1040.6z"/>
				<path fill="#444345" d="M44.9,1061.1c0,0.3,0,0.5,0,0.8c0.1,1.7,1.5,3.2,3.4,3.2c1.7,0,3.2-1.3,3.4-3c0.1-0.3,0.1-0.6,0.1-0.9
					c0-0.9,0.4-1.3,1.1-1.5c6.4-1.5,11.4-6.6,12.4-13c0.1-0.8,0.1-1.5,0.4-2.1c0.6-0.5,1.5-0.9,1.7-1.5c0.2-0.5-0.4-1.3-0.6-2.1
					c1.1-1.1,1.1-1.6-0.2-2.9c1.3-1.3,1.3-1.9-0.1-3.2c0.9-0.4,1.3-1.1,0.9-2c-0.3-0.6-1.1-0.9-1.6-1.3c-0.1,0.1-0.1,0.2-0.2,0.2
					c-0.1-0.6-0.1-1.1-0.4-1.5c-0.4-0.5-0.9-1.1-1.5-1.1c-0.3-0.1-0.9,0.6-1.1,0.9c-0.7,1.3-1.1,2.8-1.7,4.2s-1.3,2.7-2.2,3.9
					c-2.7,3.4-6.3,4.4-10.4,3.6c-4-0.9-6.8-3.3-7.9-7.3c-0.2-0.8-0.2-1.5-0.4-2.3c0.9-0.6,2.1-0.9,1.6-2.2c-0.2-0.7-1.1-1.1-2-1.7
					c0-0.5,0.2-1.5-0.9-1.9c-0.9-0.4-1.6,0.2-2.2,1.1c-0.7-0.8-1.3-1.6-2.4-1.1c-0.6,0.4-0.9,1.3-1.5,2.2c-0.7,0-1.8-0.1-2,1.3
					c-0.1,0.9,0.6,1.5,2.4,2c-1.1,1.3-3,1.3-4.2,2.4c1.1,0.6,2,1.1,3.1,1.7c0.6,0.3,0.8,0.7,0.7,1.3c-0.2,2.1-0.3,4.4-0.5,6.4
					c-0.8,9.2,5.5,14.3,11.5,15.9C44.7,1059.8,45,1060,44.9,1061.1z M35.7,1034.1c-0.3,0-0.7-0.4-1.3-0.8c0.7-0.4,0.9-0.9,1.3-0.9
					c0.3,0,0.9,0.6,0.8,0.8C36.3,1033.6,35.9,1034.1,35.7,1034.1z"/>
				<path fill="#444345" d="M211.6,940.4h-6.4c-1.1,0-2.7,0.7-3.4,1.6l-8.5,10.9c-0.7,0.9-0.3,0.9,0.9,0.9h34.6c1.1,0,1.6,0,0.9-0.9
					l-7.4-11c-0.7-0.9-2.1-1.5-3.3-1.5h-1.6v-3.9h-5.8V940.4z"/>
				<path fill="#444345" d="M219.2,930.1l0.5-0.1c1.1-0.2,2-1.1,2.7-2.2c0.7-1.1,0.8-3.6,0.6-4.9c-0.7,2-2.1,2.7-3.7,3.4
					c-0.4,0.2-0.9,0.4-1.3,0.5c-0.5,0.2-0.9,0.4-1.5,0.6c-1.5,0.8-2.1,2-2.4,4c-0.2,0.8-0.3,1.6-0.3,2.8c0.8-2,1.6-3,3.3-3.6
					C217.8,930.5,218.5,930.3,219.2,930.1z"/>
				<path fill="#444345" d="M227,969.3h0.9v-11.9c0-1.1,0-1.6,0-1.6H227h-1.3h-15h-1.3h-11h-4v2.2v11.3h4h2.7v-8
					c0,0,0.2,0.3,1.1,0.3h5.2c0,0,0.5-1.1,0.5-0.2v7.9h1.5h1.3h15L227,969.3L227,969.3z M222.2,965.5c0,0.2,0.7,0.9,0.5,0.9h-5.7
					c-0.2,0-0.6-0.8-0.6-0.9v-5.7c0-0.2,0.4-0.1,0.6-0.1h5.7c0.2,0-0.5-0.1-0.5,0.1V965.5z"/>
				<path fill="#444345" d="M143.1,1056.3c0-0.6-0.5-0.9-1.1-0.9h-13.4c-0.6,0-1.1,0.4-1.1,0.9c0,0.6,0.5,0.9,1.1,0.9h13.4
					C142.7,1057.3,143.1,1056.9,143.1,1056.3z"/>
				<rect x="131.4" y="1052.5" fill="#444345" width="9.7" height="2.9"/>
				<path fill="#444345" d="M117.8,828.2c-4.6,0.8-7.9,4.6-8.2,9.1l8.7-0.5L117.8,828.2z"/>
				<path fill="#444345" d="M119.7,839.3l-9.9,0.5c0.9,4.8,5.2,8.4,10.3,8.1c5.5-0.3,9.7-4.9,9.4-10.4c-0.3-5-4.2-9-9.1-9.4l0.5,9.9
					C120.9,838.7,120.3,839.2,119.7,839.3z"/>
				<path fill="#444345" d="M78.2,866c0.4,0,0.9-0.6,1.3-0.7s0.9-0.6,1.1-0.8l5.5-3.9c0.3-0.2,0.5-0.6,0.5-0.9
					c0-0.3-0.2-0.6-0.5-0.8l-5.5-3.8c-0.3-0.2-0.8-0.9-1.1-1.1c-0.5-0.1-0.9-0.7-1.3-0.7H62.5l1.8,12.6H78.2L78.2,866z"/>
				<path fill="#444345" d="M41,865.1l5.5,3.8c0.3,0.2,0.8,0.5,1.1,0.7c0.5,0.1,0.9,0.4,1.3,0.4h8.1V890c0,0.5,0.6,0.2,1.1,0.2h2
					c0.5,0,0.7,0.3,0.7-0.2v-39.7c0-0.5-0.2-1.6-0.7-1.6h-2c-0.5,0-1.1,1.1-1.1,1.6v9h-8c-0.4,0-0.9,0-1.3,0.1s-0.9,0.3-1.1,0.5
					l-5.5,3.8c-0.3,0.2-0.5,0.5-0.5,0.8C40.6,864.7,40.8,864.9,41,865.1z"/>
				<path fill="#444345" d="M72.4,874.2v31.6c0,2.2,2.4,4.6,4.6,4.6h15.4c2.2,0,4.2-2.4,4.2-4.6v-31.6c0-2.2-2-3.4-4.2-3.4H77
					C74.8,870.8,72.4,872,72.4,874.2z M84.7,908.2c-1.5,0-2.8-0.9-2.8-2s1.3-2,2.8-2s2.8,0.9,2.8,2
					C87.5,907.2,86.3,908.2,84.7,908.2z M93.7,875.7v26.1H76.3v-26.1H93.7z"/>
				<path fill="#444345" d="M162,850.1c0,13.2,13.8,30.4,13.8,30.4s13.8-17.2,13.8-30.4c0-7.7-6.2-13.8-13.8-13.8
					C168.2,836.1,162,842.3,162,850.1z M175.8,842.7c4.2,0,7.5,3.4,7.5,7.5c0,4.2-3.4,7.5-7.5,7.5c-4.2,0-7.5-3.4-7.5-7.5
					C168.3,846.1,171.8,842.7,175.8,842.7z"/>
				<path fill="#444345" d="M88.9,887.4c0-2.4-1.8-4.2-4.2-4.2s-4.2,1.8-4.2,4.2c0,4,4.2,9.1,4.2,9.1S88.9,891.4,88.9,887.4z
					 M82.4,887.6c0-1.3,0.9-2.2,2.2-2.2c1.3,0,2.2,0.9,2.2,2.2c0,1.3-0.9,2.2-2.2,2.2C83.5,889.8,82.4,888.8,82.4,887.6z"/>
				<path fill="#444345" d="M177.1,885.5l-2.4,2.1l-2.4-2.1c-3.4-3.1-9-3.1-12.4,0c-3.9,3.6-3.9,9.3,0,12.8l14.7,13.5l14.7-13.5
					c3.9-3.6,3.9-9.3,0-12.8C186.1,882.4,180.4,882.4,177.1,885.5z"/>
				<path fill="#444345" d="M237.1,987.3l-3.3,2.8c-0.3,0.2-0.3,0.7-0.1,0.9l18.9,21.4c0.4,0.5,1.1,0.6,1.7,0.1l2.2-1.8
					c0.5-0.5,0.6-1.3,0.1-1.7l-18.7-21.6C237.8,986.9,237.4,986.9,237.1,987.3z"/>
				<path fill="#444345" d="M236.1,973.1c-2.9,0.3-6.6,3-8.4,4.2c-2.4,1.6-3.3,2.6-3.5,2.7c-0.7,0.6-0.1,1.9-1.3,3.1
					c-1.3,1.1-2.1,0.3-2.9,0.9c-0.4,0.3-1.5,1.1-1.7,1.3c-0.3,0.3-0.4,0.7-0.1,1.1c0,0,2.9,3.2,3.1,3.5c0.2,0.3,0.9,0.5,1.3,0.2
					c0.4-0.4,1.5-1.3,1.6-1.5c0.2-0.2-0.1-1.9,0.8-2.7c2.1-1.6,3.9-0.5,6.2,2.2c0.3,0.3,0.7-0.1,0.9-0.2c0.2-0.2,3.3-3,3.5-3.1
					c0.2-0.1,0.3-0.4,0.1-0.7c-0.2-0.3-1.1-1.5-1.6-2.1c-4.2-5.4,11.2-9,8.9-9.1C241.6,973,236.7,973,236.1,973.1z"/>
				<path fill="#444345" d="M224.1,1010.9l2.1,2.1c0.5,0.5,1.3,0.3,1.7-0.2l11.1-10.9l-3.4-3.9l-11.6,11.2
					C223.7,1009.6,223.7,1010.4,224.1,1010.9z"/>
				<path fill="#444345" d="M247.9,985.9c-0.2,0.3-0.4,0.6-0.7,0.9l-3.1,3.2l3.1,3.6l3.8-3.6c0.2-0.2,0.6-0.5,0.9-0.7
					c0.1,0,0.1,0,0.2-0.1c0.3-0.1,0.6,0,0.9,0.2c0.7,0.5,1.3,0.9,1.9,1.5c0.5,0.4,0.9,0.4,1.3-0.1c0.6-0.7,1.1-1.3,1.7-1.9
					c0.9-1.1,1.9-2.1,2.9-3.2c1.6-1.7,2.4-3.7,2.4-5.8c0-0.8,0-1.5-0.2-2.4c-0.3-2-1.3-3-3.3-3.3c-0.5-0.1-1.1-0.2-1.5-0.1
					c-0.6,0-1.3,0-1.8,0.1c-1.5,0.1-3,0.5-4.2,1.6c-0.9,0.9-1.9,1.8-2.9,2.7c-1.1,1.1-2.2,2-3.3,3.1c-0.3,0.3-0.4,0.6,0,0.9
					c0.7,0.7,1.3,1.5,1.9,2.1c0.3,0.3,0.4,0.5,0.2,0.9C248,985.6,247.9,985.6,247.9,985.9z M250.3,985.4l4.7-4.4
					c0.1-0.1,0.4-0.1,0.5,0c0.1,0.1,0.1,0.3,0,0.5l-4.2,5c-0.1,0.1-0.2-0.7-0.3,0.3l0,0c-0.1,0-0.2-0.2-0.2-0.2l-0.6-0.6
					c-0.1-0.1-0.1-0.2-0.1-0.3C250.2,985.6,250.3,985.4,250.3,985.4z"/>
				<path fill="#444345" d="M237.6,934c0,0.8-0.1,1.5,0.6,1.5h10.1v2.5c0,0.6-0.4,0.4,0.2,0.4h4c0.6,0,0.7,0.2,0.7-0.4v-2.5h9.5
					c0.8,0,1.1-0.9,1.1-1.5v-5.2h-26.1L237.6,934L237.6,934z"/>
				<path fill="#444345" d="M251.2,948.8V947c0-0.3-0.2-0.6-0.5-0.6s-0.5,0.3-0.5,0.6v1.7c-2.9,0.3-4.8,2.5-4.8,5.1
					c0,2.9,2.2,5.2,5.1,5.2c2.9,0,5.2-2.4,5.2-5.2C255.7,951.3,254.1,949.1,251.2,948.8z"/>
				<path fill="#444345" d="M261.5,939.4h-22c-1.1,0-2,1.1-2.2,2.2l-2.6,22.8c-0.1,0.6,0.1,1.5,0.6,2c0.4,0.5,1.1,0.9,1.6,0.9h27.3
					c0.7,0,1.3-0.5,1.6-0.9c0.4-0.5,0.6-1.1,0.6-1.8l-2.6-23C263.5,940.6,262.5,939.4,261.5,939.4z M250.4,963c-5,0-9.1-4-9.1-9.1
					s4-9.1,9.1-9.1c5,0,9.1,4,9.1,9.1S255.4,963,250.4,963z"/>
				<path fill="#444345" d="M155,1069.4v0.4h11.3c0.6,0,1.1-0.9,1.1-1.5c0-0.6-0.5-1.5-1.1-1.5H155h-1.3h-2.4c-3,0-5.4,1.9-6.2,4.8
					h-7.9v2.9h7.9c0.8,2.9,3.2,5.8,6.2,5.8h2.4l0,0h12.6c0.6,0,1.1-0.9,1.1-1.5s-0.5-1.5-1.1-1.5H155c-0.4,0-0.7-0.1-0.7-0.5
					c0-0.4,0.3-0.5,0.7-0.5h11.3c0.6,0,1.1-0.4,1.1-0.9c0-0.6-0.5-0.9-1.1-0.9H155l0,0c-0.4,0-0.7-0.6-0.7-0.9
					c0-0.4,0.3-0.9,0.7-0.9h11.3c0.6,0,1.1-0.4,1.1-0.9c0-0.6-0.5-0.9-1.1-0.9h-10.7v-0.4c-0.9,0-0.9-0.1-0.9-0.5
					C154.6,1069.5,154.6,1069.4,155,1069.4z"/>
				<path fill="#444345" d="M105.5,1076.6h27.3c1.3,0,3.3-0.7,3.3-1.6v-3.3c0-0.9-2.1-1.8-3.3-1.8h-27.3c-1.8,0-3.3,1.5-3.3,3.4
					C102.4,1075,103.9,1076.6,105.5,1076.6z"/>
				<path fill="#444345" d="M165.8,1086.7c0-1.8-1.5-3.4-3.4-3.4h-28.2c-1.3,0-1.9,0.6-2.9,1.6v3.4c0.9,0.9,1.6,1.7,2.9,1.7h28.2
					C164.3,1090.1,165.8,1088.6,165.8,1086.7z"/>
				<path fill="#444345" d="M131.4,1088.2v-2.9h-4h-5.8H96.6c0,0-2.5,1.1,1.3,2.8c5.7,2.4,10.3,2.8,14.7,3.4
					c1.5,0.2,6.6,1.3,9.9-1.5c1.1-1.1,2.4-1.8,3.4-1.8H131.4z"/>
				<path fill="#444345" d="M169.3,1059.4l8.2-0.8c-0.1-0.9-0.3-1.8-0.3-2.7c-0.1-2.3-0.2-4.6-0.3-7c-0.1-1.7,0-3.5,0-5.2
					c0.1-2,0.2-4.2,0.3-6.2c0.1-1.6,0.2-3.4,0.4-5c0.2-2,0.5-4,0.8-6c0.2-1.5,0.5-3.2,0.7-4.7c0.1-0.5-0.2-0.9-0.7-0.9
					c-0.3-0.1-0.6-0.1-0.9-0.1c-4.2,0-8.5,0-12.4,0c0,0,0,0,0,0.1c-0.9,0-1.9,0-2.9,0c-0.6,0-0.7,0-0.7,0.6
					c-0.1,0.8-0.2,1.5-0.2,2.2c0,1.5,0,3.1,0.1,4.6c0,1.5,0.1,3.1,0.2,4.6c0.1,1.5,0.2,3.1,0.3,4.6c0.1,1.5,0.2,2.8,0.3,4.2
					c0.1,1.9,0.3,3.9,0.5,5.8c0.1,1.6,0.3,3.2,0.4,4.8c0.2,1.5,0.3,3.2,0.5,4.8c0.1,0.8,0.2,1.5,0.3,2.2c0,0.2,0.1,0.4,0.4,0.4
					c0.5,0,0.9-0.1,1.5-0.1c0.8-0.1,1.6-0.1,2.4-0.2C168.6,1059.5,168.9,1059.4,169.3,1059.4z M174.8,1023.7c0.7,0,1.1,0.4,1.1,1.1
					c0,0.6-0.5,1.1-1.1,1.1c-0.6,0-1.1-0.5-1.1-1.1C173.7,1024.1,174.2,1023.7,174.8,1023.7z"/>
				<path fill="#444345" d="M175.7,1082.3c-0.5,1.5,0.9,3.3,2.6,3.3c1.3,0,2.5-0.9,2.9-2.4c0.3-1.3,0.3-2.5,0.1-3.8
					c-0.5-2.6-1.1-5.2-1.5-7.7c-0.4-2-0.9-4-1.3-6.1c-0.3-1.5-0.6-3.1-0.7-4.6v-0.1l-5.2,0.5c0.2,0.9,0.4,2,0.6,3
					c0.6,3.2,1.1,6.3,1.8,9.4c0.5,1.9,0.9,4,1.3,5.9c0.1,0.4,0,0.9-0.1,1.3C176,1081.3,175.8,1081.8,175.7,1082.3z"/>
				<path fill="#444345" d="M85.5,1019.1c1.3,0.1,2.6-0.1,4-0.2c0.1,0,0.1-0.1,0.1-0.2c0.6-1.1-0.1-2.9-1.3-3.4c0-1.1,0.2-2.4,0-3.6
					c-0.2-1.5-0.2-3.5-1.1-4.6c-2-2.9-5-6.3-7.5-8.9c-1.7-1.9-3.6-2.2-6.2-2.2c-10.1-0.1-20.1-0.2-30.1-0.3c-3.2,0-4.4,1.3-4.4,4.4
					c-0.1,4.9-0.1,9.9-0.2,15c-1.1-0.1-1.3,0.5-1.3,1.3c0,0.4,0,0.8,0,1.3c0,0.7,0.3,1.1,0.9,1.1c0.9,0,1.7,0,2.7,0
					c0.9,0.1,1.3-0.3,1.5-1.1c0.9-2.8,3.1-4.4,6-4.4c2.9,0,5.1,1.6,6,4.6c0.3,0.9,0.8,1.1,1.6,1.1c4.8,0,9.7,0.1,14.6,0.2
					c0.9,0,1.5-0.4,1.7-1.3c0.9-2.7,3.2-4.4,6-4.4c2.8,0,4.9,1.6,5.9,4.4C84.6,1018.3,85.1,1019.1,85.5,1019.1z M82.8,1007
					L82.8,1007l-9.5,0.4c-0.7,0-1.3-0.4-1.3-1.1l0.1-6.8c0-0.7,0.6-1.3,1.3-1.3l3,0.1c0.1,0,0.3,0,0.4,0.1c0.4,0.1,0.6,0.2,6.8,7.3
					c0.2,0.2,0.4,0.1,0.4,0.5C84.1,1006.9,83.5,1007,82.8,1007z"/>
				<path fill="#444345" d="M48.8,1014.1c-3,0-5.5,2.4-5.5,5.4s2.4,5.5,5.4,5.5s5.5-2.4,5.5-5.4
					C54.2,1016.6,51.8,1014.2,48.8,1014.1z"/>
				<path fill="#444345" d="M78.6,1014.5c-3,0-5.5,2.4-5.5,5.4c0,3,2.4,5.5,5.4,5.5s5.5-2.4,5.5-5.4
					C84.1,1017,81.6,1014.5,78.6,1014.5z"/>
				<path fill="#444345" d="M247.8,1026.3c0-0.9-2.4-1.7-10.3-0.7c0,0,1.9-1.6,2.7-1.9c0.8-0.3,4.2-2.4,3.6-5.1
					c-0.6-2.7-1.6-1.1-2.9,1.1c-1.1,2.1-2.7,4-4.9,5.3c0,0-0.7-4.2-3.1-4.4c-0.8,0-4,0-7.7,0.4l-0.7,0.1c-0.4,0-0.9,0.1-1.3,0.2
					c0,0.1-0.2,0.1-0.2,0.2v4.6c0,0.4-0.1,0.7-0.5,0.7s-0.5-0.3-0.5-0.7v-4.6l0,0c-0.9,0.1-1.3,0.2-1.8,0.3c0,0-7.1,1.1-11.8,2.5
					h-0.1c-0.1,0-0.2,0.1-0.3,0.1c-0.3,0.1-0.6,0.2-0.9,0.3c-0.2,0.1-0.4,0.1-0.6,0.2c-0.1,0-0.1,0.1-0.2,0.1
					c-0.1,0-0.2,0.1-0.3,0.1l0,0c-0.9,0.4-1.6,0.6-2.4,1.1c0,0-0.8,0.4-0.3,1.5c0.3,0.7,4.2,2.4,12,3.6v-3.5c0-0.4,0.1-0.7,0.5-0.7
					s0.5,0.3,0.5,0.7v3.7c0.9,0.1,1.3,0.1,1.7,0.2l0.9,0.1c2.6,0.3,5.1,0.5,9.9,0.6v-2.9c0-0.4,0.1-0.7,0.5-0.7s0.5,0.3,0.5,0.7v2.9
					h0.8c1.1,0,1.6,0,2.6-0.1c0,0,2.5,0.2,2.7-4.4c0,0,4.4-0.8,4,4.2c-0.2,3.7,3,3.8,3,1.1c0-2.5-0.7-5.4-5.5-6.4c0,0,3.9,0.5,7,1.1
					C247.5,1028.4,247.8,1027.3,247.8,1026.3z"/>
			</g>
			<g>
				<polygon fill="#444345" points="678.1,1020.6 677.4,1020.6 650.5,985.8 642.4,985.8 642.4,1038 654,1038 654,1003.2 
					653.4,1003.2 680.4,1038 687.7,1038 687.7,987.7 678.1,987.7 				"/>
				<polygon fill="#444345" points="706.1,1038 731.3,1038 731.3,1028.3 714.8,1028.3 714.8,1015.7 731.3,1015.7 731.3,1007 
					714.8,1007 714.8,994.4 731.3,994.4 731.3,987.7 706.1,987.7 				"/>
				<polygon fill="#444345" points="744.8,994.4 755.4,994.4 755.4,1038 764.1,1038 764.1,994.4 776.6,994.4 776.6,987.7 
					744.8,987.7 				"/>
				<polygon fill="#444345" points="832.4,1022.5 832.3,1022.5 821.6,985.8 815.8,985.8 805.5,1022.5 805.5,1022.5 795.1,987.7 
					784.6,987.7 800.9,1038 808.2,1038 817.9,1007 818.1,1007 828.2,1038 835.6,1038 853,987.7 842.4,987.7 				"/>
				<path fill="#444345" d="M888.7,985.4c-15.2,0-25.3,11.7-25.3,26.9c0,15,9.7,27.1,25.3,27.1c15.6,0,25.3-12,25.3-27.1
					C914.1,997.1,904,985.4,888.7,985.4z M888.7,1029.6c-11.1,0-15-9.7-15-17.6c0-8.3,5.6-16.6,15-16.6c9.5,0,15,8.4,15,16.6
					C903.7,1019.8,899.8,1029.6,888.7,1029.6z"/>
				<path fill="#444345" d="M959.8,1002.7c0-10.9-7.1-15-17.1-15h-14.4v50.2h11.6v-20.3h-0.7l12.5,20.3h12.1l-14.5-21.4
					C956.3,1015.5,959.8,1009.1,959.8,1002.7z M940.4,1010.9h-0.5v-16.5h0.6c5.3,0,9.3,1.7,9.3,8
					C949.9,1008.7,945.9,1010.9,940.4,1010.9z"/>
				<polygon fill="#444345" points="1015.5,987.7 1003.2,987.7 987.4,1008 987.2,1008 987.2,987.7 976.6,987.7 976.6,1038 
					987.2,1038 987.2,1013.8 987.4,1013.8 1003.7,1038 1016.6,1038 996.1,1010.9 				"/>
				<path fill="#444345" d="M360.6,873.3c-25,0-41.6,19.1-41.6,44c0,24.7,15.9,44.3,41.6,44.3c25.6,0,41.6-19.6,41.6-44.3
					C402.1,892.4,385.6,873.3,360.6,873.3z M360.6,945.5c-18.1,0-24.6-15.9-24.6-28.8c0-13.6,9.2-27.3,24.6-27.3
					s24.6,13.7,24.6,27.3C385.2,929.6,378.8,945.5,360.6,945.5z"/>
				<path fill="#444345" d="M443.5,876.6h-22.4v83.1h15.4v-31.9h9.3c17.2,0,26.9-8,26.9-25.8C472.6,883,461.1,876.6,443.5,876.6z
					 M441,915.3h-4.4v-26.1h4c9.2,0,15.4,1.9,15.4,12.8C456,912.9,450.7,915.3,441,915.3z"/>
				<polygon fill="#444345" points="491.7,959.7 535.1,959.7 535.1,945.2 508.1,945.2 508.1,923 533.3,923 533.3,908.5 508.1,908.5 
					508.1,889.2 535.1,889.2 535.1,876.6 491.7,876.6 				"/>
				<polygon fill="#444345" points="612.4,932.7 612.7,932.7 568.6,872.8 556.4,872.8 556.4,959.7 573.8,959.7 573.8,901.7 
					573.3,901.7 617.6,961.6 629.8,961.6 629.8,876.6 612.4,876.6 				"/>
				<polygon fill="#444345" points="695.5,959.7 711.9,959.7 711.9,923 736.1,923 736.1,908.5 711.9,908.5 711.9,889.2 738,889.2 
					738,876.6 695.5,876.6 				"/>
				<path fill="#444345" d="M795.8,961.6c25.6,0,41.6-19.6,41.6-44.3c0-24.9-16.5-44-41.6-44s-41.6,19.1-41.6,44
					C754.4,942,770.3,961.6,795.8,961.6z M795.8,889.4c15.4,0,24.6,13.7,24.6,27.3c0,13-6.4,28.8-24.6,28.8
					c-18.1,0-24.6-15.9-24.6-28.8C771.3,903.1,780.4,889.4,795.8,889.4z"/>
				<path fill="#444345" d="M894.1,873.3c-25,0-41.6,19.1-41.6,44c0,24.7,15.9,44.3,41.6,44.3c25.6,0,41.6-19.6,41.6-44.3
					C935.6,892.4,919.3,873.3,894.1,873.3z M894.1,945.5c-18.1,0-24.6-15.9-24.6-28.8c0-13.6,9.2-27.3,24.6-27.3
					c15.4,0,24.6,13.7,24.6,27.3C918.7,929.6,912.3,945.5,894.1,945.5z"/>
				<path fill="#444345" d="M1018.7,918.2c0-24-16.2-41.6-40.6-41.6h-21.8v83.1h21.8C1002,959.7,1018.7,941.8,1018.7,918.2z
					 M971.8,945.2v-56.1h2.1c18.5,0,27.9,9.7,27.9,28c0,16.6-7.9,28-27.9,28L971.8,945.2L971.8,945.2z"/>
			</g>
		</g>
		<g>
			<path d="M1039.4,1045.1h-1.2c-0.1-0.4-0.2-0.6-0.3-0.7l-0.5-0.5l-0.2-0.3l-0.1-0.3c-0.1,0-0.2-0.1-0.3-0.3h-0.1l-0.3-0.5
				l-0.3-0.3l-0.3-0.3c-0.6-0.5-1.3-1.1-2.1-2c-0.7-0.9-1.1-1.3-1.1-1.3l-0.3-0.3h-0.7l0.1-0.1l-0.3,0.3l0.1-0.1
				c-0.1,0.1-0.3,0.3-0.5,0.5l-1.3,1.3v-0.1l-1.3,1.3l-0.9,0.9l0,0c-1.2,1.2-1.9,1.9-2.2,2.1v0.1c0,0.1-0.1,0.3-0.5,0.7l-0.6-0.3
				l-0.4-0.1c0-0.3-0.1-0.4-0.1-0.5l-0.2-0.1c-0.1-0.3-0.3-0.5-0.4-0.5l-1.7-1.7c0,0,0.1,0.1,0.1,0.1s0,0.1,0,0.1s-0.1,0.1-0.3,0.1
				l0.1-1.1l0.9-0.9c0.3-0.2,0.7-0.5,1.1-0.9l0.7-0.7c0.2-0.1,0.4-0.3,0.7-0.7l1.7-1.7v0.1l0.1-0.1h-0.1c0.8-0.7,1.2-1.1,1.3-1.1
				l1.7-1.7c0.4-0.4,0.9-0.9,1.5-1.3l0.5-0.7l0.5-0.5l0.5,0.2c0.1,0.1,0.2,0.1,0.2,0.1l1,0.9c0.2,0.1,0.5,0.4,0.8,0.8
				c0.3,0.3,0.5,0.6,0.6,0.7l0.7,0.7v0.1l5.8,6c0.3,0.3,0.5,0.5,0.7,0.7c0.2,0.2,0.5,0.4,0.7,0.7l-0.3,0.5l-0.5,0.5h0.1
				c-0.4,0.1-0.6,0.3-0.7,0.7l-1.1,1.1c-0.1,0.1-0.3,0.3-0.3,0.3L1039.4,1045.1L1039.4,1045.1
				C1039.4,1044.9,1039.4,1044.9,1039.4,1045.1z M1021.5,1041l-0.3,0.3v0.3h0.1c0.1,0,0.1,0.1,0.2,0.1l0.7,0.7
				c0.1,0.1,0.3,0.3,0.7,0.6c0.7,0.6,0.9,0.9,0.9,1.1l0.1,0.3l0.1-0.1c0.1,0.1,0.1,0.1,0.2,0.3l0.1-0.1v0.1l0.1-0.1h-0.1l0.1-0.1
				c0,0-0.1,0-0.1-0.1c0-0.1,0-0.1-0.1-0.1l1.1-1.1l0.1,0.1l2.2-2.1l0.1,0.1l2.7-2.7l0.1,0.1c0.3-0.2,0.7-0.6,1.1-1.1h0.1l0.1-0.1
				c1.3,1.4,2.6,2.8,3.8,4c0.5,0.4,0.8,0.7,0.9,0.9l0.7,0.6l0.1,0.1c0.3,0.3,0.5,0.6,0.8,0.8l0.5,0.5l-0.1,0.1
				c0.1,0.1,0.1,0.1,0.1,0.3v0.1h0.3l0.9-0.9c0.8-0.9,1.5-1.5,1.9-1.7c0-0.1,0.1-0.2,0.3-0.3l-0.1-0.1l-0.1,0.1c0,0,0-0.1-0.1-0.1
				s-0.1,0-0.1,0.1l-1.1-1.1l0.1-0.1l-0.3-0.3c0,0-0.1,0-0.1-0.1l0.1-0.1l-1.9-1.9c-0.5-0.5-0.9-1-1.5-1.5c-0.5-0.5-0.9-0.9-1.1-1.2
				l-0.7-0.7h0.1l-1.1-1.1c-0.1-0.1-0.3-0.3-0.5-0.5l-1.7-1.6c-0.1,0-0.1,0-0.1,0.1c-0.1-0.1-0.1-0.1-0.3-0.1l-0.2,0.1h0.1l-2.1,1.9
				h0.1l-1.9,1.9c-0.4,0.3-0.8,0.7-1.3,1.1l-1.5,1.4l-0.2,0.1l-1.1,1.1l-0.3,0.3c-0.3,0.2-0.5,0.5-0.7,0.7s-0.5,0.5-0.9,0.9
				L1021.5,1041z"/>
		</g>
	</g>
</g>
<g id="OFN_beta__x28_new_x29_" display="none">
	<g display="inline">
		
			<text transform="matrix(0.9994 3.560383e-02 -3.560383e-02 0.9994 1024.377 998.5481)" fill="#444345" font-family="'BubblegumSans-Regular'" font-size="26.8582">BETA</text>
		
			<text transform="matrix(3.560383e-02 -0.9994 0.9994 3.560383e-02 1038.5093 1045.8531)" fill="#444345" font-family="'BubblegumSans-Regular'" font-size="29.5441">&gt;</text>
		<g>
			<g>
				<path fill="#444345" d="M156.5,1047.3v-20.9c0-2.3-2.1-4-4.4-4h-33.4c-2.4,0-4.6,1.6-4.6,4v20.9c0,2.3,2.4,4.2,4.6,4.2h33.4
					C154.4,1051.4,156.5,1049.6,156.5,1047.3z M118.8,1026.3h33.8v21.3h-33.8V1026.3z"/>
				<path fill="#444345" d="M197.5,895.5c-8.4,16.7-11.9,18.9-11.9,25.8c0,6.6,5.6,12.2,12.3,12.2c6.6,0,12.3-5.4,12.3-12.2
					c0-7-3.1-10.9-11.9-25.8C198,895.1,197.7,895.1,197.5,895.5z M194.2,921.1c0,2.2-1.3,3-2.5,3c-1.5,0-2.5-1.1-2.5-2.6
					c0-4.8,2.4-8,4.4-10.8c0.7-0.9,1.3-1.7,1.7-2.5C195.4,907.9,194.2,917.1,194.2,921.1z"/>
				<path fill="#444345" d="M92.5,1032.2c-2.5-1.6-7.5-4.6-7.5-4.6s0,0,0,6.3c0,6.3,10.6,8.6,10.6,8.6
					C95.4,1039.5,95.1,1033.8,92.5,1032.2z"/>
				<path fill="#444345" d="M92.5,1043.5c-2.5-1.6-7.5-4.6-7.5-4.6s0,0,0,6.3c0,6.3,10.6,8.6,10.6,8.6
					C95.4,1050.9,95.1,1045.2,92.5,1043.5z"/>
				<path fill="#444345" d="M95.5,1065.2c-0.2-3-0.4-8.6-2.9-10.3c-2.5-1.6-7.7-4.6-7.7-4.6s0,0,0,6.3
					C85,1062.9,95.5,1065.2,95.5,1065.2z"/>
				<path fill="#444345" d="M99.1,1042.5c0,0,11-2.4,11-8.6c0-6.3,0-6.3,0-6.3s-6.2,3-8.7,4.6C98.8,1033.8,99.3,1039.5,99.1,1042.5z
					"/>
				<path fill="#444345" d="M99.1,1053.8c0,0,11-2.3,11-8.6c0-6.2,0-6.3,0-6.3s-6.2,3-8.7,4.6C98.8,1045.2,99.3,1050.9,99.1,1053.8z
					"/>
				<path fill="#444345" d="M110.1,1056.6c0-6.3,0-6.3,0-6.3s-6.1,2.9-8.6,4.6c-2.5,1.6-2.4,7.3-2.5,10.3
					C99,1065.2,110.1,1062.9,110.1,1056.6z"/>
				<path fill="#444345" d="M101.1,1025.9c0-2.9-0.7-6.6-4-10.3c0,0-3.9,4.8-3.9,9.5c0,3.1,1.7,5.7,3.9,8.4
					C97.1,1033.7,101.1,1029,101.1,1025.9z"/>
				<path fill="#444345" d="M84.3,851.2c0.8,0,1.5-0.1,2.2-0.4c1.6,1.5,3.7,2.2,5.8,2.2c2.1,0,4.2-0.8,5.8-2.2
					c0.7,0.3,1.5,0.4,2.2,0.4c3.5,0,6.3-2.8,6.3-6.3s-2.8-6.3-6.3-6.3c-0.3,0-0.6,0-0.9,0.1c-1.6-2.4-4.2-3.7-7.1-3.7
					c-2.9,0-5.5,1.3-7.1,3.7c-0.3,0-0.6-0.1-0.9-0.1c-3.5,0-6.3,2.8-6.3,6.3C78.2,848.4,81,851.2,84.3,851.2z"/>
				<path fill="#444345" d="M94,862c0,0.9,0.8,1.7,1.8,1.7c0.9,0,1.7-0.8,1.7-1.7s-1.7-3.6-1.7-3.6S94,860.9,94,862z"/>
				<path fill="#444345" d="M99.1,858.3c0.9,0,1.8-0.8,1.8-1.7s-1.8-3.6-1.8-3.6s-1.7,2.6-1.7,3.6C97.3,857.5,98.2,858.3,99.1,858.3
					z"/>
				<path fill="#444345" d="M92,859.2c0-0.9-1.7-3.6-1.7-3.6s-1.8,2.6-1.8,3.6s0.8,1.7,1.8,1.7C91.2,861,92,860.2,92,859.2z"/>
				<path fill="#444345" d="M8.8,1010.5c0,6.4,5.2,11.7,11.7,11.7s11.7-5.2,11.7-11.7s-5.2-11.7-11.7-11.7S8.8,1004,8.8,1010.5z
					 M29.1,1010.5c0,4.8-4,8.8-8.7,8.8c-4.8,0-8.8-4-8.8-8.8c0-4.8,4-8.8,8.8-8.8S29.1,1005.7,29.1,1010.5z"/>
				<polygon fill="#444345" points="16,1014.9 22,1012 24.8,1006.1 19,1009.1 				"/>
				<path fill="#444345" d="M113.9,866.3c0-0.1-0.1-0.2-0.1-0.3L113.9,866.3L113.9,866.3z"/>
				<path fill="#444345" d="M110.6,876.1c7.1-2,14.4,3.1,15.4,10.5c0,0.3,0.1,0.6,0.1,0.9c0.3,0,0.6,0.1,0.9,0.1
					c6-0.2,12.1-0.2,18.1-0.5c-2.5,0.7-4.4,3-4.4,5.7c0,3.3,2.7,6,6,6s6-2.7,6-6c0-3-2.2-5.4-5-5.9c4.4-0.3,3.6-0.2,4.4-4.2
					c0.4-1.9,0.6-3.9,0.8-5.8c0.2-1.8-0.3-2.2-2.1-2.4c-2.7-0.1-5.1-0.2-7.9-0.3c-0.1,0-0.2-0.1-0.2-0.2c0-2,0.5-6.8,0.5-6.8
					s-0.9-0.8-1.9-0.1c0,2.4,0,4.6,0,7.1c0,0-3.6-0.1-8.2-0.2c-0.2,0-0.9-0.4-1.3-1.1c-0.7-1.9-2.4-5.6-4.4-11.4
					c0,0-1.1-2.4-3.8-2.4c-2.1,0-13.4,0-13.4,0v14.2c0,0-0.8,0.4-1.5,0.5C108.2,876.1,108.7,876.5,110.6,876.1z M149.8,892.9
					c0,1.7-1.5,3.1-3.1,3.1c-1.7,0-3.1-1.5-3.1-3.1c0-1.7,1.5-3.1,3.1-3.1C148.4,889.8,149.8,891.1,149.8,892.9z M113.8,866v-2.7h11
					l3.5,10.5l0.1,0.1c-4.7-0.1-10.1,0-14.6,0.2V866z"/>
				<path fill="#444345" d="M113.3,877.3c-6,0-10.8,4.8-10.8,10.8c0,6,4.8,10.8,10.8,10.8c5.9,0,10.8-4.8,10.8-10.8
					C124.1,882.1,119.3,877.3,113.3,877.3z M113.3,894.1c-3.3,0-6-2.7-6-6c0-3.3,2.7-6,6-6s6,2.7,6,6
					C119.3,891.4,116.6,894.1,113.3,894.1z"/>
				<path fill="#444345" d="M87.2,1074.3l-7.9-4.2c0.5-1.7,0.5-3.7,0-5.6c-1.6-5.5-7.9-8.9-13.4-7.3c-5.6,1.6-8.8,7.3-7.1,12.8
					c1.6,5.5,7.9,8.9,13.4,7.3c1.8-0.6,3.5-1.5,4.6-2.8l7.9,4.4c0.8,0.4,1.7,0.1,2.2-0.7l1.1-1.9C88.4,1075.5,88,1074.8,87.2,1074.3
					z M70.8,1073.2c-3.2,0.9-7-1.1-7.9-4.2c-0.9-3.2,0.9-6.6,4.2-7.5c3.2-0.9,7,1.1,7.9,4.2C75.9,1069,74.1,1072.3,70.8,1073.2z"/>
				<path fill="#444345" d="M42.4,987.3c6-6.8,2.7-11.7,1.7-13.6c-0.9-1.9-1.3-4.7-1.3-4.7l0.2-0.9l0.2-1.1
					c-1.3-0.4-2.7,0.3-2.7,0.3c0.3,2.1-0.3,4.4-0.6,5.3c-0.4,0.9-1.6,2.8-2.2,4c-0.6,1.1-2.1,4.7-9.9,8.1
					c-7.9,3.4-18.3,0.3-18.3,0.3c-2.7-0.7-4.9,0.4-4.9,0.4L4,986.3l0.1,0.8l-0.3,0.5l0.1,0.6c7.7,11.9,23.6,7.9,23.6,7.9
					S36.4,994,42.4,987.3z"/>
				<path fill="#444345" d="M215.2,1059.3c3.5-0.1,6.8-0.7,10.1-2c1.1-0.5,1.5-1.3,1.6-2.5c0.1-0.7,0.1-1.3,0.1-1.9
					c0-0.1,0-0.1,0-0.2c0-0.1-0.3-0.4-0.7-0.4c-1.6-0.1-1.9-0.5-2.4-2c-0.4-1.1-0.7-2.1-1.1-3.1c3.9-0.9,3.4-3.7,2-7.3
					c-1.1,1.6-0.3,2.1-2.1,2.5c-1.7,0.4-3,1.3-3.8,3c-0.1,0.3-0.3,0.7-0.5,1.1c-0.2-2,0.7-3.2,2.4-4.7c-0.8-0.8-4-0.4-4.8-0.9
					c-3.1-2.2-17.5-4.8-26.5,2c-0.5-0.5-0.9-0.9-1.5-1.3c2.1-0.9,2.9-2,2.5-3.7c-0.3-1.3-1.3-2-2.4-1.9c-1.9,0.1-2.6,0.9-2.9,4.2
					c-0.7-0.7-1.1-1.1-1.9-1.9c0,0.6-0.2,1.1-0.1,1.5c0.3,0.9,1.1,1.5,1.9,1.8c0.7,0.1,1.1,0.5,1.3,1.1c0.2,0.4,0.4,0.9,0.8,1.1
					c0.9,0.9,1.1,2.1,1.1,3.5c0,3,0.1,6,0.5,9c0.4,3.2,1.1,6.3,2.6,9.2c0.5,0.9,1.1,0.9,1.9,0.8c0.3-0.1,0.6-0.8,0.6-1.1
					c0.2-2.4,1.3-4.4,2.4-6.4c4.2,1.3,8.3,1.5,12.5,1.3c0.2,0,0.6,0.4,0.8,0.7c0.8,1.5,1.5,3.2,2.2,4.8c0.4,0.9,1.3,0.9,2,0.8
					c0.2-0.1,0.3-0.9,0.3-1.3c0-1.7,0-3.6,0-5.3c0.2-0.1,0.3-0.1,0.3-0.2C214.7,1059.3,215.1,1059.3,215.2,1059.3z M187.2,1039.8
					c-0.5-1.1-0.2-1.9,0.6-2c0.5-0.1,1.1-0.1,1.1,0.6C189.1,1039.2,188.5,1039.7,187.2,1039.8z"/>
				<path fill="#444345" d="M33.5,924.2c6.6-0.6,8.9-3.9,10.8-10.3c1.1-3.9,1.3-7.7,1.5-11.8c-0.3-3.3-0.3-6.6-0.7-9.9
					c-0.7-4.6-1.8-9.3-4-13.4c-1.7-3.3-2.2-5.3-5.9-5.9c-4-0.5-8.4,1-10.1,5.6c-0.5,1.3-1.1,2.4-1.3,3.7c-0.7,2.8-2.4,5-4.4,7
					c-5.8,5.3-7.7,12.1-6.4,19.6C14.5,918.6,23.5,925.1,33.5,924.2z M21.2,893.3c3.5-3.3,6-6.8,7.1-11.5c0.2-0.9,0.7-1.8,1.1-2.6
					c1.3-2.3,4.2-2.7,6.1-0.8c0.8,0.9,1.3,1.9,1.7,2.9c2.8,6.6,4,13.7,4,19.9c0,4.7-0.3,8.4-1.5,11.9c-1.7,5-5.3,7.5-10.1,7
					c-4-0.4-7.3-2.4-9.9-5.5C15.2,908.4,15.4,898.6,21.2,893.3z"/>
				<path fill="#444345" d="M29.5,917.1c3.2,0.3,5.6-0.7,7.1-3.6c2.8-5.6,3-11.3,1.1-17.2c-0.4-1.3-1.3-2.2-2.5-2.7
					c-3.5-1.5-7.1-1.5-10.5-0.1c-1.6,0.8-3.2,1.8-3.9,3.6c-0.4,0.9-0.3,1.6,0.7,2.1c1.5,0.8,3,1.5,4.6,2.4c0.5,0.3,0.9,0.7,1.3,0.9
					c0,0.1-0.1,0.3-0.2,0.4c-0.4-0.1-0.8-0.1-1.1-0.2c-1.7-0.5-3.5-1.1-5.2-1.5c-0.9-0.3-1.5,0.1-1.7,0.9c-0.1,0.4-0.2,0.8-0.2,1.1
					C17.9,910,22.8,916.4,29.5,917.1z"/>
				<path fill="#444345" d="M30.6,889c0.9,0.3,1.9,0.5,2.9,0.7c1.9-0.1,2.7-0.6,2.7-2.5c0-1.3-0.3-2.8-0.7-4.2c-0.3-1.1-1.1-2-2.4-2
					c-1.3-0.1-2.5,0.5-3,1.7c-0.5,1.1-0.9,2.4-1.1,3.8C28.7,887.8,29.1,888.5,30.6,889z"/>
				<path fill="#444345" d="M56.9,983.4c-0.4,0.1-0.9-0.1-0.9-0.5c0,0-0.5-1.3-2-2.9c-0.4-0.4-0.8-0.7-1.1-0.9
					c-0.6-0.5-1.3-0.9-1.8-1.6c0.9,8.1,4.4,14,8.3,14c4.7,0,8.6-8.4,8.6-18.9s-4-18.9-8.7-18.9c-3.1,0-5.8,3.7-7.3,9.1
					c0.6,0.9,1.1,1.3,1.9,1.8c0.4,0.3,0.9,0.7,1.3,1.1c1.9,1.8,2.4,3.5,2.4,3.6s0,0.1,0,0.2c0,0.3-0.2,0.6-0.6,0.7s-0.9-0.1-0.9-0.5
					c0,0-0.5-1.3-2-2.9c-0.4-0.4-0.8-0.7-1.1-0.9c-0.5-0.3-0.9-0.7-1.3-1.1c-0.2,0.9-0.4,1.8-0.5,2.8c0.7,2.4,1.6,3.1,2.8,4
					c0.4,0.3,0.9,0.7,1.3,1.1c1.9,1.8,2.4,3.5,2.4,3.6s0,0.1,0,0.2c0,0.3-0.2,0.6-0.6,0.7s-0.9-0.1-0.9-0.5c0,0-0.5-1.3-2-2.9
					c-0.4-0.4-0.8-0.7-1.1-0.9c-0.7-0.5-1.5-1.1-2-1.9c0,0.6,0,1.1,0,1.7c0.7,3.5,1.7,4.4,3.1,5.3c0.4,0.3,0.9,0.7,1.3,1.1
					c1.9,1.8,2.4,3.5,2.4,3.6c0,0.1,0,0.1,0,0.2C57.5,983,57.3,983.3,56.9,983.4z"/>
				<path fill="#444345" d="M196.9,877c1.6,1.8,3.6,3.6,6,3.8c1.7,0.3,3.9-0.9,5.2-0.9c2.8,0,2.2,0.7,5.2,0.7c2.9,0,8.5-7,9.9-14.2
					c0.3-1.8,0-4.9-1.3-7.9c-1.6-3.5-6.4-4.8-9.5-4.2c-0.8,0.1-2.5,0.5-3.9,0.7c0.3-0.9,0.9-2.6,2.6-3.5c0.5-0.3,0.7-0.9,0.4-1.3
					c-0.3-0.5-0.9-0.7-1.3-0.4c-2.7,1.5-3.6,4.2-3.8,5.4c-1.3-0.3-4.4-0.8-5.8-0.8c-1.7,0.1-3.4,0.6-4.9,1.7c-1.3,1.1-2,2.5-2.6,4
					c-0.8,2.2-1.1,4.4-0.8,6.8C192.8,870.8,194.4,874.1,196.9,877z M202.8,858.9c1.5,0,2.7,1.1,2.7,2.5c0,1.8-1.3,3.3-2.8,3.3
					c-1.1,0-2.1-1.5-2.1-3.2C200.8,860,201.5,858.9,202.8,858.9z"/>
				<path fill="#444345" d="M204.7,852.3c1.1,0.1,2.4,0.2,2.9-0.9c0.6-1.1-0.3-2.2-1.1-3.1c-1.8-1.9-4.6-2.3-7.7-0.9
					c0.4,0.7,0.8,1.3,1.1,1.8C200.9,851,202.6,852,204.7,852.3z"/>
				<path fill="#444345" d="M133.7,858.3c1.9-4,4.6-7.1,4.6-7.1c4,1.5,10.8,3.2,15.6-0.2c6.4-4.6,5.8-14.6,15-19.5
					c2.1-1.1-18.1-5.9-28.7,0.2c-7.9,4.5-7.3,12-7.1,14.6c10.1-12,25.2-11.4,25.2-11.4s-21.4,7.4-27.7,22.2
					C130.2,858.1,133.1,859.6,133.7,858.3z"/>
				<path fill="#444345" d="M212,1007c4.8-9.9-0.6-17-2.7-19.6c-2.1,18.9-17.9,28.5-17.9,28.5s16.7-21.8,13.2-41
					c-0.3-1.5-4.2-1.1-3.9,0.7c0.8,5.4,0.2,10.3,0.2,10.3c-5,1.1-13,4-15.8,10.7c-3.5,8.9,4,18.7-2,29.9
					C181.8,1029.2,205.5,1020.4,212,1007z"/>
				<path fill="#444345" d="M37.2,932.9c-2,1.5-1.6,5.4-0.1,7.5c1.5,1.9,5.3,3.4,7.3,1.8c0.4-0.3,1.6-1.1,1.6-1.1
					c2.2,1.7,3.6,0,4.6,1.3c1.1,1.5,3.8,4.7,4.6,5.8c0.9,1.1,2.4,1.9,3.2,1.3c0.8-0.6,3.5-2.5,4.6-3.3c1.1-0.8,1.1-1.8,0.5-2.6
					c-0.6-0.8-2.2-0.6-3-1.5c-0.8-0.9-3.1-3.8-3.8-4.7c-0.9-1.3-0.1-2.7,1.6-3.4c11.8-4.6,16,2.3,19.7-0.5
					c2.8-2.1-0.3-11.2-6.6-19.3s-14.6-13.4-17.4-11.1C49.5,906.8,61,914.9,37.2,932.9z M57.2,907.8c0.7-0.5,6.4,2.8,11.5,9.1
					c4.9,6.3,6.3,12.1,5.6,12.6c-0.7,0.5-6.4-2-11.4-8.3C57.9,914.9,56.6,908.3,57.2,907.8z"/>
				<path fill="#444345" d="M15,980.9c8.2,0,15-3.9,15-5.9c0,0,0-0.6,0-6.2c0-5.7-10.3-10.3-10.3-14.4c0-4,10.3-8.7,10.3-14.4
					c0-5.7,0-6.2,0-6.2c0-2.1-6.8-5.9-15-5.9s-15,3.8-15,5.8c0,0,0,0.6,0,6.2c0,5.7,10.3,10.3,10.3,14.4c0,4-10.3,8.7-10.3,14.4
					c0,5.7,0,6.2,0,6.2C0,977.1,6.8,980.9,15,980.9z M3.5,934.1c1.8-1.1,5.3-2.9,10.9-2.9s10.6,2.9,10.6,2.9
					c0.4,0.2,1.8,1.1,0.9,1.6c-2.2,1.3-6.6,2.7-11.6,2.7s-9.3-1.5-11.5-2.8C1.8,935,3.5,934.1,3.5,934.1z M2.9,968.8
					c0-1.7,2.7-4.4,4.7-6.4c2.8-2.7,5.4-4.7,5.4-7.9c0-3.2-2.7-5.2-5.5-7.9c-2-2-4.8-4.7-4.8-6.4l-0.1-2.6c2.7,1.5,7.1,2.9,11.7,2.9
					c4.7,0,9.1-1.3,11.8-2.9l-0.1,2.6c0,1.7-2.8,4.4-4.8,6.4c-2.8,2.7-5.4,4.7-5.4,7.9c0,3.2,2.2,5.2,5,7.9c2,2,4.4,4.7,4.4,6.4v3.5
					c-1.9-1.3-9.5-2-9.5-5.9c0-1.9-2.7-1.9-2.7,0c0,3.9-8.1,4.6-10.1,5.9v-3.5H2.9z"/>
				<path fill="#444345" d="M210.9,900.8c0,11,8.9,19.9,19.9,19.9c11,0,19.9-8.9,19.9-19.9c0-10.9-8.9-19.9-19.9-19.9
					C219.8,880.9,210.9,889.8,210.9,900.8z M236.2,884.7c6.7,2.2,11.5,8.6,11.5,16c0,3.9-1.3,7.5-3.5,10.3c-0.6-0.5-1.3-1.8-0.7-3.2
					c0.6-1.3,0.8-4.6,0.7-5.8c-0.1-1.3-0.8-4.2-2.5-4.2c-1.7,0-2.9-0.6-4-2.7c-2.1-4.2,4-5.1,1.8-7.5c-0.6-0.7-3.7,2.7-4.2-1.8
					C235.5,885.7,235.8,885.1,236.2,884.7z M240.2,914.9c-2.7,1.7-5.9,2.8-9.4,2.8c-1.8,0-3.7-0.3-5.3-0.9c0.9-0.6,1.1-1.3,2-1.3
					c1.1,0,1.9-0.4,3.1-0.7c1.1-0.2,3-1.3,4.6-1.5C236.7,913.3,239.4,913.5,240.2,914.9z M228.4,884c-0.4,0.8-1.5,1.1-2.1,1.7
					c-1.5,1.3-2,1.1-2.8,2.3c-0.8,1.3-3.3,3-3.3,3.9s1.3,1.9,1.8,1.7c0.7-0.2,2.4-0.2,3.3,0.2c0.9,0.4,8.1,0.7,5.8,6.8
					c-0.7,1.9-3.9,1.5-4.7,4.7c-0.1,0.5-0.6,2.4-0.6,3.1c-0.1,0.9,0.7,4.8-0.3,4.8s-3.6-3.4-3.6-4c0-0.6-0.7-2.8-0.7-4.6
					s-3.2-1.8-3.2-4.2c0-2.2,1.7-3.3,1.3-4.4c-0.4-1.1-3.4-1.1-4.6-1.3C217.1,889,222.2,884.9,228.4,884z"/>
				<path fill="#444345" d="M135.7,1029.6c-4,0-7.3,3.3-7.3,7.3s3.3,7.3,7.3,7.3c4,0,7.3-3.3,7.3-7.3
					C142.9,1032.9,139.7,1029.6,135.7,1029.6z M132.5,1040c0-0.2-0.3-0.9-0.3-1.6c0-0.7-1.1-0.7-1.1-1.5c0-0.8,0.7-1.3,0.5-1.6
					c-0.1-0.4-1.3-0.4-1.6-0.5c0.8-2,2.7-3.6,4.9-4c-0.2,0.3-0.6,0.4-0.8,0.6c-0.5,0.5-0.8,0.4-1.1,0.9s-1.1,1.1-1.1,1.5
					c0,0.3,0.5,0.7,0.7,0.7c0.2-0.1,0.9-0.1,1.1,0.1c0.4,0.1,3,0.3,2.1,2.4c-0.3,0.7-1.5,0.6-1.7,1.7c-0.1,0.2-0.2,0.9-0.2,1.1
					c0,0.4,0.3,1.7-0.1,1.7C133.5,1041.4,132.5,1040.2,132.5,1040z M135.7,1043.1c-0.7,0-1.3-0.1-1.9-0.3c0.4-0.2,0.4-0.5,0.8-0.5
					s0.7-0.2,1.1-0.3c0.4-0.1,1.1-0.5,1.6-0.5c0.5,0,1.5,0,1.8,0.5C138.1,1042.7,137,1043.1,135.7,1043.1z M140.7,1040.6
					c-0.2-0.2-0.5-0.7-0.2-1.1c0.2-0.5,0.3-1.6,0.2-2.1c-0.1-0.5-0.3-1.5-0.9-1.5s-1.1-0.2-1.5-0.9c-0.8-1.5,1.5-1.8,0.7-2.7
					c-0.2-0.3-1.3,0.9-1.5-0.7c0-0.1,0.1-0.3,0.3-0.5c2.4,0.9,4.2,3.2,4.2,5.9C141.9,1038.4,141.4,1039.6,140.7,1040.6z"/>
				<path fill="#444345" d="M44.9,1061.1c0,0.3,0,0.5,0,0.8c0.1,1.7,1.5,3.2,3.4,3.2c1.7,0,3.2-1.3,3.4-3c0.1-0.3,0.1-0.6,0.1-0.9
					c0-0.9,0.4-1.3,1.1-1.5c6.4-1.5,11.4-6.6,12.4-13c0.1-0.8,0.1-1.5,0.4-2.1c0.6-0.5,1.5-0.9,1.7-1.5c0.2-0.5-0.4-1.3-0.6-2.1
					c1.1-1.1,1.1-1.6-0.2-2.9c1.3-1.3,1.3-1.9-0.1-3.2c0.9-0.4,1.3-1.1,0.9-2c-0.3-0.6-1.1-0.9-1.6-1.3c-0.1,0.1-0.1,0.2-0.2,0.2
					c-0.1-0.6-0.1-1.1-0.4-1.5c-0.4-0.5-0.9-1.1-1.5-1.1c-0.3-0.1-0.9,0.6-1.1,0.9c-0.7,1.3-1.1,2.8-1.7,4.2s-1.3,2.7-2.2,3.9
					c-2.7,3.4-6.3,4.4-10.4,3.6c-4-0.9-6.8-3.3-7.9-7.3c-0.2-0.8-0.2-1.5-0.4-2.3c0.9-0.6,2.1-0.9,1.6-2.2c-0.2-0.7-1.1-1.1-2-1.7
					c0-0.5,0.2-1.5-0.9-1.9c-0.9-0.4-1.6,0.2-2.2,1.1c-0.7-0.8-1.3-1.6-2.4-1.1c-0.6,0.4-0.9,1.3-1.5,2.2c-0.7,0-1.8-0.1-2,1.3
					c-0.1,0.9,0.6,1.5,2.4,2c-1.1,1.3-3,1.3-4.2,2.4c1.1,0.6,2,1.1,3.1,1.7c0.6,0.3,0.8,0.7,0.7,1.3c-0.2,2.1-0.3,4.4-0.5,6.4
					c-0.8,9.2,5.5,14.3,11.5,15.9C44.7,1059.8,45,1060,44.9,1061.1z M35.7,1034.1c-0.3,0-0.7-0.4-1.3-0.8c0.7-0.4,0.9-0.9,1.3-0.9
					c0.3,0,0.9,0.6,0.8,0.8C36.3,1033.6,35.9,1034.1,35.7,1034.1z"/>
				<path fill="#444345" d="M211.6,940.4h-6.4c-1.1,0-2.7,0.7-3.4,1.6l-8.5,10.9c-0.7,0.9-0.3,0.9,0.9,0.9h34.6c1.1,0,1.6,0,0.9-0.9
					l-7.4-11c-0.7-0.9-2.1-1.5-3.3-1.5h-1.6v-3.9h-5.8V940.4z"/>
				<path fill="#444345" d="M219.2,930.1l0.5-0.1c1.1-0.2,2-1.1,2.7-2.2c0.7-1.1,0.8-3.6,0.6-4.9c-0.7,2-2.1,2.7-3.7,3.4
					c-0.4,0.2-0.9,0.4-1.3,0.5c-0.5,0.2-0.9,0.4-1.5,0.6c-1.5,0.8-2.1,2-2.4,4c-0.2,0.8-0.3,1.6-0.3,2.8c0.8-2,1.6-3,3.3-3.6
					C217.8,930.5,218.5,930.3,219.2,930.1z"/>
				<path fill="#444345" d="M227,969.3h0.9v-11.9c0-1.1,0-1.6,0-1.6H227h-1.3h-15h-1.3h-11h-4v2.2v11.3h4h2.7v-8
					c0,0,0.2,0.3,1.1,0.3h5.2c0,0,0.5-1.1,0.5-0.2v7.9h1.5h1.3h15L227,969.3L227,969.3z M222.2,965.5c0,0.2,0.7,0.9,0.5,0.9h-5.7
					c-0.2,0-0.6-0.8-0.6-0.9v-5.7c0-0.2,0.4-0.1,0.6-0.1h5.7c0.2,0-0.5-0.1-0.5,0.1V965.5z"/>
				<path fill="#444345" d="M143.1,1056.3c0-0.6-0.5-0.9-1.1-0.9h-13.4c-0.6,0-1.1,0.4-1.1,0.9c0,0.6,0.5,0.9,1.1,0.9h13.4
					C142.7,1057.3,143.1,1056.9,143.1,1056.3z"/>
				<rect x="131.4" y="1052.5" fill="#444345" width="9.7" height="2.9"/>
				<path fill="#444345" d="M117.8,828.2c-4.6,0.8-7.9,4.6-8.2,9.1l8.7-0.5L117.8,828.2z"/>
				<path fill="#444345" d="M119.7,839.3l-9.9,0.5c0.9,4.8,5.2,8.4,10.3,8.1c5.5-0.3,9.7-4.9,9.4-10.4c-0.3-5-4.2-9-9.1-9.4l0.5,9.9
					C120.9,838.7,120.3,839.2,119.7,839.3z"/>
				<path fill="#444345" d="M78.2,866c0.4,0,0.9-0.6,1.3-0.7s0.9-0.6,1.1-0.8l5.5-3.9c0.3-0.2,0.5-0.6,0.5-0.9
					c0-0.3-0.2-0.6-0.5-0.8l-5.5-3.8c-0.3-0.2-0.8-0.9-1.1-1.1c-0.5-0.1-0.9-0.7-1.3-0.7H62.5l1.8,12.6H78.2L78.2,866z"/>
				<path fill="#444345" d="M41,865.1l5.5,3.8c0.3,0.2,0.8,0.5,1.1,0.7c0.5,0.1,0.9,0.4,1.3,0.4h8.1V890c0,0.5,0.6,0.2,1.1,0.2h2
					c0.5,0,0.7,0.3,0.7-0.2v-39.7c0-0.5-0.2-1.6-0.7-1.6h-2c-0.5,0-1.1,1.1-1.1,1.6v9h-8c-0.4,0-0.9,0-1.3,0.1s-0.9,0.3-1.1,0.5
					l-5.5,3.8c-0.3,0.2-0.5,0.5-0.5,0.8C40.6,864.7,40.8,864.9,41,865.1z"/>
				<path fill="#444345" d="M72.4,874.2v31.6c0,2.2,2.4,4.6,4.6,4.6h15.4c2.2,0,4.2-2.4,4.2-4.6v-31.6c0-2.2-2-3.4-4.2-3.4H77
					C74.8,870.8,72.4,872,72.4,874.2z M84.7,908.2c-1.5,0-2.8-0.9-2.8-2s1.3-2,2.8-2s2.8,0.9,2.8,2
					C87.5,907.2,86.3,908.2,84.7,908.2z M93.7,875.7v26.1H76.3v-26.1H93.7z"/>
				<path fill="#444345" d="M162,850.1c0,13.2,13.8,30.4,13.8,30.4s13.8-17.2,13.8-30.4c0-7.7-6.2-13.8-13.8-13.8
					C168.2,836.1,162,842.3,162,850.1z M175.8,842.7c4.2,0,7.5,3.4,7.5,7.5c0,4.2-3.4,7.5-7.5,7.5c-4.2,0-7.5-3.4-7.5-7.5
					C168.3,846.1,171.8,842.7,175.8,842.7z"/>
				<path fill="#444345" d="M88.9,887.4c0-2.4-1.8-4.2-4.2-4.2s-4.2,1.8-4.2,4.2c0,4,4.2,9.1,4.2,9.1S88.9,891.4,88.9,887.4z
					 M82.4,887.6c0-1.3,0.9-2.2,2.2-2.2c1.3,0,2.2,0.9,2.2,2.2c0,1.3-0.9,2.2-2.2,2.2C83.5,889.8,82.4,888.8,82.4,887.6z"/>
				<path fill="#444345" d="M177.1,885.5l-2.4,2.1l-2.4-2.1c-3.4-3.1-9-3.1-12.4,0c-3.9,3.6-3.9,9.3,0,12.8l14.7,13.5l14.7-13.5
					c3.9-3.6,3.9-9.3,0-12.8C186.1,882.4,180.4,882.4,177.1,885.5z"/>
				<path fill="#444345" d="M237.1,987.3l-3.3,2.8c-0.3,0.2-0.3,0.7-0.1,0.9l18.9,21.4c0.4,0.5,1.1,0.6,1.7,0.1l2.2-1.8
					c0.5-0.5,0.6-1.3,0.1-1.7l-18.7-21.6C237.8,986.9,237.4,986.9,237.1,987.3z"/>
				<path fill="#444345" d="M236.1,973.1c-2.9,0.3-6.6,3-8.4,4.2c-2.4,1.6-3.3,2.6-3.5,2.7c-0.7,0.6-0.1,1.9-1.3,3.1
					c-1.3,1.1-2.1,0.3-2.9,0.9c-0.4,0.3-1.5,1.1-1.7,1.3c-0.3,0.3-0.4,0.7-0.1,1.1c0,0,2.9,3.2,3.1,3.5c0.2,0.3,0.9,0.5,1.3,0.2
					c0.4-0.4,1.5-1.3,1.6-1.5c0.2-0.2-0.1-1.9,0.8-2.7c2.1-1.6,3.9-0.5,6.2,2.2c0.3,0.3,0.7-0.1,0.9-0.2c0.2-0.2,3.3-3,3.5-3.1
					c0.2-0.1,0.3-0.4,0.1-0.7c-0.2-0.3-1.1-1.5-1.6-2.1c-4.2-5.4,11.2-9,8.9-9.1C241.6,973,236.7,973,236.1,973.1z"/>
				<path fill="#444345" d="M224.1,1010.9l2.1,2.1c0.5,0.5,1.3,0.3,1.7-0.2l11.1-10.9l-3.4-3.9l-11.6,11.2
					C223.7,1009.6,223.7,1010.4,224.1,1010.9z"/>
				<path fill="#444345" d="M247.9,985.9c-0.2,0.3-0.4,0.6-0.7,0.9l-3.1,3.2l3.1,3.6l3.8-3.6c0.2-0.2,0.6-0.5,0.9-0.7
					c0.1,0,0.1,0,0.2-0.1c0.3-0.1,0.6,0,0.9,0.2c0.7,0.5,1.3,0.9,1.9,1.5c0.5,0.4,0.9,0.4,1.3-0.1c0.6-0.7,1.1-1.3,1.7-1.9
					c0.9-1.1,1.9-2.1,2.9-3.2c1.6-1.7,2.4-3.7,2.4-5.8c0-0.8,0-1.5-0.2-2.4c-0.3-2-1.3-3-3.3-3.3c-0.5-0.1-1.1-0.2-1.5-0.1
					c-0.6,0-1.3,0-1.8,0.1c-1.5,0.1-3,0.5-4.2,1.6c-0.9,0.9-1.9,1.8-2.9,2.7c-1.1,1.1-2.2,2-3.3,3.1c-0.3,0.3-0.4,0.6,0,0.9
					c0.7,0.7,1.3,1.5,1.9,2.1c0.3,0.3,0.4,0.5,0.2,0.9C248,985.6,247.9,985.6,247.9,985.9z M250.3,985.4l4.7-4.4
					c0.1-0.1,0.4-0.1,0.5,0c0.1,0.1,0.1,0.3,0,0.5l-4.2,5c-0.1,0.1-0.2-0.7-0.3,0.3l0,0c-0.1,0-0.2-0.2-0.2-0.2l-0.6-0.6
					c-0.1-0.1-0.1-0.2-0.1-0.3C250.2,985.6,250.3,985.4,250.3,985.4z"/>
				<path fill="#444345" d="M237.6,934c0,0.8-0.1,1.5,0.6,1.5h10.1v2.5c0,0.6-0.4,0.4,0.2,0.4h4c0.6,0,0.7,0.2,0.7-0.4v-2.5h9.5
					c0.8,0,1.1-0.9,1.1-1.5v-5.2h-26.1L237.6,934L237.6,934z"/>
				<path fill="#444345" d="M251.2,948.8V947c0-0.3-0.2-0.6-0.5-0.6s-0.5,0.3-0.5,0.6v1.7c-2.9,0.3-4.8,2.5-4.8,5.1
					c0,2.9,2.2,5.2,5.1,5.2c2.9,0,5.2-2.4,5.2-5.2C255.7,951.3,254.1,949.1,251.2,948.8z"/>
				<path fill="#444345" d="M261.5,939.4h-22c-1.1,0-2,1.1-2.2,2.2l-2.6,22.8c-0.1,0.6,0.1,1.5,0.6,2c0.4,0.5,1.1,0.9,1.6,0.9h27.3
					c0.7,0,1.3-0.5,1.6-0.9c0.4-0.5,0.6-1.1,0.6-1.8l-2.6-23C263.5,940.6,262.5,939.4,261.5,939.4z M250.4,963c-5,0-9.1-4-9.1-9.1
					s4-9.1,9.1-9.1c5,0,9.1,4,9.1,9.1S255.4,963,250.4,963z"/>
				<path fill="#444345" d="M155,1069.4v0.4h11.3c0.6,0,1.1-0.9,1.1-1.5c0-0.6-0.5-1.5-1.1-1.5H155h-1.3h-2.4c-3,0-5.4,1.9-6.2,4.8
					h-7.9v2.9h7.9c0.8,2.9,3.2,5.8,6.2,5.8h2.4l0,0h12.6c0.6,0,1.1-0.9,1.1-1.5s-0.5-1.5-1.1-1.5H155c-0.4,0-0.7-0.1-0.7-0.5
					c0-0.4,0.3-0.5,0.7-0.5h11.3c0.6,0,1.1-0.4,1.1-0.9c0-0.6-0.5-0.9-1.1-0.9H155l0,0c-0.4,0-0.7-0.6-0.7-0.9
					c0-0.4,0.3-0.9,0.7-0.9h11.3c0.6,0,1.1-0.4,1.1-0.9c0-0.6-0.5-0.9-1.1-0.9h-10.7v-0.4c-0.9,0-0.9-0.1-0.9-0.5
					C154.6,1069.5,154.6,1069.4,155,1069.4z"/>
				<path fill="#444345" d="M105.5,1076.6h27.3c1.3,0,3.3-0.7,3.3-1.6v-3.3c0-0.9-2.1-1.8-3.3-1.8h-27.3c-1.8,0-3.3,1.5-3.3,3.4
					C102.4,1075,103.9,1076.6,105.5,1076.6z"/>
				<path fill="#444345" d="M165.8,1086.7c0-1.8-1.5-3.4-3.4-3.4h-28.2c-1.3,0-1.9,0.6-2.9,1.6v3.4c0.9,0.9,1.6,1.7,2.9,1.7h28.2
					C164.3,1090.1,165.8,1088.6,165.8,1086.7z"/>
				<path fill="#444345" d="M131.4,1088.2v-2.9h-4h-5.8H96.6c0,0-2.5,1.1,1.3,2.8c5.7,2.4,10.3,2.8,14.7,3.4
					c1.5,0.2,6.6,1.3,9.9-1.5c1.1-1.1,2.4-1.8,3.4-1.8H131.4z"/>
				<path fill="#444345" d="M169.3,1059.4l8.2-0.8c-0.1-0.9-0.3-1.8-0.3-2.7c-0.1-2.3-0.2-4.6-0.3-7c-0.1-1.7,0-3.5,0-5.2
					c0.1-2,0.2-4.2,0.3-6.2c0.1-1.6,0.2-3.4,0.4-5c0.2-2,0.5-4,0.8-6c0.2-1.5,0.5-3.2,0.7-4.7c0.1-0.5-0.2-0.9-0.7-0.9
					c-0.3-0.1-0.6-0.1-0.9-0.1c-4.2,0-8.5,0-12.4,0c0,0,0,0,0,0.1c-0.9,0-1.9,0-2.9,0c-0.6,0-0.7,0-0.7,0.6
					c-0.1,0.8-0.2,1.5-0.2,2.2c0,1.5,0,3.1,0.1,4.6c0,1.5,0.1,3.1,0.2,4.6c0.1,1.5,0.2,3.1,0.3,4.6c0.1,1.5,0.2,2.8,0.3,4.2
					c0.1,1.9,0.3,3.9,0.5,5.8c0.1,1.6,0.3,3.2,0.4,4.8c0.2,1.5,0.3,3.2,0.5,4.8c0.1,0.8,0.2,1.5,0.3,2.2c0,0.2,0.1,0.4,0.4,0.4
					c0.5,0,0.9-0.1,1.5-0.1c0.8-0.1,1.6-0.1,2.4-0.2C168.6,1059.5,168.9,1059.4,169.3,1059.4z M174.8,1023.7c0.7,0,1.1,0.4,1.1,1.1
					c0,0.6-0.5,1.1-1.1,1.1c-0.6,0-1.1-0.5-1.1-1.1C173.7,1024.1,174.2,1023.7,174.8,1023.7z"/>
				<path fill="#444345" d="M175.7,1082.3c-0.5,1.5,0.9,3.3,2.6,3.3c1.3,0,2.5-0.9,2.9-2.4c0.3-1.3,0.3-2.5,0.1-3.8
					c-0.5-2.6-1.1-5.2-1.5-7.7c-0.4-2-0.9-4-1.3-6.1c-0.3-1.5-0.6-3.1-0.7-4.6v-0.1l-5.2,0.5c0.2,0.9,0.4,2,0.6,3
					c0.6,3.2,1.1,6.3,1.8,9.4c0.5,1.9,0.9,4,1.3,5.9c0.1,0.4,0,0.9-0.1,1.3C176,1081.3,175.8,1081.8,175.7,1082.3z"/>
				<path fill="#444345" d="M85.5,1019.1c1.3,0.1,2.6-0.1,4-0.2c0.1,0,0.1-0.1,0.1-0.2c0.6-1.1-0.1-2.9-1.3-3.4c0-1.1,0.2-2.4,0-3.6
					c-0.2-1.5-0.2-3.5-1.1-4.6c-2-2.9-5-6.3-7.5-8.9c-1.7-1.9-3.6-2.2-6.2-2.2c-10.1-0.1-20.1-0.2-30.1-0.3c-3.2,0-4.4,1.3-4.4,4.4
					c-0.1,4.9-0.1,9.9-0.2,15c-1.1-0.1-1.3,0.5-1.3,1.3c0,0.4,0,0.8,0,1.3c0,0.7,0.3,1.1,0.9,1.1c0.9,0,1.7,0,2.7,0
					c0.9,0.1,1.3-0.3,1.5-1.1c0.9-2.8,3.1-4.4,6-4.4c2.9,0,5.1,1.6,6,4.6c0.3,0.9,0.8,1.1,1.6,1.1c4.8,0,9.7,0.1,14.6,0.2
					c0.9,0,1.5-0.4,1.7-1.3c0.9-2.7,3.2-4.4,6-4.4c2.8,0,4.9,1.6,5.9,4.4C84.6,1018.3,85.1,1019.1,85.5,1019.1z M82.8,1007
					L82.8,1007l-9.5,0.4c-0.7,0-1.3-0.4-1.3-1.1l0.1-6.8c0-0.7,0.6-1.3,1.3-1.3l3,0.1c0.1,0,0.3,0,0.4,0.1c0.4,0.1,0.6,0.2,6.8,7.3
					c0.2,0.2,0.4,0.1,0.4,0.5C84.1,1006.9,83.5,1007,82.8,1007z"/>
				<path fill="#444345" d="M48.8,1014.1c-3,0-5.5,2.4-5.5,5.4s2.4,5.5,5.4,5.5s5.5-2.4,5.5-5.4
					C54.2,1016.6,51.8,1014.2,48.8,1014.1z"/>
				<path fill="#444345" d="M78.6,1014.5c-3,0-5.5,2.4-5.5,5.4c0,3,2.4,5.5,5.4,5.5s5.5-2.4,5.5-5.4
					C84.1,1017,81.6,1014.5,78.6,1014.5z"/>
				<path fill="#444345" d="M247.8,1026.3c0-0.9-2.4-1.7-10.3-0.7c0,0,1.9-1.6,2.7-1.9c0.8-0.3,4.2-2.4,3.6-5.1
					c-0.6-2.7-1.6-1.1-2.9,1.1c-1.1,2.1-2.7,4-4.9,5.3c0,0-0.7-4.2-3.1-4.4c-0.8,0-4,0-7.7,0.4l-0.7,0.1c-0.4,0-0.9,0.1-1.3,0.2
					c0,0.1-0.2,0.1-0.2,0.2v4.6c0,0.4-0.1,0.7-0.5,0.7s-0.5-0.3-0.5-0.7v-4.6l0,0c-0.9,0.1-1.3,0.2-1.8,0.3c0,0-7.1,1.1-11.8,2.5
					h-0.1c-0.1,0-0.2,0.1-0.3,0.1c-0.3,0.1-0.6,0.2-0.9,0.3c-0.2,0.1-0.4,0.1-0.6,0.2c-0.1,0-0.1,0.1-0.2,0.1
					c-0.1,0-0.2,0.1-0.3,0.1l0,0c-0.9,0.4-1.6,0.6-2.4,1.1c0,0-0.8,0.4-0.3,1.5c0.3,0.7,4.2,2.4,12,3.6v-3.5c0-0.4,0.1-0.7,0.5-0.7
					s0.5,0.3,0.5,0.7v3.7c0.9,0.1,1.3,0.1,1.7,0.2l0.9,0.1c2.6,0.3,5.1,0.5,9.9,0.6v-2.9c0-0.4,0.1-0.7,0.5-0.7s0.5,0.3,0.5,0.7v2.9
					h0.8c1.1,0,1.6,0,2.6-0.1c0,0,2.5,0.2,2.7-4.4c0,0,4.4-0.8,4,4.2c-0.2,3.7,3,3.8,3,1.1c0-2.5-0.7-5.4-5.5-6.4c0,0,3.9,0.5,7,1.1
					C247.5,1028.4,247.8,1027.3,247.8,1026.3z"/>
			</g>
			<g>
				<polygon fill="#444345" points="678.1,1020.6 677.4,1020.6 650.5,985.8 642.4,985.8 642.4,1038 654,1038 654,1003.2 
					653.4,1003.2 680.4,1038 687.7,1038 687.7,987.7 678.1,987.7 				"/>
				<polygon fill="#444345" points="706.1,1038 731.3,1038 731.3,1028.3 714.8,1028.3 714.8,1015.7 731.3,1015.7 731.3,1007 
					714.8,1007 714.8,994.4 731.3,994.4 731.3,987.7 706.1,987.7 				"/>
				<polygon fill="#444345" points="744.8,994.4 755.4,994.4 755.4,1038 764.1,1038 764.1,994.4 776.6,994.4 776.6,987.7 
					744.8,987.7 				"/>
				<polygon fill="#444345" points="832.4,1022.5 832.3,1022.5 821.6,985.8 815.8,985.8 805.5,1022.5 805.5,1022.5 795.1,987.7 
					784.6,987.7 800.9,1038 808.2,1038 817.9,1007 818.1,1007 828.2,1038 835.6,1038 853,987.7 842.4,987.7 				"/>
				<path fill="#444345" d="M888.7,985.4c-15.2,0-25.3,11.7-25.3,26.9c0,15,9.7,27.1,25.3,27.1c15.6,0,25.3-12,25.3-27.1
					C914.1,997.1,904,985.4,888.7,985.4z M888.7,1029.6c-11.1,0-15-9.7-15-17.6c0-8.3,5.6-16.6,15-16.6c9.5,0,15,8.4,15,16.6
					C903.7,1019.8,899.8,1029.6,888.7,1029.6z"/>
				<path fill="#444345" d="M959.8,1002.7c0-10.9-7.1-15-17.1-15h-14.4v50.2h11.6v-20.3h-0.7l12.5,20.3h12.1l-14.5-21.4
					C956.3,1015.5,959.8,1009.1,959.8,1002.7z M940.4,1010.9h-0.5v-16.5h0.6c5.3,0,9.3,1.7,9.3,8
					C949.9,1008.7,945.9,1010.9,940.4,1010.9z"/>
				<polygon fill="#444345" points="1015.5,987.7 1003.2,987.7 987.4,1008 987.2,1008 987.2,987.7 976.6,987.7 976.6,1038 
					987.2,1038 987.2,1013.8 987.4,1013.8 1003.7,1038 1016.6,1038 996.1,1010.9 				"/>
				<path fill="#444345" d="M360.6,873.3c-25,0-41.6,19.1-41.6,44c0,24.7,15.9,44.3,41.6,44.3c25.6,0,41.6-19.6,41.6-44.3
					C402.1,892.4,385.6,873.3,360.6,873.3z M360.6,945.5c-18.1,0-24.6-15.9-24.6-28.8c0-13.6,9.2-27.3,24.6-27.3
					s24.6,13.7,24.6,27.3C385.2,929.6,378.8,945.5,360.6,945.5z"/>
				<path fill="#444345" d="M443.5,876.6h-22.4v83.1h15.4v-31.9h9.3c17.2,0,26.9-8,26.9-25.8C472.6,883,461.1,876.6,443.5,876.6z
					 M441,915.3h-4.4v-26.1h4c9.2,0,15.4,1.9,15.4,12.8C456,912.9,450.7,915.3,441,915.3z"/>
				<polygon fill="#444345" points="491.7,959.7 535.1,959.7 535.1,945.2 508.1,945.2 508.1,923 533.3,923 533.3,908.5 508.1,908.5 
					508.1,889.2 535.1,889.2 535.1,876.6 491.7,876.6 				"/>
				<polygon fill="#444345" points="612.4,932.7 612.7,932.7 568.6,872.8 556.4,872.8 556.4,959.7 573.8,959.7 573.8,901.7 
					573.3,901.7 617.6,961.6 629.8,961.6 629.8,876.6 612.4,876.6 				"/>
				<polygon fill="#444345" points="695.5,959.7 711.9,959.7 711.9,923 736.1,923 736.1,908.5 711.9,908.5 711.9,889.2 738,889.2 
					738,876.6 695.5,876.6 				"/>
				<path fill="#444345" d="M795.8,961.6c25.6,0,41.6-19.6,41.6-44.3c0-24.9-16.5-44-41.6-44s-41.6,19.1-41.6,44
					C754.4,942,770.3,961.6,795.8,961.6z M795.8,889.4c15.4,0,24.6,13.7,24.6,27.3c0,13-6.4,28.8-24.6,28.8
					c-18.1,0-24.6-15.9-24.6-28.8C771.3,903.1,780.4,889.4,795.8,889.4z"/>
				<path fill="#444345" d="M894.1,873.3c-25,0-41.6,19.1-41.6,44c0,24.7,15.9,44.3,41.6,44.3c25.6,0,41.6-19.6,41.6-44.3
					C935.6,892.4,919.3,873.3,894.1,873.3z M894.1,945.5c-18.1,0-24.6-15.9-24.6-28.8c0-13.6,9.2-27.3,24.6-27.3
					c15.4,0,24.6,13.7,24.6,27.3C918.7,929.6,912.3,945.5,894.1,945.5z"/>
				<path fill="#444345" d="M1018.7,918.2c0-24-16.2-41.6-40.6-41.6h-21.8v83.1h21.8C1002,959.7,1018.7,941.8,1018.7,918.2z
					 M971.8,945.2v-56.1h2.1c18.5,0,27.9,9.7,27.9,28c0,16.6-7.9,28-27.9,28L971.8,945.2L971.8,945.2z"/>
			</g>
		</g>
	</g>
</g>
<g id="OFN_beta__x28_outlined_x29_">
	<g>
		<g>
			<path fill="#FFFFFF" d="M787.9,977.7l0.2-5.2c0-0.4,0-0.5,0-0.6c-0.1-0.1-0.2-0.3-0.4-0.7c-0.1-0.3-0.2-0.6-0.2-0.7v0
				c0.1,0,0.3-0.1,0.9-0.1c0.5,0,1.1,0,1.6,0c0.5,0,1,0.1,1.4,0.1c0.4,0.1,0.9,0.2,1.2,0.3c0.4,0.1,0.7,0.4,1,0.6
				c0.2,0.3,0.3,0.6,0.3,0.9s-0.1,0.6-0.2,0.9c-0.1,0.3-0.3,0.5-0.5,0.6c-0.3,0.3-0.6,0.4-1,0.6c0,0,0,0,0,0s0.1,0,0.2,0.1
				s0.2,0.1,0.3,0.1c0.1,0,0.2,0.1,0.4,0.2c0.2,0.1,0.3,0.2,0.4,0.3s0.2,0.2,0.4,0.4c0.2,0.3,0.4,0.8,0.3,1.3c0,0.5-0.2,1-0.5,1.5
				c-0.3,0.4-0.8,0.8-1.4,1.1c-1.1,0.5-2.4,0.7-3.8,0.6l-0.7-0.1c0,0,0-0.4,0-1C787.9,978.6,787.9,978.2,787.9,977.7z M789.8,978.8
				c0.6,0,1.2-0.1,1.7-0.5c0.5-0.3,0.9-0.8,0.9-1.2c0-0.3-0.1-0.6-0.4-0.9c-0.4-0.4-1.1-0.6-1.9-0.6c-0.2,0-0.3,0-0.3,0
				s0,0.4-0.1,1.3C789.6,977.7,789.6,978.3,789.8,978.8C789.7,978.8,789.7,978.8,789.8,978.8z M791,973.9c0.2-0.1,0.4-0.2,0.6-0.4
				c0.2-0.2,0.3-0.4,0.3-0.6c0-0.2,0-0.4-0.2-0.5s-0.3-0.2-0.5-0.3c-0.2-0.1-0.4-0.1-0.5-0.2c-0.2,0-0.3-0.1-0.5-0.1s-0.2,0-0.3,0
				c0,0,0,0.4-0.1,1.1c0,0.7-0.1,1.1-0.1,1.2c0,0,0.1,0,0.1,0c0.1,0,0.2,0,0.4-0.1C790.5,974.1,790.8,974.1,791,973.9z"/>
			<path fill="#FFFFFF" d="M796.1,974.6l0.1-1.5c0-0.4,0-0.6,0-0.6c-0.1-0.1-0.2-0.3-0.4-0.8c-0.1-0.4-0.2-0.6-0.2-0.8
				c0.1-0.1,1.7-0.1,4.8,0c0.8,0,1.2,0.1,1.2,0.1c0,0.2-0.1,0.4-0.1,0.6c-0.1,0.2-0.2,0.4-0.3,0.5s-0.2,0.2-0.2,0.2c0,0-0.2,0-0.5,0
				c-0.3,0-0.8,0-1.4,0c-0.6,0-0.9,0.1-1,0.1c-0.1,0.1-0.1,0.5-0.1,1.5v0.6c0.4,0,0.9,0,1.6,0c0.7,0,1.1,0.1,1.1,0.1
				c0,0.3-0.1,0.7-0.4,1.1c-0.1,0.1-0.1,0.2-0.2,0.2c-0.2,0-0.6,0-1.2,0c-0.6,0-0.9,0.1-1,0.1c0,0,0,0.4-0.1,1.2c0,0.8,0,1.2,0,1.2
				c0.1,0.1,0.9,0.2,2.4,0.3c0.6,0,1,0,1.2,0s0.3,0,0.3,0c0,0.2-0.1,0.5-0.2,0.8c-0.2,0.3-0.3,0.5-0.5,0.7c-0.1,0.1-0.9,0.1-2.5,0
				c-1.5-0.1-2.4-0.1-2.4-0.2c-0.1,0-0.1-0.5,0-1.3c0-0.9,0.1-1.7,0.1-2.6c-0.2-0.1-0.3-0.4-0.4-0.7s-0.2-0.6-0.2-0.8
				C795.3,974.6,795.6,974.6,796.1,974.6z"/>
			<path fill="#FFFFFF" d="M803.8,979.1l0.3-5.7c0-0.5,0-0.7,0-0.7c0,0-0.1,0-0.2,0c-0.3,0-0.8,0-1.5,0.1l-0.4,0l0-0.3
				c0-0.4,0.1-0.8,0.3-1.1l0.1-0.2c0.7,0,1.5,0,2.4,0c0.9,0,1.7,0,2.4,0c0.7,0,1.1,0.1,1.1,0.1c0,0.3,0,0.6-0.1,1
				c-0.1,0.4-0.1,0.6-0.2,0.6c-0.2-0.1-0.6-0.1-1.2-0.1c-0.6,0-0.9,0-0.9,0c-0.1,0.1-0.1,1.3-0.2,3.6c-0.1,2.3,0,3.7,0.3,4.2l0,0
				c0,0.1-0.2,0.1-0.5,0.2c-0.3,0.1-0.6,0.1-0.9,0.1c-0.3,0-0.5-0.1-0.7-0.1C803.8,980.6,803.8,980.1,803.8,979.1z"/>
			<path fill="#FFFFFF" d="M812.2,977.5c-0.1,0-0.5,0-1.2-0.1c-0.6,0-1,0-1.2,0c-0.5,1.6-0.9,2.7-1,3.4c0,0-0.1,0-0.3,0
				c-0.2,0-0.4,0-0.7-0.1c-0.5-0.1-0.8-0.2-0.8-0.2c0-0.4,0.4-1.4,1.1-3.1c-0.1-0.1-0.2-0.3-0.4-0.6c-0.1-0.3-0.2-0.6-0.2-0.8
				c0,0,0.4,0,1.1,0c0.8-2.2,1.3-3.3,1.4-3.4c0,0,0.2-0.1,0.5-0.1s0.5-0.1,0.5-0.1l0-0.2c0-0.1,0-0.3,0-0.4c0-0.1,0-0.2,0-0.3
				c0,0,0.1-0.1,0.2-0.2c0.4-0.2,0.9-0.3,1.4-0.3c0.1,0.5,0.2,1.2,0.3,2.1c0.1,0.9,0.4,2.1,0.8,3.9c0.4,1.7,0.8,2.9,1.1,3.6l0.1,0.2
				c0,0-0.1,0.1-0.3,0.2c-0.2,0.1-0.4,0.2-0.7,0.3c-0.3,0.1-0.5,0.1-0.8,0.1c-0.1,0-0.3-0.5-0.5-1.6S812.2,978,812.2,977.5z
				 M811.9,976.1c-0.3-1.3-0.4-2.1-0.4-2.2c0-0.2,0-0.2-0.1-0.2s0,0-0.1,0.1c-0.1,0.1-0.2,0.5-0.5,1.1c-0.2,0.6-0.4,1-0.5,1.2
				C811.3,976,811.9,976,811.9,976.1z"/>
		</g>
		<g>
			<path fill="#FFFFFF" d="M791.1,1003.2c-0.1-0.1-0.5-1.3-1.3-3.4l-0.4-1.1c0,0,0-0.1,0-0.1c-0.1,0.1-0.5,0.9-1.2,2.1
				c-0.6,1.3-1,2-1.1,2.1c-0.7,0-1.1-0.1-1.2-0.4c0.1-0.3,0.4-1,0.9-1.9c0.5-0.9,1-1.8,1.4-2.5l0.7-1.2c0.1-0.1,0.3-0.1,0.6-0.2h0.1
				l0.5,0.1c1,3.1,1.7,5.1,2,6.1C791.9,1003,791.5,1003.2,791.1,1003.2L791.1,1003.2z"/>
		</g>
		<g>
			<g>
				<path fill="#FFFFFF" d="M344.7,1004.5v-10.6c0-1.2-1.1-2-2.2-2h-17c-1.2,0-2.4,0.8-2.4,2v10.6c0,1.2,1.2,2.1,2.4,2.1h17
					C343.6,1006.6,344.7,1005.6,344.7,1004.5z M325.5,993.8h17.2v10.8h-17.2V993.8z"/>
				<path fill="#FFFFFF" d="M365.6,927.2c-4.3,8.5-6.1,9.6-6.1,13.1c0,3.4,2.8,6.2,6.3,6.2c3.4,0,6.3-2.8,6.3-6.2
					c0-3.6-1.6-5.6-6.1-13.1C365.8,927,365.7,927,365.6,927.2z M363.9,940.2c0,1.1-0.7,1.5-1.3,1.5c-0.8,0-1.3-0.6-1.3-1.3
					c0-2.5,1.2-4.1,2.3-5.5c0.3-0.4,0.6-0.9,0.9-1.3C364.5,933.5,363.9,938.1,363.9,940.2z"/>
				<path fill="#FFFFFF" d="M312.1,996.8c-1.3-0.8-3.8-2.4-3.8-2.4s0,0,0,3.2s5.4,4.4,5.4,4.4C313.6,1000.5,313.5,997.6,312.1,996.8
					z"/>
				<path fill="#FFFFFF" d="M312.1,1002.5c-1.3-0.8-3.8-2.4-3.8-2.4s0,0,0,3.2s5.4,4.4,5.4,4.4
					C313.6,1006.3,313.5,1003.4,312.1,1002.5z"/>
				<path fill="#FFFFFF" d="M313.7,1013.6c-0.1-1.5-0.2-4.4-1.5-5.3c-1.3-0.8-3.9-2.4-3.9-2.4s0,0,0,3.2S313.7,1013.6,313.7,1013.6z
					"/>
				<path fill="#FFFFFF" d="M315.5,1002c0,0,5.6-1.2,5.6-4.4c0-3.2,0-3.2,0-3.2s-3.1,1.5-4.4,2.4
					C315.3,997.6,315.6,1000.5,315.5,1002z"/>
				<path fill="#FFFFFF" d="M315.5,1007.8c0,0,5.6-1.2,5.6-4.4c0-3.2,0-3.2,0-3.2s-3.1,1.5-4.4,2.4
					C315.3,1003.4,315.6,1006.3,315.5,1007.8z"/>
				<path fill="#FFFFFF" d="M321.1,1009.2c0-3.2,0-3.2,0-3.2s-3.1,1.5-4.4,2.4c-1.3,0.8-1.2,3.7-1.3,5.3
					C315.4,1013.6,321.1,1012.4,321.1,1009.2z"/>
				<path fill="#FFFFFF" d="M316.5,993.6c0-1.5-0.3-3.4-2.1-5.2c0,0-2,2.5-2,4.9c0,1.6,0.9,2.9,2,4.3
					C314.4,997.5,316.5,995.1,316.5,993.6z"/>
				<path fill="#FFFFFF" d="M307.9,904.6c0.4,0,0.8,0,1.1-0.2c0.8,0.8,1.9,1.1,2.9,1.1c1.1,0,2.2-0.4,2.9-1.1
					c0.3,0.1,0.8,0.2,1.1,0.2c1.8,0,3.2-1.4,3.2-3.2s-1.4-3.2-3.2-3.2c-0.1,0-0.3,0-0.4,0c-0.8-1.2-2.2-1.9-3.6-1.9
					c-1.5,0-2.8,0.7-3.6,1.9c-0.1,0-0.3,0-0.4,0c-1.8,0-3.2,1.4-3.2,3.2C304.8,903.2,306.2,904.6,307.9,904.6z"/>
				<path fill="#FFFFFF" d="M312.9,910.1c0,0.5,0.4,0.9,0.9,0.9c0.5,0,0.9-0.4,0.9-0.9s-0.9-1.8-0.9-1.8S312.9,909.5,312.9,910.1z"
					/>
				<path fill="#FFFFFF" d="M315.5,908.2c0.5,0,0.9-0.4,0.9-0.9s-0.9-1.8-0.9-1.8s-0.9,1.3-0.9,1.8
					C314.5,907.8,315,908.2,315.5,908.2z"/>
				<path fill="#FFFFFF" d="M311.8,908.7c0-0.5-0.9-1.8-0.9-1.8s-0.9,1.3-0.9,1.8c0,0.5,0.4,0.9,0.9,0.9
					C311.4,909.6,311.8,909.2,311.8,908.7z"/>
				<path fill="#FFFFFF" d="M269.5,985.7c0,3.3,2.7,5.9,5.9,5.9c3.3,0,5.9-2.7,5.9-5.9c0-3.3-2.7-5.9-5.9-5.9
					S269.5,982.4,269.5,985.7z M279.8,985.7c0,2.5-2,4.5-4.4,4.5c-2.5,0-4.5-2-4.5-4.5s2-4.5,4.5-4.5
					C277.9,981.2,279.8,983.3,279.8,985.7z"/>
				<polygon fill="#FFFFFF" points="273.2,987.9 276.2,986.5 277.7,983.5 274.7,985 				"/>
				<path fill="#FFFFFF" d="M323,912.3c0,0,0-0.1,0-0.1L323,912.3L323,912.3z"/>
				<path fill="#FFFFFF" d="M321.3,917.3c3.6-1,7.3,1.6,7.8,5.4c0,0.1,0,0.3,0,0.5c0.1,0,0.3,0,0.4,0c3-0.1,6.2-0.1,9.2-0.2
					c-1.3,0.3-2.2,1.5-2.2,2.9c0,1.7,1.4,3,3,3s3-1.4,3-3c0-1.5-1.1-2.8-2.6-3c2.3-0.1,1.8-0.1,2.2-2.1c0.2-1,0.3-2,0.4-2.9
					c0.1-0.9-0.1-1.1-1.1-1.2c-1.4,0-2.6-0.1-4-0.1c0,0-0.1,0-0.1-0.1c0-1,0.2-3.5,0.2-3.5s-0.5-0.4-1,0c0,1.2,0,2.3,0,3.6
					c0,0-1.8,0-4.2-0.1c-0.1,0-0.5-0.2-0.6-0.5c-0.3-1-1.2-2.8-2.2-5.8c0,0-0.6-1.2-1.9-1.2c-1.1,0-6.8,0-6.8,0v7.2
					c0,0-0.4,0.2-0.8,0.2C320.1,917.3,320.4,917.5,321.3,917.3z M341.3,925.8c0,0.9-0.8,1.6-1.6,1.6c-0.9,0-1.6-0.8-1.6-1.6
					c0-0.9,0.8-1.6,1.6-1.6C340.6,924.2,341.3,924.9,341.3,925.8z M323,912.1v-1.4h5.6l1.8,5.4l0,0c-2.4,0-5.2,0-7.4,0.1V912.1z"/>
				<path fill="#FFFFFF" d="M322.7,917.9c-3,0-5.5,2.5-5.5,5.5s2.5,5.5,5.5,5.5c3,0,5.5-2.5,5.5-5.5S325.8,917.9,322.7,917.9z
					 M322.7,926.5c-1.7,0-3-1.4-3-3s1.4-3,3-3c1.7,0,3,1.4,3,3S324.4,926.5,322.7,926.5z"/>
				<path fill="#FFFFFF" d="M309.4,1018.2l-4-2.2c0.2-0.9,0.2-1.9,0-2.8c-0.8-2.8-4-4.5-6.8-3.7c-2.8,0.8-4.5,3.7-3.6,6.5
					c0.8,2.8,4,4.5,6.8,3.7c0.9-0.3,1.8-0.8,2.4-1.4l4,2.2c0.4,0.2,0.9,0,1.1-0.3l0.5-1C310,1018.8,309.8,1018.5,309.4,1018.2z
					 M301.1,1017.6c-1.6,0.5-3.6-0.5-4-2.2c-0.5-1.6,0.5-3.4,2.1-3.8c1.6-0.5,3.6,0.5,4,2.2C303.7,1015.5,302.7,1017.2,301.1,1017.6
					z"/>
				<path fill="#FFFFFF" d="M286.6,973.9c3-3.5,1.4-5.9,0.9-6.9c-0.5-1-0.6-2.4-0.6-2.4l0.1-0.5l0.1-0.5c-0.7-0.2-1.4,0.1-1.4,0.1
					c0.1,1.1-0.1,2.3-0.3,2.7c-0.2,0.5-0.8,1.4-1.1,2s-1.1,2.4-5.1,4.1c-4,1.7-9.3,0.1-9.3,0.1c-1.4-0.3-2.5,0.2-2.5,0.2l-0.3,0.5
					l0,0.4l-0.1,0.2l0,0.3c3.9,6.1,12,4,12,4S283.5,977.3,286.6,973.9z"/>
				<path fill="#FFFFFF" d="M374.6,1010.6c1.8,0,3.5-0.3,5.1-1c0.6-0.2,0.8-0.6,0.8-1.3c0-0.3,0-0.7,0-1c0,0,0,0,0-0.1
					c0,0-0.1-0.2-0.3-0.2c-0.8,0-1-0.2-1.2-1c-0.2-0.5-0.3-1.1-0.6-1.6c2-0.5,1.7-1.9,1-3.7c-0.6,0.8-0.1,1.1-1.1,1.3
					c-0.9,0.2-1.5,0.7-1.9,1.5c0,0.1-0.1,0.3-0.2,0.6c-0.1-1,0.3-1.6,1.2-2.4c-0.4-0.4-2-0.2-2.5-0.5c-1.6-1.1-8.9-2.5-13.5,1
					c-0.2-0.2-0.5-0.4-0.8-0.6c1.1-0.4,1.5-1,1.3-1.9c-0.1-0.6-0.6-1-1.2-1c-1,0-1.3,0.5-1.5,2.1c-0.3-0.3-0.6-0.6-1-1
					c0,0.3-0.1,0.5,0,0.8c0.1,0.5,0.5,0.8,1,0.9c0.3,0,0.5,0.2,0.7,0.5c0.1,0.2,0.2,0.4,0.4,0.6c0.5,0.5,0.5,1.1,0.5,1.8
					c0,1.5,0,3,0.2,4.6c0.2,1.6,0.6,3.2,1.3,4.7c0.2,0.5,0.6,0.5,1,0.4c0.1,0,0.3-0.4,0.3-0.6c0.1-1.2,0.6-2.2,1.2-3.2
					c2.1,0.6,4.2,0.8,6.4,0.6c0.1,0,0.3,0.2,0.4,0.3c0.4,0.8,0.8,1.6,1.1,2.5c0.2,0.5,0.6,0.5,1,0.4c0.1,0,0.1-0.4,0.1-0.7
					c0-0.9,0-1.8,0-2.7c0.1,0,0.1,0,0.1-0.1C374.4,1010.6,374.5,1010.6,374.6,1010.6z M360.3,1000.6c-0.2-0.6-0.1-1,0.3-1
					c0.2,0,0.5,0,0.6,0.3C361.3,1000.3,361,1000.6,360.3,1000.6z"/>
				<path fill="#FFFFFF" d="M282.1,941.8c3.4-0.3,4.5-2,5.5-5.3c0.6-2,0.7-3.9,0.8-6c-0.1-1.7-0.1-3.4-0.3-5.1
					c-0.3-2.4-0.9-4.7-2.1-6.8c-0.9-1.7-1.1-2.7-3-3c-2-0.3-4.3,0.5-5.2,2.8c-0.2,0.6-0.5,1.2-0.7,1.9c-0.3,1.4-1.2,2.6-2.3,3.6
					c-2.9,2.7-3.9,6.2-3.2,10C272.4,938.9,277,942.2,282.1,941.8z M275.8,926c1.8-1.7,3-3.5,3.6-5.8c0.1-0.5,0.3-0.9,0.6-1.3
					c0.7-1.2,2.2-1.4,3.1-0.4c0.4,0.4,0.7,1,0.9,1.5c1.4,3.4,2,7,2.1,10.1c0,2.4-0.1,4.3-0.8,6.1c-0.9,2.6-2.7,3.8-5.1,3.6
					c-2.1-0.2-3.7-1.2-5-2.8C272.7,933.7,272.9,928.7,275.8,926z"/>
				<path fill="#FFFFFF" d="M280,938.1c1.6,0.1,2.8-0.3,3.6-1.8c1.4-2.8,1.5-5.7,0.5-8.8c-0.2-0.6-0.7-1.1-1.3-1.4
					c-1.8-0.8-3.6-0.8-5.4,0c-0.8,0.4-1.6,0.9-2,1.8c-0.2,0.5-0.1,0.8,0.3,1.1c0.8,0.4,1.5,0.8,2.3,1.2c0.2,0.1,0.4,0.3,0.7,0.5
					c0,0,0,0.1-0.1,0.2c-0.2,0-0.4,0-0.6-0.1c-0.9-0.2-1.8-0.5-2.7-0.8c-0.5-0.1-0.8,0-0.9,0.5c0,0.2-0.1,0.4-0.1,0.6
					C274.1,934.6,276.6,937.8,280,938.1z"/>
				<path fill="#FFFFFF" d="M280.6,923.8c0.5,0.1,1,0.2,1.5,0.3c1,0,1.4-0.3,1.4-1.3c0-0.7-0.1-1.4-0.3-2.1c-0.1-0.6-0.5-1-1.2-1
					c-0.7,0-1.3,0.2-1.5,0.9c-0.2,0.6-0.4,1.2-0.6,1.9C279.6,923.2,279.8,923.6,280.6,923.8z"/>
				<path fill="#FFFFFF" d="M294,971.9c-0.2,0-0.4,0-0.5-0.2c0,0-0.2-0.7-1-1.5c-0.2-0.2-0.4-0.3-0.6-0.5c-0.3-0.2-0.6-0.5-0.9-0.8
					c0.5,4.1,2.2,7.1,4.2,7.1c2.4,0,4.4-4.3,4.4-9.6s-2-9.6-4.4-9.6c-1.6,0-2.9,1.9-3.7,4.6c0.3,0.4,0.6,0.7,1,0.9
					c0.2,0.1,0.4,0.3,0.6,0.5c1,0.9,1.2,1.8,1.2,1.8c0,0,0,0,0,0.1c0,0.1-0.1,0.3-0.3,0.3c-0.2,0-0.4,0-0.5-0.2c0,0-0.2-0.7-1-1.5
					c-0.2-0.2-0.4-0.3-0.6-0.5c-0.2-0.1-0.4-0.3-0.7-0.5c-0.1,0.4-0.2,0.9-0.2,1.4c0.3,1.2,0.8,1.6,1.4,2c0.2,0.1,0.4,0.3,0.6,0.5
					c1,0.9,1.2,1.8,1.2,1.8c0,0,0,0,0,0.1c0,0.1-0.1,0.3-0.3,0.3c-0.2,0-0.4,0-0.5-0.2c0,0-0.2-0.7-1-1.5c-0.2-0.2-0.4-0.3-0.6-0.5
					c-0.3-0.2-0.8-0.5-1-1c0,0.3,0,0.6,0,0.9c0.3,1.8,0.9,2.2,1.6,2.7c0.2,0.1,0.4,0.3,0.6,0.5c1,0.9,1.2,1.8,1.2,1.8c0,0,0,0,0,0.1
					C294.3,971.7,294.2,971.9,294,971.9z"/>
				<path fill="#FFFFFF" d="M365.3,917.7c0.8,0.9,1.8,1.8,3,1.9c0.9,0.1,2-0.4,2.7-0.4c1.4,0,1.1,0.3,2.7,0.3c1.5,0,4.3-3.6,5-7.2
					c0.1-0.9,0-2.5-0.7-4c-0.8-1.8-3.3-2.5-4.8-2.2c-0.4,0-1.3,0.2-2,0.3c0.1-0.5,0.5-1.3,1.3-1.8c0.2-0.1,0.3-0.4,0.2-0.7
					c-0.1-0.2-0.4-0.3-0.7-0.2c-1.4,0.8-1.8,2.2-1.9,2.8c-0.6-0.1-2.3-0.4-2.9-0.4c-0.9,0-1.7,0.3-2.5,0.9c-0.7,0.5-1,1.3-1.3,2.1
					c-0.4,1.1-0.5,2.3-0.4,3.5C363.2,914.6,364,916.3,365.3,917.7z M368.3,908.5c0.8,0,1.4,0.6,1.4,1.3c0,0.9-0.6,1.7-1.4,1.7
					c-0.6,0-1.1-0.8-1.1-1.6C367.2,909.1,367.6,908.5,368.3,908.5z"/>
				<path fill="#FFFFFF" d="M369.3,905.2c0.5,0,1.2,0.1,1.5-0.5c0.3-0.6-0.1-1.1-0.5-1.6c-0.9-1-2.4-1.2-3.9-0.5
					c0.2,0.3,0.4,0.6,0.5,0.9C367.3,904.5,368.2,905,369.3,905.2z"/>
				<path fill="#FFFFFF" d="M333.1,908.2c1-2.1,2.4-3.6,2.4-3.6c2,0.8,5.5,1.6,8-0.1c3.3-2.3,2.9-7.4,7.6-10c1.1-0.6-9.2-3-14.6,0.1
					c-4,2.3-3.7,6.1-3.6,7.5c5.2-6.1,12.8-5.8,12.8-5.8s-10.9,3.8-14.1,11.3C331.3,908.1,332.8,908.9,333.1,908.2z"/>
				<path fill="#FFFFFF" d="M373,983.9c2.5-5-0.3-8.7-1.4-10c-1.1,9.6-9.1,14.5-9.1,14.5s8.5-11.1,6.7-20.9c-0.1-0.8-2.1-0.6-2,0.3
					c0.4,2.8,0.1,5.3,0.1,5.3c-2.6,0.6-6.6,2.1-8,5.5c-1.8,4.5,2,9.5-1,15.2C357.6,995.2,369.6,990.7,373,983.9z"/>
				<path fill="#FFFFFF" d="M283.9,946.2c-1,0.8-0.8,2.8,0,3.8c0.8,1,2.7,1.7,3.7,0.9c0.2-0.1,0.8-0.6,0.8-0.6
					c1.1,0.9,1.8,0,2.3,0.6c0.6,0.8,1.9,2.4,2.4,2.9c0.4,0.5,1.2,1,1.6,0.7c0.4-0.3,1.8-1.3,2.3-1.7c0.5-0.4,0.5-0.9,0.2-1.3
					s-1.1-0.3-1.5-0.8c-0.4-0.4-1.6-1.9-1.9-2.4c-0.5-0.6,0-1.4,0.8-1.7c6-2.3,8.2,1.2,10-0.2c1.4-1.1-0.1-5.7-3.4-9.8
					c-3.2-4.1-7.4-6.8-8.9-5.6C290.2,932.9,296,937.1,283.9,946.2z M294.1,933.4c0.3-0.2,3.3,1.4,5.8,4.6c2.5,3.2,3.2,6.2,2.8,6.4
					c-0.4,0.2-3.2-1-5.8-4.2C294.5,937,293.8,933.7,294.1,933.4z"/>
				<path fill="#FFFFFF" d="M272.6,970.7c4.2,0,7.6-2,7.6-3c0,0,0-0.3,0-3.1c0-2.9-5.2-5.3-5.2-7.3c0-2.1,5.2-4.4,5.2-7.3
					s0-3.1,0-3.1c0-1.1-3.5-3-7.6-3c-4.2,0-7.6,1.9-7.6,3c0,0,0,0.3,0,3.1c0,2.9,5.2,5.3,5.2,7.3c0,2.1-5.2,4.4-5.2,7.3s0,3.1,0,3.1
					C265,968.7,268.5,970.7,272.6,970.7z M266.8,946.8c0.9-0.6,2.7-1.5,5.6-1.5c2.9,0,5.4,1.5,5.4,1.5c0.2,0.1,0.9,0.5,0.4,0.8
					c-1.1,0.7-3.4,1.4-5.9,1.4c-2.6,0-4.7-0.8-5.8-1.4C265.9,947.2,266.8,946.8,266.8,946.8z M266.5,964.5c0-0.9,1.4-2.3,2.4-3.3
					c1.4-1.4,2.8-2.4,2.8-4c0-1.6-1.4-2.7-2.8-4c-1-1-2.5-2.4-2.5-3.3l0-1.3c1.4,0.8,3.6,1.5,5.9,1.5c2.4,0,4.6-0.7,6-1.5l0,1.3
					c0,0.9-1.4,2.3-2.5,3.3c-1.4,1.4-2.8,2.4-2.8,4c0,1.6,1.1,2.7,2.6,4c1,1,2.3,2.4,2.3,3.3v1.8c-1-0.6-4.8-1-4.8-3
					c0-1-1.4-1-1.4,0c0,2-4.1,2.3-5.1,3L266.5,964.5L266.5,964.5z"/>
				<path fill="#FFFFFF" d="M372.4,929.8c0,5.6,4.5,10.1,10.1,10.1c5.6,0,10.1-4.5,10.1-10.1c0-5.6-4.5-10.1-10.1-10.1
					C376.9,919.7,372.4,924.2,372.4,929.8z M385.3,921.6c3.4,1.1,5.9,4.4,5.9,8.1c0,2-0.7,3.8-1.8,5.3c-0.3-0.2-0.6-0.9-0.3-1.6
					c0.3-0.7,0.4-2.3,0.3-2.9c0-0.6-0.4-2.1-1.3-2.2c-0.9,0-1.5-0.3-2-1.4c-1.1-2.2,2.1-2.6,0.9-3.8c-0.3-0.3-1.9,1.4-2.1-0.9
					C385,922.1,385.1,921.9,385.3,921.6z M387.3,937c-1.4,0.9-3,1.4-4.8,1.4c-0.9,0-1.9-0.1-2.7-0.4c0.5-0.3,0.6-0.6,1-0.6
					c0.5,0,1-0.2,1.6-0.3c0.5-0.1,1.5-0.6,2.4-0.8C385.5,936.2,386.9,936.3,387.3,937z M381.3,921.3c-0.2,0.4-0.8,0.6-1.1,0.9
					c-0.8,0.6-1,0.5-1.4,1.2c-0.4,0.6-1.7,1.5-1.7,2s0.6,1,0.9,0.9c0.3-0.1,1.2-0.1,1.7,0.1c0.5,0.2,4.1,0.3,2.9,3.5
					c-0.3,1-2,0.8-2.4,2.4c0,0.2-0.3,1.2-0.3,1.6c0,0.5,0.3,2.5-0.1,2.5c-0.5,0-1.8-1.7-1.8-2.1c0-0.3-0.3-1.4-0.3-2.4
					s-1.6-0.9-1.6-2.2c0-1.1,0.9-1.7,0.7-2.2c-0.2-0.5-1.7-0.5-2.4-0.6C375.6,923.8,378.2,921.7,381.3,921.3z"/>
				<path fill="#FFFFFF" d="M334.1,995.5c-2,0-3.7,1.7-3.7,3.7s1.7,3.7,3.7,3.7c2,0,3.7-1.7,3.7-3.7
					C337.8,997.1,336.1,995.5,334.1,995.5z M332.5,1000.7c0-0.1-0.1-0.5-0.1-0.8s-0.6-0.3-0.6-0.8c0-0.4,0.3-0.6,0.2-0.8
					c0-0.2-0.6-0.2-0.8-0.2c0.4-1,1.4-1.8,2.5-2c-0.1,0.1-0.3,0.2-0.4,0.3c-0.2,0.2-0.4,0.2-0.5,0.4c-0.1,0.2-0.6,0.5-0.6,0.8
					c0,0.1,0.2,0.3,0.3,0.3c0.1,0,0.4,0,0.6,0c0.2,0,1.5,0.1,1.1,1.2c-0.1,0.3-0.8,0.3-0.9,0.9c0,0.1-0.1,0.4-0.1,0.6
					c0,0.2,0.1,0.9,0,0.9C333,1001.5,332.5,1000.8,332.5,1000.7z M334.1,1002.3c-0.3,0-0.7,0-1-0.1c0.2-0.1,0.2-0.2,0.4-0.2
					c0.2,0,0.3-0.1,0.6-0.1c0.2,0,0.5-0.2,0.8-0.2c0.2,0,0.8,0,0.9,0.2C335.3,1002.1,334.8,1002.3,334.1,1002.3z M336.6,1001.1
					c-0.1-0.1-0.2-0.3-0.1-0.6c0.1-0.2,0.1-0.8,0.1-1.1c0-0.2-0.1-0.8-0.5-0.8c-0.3,0-0.5-0.1-0.8-0.5c-0.4-0.8,0.8-0.9,0.3-1.4
					c-0.1-0.1-0.7,0.5-0.8-0.3c0,0,0-0.1,0.1-0.2c1.2,0.4,2.2,1.6,2.2,3C337.3,999.9,337,1000.5,336.6,1001.1z"/>
				<path fill="#FFFFFF" d="M287.9,1011.5c0,0.1,0,0.2,0,0.4c0,0.9,0.8,1.6,1.7,1.6c0.9,0,1.6-0.6,1.7-1.5c0-0.1,0-0.3,0-0.4
					c0-0.5,0.2-0.6,0.6-0.8c3.3-0.8,5.8-3.4,6.3-6.6c0-0.4,0-0.8,0.2-1.1c0.3-0.2,0.8-0.4,0.9-0.8c0.1-0.2-0.2-0.7-0.3-1.1
					c0.5-0.5,0.5-0.8-0.1-1.5c0.7-0.6,0.7-1,0-1.6c0.4-0.2,0.7-0.6,0.5-1c-0.1-0.3-0.5-0.5-0.8-0.7c0,0,0,0.1-0.1,0.1
					c0-0.3,0-0.6-0.2-0.8c-0.2-0.2-0.5-0.5-0.8-0.6c-0.1,0-0.5,0.3-0.6,0.5c-0.3,0.7-0.5,1.4-0.9,2.1c-0.3,0.7-0.7,1.4-1.1,2
					c-1.4,1.7-3.2,2.3-5.3,1.8c-2.1-0.4-3.5-1.7-4-3.7c-0.1-0.4-0.1-0.8-0.2-1.2c0.4-0.3,1.1-0.5,0.8-1.1c-0.1-0.3-0.6-0.5-1-0.9
					c0-0.2,0.1-0.8-0.4-1c-0.5-0.2-0.8,0.1-1.1,0.6c-0.3-0.4-0.7-0.8-1.2-0.5c-0.3,0.2-0.4,0.7-0.8,1.1c-0.3,0-0.9,0-1,0.6
					c0,0.4,0.3,0.8,1.2,1c-0.6,0.7-1.5,0.6-2.2,1.2c0.5,0.3,1,0.6,1.6,0.9c0.3,0.1,0.4,0.3,0.3,0.6c-0.1,1.1-0.1,2.2-0.2,3.3
					c-0.4,4.7,2.8,7.3,5.8,8.1C287.7,1010.8,287.9,1010.9,287.9,1011.5z M283.2,997.7c-0.1,0-0.3-0.2-0.7-0.4
					c0.3-0.2,0.5-0.4,0.7-0.4c0.1,0,0.4,0.3,0.4,0.4C283.5,997.5,283.3,997.7,283.2,997.7z"/>
				<path fill="#FFFFFF" d="M372.7,950h-3.3c-0.6,0-1.4,0.3-1.7,0.8l-4.3,5.6c-0.3,0.5-0.1,0.5,0.4,0.5h17.6c0.6,0,0.8,0,0.5-0.5
					l-3.8-5.6c-0.3-0.5-1.1-0.8-1.7-0.8h-0.8v-2h-2.9V950z"/>
				<path fill="#FFFFFF" d="M376.6,944.8l0.2,0c0.5-0.1,1-0.5,1.4-1.1c0.3-0.6,0.4-1.8,0.3-2.5c-0.3,1-1.1,1.4-1.9,1.7
					c-0.2,0.1-0.4,0.2-0.6,0.2c-0.2,0.1-0.5,0.2-0.8,0.3c-0.8,0.4-1.1,1-1.2,2c-0.1,0.4-0.1,0.8-0.1,1.4c0.4-1,0.8-1.5,1.7-1.8
					C375.9,945,376.3,944.9,376.6,944.8z"/>
				<path fill="#FFFFFF" d="M380.6,964.8h0.5v-6.1c0-0.6,0-0.8,0-0.8h-0.5h-0.7h-7.7h-0.7H366h-2.1v1.1v5.7h2.1h1.4v-4.1
					c0,0,0.1,0.1,0.5,0.1h2.7c0,0,0.2-0.5,0.2-0.1v4h0.8h0.7h7.7H380.6L380.6,964.8z M378.1,962.8c0,0.1,0.3,0.5,0.2,0.5h-2.9
					c-0.1,0-0.3-0.4-0.3-0.5v-2.9c0-0.1,0.2,0,0.3,0h2.9c0.1,0-0.2,0-0.2,0V962.8z"/>
				<path fill="#FFFFFF" d="M337.9,1009c0-0.3-0.2-0.5-0.5-0.5h-6.8c-0.3,0-0.5,0.2-0.5,0.5c0,0.3,0.2,0.5,0.5,0.5h6.8
					C337.7,1009.5,337.9,1009.3,337.9,1009z"/>
				<rect x="331.9" y="1007.1" fill="#FFFFFF" width="4.9" height="1.5"/>
				<path fill="#FFFFFF" d="M325,892.9c-2.3,0.4-4,2.3-4.2,4.6l4.4-0.2L325,892.9z"/>
				<path fill="#FFFFFF" d="M326,898.6l-5.1,0.2c0.4,2.5,2.7,4.3,5.2,4.1c2.8-0.1,4.9-2.5,4.8-5.3c-0.1-2.6-2.2-4.6-4.6-4.8l0.2,5.1
					C326.5,898.2,326.2,898.5,326,898.6z"/>
				<path fill="#FFFFFF" d="M304.8,912.1c0.2,0,0.4-0.3,0.7-0.3c0.2,0,0.4-0.3,0.6-0.4l2.8-2c0.1-0.1,0.2-0.3,0.2-0.4
					c0-0.1-0.1-0.3-0.2-0.4l-2.8-1.9c-0.1-0.1-0.4-0.4-0.6-0.5c-0.2,0-0.5-0.3-0.7-0.3h-8l0.9,6.4H304.8L304.8,912.1z"/>
				<path fill="#FFFFFF" d="M285.9,911.7l2.8,1.9c0.1,0.1,0.4,0.2,0.6,0.3c0.2,0,0.5,0.2,0.7,0.2h4.1v10.2c0,0.2,0.3,0.1,0.5,0.1h1
					c0.2,0,0.3,0.1,0.3-0.1v-20.2c0-0.2-0.1-0.8-0.3-0.8h-1c-0.2,0-0.5,0.6-0.5,0.8v4.6H290c-0.2,0-0.4,0-0.7,0s-0.4,0.1-0.6,0.2
					l-2.8,1.9c-0.1,0.1-0.2,0.2-0.2,0.4C285.7,911.4,285.8,911.5,285.9,911.7z"/>
				<path fill="#FFFFFF" d="M301.9,916.3v16.1c0,1.1,1.2,2.4,2.3,2.4h7.8c1.1,0,2.2-1.2,2.2-2.4v-16.1c0-1.1-1-1.7-2.2-1.7h-7.8
					C303.1,914.6,301.9,915.2,301.9,916.3z M308.2,933.6c-0.8,0-1.4-0.4-1.4-1c0-0.6,0.6-1,1.4-1s1.4,0.4,1.4,1
					C309.6,933.1,308.9,933.6,308.2,933.6z M312.7,917.1v13.3h-8.9v-13.3H312.7z"/>
				<path fill="#FFFFFF" d="M347.5,904c0,6.7,7,15.5,7,15.5s7-8.8,7-15.5c0-3.9-3.1-7-7-7C350.7,896.9,347.5,900.1,347.5,904z
					 M354.5,900.3c2.1,0,3.8,1.7,3.8,3.8c0,2.1-1.7,3.8-3.8,3.8c-2.1,0-3.8-1.7-3.8-3.8C350.7,902,352.5,900.3,354.5,900.3z"/>
				<path fill="#FFFFFF" d="M310.3,923c0-1.2-0.9-2.1-2.1-2.1s-2.1,0.9-2.1,2.1c0,2,2.1,4.6,2.1,4.6S310.3,925.1,310.3,923z
					 M307,923.1c0-0.6,0.5-1.1,1.1-1.1s1.1,0.5,1.1,1.1s-0.5,1.1-1.1,1.1C307.5,924.2,307,923.7,307,923.1z"/>
				<path fill="#FFFFFF" d="M355.2,922.1l-1.2,1.1l-1.2-1.1c-1.7-1.6-4.6-1.6-6.3,0c-2,1.8-2,4.7,0,6.5l7.5,6.9l7.5-6.9
					c2-1.8,2-4.7,0-6.5C359.7,920.5,356.9,920.5,355.2,922.1z"/>
				<path fill="#FFFFFF" d="M385.7,973.9l-1.7,1.4c-0.1,0.1-0.1,0.3,0,0.4l9.6,10.9c0.2,0.2,0.6,0.3,0.9,0l1.1-0.9
					c0.2-0.2,0.3-0.6,0-0.9l-9.5-11C386.1,973.7,385.9,973.7,385.7,973.9z"/>
				<path fill="#FFFFFF" d="M385.2,966.7c-1.5,0.1-3.4,1.5-4.3,2.2c-1.2,0.8-1.7,1.3-1.8,1.4c-0.3,0.3,0,1-0.7,1.6
					c-0.6,0.6-1.1,0.1-1.5,0.5c-0.2,0.1-0.8,0.6-0.9,0.7c-0.1,0.1-0.2,0.3,0,0.5c0,0,1.5,1.6,1.6,1.8c0.1,0.1,0.4,0.2,0.6,0.1
					c0.2-0.2,0.8-0.6,0.8-0.8c0.1-0.1,0-1,0.4-1.4c1.1-0.8,2-0.2,3.1,1.1c0.1,0.1,0.3,0,0.4-0.1c0.1-0.1,1.7-1.5,1.8-1.6
					c0.1,0,0.1-0.2,0-0.3c-0.1-0.1-0.6-0.8-0.8-1.1c-2.1-2.8,5.7-4.6,4.5-4.6C388,966.6,385.6,966.6,385.2,966.7z"/>
				<path fill="#FFFFFF" d="M379.1,985.9l1.1,1.1c0.2,0.2,0.6,0.1,0.9-0.1l5.6-5.6l-1.7-2l-5.9,5.7
					C378.9,985.3,378.9,985.7,379.1,985.9z"/>
				<path fill="#FFFFFF" d="M391.2,973.2c-0.1,0.1-0.2,0.3-0.3,0.4l-1.6,1.6l1.6,1.8l1.9-1.8c0.1-0.1,0.3-0.2,0.4-0.3c0,0,0,0,0.1,0
					c0.1,0,0.3,0,0.4,0.1c0.3,0.2,0.7,0.5,1,0.8c0.2,0.2,0.4,0.2,0.7,0c0.3-0.3,0.6-0.6,0.9-1c0.5-0.5,1-1.1,1.5-1.6
					c0.8-0.9,1.2-1.9,1.2-2.9c0-0.4,0-0.8-0.1-1.2c-0.1-1-0.6-1.5-1.7-1.7c-0.2,0-0.5-0.1-0.8,0c-0.3,0-0.6,0-0.9,0
					c-0.8,0-1.5,0.2-2.2,0.8c-0.5,0.4-1,0.9-1.5,1.4c-0.5,0.5-1.1,1-1.7,1.6c-0.1,0.1-0.2,0.3,0,0.4c0.3,0.3,0.6,0.8,1,1.1
					c0.1,0.1,0.2,0.2,0.1,0.4C391.3,973,391.2,973.1,391.2,973.2z M392.5,972.9l2.4-2.2c0,0,0.2,0,0.2,0c0,0,0,0.1,0,0.2l-2.1,2.6
					c0,0-0.1-0.3-0.1,0.1l0,0c0,0-0.1-0.1-0.1-0.1l-0.3-0.3c0,0,0-0.1,0-0.1C392.4,973,392.5,972.9,392.5,972.9z"/>
				<path fill="#FFFFFF" d="M386,946.8c0,0.4,0,0.8,0.3,0.8h5.1v1.3c0,0.3-0.2,0.2,0.1,0.2h2c0.3,0,0.3,0.1,0.3-0.2v-1.3h4.9
					c0.4,0,0.5-0.4,0.5-0.8v-2.7H386L386,946.8L386,946.8z"/>
				<path fill="#FFFFFF" d="M392.9,954.3v-0.9c0-0.1-0.1-0.3-0.2-0.3s-0.2,0.1-0.2,0.3v0.9c-1.5,0.1-2.5,1.3-2.5,2.6
					c0,1.5,1.1,2.7,2.6,2.7c1.5,0,2.7-1.2,2.7-2.7C395.2,955.6,394.4,954.4,392.9,954.3z"/>
				<path fill="#FFFFFF" d="M398.2,949.5H387c-0.6,0-1,0.5-1.1,1.1l-1.3,11.6c0,0.3,0,0.8,0.3,1c0.2,0.2,0.5,0.5,0.8,0.5h13.9
					c0.3,0,0.6-0.2,0.8-0.5c0.2-0.2,0.3-0.6,0.3-0.9l-1.3-11.7C399.2,950.1,398.7,949.5,398.2,949.5z M392.5,961.5
					c-2.6,0-4.6-2.1-4.6-4.6s2.1-4.6,4.6-4.6c2.6,0,4.6,2.1,4.6,4.6S395.1,961.5,392.5,961.5z"/>
				<path fill="#FFFFFF" d="M343.9,1015.7v0.2h5.7c0.3,0,0.5-0.4,0.5-0.8s-0.2-0.8-0.5-0.8h-5.7h-0.7H342c-1.5,0-2.8,1-3.1,2.5h-4
					v1.5h4c0.4,1.5,1.6,2.9,3.1,2.9h1.2l0,0h6.4c0.3,0,0.5-0.4,0.5-0.8s-0.2-0.8-0.5-0.8h-5.7c-0.2,0-0.3,0-0.3-0.2
					c0-0.2,0.1-0.2,0.3-0.2h5.7c0.3,0,0.5-0.2,0.5-0.5c0-0.3-0.2-0.5-0.5-0.5h-5.7l0,0c-0.2,0-0.3-0.3-0.3-0.5
					c0-0.2,0.1-0.5,0.3-0.5h5.7c0.3,0,0.5-0.2,0.5-0.5c0-0.3-0.2-0.5-0.5-0.5h-5.5v-0.2c-0.5,0-0.5,0-0.5-0.2
					C343.7,1015.8,343.7,1015.7,343.9,1015.7z"/>
				<path fill="#FFFFFF" d="M318.8,1019.4h13.9c0.6,0,1.7-0.3,1.7-0.8v-1.7c0-0.5-1.1-0.9-1.7-0.9h-13.9c-0.9,0-1.7,0.8-1.7,1.7
					C317.1,1018.6,317.9,1019.4,318.8,1019.4z"/>
				<path fill="#FFFFFF" d="M349.5,1024.5c0-0.9-0.8-1.7-1.7-1.7h-14.4c-0.6,0-1,0.3-1.5,0.8v1.7c0.5,0.5,0.8,0.9,1.5,0.9h14.4
					C348.7,1026.3,349.5,1025.5,349.5,1024.5z"/>
				<path fill="#FFFFFF" d="M331.9,1025.3v-1.5h-2H327h-12.8c0,0-1.3,0.6,0.6,1.4c2.9,1.2,5.2,1.4,7.5,1.7c0.8,0.1,3.4,0.7,5-0.8
					c0.6-0.5,1.2-0.9,1.7-0.9H331.9z"/>
				<path fill="#FFFFFF" d="M351.2,1010.6l4.2-0.4c0-0.4-0.1-0.9-0.1-1.4c0-1.2-0.1-2.4-0.1-3.6c0-0.9,0-1.8,0-2.7
					c0-1,0.1-2.1,0.1-3.1c0-0.8,0.1-1.7,0.2-2.6c0.1-1,0.2-2,0.4-3c0.1-0.8,0.2-1.6,0.3-2.4c0-0.2-0.1-0.4-0.3-0.5
					c-0.1,0-0.3,0-0.4,0c-2.1,0-4.3,0-6.3,0c0,0,0,0,0,0c-0.5,0-1,0-1.5,0c-0.3,0-0.3,0-0.3,0.3c0,0.4-0.1,0.8-0.1,1.1
					c0,0.8,0,1.6,0,2.4c0,0.8,0,1.6,0.1,2.4c0,0.8,0.1,1.6,0.1,2.4c0,0.8,0.1,1.4,0.1,2.2c0,1,0.1,2,0.2,2.9c0,0.8,0.1,1.6,0.2,2.5
					c0.1,0.8,0.1,1.6,0.2,2.5c0,0.4,0.1,0.8,0.1,1.1c0,0.1,0,0.2,0.2,0.2c0.2,0,0.5,0,0.8,0c0.4,0,0.8,0,1.2-0.1
					C350.9,1010.7,351,1010.6,351.2,1010.6z M354,992.4c0.3,0,0.6,0.2,0.6,0.5c0,0.3-0.2,0.5-0.5,0.5c-0.3,0-0.5-0.2-0.6-0.6
					C353.5,992.6,353.7,992.4,354,992.4z"/>
				<path fill="#FFFFFF" d="M354.5,1022.3c-0.2,0.8,0.5,1.7,1.3,1.7c0.7,0,1.3-0.5,1.5-1.2c0.1-0.6,0.1-1.3,0-1.9
					c-0.2-1.3-0.5-2.7-0.8-3.9c-0.2-1-0.4-2.1-0.6-3.1c-0.1-0.8-0.3-1.6-0.3-2.4v0l-2.7,0.2c0.1,0.5,0.2,1,0.3,1.5
					c0.3,1.6,0.5,3.2,0.9,4.8c0.2,1,0.4,2,0.7,3c0,0.2,0,0.4,0,0.6C354.6,1021.8,354.5,1022,354.5,1022.3z"/>
				<path fill="#FFFFFF" d="M308.5,990.1c0.7,0,1.3,0,2-0.1c0,0,0,0,0-0.1c0.3-0.6,0-1.5-0.7-1.7c0-0.6,0.1-1.2,0-1.8
					c-0.1-0.8-0.1-1.8-0.5-2.4c-1-1.5-2.6-3.2-3.8-4.5c-0.9-1-1.8-1.1-3.1-1.1c-5.1,0-10.2-0.1-15.4-0.1c-1.6,0-2.3,0.6-2.3,2.2
					c0,2.5,0,5-0.1,7.7c-0.5,0-0.7,0.2-0.6,0.7c0,0.2,0,0.4,0,0.6c0,0.3,0.1,0.5,0.5,0.5c0.4,0,0.9,0,1.4,0c0.4,0,0.6-0.1,0.8-0.5
					c0.4-1.4,1.6-2.3,3-2.3c1.5,0,2.6,0.8,3,2.3c0.1,0.5,0.4,0.6,0.8,0.6c2.5,0,5,0,7.4,0.1c0.5,0,0.8-0.2,0.9-0.6
					c0.4-1.4,1.6-2.2,3-2.2c1.4,0,2.5,0.8,3,2.2C308.1,989.7,308.3,990.1,308.5,990.1z M307.2,983.9L307.2,983.9l-4.8,0.2
					c-0.3,0-0.6-0.2-0.6-0.5l0-3.5c0-0.3,0.3-0.6,0.7-0.6l1.5,0c0,0,0.1,0,0.2,0c0.2,0,0.3,0.1,3.5,3.7c0.1,0.1,0.2,0,0.2,0.2
					C307.8,983.9,307.5,983.9,307.2,983.9z"/>
				<path fill="#FFFFFF" d="M289.9,987.5c-1.5,0-2.8,1.2-2.8,2.8s1.2,2.8,2.8,2.8s2.8-1.2,2.8-2.8
					C292.6,988.8,291.4,987.6,289.9,987.5z"/>
				<path fill="#FFFFFF" d="M305,987.7c-1.5,0-2.8,1.2-2.8,2.8s1.2,2.8,2.8,2.8s2.8-1.2,2.8-2.8C307.8,989,306.6,987.7,305,987.7z"
					/>
				<path fill="#FFFFFF" d="M391.2,993.8c0-0.4-1.2-0.9-5.2-0.3c0,0,1-0.8,1.4-1c0.4-0.1,2.2-1.2,1.8-2.6c-0.3-1.4-0.8-0.5-1.5,0.5
					c-0.6,1.1-1.4,2.1-2.5,2.7c0,0-0.3-2.2-1.6-2.2c-0.4,0-2.1,0-3.9,0.2l-0.3,0c-0.2,0-0.5,0-0.7,0.1c0,0-0.1,0-0.1,0.1v2.3
					c0,0.2,0,0.3-0.2,0.3c-0.2,0-0.2-0.1-0.2-0.3v-2.3l0,0c-0.5,0-0.6,0.1-0.9,0.1c0,0-3.6,0.5-6,1.3h0c0,0-0.1,0-0.1,0
					c-0.1,0-0.3,0.1-0.4,0.1c-0.1,0-0.2,0-0.3,0.1c0,0,0,0-0.1,0c0,0-0.1,0-0.1,0l0,0c-0.4,0.2-0.8,0.3-1.2,0.5c0,0-0.4,0.2-0.1,0.8
					c0.1,0.3,2.2,1.2,6.1,1.8v-1.8c0-0.2,0-0.3,0.2-0.3c0.2,0,0.2,0.1,0.2,0.3v1.9c0.5,0,0.6,0,0.9,0.1l0.4,0
					c1.3,0.1,2.6,0.2,5.1,0.3v-1.5c0-0.2,0-0.3,0.2-0.3c0.2,0,0.2,0.1,0.2,0.3v1.5h0.4c0.5,0,0.8,0,1.3,0c0,0,1.3,0.1,1.4-2.3
					c0,0,2.2-0.4,2.1,2.2c-0.1,1.9,1.5,1.9,1.5,0.6c0-1.3-0.3-2.8-2.8-3.3c0,0,2,0.2,3.6,0.5C391,994.8,391.2,994.3,391.2,993.8z"/>
			</g>
			<g>
				<polygon fill="#FFFFFF" points="610.4,990.8 610,990.8 596.3,973.1 592.1,973.1 592.1,999.7 598,999.7 598,982 597.7,982 
					611.5,999.7 615.2,999.7 615.2,974.1 610.4,974.1 				"/>
				<polygon fill="#FFFFFF" points="624.6,999.7 637.4,999.7 637.4,994.8 629,994.8 629,988.4 637.4,988.4 637.4,983.9 629,983.9 
					629,977.5 637.4,977.5 637.4,974.1 624.6,974.1 				"/>
				<polygon fill="#FFFFFF" points="644.3,977.5 649.7,977.5 649.7,999.7 654.1,999.7 654.1,977.5 660.5,977.5 660.5,974.1 
					644.3,974.1 				"/>
				<polygon fill="#FFFFFF" points="688.9,991.8 688.9,991.8 683.4,973.1 680.4,973.1 675.2,991.8 675.2,991.8 669.9,974.1 
					664.5,974.1 672.9,999.7 676.6,999.7 681.5,983.9 681.6,983.9 686.8,999.7 690.5,999.7 699.4,974.1 694,974.1 				"/>
				<path fill="#FFFFFF" d="M717.6,972.9c-7.8,0-12.9,5.9-12.9,13.7c0,7.7,5,13.8,12.9,13.8c8,0,12.9-6.1,12.9-13.8
					C730.5,978.9,725.3,972.9,717.6,972.9z M717.6,995.4c-5.6,0-7.6-5-7.6-9c0-4.2,2.8-8.4,7.6-8.4c4.8,0,7.6,4.3,7.6,8.4
					C725.2,990.4,723.2,995.4,717.6,995.4z"/>
				<path fill="#FFFFFF" d="M753.8,981.7c0-5.6-3.6-7.6-8.7-7.6h-7.3v25.6h5.9v-10.3h-0.3l6.4,10.3h6.2l-7.4-10.9
					C752,988.2,753.8,985,753.8,981.7z M743.9,985.9h-0.2v-8.4h0.3c2.7,0,4.7,0.9,4.7,4.1C748.7,984.8,746.7,985.9,743.9,985.9z"/>
				<polygon fill="#FFFFFF" points="782.2,974.1 775.9,974.1 767.8,984.4 767.7,984.4 767.7,974.1 762.3,974.1 762.3,999.7 
					767.7,999.7 767.7,987.4 767.8,987.4 776.2,999.7 782.7,999.7 772.3,985.9 				"/>
				<path fill="#FFFFFF" d="M448.7,915.8c-12.8,0-21.2,9.7-21.2,22.4c0,12.6,8.1,22.6,21.2,22.6c13.1,0,21.2-10,21.2-22.6
					C469.8,925.6,461.4,915.8,448.7,915.8z M448.7,952.6c-9.2,0-12.5-8.1-12.5-14.7c0-6.9,4.7-13.9,12.5-13.9s12.5,7,12.5,13.9
					C461.2,944.5,457.9,952.6,448.7,952.6z"/>
				<path fill="#FFFFFF" d="M490.9,917.5h-11.4v42.3h7.9v-16.2h4.7c8.8,0,13.7-4.1,13.7-13.1C505.7,920.8,499.8,917.5,490.9,917.5z
					 M489.6,937.2h-2.2v-13.3h2c4.7,0,7.8,1,7.8,6.5C497.2,936,494.5,937.2,489.6,937.2z"/>
				<polygon fill="#FFFFFF" points="515.4,959.8 537.5,959.8 537.5,952.5 523.7,952.5 523.7,941.2 536.6,941.2 536.6,933.8 
					523.7,933.8 523.7,923.9 537.5,923.9 537.5,917.5 515.4,917.5 				"/>
				<polygon fill="#FFFFFF" points="576.9,946.1 577,946.1 554.5,915.6 548.4,915.6 548.4,959.8 557.2,959.8 557.2,930.3 557,930.3 
					579.5,960.8 585.7,960.8 585.7,917.5 576.9,917.5 				"/>
				<polygon fill="#FFFFFF" points="619.2,959.8 627.6,959.8 627.6,941.2 639.9,941.2 639.9,933.8 627.6,933.8 627.6,923.9 
					640.9,923.9 640.9,917.5 619.2,917.5 				"/>
				<path fill="#FFFFFF" d="M670.3,960.8c13,0,21.2-10,21.2-22.6c0-12.7-8.4-22.4-21.2-22.4c-12.8,0-21.2,9.7-21.2,22.4
					C649.2,950.8,657.3,960.8,670.3,960.8z M670.3,924c7.9,0,12.5,7,12.5,13.9c0,6.6-3.3,14.7-12.5,14.7c-9.2,0-12.5-8.1-12.5-14.7
					C657.8,931,662.4,924,670.3,924z"/>
				<path fill="#FFFFFF" d="M720.3,915.8c-12.8,0-21.2,9.7-21.2,22.4c0,12.6,8.1,22.6,21.2,22.6s21.2-10,21.2-22.6
					C741.5,925.6,733.1,915.8,720.3,915.8z M720.3,952.6c-9.2,0-12.5-8.1-12.5-14.7c0-6.9,4.7-13.9,12.5-13.9
					c7.9,0,12.5,7,12.5,13.9C732.9,944.5,729.6,952.6,720.3,952.6z"/>
				<path fill="#FFFFFF" d="M783.8,938.7c0-12.2-8.3-21.2-20.7-21.2H752v42.3h11.1C775.3,959.8,783.8,950.7,783.8,938.7z
					 M759.9,952.5v-28.6h1.1c9.4,0,14.2,5,14.2,14.3c0,8.4-4,14.3-14.2,14.3L759.9,952.5L759.9,952.5z"/>
			</g>
		</g>
	</g>
</g>
</svg>
