<?xml version="1.0" encoding="utf-8"?>
<!-- Generator: Adobe Illustrator 24.1.2, SVG Export Plug-In . SVG Version: 6.00 Build 0)  -->
<svg version="1.1" id="Layer_1" xmlns="http://www.w3.org/2000/svg" xmlns:xlink="http://www.w3.org/1999/xlink" x="0px" y="0px"
	 viewBox="0 0 13 13" style="enable-background:new 0 0 13 13;" xml:space="preserve">
<style type="text/css">
	.st0{fill:#008000;}
</style>
<path class="st0" d="M9.1,2.1l2,2.3c0.1,0.1,0.1,0.3,0,0.4l-4.9,5.5l-2.1,0.3c-0.3,0-0.5-0.2-0.5-0.5l0.2-2.4l4.9-5.5
	C8.9,2,9,2,9.1,2.1z M12.7,1.5l-1.1-1.2c-0.3-0.4-0.9-0.4-1.2,0L9.6,1.2c-0.1,0.1-0.1,0.3,0,0.4l2,2.3c0.1,0.1,0.2,0.1,0.3,0
	l0.8-0.9C13.1,2.5,13.1,1.9,12.7,1.5z M8.7,8.8v2.6H1.4V3.2h5.2c0.1,0,0.1,0,0.2-0.1l0.9-1c0.2-0.2,0-0.5-0.2-0.5H1.1
	C0.5,1.6,0,2.2,0,2.8v8.9C0,12.5,0.5,13,1.1,13H9c0.6,0,1.1-0.5,1.1-1.2v-4c0-0.3-0.3-0.4-0.5-0.2l-0.9,1C8.7,8.6,8.7,8.7,8.7,8.8z"
	/>
</svg>
