<?xml version="1.0" encoding="utf-8"?>
<!-- Generator: Adobe Illustrator 24.1.2, SVG Export Plug-In . SVG Version: 6.00 Build 0)  -->
<svg version="1.1" id="Capa_1" xmlns="http://www.w3.org/2000/svg" xmlns:xlink="http://www.w3.org/1999/xlink" x="0px" y="0px"
	 viewBox="0 0 800 800" style="enable-background:new 0 0 800 800;" xml:space="preserve">
<style type="text/css">
	.st0{fill:#008000;}
	.st1{fill:none;stroke:#9ACD32;stroke-width:6;stroke-miterlimit:10;}
</style>
<g>
	<g>
		<g>
			<g>
				<path class="st0" d="M307.9,311.9c4.7-12.2,11.3-22.7,19.8-31.6c8.5-8.9,18.8-15.9,30.8-20.9c12-5,25.4-7.5,40.3-7.5
					c19.2,0,35.2,2.6,48,7.9c12.8,5.3,23.2,11.8,31,19.6c7.8,7.8,13.4,16.3,16.8,25.3c3.4,9.1,5.1,17.5,5.1,25.3
					c0,12.9-1.7,23.6-5.1,32c-3.4,8.4-7.6,15.5-12.6,21.5c-5,5.9-10.5,11-16.6,15.2c-6.1,4.2-11.8,8.4-17.2,12.6
					c-5.4,4.2-10.2,9-14.4,14.4c-4.2,5.4-6.8,12.1-7.9,20.2v15.4h-54.7v-18.2c0.8-11.6,3-21.3,6.7-29.1c3.6-7.8,7.9-14.5,12.8-20.1
					c4.9-5.5,10-10.3,15.4-14.4c5.4-4.1,10.4-8.1,15-12.1c4.6-4.1,8.3-8.5,11.1-13.4c2.8-4.8,4.1-11,3.8-18.2
					c0-12.4-3-21.6-9.1-27.5c-6.1-6-14.5-8.9-25.3-8.9c-7.3,0-13.6,1.4-18.8,4.2s-9.6,6.6-13,11.4c-3.4,4.7-5.9,10.3-7.5,16.6
					c-1.6,6.4-2.4,13.2-2.4,20.5h-59.5C300.6,337.4,303.1,324.1,307.9,311.9z M429.2,485.7v62.4h-63.6v-62.4H429.2z"/>
			</g>
		</g>
	</g>
</g>
<circle class="st1" cx="400.8" cy="400" r="386.8"/>
</svg>
