<?xml version="1.0" encoding="UTF-8"?>
<svg width="28px" height="33px" enable-background="new 0 0 28 33" version="1.1" viewBox="0 0 28 33" xmlns="http://www.w3.org/2000/svg"><path d="M14,25c-6.059,0-10.988,1.679-10.988,3.333c0,2.485,10.307,4.542,10.746,4.643   C13.828,32.992,13.914,33,14,33c0.084,0,0.17-0.008,0.239-0.023c0.439-0.099,10.749-2.114,10.749-4.643   C24.988,26.679,20.059,25,14,25z" fill="#282828" opacity=".25"/><path d="M14,0C6.28,0,0,6.717,0,13.332c0,9.941,13.132,18.169,13.691,18.572C13.78,31.968,13.891,32,14,32    c0.107,0,0.217-0.031,0.305-0.094C14.864,31.511,28,23.45,28,13.332C28,6.717,21.72,0,14,0z" fill="#fff"/><g><g fill="#0b8c61"><path d="m14 0c-7.72 0-14 6.717-14 13.333 0 9.941 13.132 18.169 13.691 18.571 0.089 0.064 0.2 0.096 0.309 0.096 0.107 0 0.217-0.031 0.305-0.094 0.559-0.395 13.695-8.456 13.695-18.573 0-6.616-6.28-13.333-14-13.333zm9.5 12.057c0 0.863-0.567 1.661-1.325 1.942l-1.025 5.889c-0.015 0.976-0.889 1.831-1.94 1.831h-10.466c-1.052 0-1.925-0.855-1.947-1.906l-1.024-5.828c-0.737-0.294-1.273-1.075-1.273-1.928v-0.827c0-1.074 0.874-1.948 1.948-1.948h2.302l1.396-2.247c0.4-0.698 1.417-0.978 2.145-0.555 0.755 0.435 1.015 1.403 0.58 2.159l-0.41 0.642h2.662l-0.39-0.61c-0.227-0.391-0.284-0.823-0.174-1.235 0.109-0.406 0.37-0.745 0.734-0.955 0.716-0.417 1.739-0.148 2.159 0.579l1.381 2.223h2.718c1.074 0 1.948 0.874 1.948 1.948v0.826z"/><rect x="3.6006" y="6.9915" width="20.415" height="15.521"/><rect x="8.9841" y="5.6631" width="10.487" height="3.6356"/></g><text x="5.0698848" y="20.243376" fill="#000000" font-family="sans-serif" font-size="16px" style="line-height:1.25" xml:space="preserve"><tspan x="5.0698848" y="20.243376" fill="#ffffff" font-family="Arial" font-size="16px" font-weight="bold">1+</tspan></text></g></svg>