<?xml version="1.0" encoding="UTF-8" standalone="no"?>
<!-- Generator: Adobe Illustrator 17.1.0, SVG Export Plug-In . SVG Version: 6.00 Build 0)  -->

<svg
   xmlns:ns="&amp;ns_sfw;"
   xmlns:dc="http://purl.org/dc/elements/1.1/"
   xmlns:cc="http://creativecommons.org/ns#"
   xmlns:rdf="http://www.w3.org/1999/02/22-rdf-syntax-ns#"
   xmlns:svg="http://www.w3.org/2000/svg"
   xmlns="http://www.w3.org/2000/svg"
   xmlns:sodipodi="http://sodipodi.sourceforge.net/DTD/sodipodi-0.dtd"
   xmlns:inkscape="http://www.inkscape.org/namespaces/inkscape"
   version="1.1"
   id="Layer_1"
   x="0px"
   y="0px"
   width="28px"
   height="33px"
   viewBox="0 0 28 33"
   enable-background="new 0 0 28 33"
   xml:space="preserve"
   sodipodi:docname="green_hub.svg"
   inkscape:version="0.92.3 (2405546, 2018-03-11)"><defs
   id="defs25" /><sodipodi:namedview
   pagecolor="#ffffff"
   bordercolor="#666666"
   borderopacity="1"
   objecttolerance="10"
   gridtolerance="10"
   guidetolerance="10"
   inkscape:pageopacity="0"
   inkscape:pageshadow="2"
   inkscape:window-width="1041"
   inkscape:window-height="590"
   id="namedview23"
   showgrid="false"
   inkscape:zoom="7.1515152"
   inkscape:cx="-9.0021186"
   inkscape:cy="16.5"
   inkscape:window-x="752"
   inkscape:window-y="122"
   inkscape:window-maximized="0"
   inkscape:current-layer="g16" />
<metadata
   id="metadata2">
	<ns:sfw>
		<ns:slices />
		<ns:sliceSourceBounds
   height="96"
   width="16383"
   y="-85.5"
   x="-8112"
   bottomLeftOrigin="true" />
	</ns:sfw>
<rdf:RDF><cc:Work
     rdf:about=""><dc:format>image/svg+xml</dc:format><dc:type
       rdf:resource="http://purl.org/dc/dcmitype/StillImage" /><dc:title></dc:title></cc:Work></rdf:RDF></metadata>
<g
   id="g20">
	<path
   opacity="0.25"
   fill="#282828"
   d="M14,25c-6.059,0-10.988,1.679-10.988,3.333c0,2.485,10.307,4.542,10.746,4.643   C13.828,32.992,13.914,33,14,33c0.084,0,0.17-0.008,0.239-0.023c0.439-0.099,10.749-2.114,10.749-4.643   C24.988,26.679,20.059,25,14,25z"
   id="path4" />
	<g
   id="g18">
		<path
   fill="#FFFFFF"
   d="M14,0C6.28,0,0,6.717,0,13.332c0,9.941,13.132,18.169,13.691,18.572C13.78,31.968,13.891,32,14,32    c0.107,0,0.217-0.031,0.305-0.094C14.864,31.511,28,23.45,28,13.332C28,6.717,21.72,0,14,0z"
   id="path6" />
		<g
   id="g16">
			<path
   fill="#C1122B"
   d="M13.999,8.546c-1.24,0-2.249,1.009-2.249,2.248c0,1.242,1.009,2.253,2.249,2.253     c1.241,0,2.251-1.01,2.251-2.253C16.25,9.555,15.24,8.546,13.999,8.546z"
   id="path8"
   style="fill:#0b8c61;fill-opacity:1" />
			<path
   fill="#C1122B"
   d="M14,6.348c-2.453,0-4.448,1.995-4.448,4.448c0,0.859,0.468,3.112,3.602,8.541l0.387,0.671l0.134,0.225     l0.09,0.15l0.043,0.072l0.085,0.144l0.108,0.178l0.104-0.172l0.036-0.061l0.088-0.149l0.032-0.054l0.19-0.319l0.395-0.685     c3.134-5.44,3.602-7.687,3.602-8.542C18.448,8.343,16.452,6.348,14,6.348z M13.999,13.797c-1.654,0-2.999-1.347-2.999-3.003     c0-1.655,1.346-2.998,2.999-2.998c1.655,0,3.001,1.345,3.001,2.998C17,12.451,15.654,13.797,13.999,13.797z"
   id="path10"
   style="fill:#0b8c61;fill-opacity:1" />
			<path
   fill="#C1122B"
   d="M14,0C6.28,0,0,6.717,0,13.333c0,9.941,13.132,18.169,13.691,18.571C13.78,31.968,13.891,32,14,32     c0.107,0,0.217-0.031,0.305-0.094C14.864,31.511,28,23.45,28,13.333C28,6.717,21.72,0,14,0z M19.336,22.021     c-0.002,1.728-2.686,2.632-5.337,2.632c-2.652,0-5.337-0.905-5.337-2.634c0-1.158,1.352-2.099,3.465-2.462     c-1.721-3.01-3.577-6.721-3.577-8.76c0-3.004,2.444-5.448,5.448-5.448s5.448,2.444,5.449,5.447c0,2.036-1.858,5.75-3.578,8.762     C17.984,19.92,19.336,20.86,19.336,22.021z"
   id="path12"
   style="fill:#0b8c61;fill-opacity:1" />
			<path
   fill="#C1122B"
   d="M15.175,20.763c-0.029,0.048-0.059,0.1-0.088,0.148c-0.04,0.068-0.084,0.142-0.121,0.204     c-0.111,0.184-0.206,0.339-0.293,0.483c-0.021,0.03-0.042,0.066-0.061,0.096c-0.081,0.133-0.142,0.231-0.194,0.313     c-0.015,0.025-0.032,0.054-0.045,0.073c-0.052,0.082-0.08,0.125-0.08,0.125l-0.295,0.463l-0.293-0.463     c0,0-0.031-0.048-0.085-0.134c-0.006-0.009-0.013-0.023-0.019-0.029c-0.053-0.086-0.123-0.198-0.212-0.345     c-0.025-0.038-0.052-0.086-0.079-0.127c-0.083-0.136-0.17-0.278-0.274-0.448c-0.042-0.072-0.089-0.15-0.134-0.225     c-0.026-0.044-0.053-0.09-0.078-0.132l-0.381,0.061c-1.729,0.277-2.477,0.925-2.477,1.195c0,0.172,0.269,0.481,0.859,0.754     c0.8,0.37,1.926,0.574,3.172,0.574c2.608,0,4.031-0.878,4.031-1.329c0-0.269-0.748-0.917-2.476-1.195L15.175,20.763z"
   id="path14"
   style="fill:#0b8c61;fill-opacity:1" />
		</g>
	</g>
</g>
</svg>