<svg xmlns="http://www.w3.org/2000/svg" viewBox="0 0 300 104" enable-background="new 0 0 300 104"><g fill="#fff"><path d="M142.7 15.6c.4 3.2.4 7.5 0 10.7-.5 4.6-3.8 8.4-9.1 8.4s-8.5-3.8-9.1-8.4c-.4-3.2-.4-7.5 0-10.7.5-4.6 3.8-8.4 9.1-8.4s8.6 3.8 9.1 8.4m-5.3 10.7c.4-3.2.4-7.5 0-10.7-.2-1.7-1.4-3-3.7-3-2.3 0-3.5 1.4-3.7 3-.4 3.2-.4 7.5 0 10.7.2 1.7 1.4 3 3.7 3 2.3 0 3.5-1.3 3.7-3"/><path d="M156.4 7.6c4.4 0 8 3.6 8 8s-3.6 8-8 8H153c-.2 0-.4.2-.4.4v9.5c0 .4-.3.8-.8.8H148c-.4 0-.8-.3-.8-.8V8.4c0-.4.3-.8.8-.8h8.4zm-3.5 5.3c-.2 0-.4.2-.4.4v4.6c0 .2.2.4.4.4h3.4c1.4 0 2.7-1.2 2.7-2.7 0-1.4-1.2-2.7-2.7-2.7h-3.4zM172.9 28.6c0 .2.2.4.4.4h9c.4 0 .8.3.8.8v3.8c0 .4-.3.8-.8.8h-14c-.4 0-.8-.3-.8-.8V8.4c0-.4.3-.8.8-.8h13.8c.4 0 .8.3.8.8v3.8c0 .4-.3.8-.8.8h-8.9c-.2 0-.4.2-.4.4V18c0 .2.2.4.4.4h8.6c.4 0 .8.3.8.8V23c0 .4-.3.8-.8.8h-8.6c-.2 0-.4.2-.4.4v4.4zM199.4 34.3c-.6 0-.9-.3-1-.6l-5.2-13.4c-.1-.2-.3-.2-.3.1v13.2c0 .4-.3.8-.8.8h-3.8c-.4 0-.8-.3-.8-.8V8.4c0-.4.3-.8.8-.8h4.5c.6 0 .8.3 1 .7l5.2 14.5c.1.2.3.2.3-.1V8.4c0-.4.3-.8.8-.8h3.8c.4 0 .8.3.8.8v25.1c0 .4-.3.8-.8.8h-4.5zM224.4 24v9.5c0 .4-.3.8-.8.8h-3.8c-.4 0-.8-.3-.8-.8V8.4c0-.4.3-.8.8-.8h13.3c.4 0 .8.3.8.8v3.8c0 .4-.3.8-.8.8h-8.4c-.2 0-.4.2-.4.4V18c0 .2.2.4.4.4h8c.4 0 .8.3.8.8V23c0 .4-.3.8-.8.8h-8c-.1-.2-.3 0-.3.2M255.6 15.6c.4 3.2.4 7.5 0 10.7-.5 4.6-3.8 8.4-9.1 8.4s-8.5-3.8-9.1-8.4c-.4-3.2-.4-7.5 0-10.7.5-4.6 3.8-8.4 9.1-8.4s8.6 3.8 9.1 8.4m-5.3 10.7c.4-3.2.4-7.5 0-10.7-.2-1.7-1.4-3-3.7-3-2.3 0-3.5 1.4-3.7 3-.4 3.2-.4 7.5 0 10.7.2 1.7 1.4 3 3.7 3 2.3 0 3.5-1.3 3.7-3M278 15.6c.4 3.2.4 7.5 0 10.7-.5 4.6-3.8 8.4-9.1 8.4s-8.5-3.8-9.1-8.4c-.4-3.2-.4-7.5 0-10.7.5-4.6 3.8-8.4 9.1-8.4s8.5 3.8 9.1 8.4m-5.4 10.7c.4-3.2.4-7.5 0-10.7-.2-1.7-1.4-3-3.7-3-2.3 0-3.5 1.4-3.7 3-.4 3.2-.4 7.5 0 10.7.2 1.7 1.4 3 3.7 3 2.3 0 3.5-1.3 3.7-3"/><path d="M291.2 7.6c4.7 0 8 3.8 8.5 8.4.4 3.2.4 6.6 0 9.8-.5 4.6-3.8 8.4-8.5 8.4h-8c-.4 0-.8-.3-.8-.8v-25c0-.4.3-.8.8-.8h8zm-3 5.3c-.2 0-.4.2-.4.4v15.2c0 .2.2.4.4.4h3c1.8 0 2.9-1.4 3.1-3.1.4-3.2.4-6.6 0-9.8-.2-1.7-1.4-3.1-3.1-3.1h-3zM137.5 67.9c-.4 0-.6-.1-.8-.6l-9.1-20.8c-.1-.1-.3-.1-.3.1v20.6c0 .4-.3.7-.8.7h-.8c-.4 0-.8-.3-.8-.7V43.3c0-.4.3-.7.8-.7h2c.4 0 .6.1.8.6l9.1 20.6c.1.1.3.1.3-.1V43.3c0-.4.3-.7.8-.7h.8c.4 0 .8.3.8.7v23.9c0 .4-.3.7-.8.7h-2zM146.7 65.3c0 .2.2.4.4.4h9.9c.4 0 .8.3.8.7v.9c0 .4-.3.7-.8.7h-12c-.4 0-.8-.3-.8-.7v-24c0-.4.3-.7.8-.7h12c.4 0 .8.3.8.7v.9c0 .4-.3.7-.8.7h-9.9c-.2 0-.4.1-.4.4v8.2c0 .2.2.4.4.4h9.4c.4 0 .8.3.8.7v.8c0 .4-.3.7-.8.7h-9.4c-.2 0-.4.1-.4.4v8.8zM170 45.3v21.9c0 .4-.3.7-.8.7h-1c-.4 0-.8-.3-.8-.7V45.3c0-.2-.2-.4-.4-.4h-5.6c-.4 0-.8-.3-.8-.7v-.9c0-.4.3-.7.8-.7H176c.4 0 .8.3.8.7v.9c0 .4-.3.7-.8.7h-5.6c-.2 0-.4.2-.4.4M187 67.9h-2.1c-.3 0-.6-.2-.7-.5L179 43.3c-.1-.4.2-.7.8-.7h.9c.3 0 .6.1.7.5l4.3 20.7c0 .1.1.2.2.2h.1c.1 0 .2-.1.2-.2l4-20.7c.1-.4.4-.5.7-.5h1.3c.3 0 .6.2.7.5l4.3 20.7c0 .1.1.2.2.2h.1c.1 0 .2-.1.2-.2l4.6-20.7c.1-.4.4-.5.7-.5h.9c.6 0 .8.4.8.7l-5.5 24.1c-.1.4-.4.5-.7.5h-2.1c-.3 0-.6-.2-.7-.5l-4-19.3c0-.2-.3-.2-.3 0l-3.8 19.3c0 .4-.3.5-.6.5M223.9 49.8c.4 2.9.4 7.9 0 10.9-.6 4.7-3.9 7.5-8.5 7.5s-7.8-2.9-8.5-7.5c-.4-2.9-.4-8 0-10.9.6-3.9 3.5-7.5 8.5-7.5s7.9 3.6 8.5 7.5m-2.6 10.9c.5-3 .5-7.9 0-10.9-.4-2.6-2.3-5.2-5.9-5.2-3.6 0-5.5 2.6-5.9 5.2-.5 3-.5 7.9 0 10.9.3 2.1 1.8 5.2 5.9 5.2 4.1 0 5.6-3.1 5.9-5.2"/><path d="M230.9 57.8c-.2 0-.4.1-.4.4v9c0 .4-.3.7-.8.7h-.9c-.4 0-.8-.3-.8-.7V43.3c0-.4.3-.7.8-.7h6.5c4.4 0 8 3.4 8 7.6 0 3.3-1.8 5.2-4.5 6.9-.5.3-.6.6-.3 1.2l4.8 8.6c.3.5 0 1.1-.7 1.1h-.8c-.6 0-.9-.3-1.1-.7l-4.9-9c-.1-.2-.3-.4-.7-.4h-4.2zm0-12.9c-.2 0-.4.1-.4.4v9.8c0 .2.2.4.4.4h4.4c3 0 5.6-2.4 5.6-5.3s-2.5-5.3-5.6-5.3h-4.4zM249.3 57.1c-.1-.1-.3-.1-.3.1v10c0 .4-.3.7-.8.7h-.9c-.4 0-.8-.3-.8-.7V43.3c0-.4.3-.7.8-.7h.9c.4 0 .8.3.8.7v9.6c0 .2.2.2.3.1l8.8-10c.1-.1.4-.4 1-.4h.6c.9 0 1.1.8.6 1.3l-9.4 10.5c-.2.3-.3.5 0 .9L261 66.6c.4.5.3 1.3-.7 1.3h-.8c-.6 0-.8-.3-1-.5l-9.2-10.3zM133.1 91.2c-.1-.3-.3-.4-.6-.4h-6c-.3 0-.5.1-.6.4l-1.4 4.9c-.1.3-.3.4-.6.4h-.7c-.5 0-.7-.3-.6-.6l5.6-19.4c.1-.3.3-.4.6-.4h1.5c.3 0 .5.2.6.4l5.6 19.4c.1.3-.1.6-.6.6h-.7c-.3 0-.5-.2-.6-.4l-1.5-4.9zm-.7-2.6l-2.7-9.9c0-.1-.1-.2-.1-.2h-.1c-.1 0-.1.1-.1.2l-2.7 9.9c-.1.2.1.3.2.3h5.1c.3 0 .4 0 .4-.3"/><path d="M150.4 90.5c0 3.5-2.8 6.3-6.3 6.3s-6.3-2.8-6.3-6.3V76.7c0-.3.3-.6.6-.6h.7c.3 0 .6.3.6.6v13.8c0 2.3 1.9 4.4 4.4 4.4 2.5 0 4.4-2.1 4.4-4.4V76.7c0-.3.3-.6.6-.6h.7c.3 0 .6.3.6.6v13.8zM158.4 86.4c-2.1-.5-4.9-1.6-4.9-5 0-3.5 2.7-5.5 5.7-5.5 3.4 0 5.7 2.5 5.7 5.5v.4c0 .3-.3.6-.6.6h-.7c-.3 0-.6-.3-.6-.6v-.4c0-2.1-1.6-3.6-3.8-3.6-2.6 0-3.8 1.8-3.8 3.6 0 2.6 2.7 2.9 4.8 3.5 3.2 1 5.3 2.2 5.3 5.8 0 3.8-3 6.1-6.3 6.1-3.8 0-6.3-2.7-6.3-6.1v-.5c0-.3.3-.6.6-.6h.7c.3 0 .6.3.6.6v.5c0 2 1.5 4.2 4.4 4.2 2.7 0 4.4-1.7 4.4-4.2 0-2.7-1.9-3.5-5.2-4.3M173.5 78.3V96c0 .3-.3.6-.6.6h-.7c-.3 0-.6-.3-.6-.6V78.3c0-.2-.1-.3-.3-.3H167c-.3 0-.6-.3-.6-.6v-.7c0-.3.3-.6.6-.6h11.1c.3 0 .6.3.6.6v.7c0 .3-.3.6-.6.6h-4.3c-.2 0-.3.1-.3.3"/><path d="M182.9 88.4c-.2 0-.3.1-.3.3V96c0 .3-.3.6-.6.6h-.7c-.3 0-.6-.3-.6-.6V76.7c0-.3.3-.6.6-.6h5c3.4 0 6.1 2.7 6.1 6.1 0 2.6-1.4 4.2-3.5 5.6-.4.2-.4.5-.2.9l3.7 6.9c.2.4 0 .9-.6.9h-.6c-.5 0-.7-.2-.8-.6l-3.7-7.2c-.1-.2-.2-.4-.6-.4h-3.2zm0-10.4c-.2 0-.3.1-.3.3v7.9c0 .2.1.3.3.3h3.4c2.3 0 4.3-1.9 4.3-4.3 0-2.3-1.9-4.3-4.3-4.3h-3.4zM204.8 91.2c-.1-.3-.3-.4-.6-.4h-6c-.3 0-.5.1-.6.4l-1.4 4.9c-.1.3-.3.4-.6.4h-.6c-.5 0-.7-.3-.6-.6l5.6-19.4c.1-.3.3-.4.6-.4h1.5c.3 0 .5.2.6.4l5.6 19.4c.1.3-.1.6-.6.6h-.7c-.3 0-.5-.2-.6-.4l-1.6-4.9zm-.7-2.6l-2.7-9.9c0-.1-.1-.2-.1-.2h-.1c-.1 0-.1.1-.1.2l-2.7 9.9c-.1.2.1.3.2.3h5.1c.3 0 .4 0 .4-.3"/><path d="M212.2 94.4c0 .2.1.3.3.3h7.2c.3 0 .6.3.6.6v.7c0 .3-.3.6-.6.6H211c-.3 0-.6-.3-.6-.6V76.7c0-.3.3-.6.6-.6h.7c.3 0 .6.3.6.6v17.7zM224.5 95.9c0 .3-.3.6-.6.6h-.7c-.3 0-.6-.3-.6-.6V76.7c0-.3.3-.6.6-.6h.7c.3 0 .6.3.6.6v19.2zM237.1 91.2c-.1-.3-.3-.4-.6-.4h-6c-.3 0-.5.1-.6.4l-1.4 4.9c-.1.3-.3.4-.6.4h-.7c-.5 0-.7-.3-.6-.6l5.6-19.4c.1-.3.3-.4.6-.4h1.5c.3 0 .5.2.6.4l5.6 19.4c.1.3-.1.6-.6.6h-.7c-.3 0-.5-.2-.6-.4l-1.5-4.9zm-.7-2.6l-2.7-9.9c0-.1-.1-.2-.1-.2h-.1c-.1 0-.1.1-.1.2l-2.7 9.9c-.1.2.1.3.2.3h5.1c.3 0 .4 0 .4-.3M3 44.3h.5c1.2 0 2.2-.9 2.4-2 .5-2.4 1.1-4.7 2-7 6.6-18.2 23.5-30.4 42-30.4s35.4 12.2 42 30.3c.8 2.2 1.5 4.6 2 6.9.3 1.3 1.6 2.2 2.9 1.9 1.3-.3 2.2-1.6 1.9-2.9-.5-2.6-1.3-5.1-2.2-7.6C89.2 13.5 70.5 0 49.9 0S10.6 13.5 3.3 33.6c-.9 2.5-1.6 5.1-2.2 7.7v.2l2.4.5-2.4-.5c-.3 1.3.6 2.6 1.9 2.8M99.8 53c.1-1-.4-2-1.4-2.5-3.4-1.6-7.7-3.1-12.5-4.2-1.5-.4-3.1-.7-4.7-1-3.3-.6-6.9-1.2-10.7-1.6-.7-7.4-3.9-12.8-9.5-16.6-6.3-4.2-14.1-4.4-20.9-.6-6.6 3.6-10.8 10.1-11.1 17.3-11.1 1.4-20.8 3.8-27.6 7.1-.1 0-.1.1-.2.1s-.1.1-.2.1l-.1.1c-.1.1-.2.1-.2.2-.4.4-.6 1-.6 1.6 0 1.4.1 2.7.2 4.1 0 .4.1.7.1 1.1.3 2.6.8 5.2 1.5 7.7.2.7.3 1.4.5 2 .3.9.6 1.7.9 2.6.7 1.8 1.4 3.6 2.2 5.2.8 1.6 1.7 3.1 2.6 4.6.7 1.2 1.5 2.3 2.4 3.5 1 1.3 2 2.6 3.2 3.8 1.5 1.7 3.1 3.2 4.8 4.6 1.4 1.2 2.9 2.3 4.4 3.3 1.9 1.3 3.8 2.4 5.9 3.4 2 .9 4 1.8 6.1 2.4 2.1.7 4.3 1.2 6.5 1.6 2.8.5 5.7.8 8.7.8h.1c13.6 0 26.5-5.9 35.8-15.9 1.8-1.9 3.4-3.9 4.9-6.1.2-.2.3-.5.5-.7 1.5-2.4 2.9-4.8 4-7.4.9-2 1.6-4 2.2-6 1.3-4.5 2.1-9.5 2.2-14.6 0 .1 0 .1 0 0m-14.1-1.7c3.3.8 6.3 1.8 8.9 2.9-3.4 1.6-6.7 2.9-9.9 4.1-1.9.7-3.7 1.2-5.5 1.7-3.5 1-7.1 1.6-10.7 2 1.3-4.4 2-8.8 2.2-13.4 3.6.4 7 1 10.2 1.6 1.7.4 3.3.7 4.8 1.1m-13 23.1c-3.2.4-6.5.6-9.7.6 1.5-2.5 2.7-5.2 3.8-7.8 3.6-.2 7-.7 10.4-1.5-1.3 2.9-2.8 5.8-4.5 8.7m-9.8 12.5c-2.8 0-5.6-.1-8.4-.5 1.9-2.1 3.7-4.3 5.4-6.5 1.2.1 2.5.1 3.7.1 1.8 0 3.7-.1 5.5-.2-1.9 2.4-4 4.8-6.2 7.1m-22.7-4.5c1.6-1.7 3-3.4 4.4-5.2 3.2.9 6.4 1.6 9.5 2-1.7 2.1-3.5 4.1-5.4 6-2.8-.7-5.6-1.6-8.5-2.8M6.6 65c-.5-1.9-.9-3.8-1.2-5.8 7.2-1.8 16.6-1.4 26.2 1.3-.9 2-2 3.9-3.2 5.8C19.3 64 11.6 64.2 6.6 65m50.7 9.7c-3.2-.3-6.5-.9-9.8-1.7 1.4-2.2 2.6-4.5 3.7-6.9 3.5.6 6.8 1 10.1 1.1-1.1 2.5-2.4 5.1-4 7.5m-14.6-3.3c-1.5-.5-3-1.1-4.5-1.8-1.7-.7-3.3-1.3-4.9-1.9 1.1-1.9 2.2-3.8 3.1-5.8 3.5 1.2 6.8 2.2 10 3-1.1 2.3-2.4 4.5-3.7 6.5m-12.2.6c1.8.6 3.8 1.3 5.7 2.2 1.2.5 2.3 1 3.5 1.4-1.3 1.7-2.8 3.3-4.3 4.8-3.1-1.2-6.2-2.3-9.3-3 1.5-1.8 3-3.6 4.4-5.4m12-41.3c5.2-2.9 11.1-2.7 15.8.4 4.2 2.8 6.5 6.7 7.3 12-5-.4-10.2-.6-15.5-.6-5.5 0-10.9.3-16 .7.4-5.1 3.5-9.8 8.4-12.5M50 47.5h2.1c1 0 2 0 3.1.1 3.6.1 7.2.3 10.6.6-.2 4.8-1 9.5-2.5 14.1-3.2 0-6.5-.3-10-.9-1.6-.3-3.2-.6-4.9-1-3.2-.7-6.6-1.7-10.2-3-.1 0-.2-.1-.3-.1-1.5-.5-2.9-1-4.4-1.4-9.6-2.8-18.9-3.5-26.7-2 10.3-4.1 26.1-6.4 43.2-6.4M8.2 69.7c4.2-.5 10.1-.7 17.2.9-1.5 1.9-3.2 3.8-5 5.5-3.3-.5-6.5-.8-9.6-.7-1-1.8-1.9-3.7-2.6-5.7m9.5 15.2c-1.1-1.2-2.2-2.4-3.2-3.8-.2-.3-.4-.5-.6-.8.5 0 1 0 1.5.1 2 .2 4.2.4 6.5.9 2.8.6 6 1.5 9.3 2.7-2.5 2.1-5.3 4.1-8.2 5.8-1.8-1.4-3.6-3.1-5.3-4.9m9.9 8c3.2-2 6.1-4.3 8.8-6.8 2.7 1.2 5.3 2.2 8 2.9-3 2.6-6.3 5.1-10 7.1-2.4-.8-4.7-1.9-6.8-3.2m13.1 5.2c3.5-2.3 6.6-5 9.4-7.5 2.7.5 5.3.9 7.9 1.1-3.2 3-6.3 5.4-9.4 7.4-2.6-.2-5.3-.5-7.9-1m17.1.2c2.4-1.9 4.7-4.1 7.2-6.6 3.6-.1 7.2-.6 10.8-1.3-5.3 4-11.5 6.7-18 7.9m28.9-19.1c-1.1 1.6-2.3 3.1-3.5 4.5-4.4 1.2-8.8 2.2-13.2 2.7 2.1-2.4 3.9-4.9 5.6-7.5 4.4-.7 8.8-1.7 13.1-3-.7 1.2-1.3 2.2-2 3.3m-7.8-5.9c1.6-3.1 3-6.2 4.1-9.3 3.7-1.2 7.4-2.6 11.3-4.3-.5 3.5-1.5 6.9-2.7 10.2-4.2 1.4-8.4 2.5-12.7 3.4"/></g></svg>